<?xml version="1.0" encoding="utf-8"?>
<!-- Generator: Adobe Illustrator 25.4.1, SVG Export Plug-In . SVG Version: 6.00 Build 0)  -->
<svg version="1.1" id="Layer_1" xmlns="http://www.w3.org/2000/svg" xmlns:xlink="http://www.w3.org/1999/xlink" x="0px" y="0px"
	 viewBox="0 0 420.3 400" style="enable-background:new 0 0 420.3 400;" xml:space="preserve">
<style type="text/css">
	.st0{fill:#22CC88;}
	.st1{fill:#E88280;}
	.st2{opacity:0.4;fill:#827C62;}
	.st3{opacity:0.4;}
	.st4{fill:#4A130C;}
	.st5{opacity:0.3;}
	.st6{fill:none;stroke:#500B04;stroke-width:1.5;stroke-linecap:round;stroke-linejoin:round;stroke-miterlimit:10;}
	.st7{fill:#500B04;stroke:#500B04;stroke-miterlimit:10;}
	.st8{fill:#6D332A;}
	.st9{fill:#500B04;}
	.st10{fill:none;stroke:#8F4C4C;stroke-width:3;stroke-miterlimit:10;}
	.st11{fill:none;stroke:#500B04;stroke-width:3;stroke-miterlimit:10;}
</style>
<g>
	<g>
		<path class="st0" d="M399.1,50.1c0,0,0.1,0.2,0.1,0.3C399.3,50.3,399.1,50.1,399.1,50.1z"/>
		<polygon class="st0" points="399.3,49.3 399.3,49.4 399.3,49.1 		"/>
		<path class="st0" d="M399.7,49.1c-0.3-0.4-0.1,0.2-0.3,0.1l-0.1-0.1l0.1,0.3C399.6,49.3,399.6,49,399.7,49.1z"/>
		<path class="st0" d="M400.4,49.8C400.3,49.7,400.4,49.7,400.4,49.8C400.4,49.8,400.4,49.8,400.4,49.8
			C400.4,49.8,400.4,49.8,400.4,49.8z"/>
		<path class="st0" d="M400.4,49.8C400.4,49.9,400.5,50,400.4,49.8L400.4,49.8z"/>
		<path class="st0" d="M400.5,49.6l0,0.2c0.1,0.1,0.1,0.1,0.2,0.2C400.7,49.8,400.7,49.8,400.5,49.6z"/>
		<path class="st0" d="M400.4,49.3L400.4,49.3C400.5,49.4,400.5,49.4,400.4,49.3z"/>
		<path class="st0" d="M400.4,49.5l0-0.2C400.4,49.3,400.3,49.2,400.4,49.5C400.4,49.3,400.4,49.4,400.4,49.5z"/>
		<path class="st0" d="M400.4,49.5c-0.1-0.1-0.2-0.1-0.2-0.3C400.1,49.3,400.3,49.6,400.4,49.5z"/>
		<path class="st0" d="M399.5,48.6l-0.1-0.1L399.5,48.6C399.4,48.6,399.6,48.8,399.5,48.6z"/>
		<path class="st0" d="M401,49.6c0-0.1-0.2-0.2-0.2-0.3l0,0.1C400.9,49.5,401,49.5,401,49.6z"/>
		<path class="st0" d="M400.8,49.3l0-0.2C400.7,49.1,400.8,49.2,400.8,49.3z"/>
		<polygon class="st0" points="400.2,48.8 400.3,49.2 400.2,48.8 		"/>
		<polygon class="st0" points="401.3,49.5 401.4,49.7 401.3,49.4 		"/>
		<path class="st0" d="M401.4,49.3c0.1,0.2,0.2,0.3,0.2,0.4c0-0.1,0-0.2,0-0.4C401.6,49.4,401.6,49.4,401.4,49.3z"/>
		<path class="st0" d="M401.6,49.1c0,0.1,0,0.1,0.1,0.2C401.6,49.3,401.6,49.2,401.6,49.1z"/>
		<path class="st0" d="M400.9,49.1c0,0,0.1,0.2,0.2,0.2L400.9,49.1L400.9,49.1z"/>
		<path class="st0" d="M401,49.1L401,49.1C401,49.1,401,49.1,401,49.1C401,49.1,401,49.1,401,49.1z"/>
		<path class="st0" d="M400.9,49.1L400.9,49.1C400.9,49.1,400.9,49.1,400.9,49.1z"/>
		<path class="st0" d="M400.5,49c0-0.2,0-0.3-0.2-0.5C400.3,48.6,400.4,48.7,400.5,49z"/>
		<path class="st0" d="M400.7,48.8L400.7,48.8c-0.1,0,0,0.1,0,0.2L400.7,48.8z"/>
		<polygon class="st0" points="400.7,48.7 400.7,48.8 400.8,48.8 		"/>
		<path class="st0" d="M401.3,49c0-0.1,0-0.1,0-0.2c-0.1,0-0.1,0-0.2,0C401.2,48.9,401.3,49,401.3,49z"/>
		<path class="st0" d="M401.1,49L401.1,49C401.1,49,401.1,49,401.1,49z"/>
		<path class="st0" d="M401.7,48.6C401.7,48.6,401.7,48.5,401.7,48.6L401.7,48.6L401.7,48.6z"/>
		<path class="st0" d="M401.2,48.7c-0.1,0,0,0,0,0.1C401.1,48.8,401.2,48.8,401.2,48.7C401.2,48.8,401.2,48.7,401.2,48.7z"/>
		<path class="st0" d="M401.6,49c0,0-0.1-0.1-0.1-0.1C401.5,48.9,401.6,49,401.6,49z"/>
		<path class="st0" d="M401.2,49L401.2,49C401.2,49.1,401.2,49.1,401.2,49z"/>
		<path class="st0" d="M401.2,49c0,0,0-0.1,0-0.2C401.1,48.9,401.1,48.9,401.2,49C401.1,49,401.2,49,401.2,49z"/>
		<path class="st0" d="M400.9,47c0.1,0.2,0.2,0.5,0,0.3c0,0.2,0.5,0.9,0.8,1.3c-0.1-0.1-0.1-0.2-0.1-0.4c-0.1-0.1-0.3-0.2-0.4-0.4
			c0-0.2,0.1,0,0.2,0.1c-0.2-0.3-0.1-0.5-0.4-0.9l0,0.2C401,47.1,401,47,400.9,47z"/>
		<path class="st0" d="M401.5,48.6L401.5,48.6c0,0.1,0.1,0.1,0.3,0.3c0-0.1-0.1-0.2-0.1-0.3L401.5,48.6L401.5,48.6z"/>
		<path class="st0" d="M401.4,48.7c-0.1-0.3-0.1-0.4-0.3-0.6c-0.1,0.1,0.1,0.2,0.1,0.4C401.3,48.3,401.2,48.6,401.4,48.7
			C401.4,48.7,401.4,48.8,401.4,48.7c0,0.1,0,0.1,0.1,0.2l0,0l0,0l0,0c0,0,0,0,0,0C401.5,48.8,401.5,48.8,401.4,48.7
			C401.4,48.8,401.4,48.7,401.4,48.7C401.5,48.7,401.4,48.8,401.4,48.7l0.1,0.1l0,0l0.1-0.2C401.5,48.6,401.5,48.6,401.4,48.7z"/>
		<path class="st0" d="M400,47.9C400,47.9,400,47.9,400,47.9C400,47.9,400,47.9,400,47.9z"/>
		<path class="st0" d="M400.2,48c0,0,0.1,0.1,0,0.1C400.1,48.1,400.1,48,400.2,48c-0.1,0-0.1,0.2,0.1,0.2l0,0
			c0.1,0.1,0.3,0.3,0.4,0.4C400.4,48.3,400.3,48.2,400.2,48z"/>
		<path class="st0" d="M400.8,48.3l0-0.2l-0.2-0.2l0.1,0.1C400.6,48,400.7,48.2,400.8,48.3z"/>
		<polygon class="st0" points="401.8,48.7 401.9,49 401.8,48.6 		"/>
		<polygon class="st0" points="401.9,48.6 402.1,48.8 402,48.6 		"/>
		<path class="st0" d="M408.7,41.1L408.7,41.1C408.7,41.1,408.7,41.1,408.7,41.1z"/>
		<path class="st0" d="M408.5,41.2l0.1,0.1C408.5,41.3,408.5,41.2,408.5,41.2z"/>
		<path class="st0" d="M405.5,46.5c0.2,0.2,0.4,0.5,0.2,0.2L405.5,46.5C405.6,46.5,405.6,46.5,405.5,46.5z"/>
		<path class="st0" d="M407.2,43.6L407.2,43.6c0,0,0,0.1,0,0.2C407.2,43.8,407.2,43.7,407.2,43.6z"/>
		<path class="st0" d="M406.6,42.6l0.2,0.1C406.7,42.7,406.7,42.6,406.6,42.6z"/>
		<path class="st0" d="M410,40.1l-0.1-0.3C409.8,39.9,409.9,40,410,40.1z"/>
		<path class="st0" d="M403.4,47.6c0.1,0.1,0.2,0.1,0.2,0.1C403.4,47.6,403.3,47.4,403.4,47.6z"/>
		<path class="st0" d="M410,43.8c0-0.1,0-0.1,0-0.2C410,43.7,410,43.8,410,43.8z"/>
		<path class="st0" d="M403.7,47.6C403.7,47.6,403.6,47.6,403.7,47.6c-0.1,0-0.1,0.1-0.1,0.1C403.7,47.8,403.7,47.8,403.7,47.6z"/>
		<path class="st0" d="M415.2,38C415.2,38,415.2,38,415.2,38C415.2,38,415.2,38,415.2,38z"/>
		<path class="st0" d="M417.7,40C417.7,40,417.7,40.1,417.7,40C417.7,40.1,417.7,40.1,417.7,40z"/>
		<path class="st0" d="M402.6,48.3C402.6,48.4,402.6,48.4,402.6,48.3L402.6,48.3z"/>
		<path class="st0" d="M401.9,47.5c0,0,0-0.1-0.1-0.1C401.8,47.4,401.9,47.4,401.9,47.5z"/>
		<path class="st0" d="M403.1,45.9L403.1,45.9C403.1,45.9,403.1,45.9,403.1,45.9z"/>
		<path class="st0" d="M402.5,48.3C402.5,48.3,402.5,48.3,402.5,48.3C402.5,48.3,402.5,48.3,402.5,48.3z"/>
		<path class="st0" d="M402.5,48.4C402.5,48.4,402.5,48.4,402.5,48.4C402.5,48.4,402.5,48.4,402.5,48.4z"/>
		<path class="st0" d="M402.6,48.3C402.6,48.3,402.6,48.3,402.6,48.3C402.6,48.3,402.6,48.3,402.6,48.3
			C402.6,48.3,402.6,48.3,402.6,48.3z"/>
		<path class="st0" d="M412.7,39.9C412.7,39.9,412.7,39.9,412.7,39.9C412.7,39.8,412.7,39.8,412.7,39.9z"/>
		<polygon class="st0" points="404.9,43.5 404.9,43.5 404.9,43.5 		"/>
		<path class="st0" d="M404.9,43.2c0.1,0.3,0.1,0.3,0,0.3l0.4,0.7L404.9,43.2z"/>
		<path class="st0" d="M409.3,40.7l-0.2-0.2c-0.1-0.4,0-0.3-0.2-0.6c0.4,0.8-0.3,0.2,0.1,1l-0.1-0.1c0,0,0,0,0-0.1
			c-0.3-0.3,0.2,0.6,0,0.6c-0.1,0-0.2-0.1-0.2-0.2l0,0.3c0,0-0.1-0.1-0.1-0.1l-0.1,0.1l0,0c0,0.1,0.1,0.4,0.1,0.4
			c-0.1-0.1,0-0.1-0.1-0.2l0,0.2c-0.1-0.2-0.2-0.4-0.1-0.4c-0.5-0.7,0,0.2-0.4-0.1l0-0.1c-0.3-0.4-0.3-0.2-0.5-0.5
			c0.1,0.1,0.6,0.6,0.6,0.8c-0.1,0-0.1-0.1-0.1,0.1c-0.1-0.3-0.2-0.2-0.2-0.1l-0.2-0.4c0,0.1,0.1,0.3,0.1,0.5
			c-0.1,0-0.3-0.3-0.4-0.5c-0.2,0,0.3,0.4,0.2,0.6c-0.2-0.1-0.2,0.1-0.2,0.4c-0.1-0.1-0.1-0.2-0.2-0.3l0.1,0.3c0,0-0.1-0.1-0.1-0.1
			c0,0.1,0.2,0.4,0.2,0.5c0.2,0.4-0.5-0.5-0.3,0c-0.1-0.1-0.1-0.2-0.2-0.4c0,0.4,0,0.3,0.1,0.7l-0.2-0.2c0.2,0.2,0.3,0.6,0.4,0.9
			c0.1,0.1,0.2,0.2,0.2,0.3l0,0.3c-0.1-0.1-0.1-0.2-0.2-0.3c0,0,0,0.1,0,0.1c-0.1-0.1-0.2-0.3-0.3-0.6c0,0.1,0.1,0.1,0.2,0.2
			c-0.1-0.2-0.2-0.5-0.3-0.7c0,0,0,0.1,0,0.1c0-0.1,0-0.1-0.1-0.2c0,0,0,0.1,0,0.2l-0.3-0.4l0.1,0.2l-0.3-0.2
			c0.1,0.5,0.3,1.1,0.2,1.4c-0.1-0.3-0.3-0.5-0.5-0.9c0.3,0.3,0.1-0.2,0.2-0.2c-0.1,0-0.2-0.2-0.2-0.2l0,0.4
			c-0.2-0.3-0.2-0.2-0.3-0.3c0.3,0.5,0.1,0.5,0.1,0.7c-0.1-0.2-0.2-0.4-0.1-0.4c-0.3-0.4,0.3,0.7,0,0.4c0,0,0,0,0-0.1
			c0,0.2-0.2,0.1-0.2-0.1l0,0c-0.2,0-0.4,0.2-0.2,0.7c0-0.1-0.3-0.6-0.4-0.7l0.7,1.8c-0.2-0.4-0.9-1.4-0.9-1.7
			c-0.1,0-0.2-0.1-0.1,0.1c0.1,0.1,0.4,0.6,0.4,0.6c-0.3-0.4-0.2-0.2-0.5-0.6c0.1,0.1,0.4,0.7,0.3,0.8c0-0.1-0.4-0.6-0.4-0.7
			l0.2,0.7c0-0.1-0.3-0.5-0.4-0.7c0.1,0.1-0.1,0.1-0.1,0.1l0.1,0.1c-0.2,0,0.4,1,0.2,1c-0.1-0.1-0.4-0.8-0.5-0.9
			c0.2,0.4,0.7,1.7,0.8,2l-0.1-0.2l0,0.3c-0.2-0.5-0.6-1.7-0.8-2.1c-0.1-0.1-0.1-0.2-0.2-0.2c-0.1-0.2-0.1-0.3-0.1-0.3l-0.3,0
			c0.2,0.4,0.1,0.5,0.3,0.8l0-0.5c0.2,0.4,0.5,1.2,0.3,1.2c-0.1-0.1-0.4-0.7-0.4-0.8c0.1,0.1,0,0.3-0.1,0.2l-0.1-0.2
			c-0.2-0.1,0.2,0.6-0.1,0.3c0,0-0.4-0.4-0.2-0.2c0.3,0.4,1.1,1.7,1.2,2.1c0,0-0.4-0.3-0.6-0.5c-0.2-0.3-0.4-0.9-0.6-1.1
			c0.1,0.1,0.1,0.3,0.1,0.3c-0.1-0.1-0.2-0.3-0.2-0.2c0.2,0.4-0.2,0.1,0.2,0.3c0,0.2-0.1,0-0.2,0c0.2,0.2,0.4,0.9,0.4,1
			c-0.1-0.1-0.1-0.2-0.2-0.3c-0.2,0-0.3-0.1-0.5,0c-0.1-0.1-0.2-0.2-0.3-0.3c0,0.1,0.1,0.2,0,0.2c-0.3-0.3,0.1-0.1-0.2-0.5
			c0.1,0.2,0.1,0.4,0.1,0.5c0.2,0.3,0.2,0,0.2-0.2c0.3,0.5,0.5,1,0.5,1.3c0,0.2-0.2-0.3-0.2-0.2c-0.3,0,0.3,0.9-0.1,0.7
			c-0.2-0.3-0.3-0.6-0.5-0.8c0-0.2,0.3,0.1,0.3,0.1l-0.2-0.1c0-0.1,0-0.2,0.1-0.2c-0.2-0.2-0.4,0.2-0.7,0c0,0.1,0,0.3,0.1,0.4l0-0.1
			c0.2,0.2,0.1,0.4,0.2,0.5c0,0.2,0.1,0.5-0.1,0.4l-0.2-0.3c0.1,0.1,0.2,0.2,0.2,0c0,0.2-0.4-0.4-0.2,0.1l0.2,0.2
			c0,0.2,0.2,0.6,0,0.6c0.2,0.3,0,0,0.3,0.3c-0.3-0.5,0.2-0.1-0.1-0.6c0.3,0.4,0.2,0.1,0.5,0.5c-0.1-0.1-0.2-0.2,0-0.2
			c0,0,0-0.1,0-0.1l0,0l0,0c0,0,0,0,0,0c0,0-0.1-0.1-0.1-0.2c-0.1-0.3,0-0.3,0-0.5c0.1,0,0.1,0.1,0.2,0.2l-0.1-0.2
			c0.2,0.3,0.4,0.4,0.3,0.6l0.1,0c0.1,0.1,0.2,0.1,0.2,0c0.1,0-0.1-0.3,0-0.1l0.1-0.2l0,0.1c0.2-0.1,0-0.6,0.5-0.2
			c0-0.1,0-0.2,0.1-0.2l0.2,0.2c0-0.1,0.3,0.1,0.2-0.1c0.4,0.6,0.4,0,0.5,0l-0.2-0.3c0.1,0,0.1-0.1,0.1-0.3l-0.2-0.3
			c0-0.2,0.3,0.1,0.4,0c0,0.1,0,0.1-0.1,0.1c0.5,0.5,0.1-0.6,0.5-0.3c0-0.1,0-0.1,0.1,0c0,0,0,0,0,0c0,0,0,0,0,0
			c0,0,0.1,0.1,0.1,0.1c-0.1-0.1-0.1-0.1-0.1-0.1c0,0,0-0.1,0-0.2l0.2,0.3c0,0,0,0,0,0c0.1,0.1,0-0.1-0.2-0.3c0-0.1,0-0.1,0-0.2
			c0.3,0.4,0-0.2,0.3,0.2c-0.1-0.2,0.1-0.3-0.2-0.8c0,0.1,0.1,0.1,0,0.1c0.1,0,0.2,0.1,0.1-0.1l0.2,0.3l-0.2-0.5
			c0.2,0.2,0.3,0.3,0.4,0.6c-0.1-0.5,0-0.2-0.1-0.7l0.1,0.2c0,0-0.1-0.4,0.1-0.2c0.3,0.4,0.5-0.2,1,0.1c-0.4-0.6,0.3,0.2,0-0.3
			c0.1,0.1,0.2,0.2,0.2,0.4c0-0.2,0.3,0.1,0.2-0.3c0.1,0.2,0.1,0.3,0.2,0.3c0,0,0-0.2,0-0.1c0.1,0.1,0.1,0.1,0.1,0.2
			c0.1-0.1-0.1-0.6-0.4-1.1c0.2,0.2,0.2,0.1,0.1-0.2c0.1,0.1,0.2,0.3,0.2,0.4c0.1,0,0.4,0.1,0.2-0.3c0.1,0.1,0.1,0,0.1-0.1
			c0.1,0,0.1,0,0.2-0.1l-0.1,0c-0.2-0.5,0-0.1,0.1-0.2l0,0c0.4,0.2,0-0.2,0.4,0.1l-0.1-0.3c-0.3-0.6,0.3,0.3,0.3,0l-0.1-0.1
			c0-0.2,0.6,0.7,0.7,0.8c0,0,0,0.1,0,0.1c0.3,0.3-0.2-0.4-0.1-0.5c0.1,0.2,0.2,0.5,0.3,0.5c0.1,0.1-0.1-0.7,0.2-0.4
			c-0.1-0.1-0.2-0.3-0.2-0.4c0-0.1,0.5,0.5,0.3,0c0,0,0.1,0.1,0.1,0.1c0-0.2,0.1-0.3,0-0.6c0.6,0.9,0.1-0.7,0.6,0.2l0.2-0.1l0,0.1
			c0.2,0,0.1-0.2,0-0.5c0.1,0,0.1,0.1,0.1,0.2c0.3,0.1,0.3,0,0.2-0.5l0.2,0.3c0-0.2,0.5,0.3,0.5-0.1c0,0,0,0.1,0,0.1
			c0-0.4,0.9,0.6,0.4-0.5l0-0.3c-0.2,0-0.2-0.5-0.4-0.6c0-0.1,0.3,0.2,0.3,0.3l0,0c0.2,0.6,0.3,0.1,0.5,0.5c0.3-0.2,0.8-0.1,1.1-0.2
			l-0.2-0.4l0.1,0c0.1,0.1,0.2,0.3,0.1,0.3c0.2,0.2,0-0.3,0-0.4c0.2,0.1,0.2,0.5,0.2,0.5l0-0.1l0,0c0-0.2-0.1-0.4,0-0.4
			c0.1,0.1,0.2,0.2,0.2,0.3c0,0,0,0,0,0l0.2,0l-0.2-0.3c0-0.2,0.1,0-0.1-0.4c0.4,0.6,0.6,0,0.8,0.2c0-0.3,0.1-0.3,0.2-0.3
			c-0.1-0.1-0.2-0.4-0.1-0.4c0.3,0.8,0.3,0.3,0.6,0.8c-0.2-0.4,0.2-0.2-0.1-0.7c0.1,0,0.1,0.3,0.3,0.5c0-0.4,0.5,0,0.7-0.2
			c0-0.1-0.1-0.3-0.2-0.4l0.3,0.5c0-0.1-0.2-0.6,0-0.3c0-0.1-0.1-0.2-0.1-0.3c0.6,0.3,0.7-0.8,1.5,0c-0.1-0.2-0.1-0.2-0.1-0.3
			c0,0-0.1-0.3-0.2-0.4l0.3,0.3c-0.1-0.4,0.2-0.1,0.1-0.5l0,0.1c-0.1-0.5-0.5-1-0.7-1.5c0.1,0.6-0.5-0.7-0.4,0.1
			c-0.1-0.1,0-0.2-0.1-0.3c0.1,0.3,0,0.3-0.1,0.3l0-0.1c-0.2,0.2-0.4,0-0.7-0.1l0.1,0.3c-0.1,0-0.1-0.1-0.2-0.2
			c0.1,0.5,0.2,0,0.3,0.5c-0.3-0.5-0.4,0.2-0.7-0.5c-0.1,0,0.2,0.3,0.1,0.4l-0.1-0.2l0.1,0.2c-0.1,0-0.2-0.2-0.3-0.4
			c0,0,0-0.1,0-0.1c-0.2-0.2-0.2,0.2-0.2,0.1l0.1,0.1c-0.2,0.3-0.6,0.2-0.6,0.6l0.1,0.1c-0.1,0.3-0.2-0.1-0.3,0.1l0,0
			c0,0.2,0,0.2-0.1,0.2c0-0.2-0.2-0.3-0.2-0.5c-0.1,0.3,0,0.2,0.1,0.8l-0.1-0.2c0,0.2,0.1,0.3,0,0.4c0-0.2-0.2-0.3-0.2-0.6
			c-0.4-0.4-0.1,0.6-0.5-0.1c0.2,0.6,0.3,0.3,0.3,0.4c0.1,0.2,0.1,0.5,0,0.4c-0.1,0-0.5-0.7-0.6-0.7c0,0,0-0.1,0-0.1
			c-0.1-0.1,0,0.3-0.2,0.1c0.1,0.4-0.1,0,0.1,0.5l0.1-0.2c0,0.2,0.2,0.7-0.1,0.5c0-0.1,0-0.2-0.1-0.3c-0.1-0.1,0,0.1-0.1,0
			c-0.2-0.5,0.1-0.2,0.1-0.6c-0.1-0.2,0,0.4-0.2-0.1c0.2,0.7-0.2,0-0.1,0.5l-0.1-0.3c0,0.1,0,0.2,0,0.2l-0.1-0.4
			c0.1,0.4-0.3-0.2-0.3,0c0.2-0.1,0.2,0.3,0.4,0.5c0,0.5-0.5-0.7-0.6-0.4c0-0.1,0.2,0.1,0.2,0.3c-0.1,0-0.2-0.1-0.3-0.2
			c-0.1,0.1,0.2,0.3,0.2,0.5c-0.2-0.3,0,0.2,0,0.3l-0.1-0.3c-0.3-0.1,0.2,0.6,0,0.5l-0.1-0.4l0,0.1l-0.1-0.3c0,0.3,0,0.2-0.2,0.2
			c0.1,0.2,0.2,0.5,0.2,0.6c-0.1-0.1-0.1-0.3-0.2-0.2c-0.1-0.2-0.1-0.4,0-0.2c0-0.1-0.1-0.2-0.1-0.3c-0.2-0.2-0.2,0-0.2,0.1
			c0,0,0,0,0.1,0l0,0.5c-0.1-0.1-0.1-0.2-0.1-0.3c0,0.1,0,0.2,0,0.2c-0.1-0.2-0.2-0.5-0.2-0.6l0,0.3c-0.1-0.1-0.2-0.2-0.2-0.3
			c-0.2-0.1,0,0.5-0.2,0.4c0,0.1,0,0.1,0,0.1c-0.1,0-0.4-0.2-0.3,0.1l-0.3-0.4c0,0.1,0.4,0.5,0.3,0.7c-0.1,0.2-0.2-0.3-0.3-0.4
			c0,0.2,0.2,0.7-0.1,0.4C409.2,40.7,409.3,40.8,409.3,40.7z M408.2,41.5c0-0.1-0.1-0.3,0-0.1C408.4,41.8,408.3,41.6,408.2,41.5z
			 M406.7,43.2c0-0.1,0-0.1,0.1,0C406.8,43.2,406.8,43.2,406.7,43.2z M402.8,47.9L402.8,47.9C402.9,48,402.9,48,402.8,47.9z
			 M402.6,47.9c0,0,0,0.1,0.1,0.1C402.7,47.9,402.7,47.9,402.6,47.9C402.7,47.8,402.6,47.8,402.6,47.9z M414,41.6L414,41.6
			C413.9,41.5,413.9,41.6,414,41.6z"/>
		<path class="st0" d="M406.7,42.7c0,0,0.1,0.1,0.1,0.1C406.8,42.8,406.7,42.7,406.7,42.7z"/>
		<polygon class="st0" points="410,40.2 410,40.2 410,40.1 		"/>
		<path class="st0" d="M402.9,44.6c0,0,0.1,0.1,0.1,0.1C403,44.7,403,44.6,402.9,44.6z"/>
		<path class="st0" d="M402.3,48.6l0-0.1c0,0-0.1,0-0.1,0C402.3,48.6,402.4,48.6,402.3,48.6z"/>
		<path class="st0" d="M400.8,47.3C400.8,47.3,400.8,47.3,400.8,47.3l0.1,0.2C400.9,47.4,400.9,47.3,400.8,47.3z"/>
		<path class="st0" d="M401.7,47.8c-0.1-0.2-0.1-0.1-0.2-0.1c0,0,0,0,0,0C401.8,48,401.8,47.9,401.7,47.8z"/>
		<path class="st0" d="M401.6,47.7C401.6,47.8,401.6,47.8,401.6,47.7C401.6,47.9,401.6,47.8,401.6,47.7z"/>
		<path class="st0" d="M402.6,48.1c-0.1,0,0.2,0.3,0.1,0.2C402.8,48.6,402.6,47.9,402.6,48.1z"/>
		<polygon class="st0" points="401.3,47 401.5,47.3 401.3,47.1 		"/>
		<path class="st0" d="M401.8,47l-0.1,0C401.7,47,401.7,47.1,401.8,47C401.7,47.1,401.8,47.1,401.8,47z"/>
		<path class="st0" d="M401.7,47.1C401.7,47.1,401.6,47.1,401.7,47.1C401.7,47.2,401.7,47.2,401.7,47.1z"/>
		<polygon class="st0" points="401.3,46.9 401.4,46.9 401.4,46.9 		"/>
		<path class="st0" d="M402.6,46.6l0-0.1c0-0.1-0.1-0.1-0.1-0.1C402.5,46.5,402.5,46.5,402.6,46.6z"/>
		<path class="st0" d="M401.9,46c0.1,0,0.1,0.1,0.2,0.2l-0.2-0.4L401.9,46z"/>
		<path class="st0" d="M402.1,45.8c0-0.1,0-0.3-0.1-0.3C402,45.6,402,45.7,402.1,45.8z"/>
		<polygon class="st0" points="403.6,45.5 403.6,45.5 403.9,46.1 		"/>
		<path class="st0" d="M403.9,43.5c-0.2-0.1,0.2,0.4,0,0.2c0.1,0.2,0.1,0.1,0.2,0.2C404.1,43.8,404.2,43.9,403.9,43.5z"/>
		<path class="st0" d="M404.1,44c0,0,0,0.1,0,0.1C404.1,44,404.1,44,404.1,44z"/>
		<polygon class="st0" points="418.1,40.2 418.2,40.3 418.1,40.2 		"/>
		<path class="st0" d="M418,39.7l0.2,0.4L418,39.7C418.1,39.8,418.1,39.8,418,39.7z"/>
		<path class="st0" d="M407.6,40.9L407.6,40.9c0.1,0.2,0.1,0.2,0.2,0.2L407.6,40.9z"/>
		<polygon class="st0" points="408.6,40.7 408.6,40.7 408.8,41 		"/>
		<path class="st0" d="M409.1,39.9C409.1,39.9,409.1,40,409.1,39.9C409.1,39.9,409.4,40.3,409.1,39.9z"/>
	</g>
	<g>
		<path class="st0" d="M404.7,62.6c0,0-0.2,0.2-0.2,0.2C404.6,62.8,404.8,62.6,404.7,62.6z"/>
		<polygon class="st0" points="405.4,62.4 405.4,62.5 405.6,62.3 		"/>
		<path class="st0" d="M405.7,62.6c0.3-0.4-0.2,0-0.1-0.2l0.1-0.1l-0.3,0.3C405.5,62.6,405.8,62.5,405.7,62.6z"/>
		<path class="st0" d="M405.3,63.6C405.4,63.4,405.4,63.5,405.3,63.6C405.3,63.5,405.3,63.5,405.3,63.6
			C405.3,63.5,405.3,63.5,405.3,63.6z"/>
		<path class="st0" d="M405.3,63.5C405.2,63.5,405.2,63.7,405.3,63.5L405.3,63.5z"/>
		<path class="st0" d="M405.5,63.6l-0.1,0.1c-0.1,0.1,0,0.1-0.1,0.2C405.4,63.8,405.4,63.7,405.5,63.6z"/>
		<path class="st0" d="M405.7,63.3L405.7,63.3C405.7,63.4,405.6,63.4,405.7,63.3z"/>
		<path class="st0" d="M405.5,63.4l0.1-0.1C405.7,63.3,405.8,63.2,405.5,63.4C405.7,63.3,405.6,63.4,405.5,63.4z"/>
		<path class="st0" d="M405.6,63.4c0-0.1,0-0.2,0.2-0.3C405.6,63.1,405.4,63.4,405.6,63.4z"/>
		<path class="st0" d="M406.1,62.3l0-0.1L406.1,62.3C406,62.2,406,62.4,406.1,62.3z"/>
		<path class="st0" d="M405.6,64c0.1-0.1,0.1-0.2,0.2-0.3l-0.1,0.1C405.7,63.8,405.7,63.8,405.6,64z"/>
		<path class="st0" d="M405.8,63.6l0.1-0.1C405.9,63.5,405.9,63.5,405.8,63.6z"/>
		<polygon class="st0" points="406.1,62.9 405.8,63.1 406.1,62.9 		"/>
		<polygon class="st0" points="405.8,64.1 405.6,64.3 405.9,64 		"/>
		<path class="st0" d="M405.9,64.2c-0.1,0.1-0.2,0.3-0.2,0.4c0,0,0.2-0.1,0.3-0.2C405.9,64.4,405.9,64.3,405.9,64.2z"/>
		<path class="st0" d="M406.1,64.2c0,0-0.1,0.1-0.2,0.1C406,64.3,406.1,64.2,406.1,64.2z"/>
		<path class="st0" d="M406,63.6c0,0.1-0.1,0.2-0.1,0.3L406,63.6L406,63.6z"/>
		<path class="st0" d="M406.1,63.6L406.1,63.6C406.1,63.7,406.1,63.7,406.1,63.6C406.1,63.7,406.1,63.7,406.1,63.6z"/>
		<path class="st0" d="M406,63.6L406,63.6C406,63.6,406,63.6,406,63.6z"/>
		<path class="st0" d="M406,63.2c0.1-0.1,0.3-0.2,0.4-0.4C406.3,62.9,406.2,63,406,63.2z"/>
		<path class="st0" d="M406.2,63.3L406.2,63.3c-0.1,0-0.1,0.1-0.2,0.1L406.2,63.3z"/>
		<polygon class="st0" points="406.3,63.3 406.2,63.3 406.2,63.4 		"/>
		<path class="st0" d="M406.2,63.9c0.1-0.1,0.1-0.1,0.2-0.1c0-0.1,0-0.1,0-0.1C406.3,63.8,406.2,63.9,406.2,63.9z"/>
		<path class="st0" d="M406.1,63.7L406.1,63.7C406.2,63.7,406.2,63.7,406.1,63.7z"/>
		<polygon class="st0" points="406.6,64 406.7,64 406.6,64 		"/>
		<path class="st0" d="M406.4,63.6c0-0.1,0,0-0.1,0C406.3,63.7,406.3,63.7,406.4,63.6C406.4,63.7,406.4,63.6,406.4,63.6z"/>
		<path class="st0" d="M406.3,64.1c0-0.1,0-0.1,0.1-0.2C406.3,64,406.3,64.2,406.3,64.1z"/>
		<path class="st0" d="M406.1,63.8L406.1,63.8C406.1,63.9,406.1,63.8,406.1,63.8z"/>
		<path class="st0" d="M406.1,63.8c0,0,0.1-0.1,0.1-0.1C406.2,63.7,406.2,63.7,406.1,63.8C406.2,63.8,406.1,63.8,406.1,63.8z"/>
		<path class="st0" d="M407.7,62.6c-0.2,0.2-0.3,0.4-0.2,0.1c-0.2,0.1-0.6,0.8-0.8,1.3c0.1-0.1,0.1-0.2,0.3-0.3
			c0.1-0.1,0.1-0.3,0.3-0.5c0.1-0.1,0,0.1-0.1,0.2c0.2-0.3,0.4-0.3,0.6-0.7l-0.2,0.1C407.6,62.7,407.7,62.7,407.7,62.6z"/>
		<path class="st0" d="M406.6,63.9L406.6,63.9c0,0.1-0.1,0.2-0.2,0.4c0.1-0.1,0.2-0.2,0.2-0.2L406.6,63.9L406.6,63.9z"/>
		<path class="st0" d="M406.4,63.8c0.2-0.2,0.3-0.3,0.4-0.6c-0.1,0-0.2,0.2-0.3,0.2C406.7,63.5,406.5,63.6,406.4,63.8
			C406.4,63.8,406.4,63.8,406.4,63.8c-0.1,0-0.1,0.1-0.1,0.1l0,0h0h0C406.4,63.9,406.4,63.9,406.4,63.8
			C406.4,63.9,406.4,63.9,406.4,63.8C406.4,63.9,406.4,63.9,406.4,63.8C406.4,63.9,406.4,63.9,406.4,63.8l-0.1,0.1l0,0L406.4,63.8
			C406.5,63.8,406.5,63.8,406.4,63.8z"/>
		<path class="st0" d="M406.8,62.3C406.8,62.3,406.8,62.4,406.8,62.3C406.8,62.4,406.8,62.3,406.8,62.3z"/>
		<path class="st0" d="M406.7,62.5c0,0-0.1,0.1-0.1,0.1c0-0.1,0.1-0.1,0.1-0.2c-0.1,0-0.2,0.1-0.2,0.3l0,0c0,0.1-0.2,0.4-0.2,0.5
			C406.5,62.9,406.6,62.7,406.7,62.5z"/>
		<path class="st0" d="M406.6,63.1l0.2-0.1l0.1-0.2l-0.1,0.1C406.8,62.9,406.7,63,406.6,63.1z"/>
		<polygon class="st0" points="406.6,64.1 406.4,64.4 406.7,64.1 		"/>
		<polygon class="st0" points="406.7,64.2 406.6,64.4 406.7,64.3 		"/>
		<path class="st0" d="M414.5,64.8L414.5,64.8C414.5,64.8,414.5,64.8,414.5,64.8z"/>
		<path class="st0" d="M414.3,64.7l-0.1,0.1C414.3,64.8,414.3,64.7,414.3,64.7z"/>
		<path class="st0" d="M409.5,65.9c-0.1,0.2-0.2,0.6-0.1,0.3L409.5,65.9C409.5,66,409.5,66,409.5,65.9z"/>
		<path class="st0" d="M412.2,65.4L412.2,65.4c0,0-0.1,0.1-0.1,0.2C412.1,65.5,412.1,65.5,412.2,65.4z"/>
		<path class="st0" d="M412.7,64.4l0,0.2C412.7,64.5,412.7,64.4,412.7,64.4z"/>
		<path class="st0" d="M415.6,64.9l0.1-0.3C415.7,64.6,415.6,64.8,415.6,64.9z"/>
		<path class="st0" d="M407.9,64.8c0,0.1,0,0.2,0,0.2C407.9,64.9,408,64.7,407.9,64.8z"/>
		<path class="st0" d="M413.3,67.5c0,0,0.1-0.1,0.1-0.1C413.3,67.4,413.3,67.5,413.3,67.5z"/>
		<path class="st0" d="M408,65.1C408,65.1,408,65.1,408,65.1C407.9,65.1,407.9,65.1,408,65.1C407.8,65.2,407.8,65.2,408,65.1z"/>
		<path class="st0" d="M419.2,66.1C419.2,66.1,419.2,66.1,419.2,66.1C419.2,66.1,419.2,66.1,419.2,66.1z"/>
		<path class="st0" d="M419.9,69.1C419.9,69.1,419.9,69.1,419.9,69.1C419.9,69.2,419.9,69.1,419.9,69.1z"/>
		<path class="st0" d="M407.1,64.6C407,64.6,407.1,64.6,407.1,64.6L407.1,64.6z"/>
		<path class="st0" d="M407.6,63.6c0,0,0-0.1,0.1-0.1C407.6,63.5,407.6,63.6,407.6,63.6z"/>
		<path class="st0" d="M409.1,63.8L409.1,63.8C409.2,63.7,409.2,63.7,409.1,63.8z"/>
		<path class="st0" d="M407.1,64.4C407.1,64.5,407.1,64.5,407.1,64.4C407.1,64.5,407.1,64.5,407.1,64.4z"/>
		<path class="st0" d="M407,64.6C407,64.5,407,64.5,407,64.6C407,64.6,407,64.6,407,64.6z"/>
		<path class="st0" d="M407.1,64.6C407.1,64.6,407.1,64.6,407.1,64.6C407.1,64.6,407.1,64.6,407.1,64.6
			C407.1,64.6,407.1,64.6,407.1,64.6z"/>
		<path class="st0" d="M417,66.4C417,66.4,417,66.4,417,66.4C417.1,66.3,417,66.3,417,66.4z"/>
		<polygon class="st0" points="411.5,63.7 411.5,63.7 411.5,63.7 		"/>
		<path class="st0" d="M411.7,63.5c-0.2,0.3-0.2,0.2-0.2,0.2l-0.4,0.7L411.7,63.5z"/>
		<path class="st0" d="M414.9,64.9l0-0.3c0.2-0.4,0.2-0.2,0.3-0.6c-0.3,0.8-0.3,0-0.6,0.8l0-0.2c0,0,0,0,0,0
			c0.1-0.4-0.3,0.6-0.3,0.4c0-0.1,0-0.2,0.1-0.3l-0.2,0.2c0,0,0-0.2,0.1-0.1l-0.1,0l0,0c-0.1,0.1-0.2,0.3-0.2,0.4
			c0-0.1,0-0.1,0.1-0.2l-0.1,0.2c0.1-0.2,0.2-0.4,0.2-0.4c0.3-0.8-0.1,0.2-0.1-0.3l0.1-0.1c0.2-0.5,0-0.3,0.1-0.6
			c-0.1,0.2-0.2,0.8-0.3,1c0-0.1,0-0.1-0.1,0c0.1-0.3,0.1-0.2,0-0.2l0.2-0.4c-0.1,0.1-0.2,0.3-0.3,0.4c0-0.1,0.1-0.4,0.2-0.6
			c-0.1-0.1-0.1,0.5-0.3,0.5c0-0.2-0.1,0-0.3,0.2c0-0.2,0.1-0.2,0.1-0.3l-0.2,0.3c0,0,0-0.1,0.1-0.1c-0.1,0.1-0.2,0.4-0.3,0.4
			c-0.2,0.4,0.2-0.7-0.1-0.2c0-0.1,0.1-0.2,0.2-0.4c-0.2,0.3-0.2,0.2-0.5,0.6l0-0.3c-0.1,0.3-0.3,0.6-0.5,0.9c0,0.2-0.1,0.3-0.1,0.3
			l-0.2,0.1c0-0.1,0.1-0.2,0.2-0.3c0,0,0,0.1-0.1,0.1c0-0.2,0.2-0.4,0.3-0.6c0,0.1-0.1,0.2-0.1,0.3c0.1-0.2,0.3-0.5,0.4-0.7
			c0,0-0.1,0.1-0.1,0.1c0-0.1,0.1-0.1,0.1-0.2c0,0,0,0-0.1,0.1l0.2-0.4l-0.1,0.2l0-0.3c-0.3,0.4-0.7,1-0.9,1
			c0.2-0.3,0.3-0.5,0.4-0.8c-0.1,0.4,0.2-0.1,0.2,0c0-0.1,0.1-0.2,0.1-0.3l-0.3,0.3c0.1-0.3,0.1-0.2,0.1-0.4
			c-0.3,0.6-0.3,0.3-0.4,0.5c0.1-0.2,0.2-0.4,0.3-0.3c0.2-0.5-0.4,0.6-0.3,0.2c0,0,0,0,0.1-0.1c-0.1,0.2-0.1,0,0-0.2l0,0
			c-0.1-0.1-0.3-0.2-0.6,0.3c0-0.1,0.3-0.6,0.4-0.7l-1.1,1.6c0.2-0.4,0.7-1.4,0.9-1.6c0-0.1,0-0.2-0.1,0c0,0.1-0.3,0.6-0.3,0.7
			c0.2-0.5,0.1-0.3,0.2-0.7c0,0.1-0.4,0.7-0.4,0.7c0.1-0.1,0.3-0.7,0.4-0.7l-0.4,0.6c0.1-0.1,0.3-0.5,0.4-0.7
			c-0.1,0.1-0.1-0.1-0.1,0l0,0.2c-0.1-0.2-0.6,0.8-0.7,0.7c0.1-0.1,0.5-0.8,0.5-0.9c-0.2,0.3-1,1.5-1.3,1.7l0.1-0.2l-0.2,0.2
			c0.3-0.5,1.1-1.4,1.4-1.8c0-0.2,0.1-0.2,0-0.2c0.1-0.2,0.2-0.2,0.2-0.2l-0.1-0.2c-0.2,0.4-0.3,0.3-0.5,0.6l0.4-0.3
			c-0.2,0.4-0.7,1-0.8,0.9c0.1-0.2,0.4-0.7,0.5-0.8c-0.1,0.1-0.2,0.2-0.2,0.1l0.2-0.2c0-0.2-0.4,0.4-0.2,0c0,0,0.2-0.5,0.1-0.3
			c-0.2,0.4-1,1.8-1.2,2.1c0,0,0.1-0.5,0.2-0.7c0.2-0.4,0.5-0.8,0.7-1.1c-0.1,0.1-0.2,0.2-0.2,0.2c0-0.1,0.2-0.3,0.1-0.3
			c-0.2,0.4-0.1-0.1-0.2,0.3c-0.1,0.1,0-0.1-0.1-0.1c-0.1,0.3-0.6,0.8-0.7,0.9c0.1-0.1,0.1-0.2,0.2-0.3c-0.1-0.1,0-0.3-0.1-0.4
			c0-0.1,0.1-0.2,0.2-0.4c-0.1,0.1-0.1,0.2-0.2,0.2c0.2-0.4,0.1,0,0.3-0.4c-0.1,0.2-0.3,0.2-0.4,0.4c-0.2,0.3,0.1,0.1,0.2,0
			c-0.3,0.5-0.7,0.9-0.9,1c-0.2,0.1,0.2-0.3,0.1-0.3c-0.1-0.2-0.7,0.7-0.6,0.3c0.1-0.3,0.4-0.6,0.5-0.8c0.1-0.1,0,0.3,0,0.3l0-0.2
			c0.1-0.1,0.2-0.1,0.1,0c0.1-0.3-0.2-0.2-0.2-0.5c-0.1,0.1-0.2,0.2-0.3,0.3l0.1,0c-0.1,0.3-0.3,0.3-0.3,0.4
			c-0.2,0.1-0.4,0.3-0.4,0.2l0.2-0.3c-0.1,0.1-0.1,0.2,0,0.1c-0.1,0.1,0.2-0.5-0.1-0.1l-0.1,0.3c-0.2,0.1-0.5,0.4-0.5,0.3
			c-0.2,0.3,0,0-0.2,0.4c0.3-0.5,0.2,0.1,0.4-0.4c-0.3,0.5-0.1,0.2-0.2,0.7c0.1-0.1,0.1-0.2,0.1-0.1c0,0,0.1-0.1,0.1-0.1l0,0l0,0
			c0,0,0,0,0,0c0,0,0.1-0.1,0.1-0.2c0.2-0.2,0.3-0.2,0.4-0.3c0,0.1-0.1,0.1-0.2,0.2l0.2-0.2c-0.2,0.2-0.2,0.5-0.4,0.6l0.1,0.1
			c0,0.2,0,0.3,0.1,0.2c0,0.1,0.3-0.2,0.1,0l0.2-0.1l0,0.1c0.1,0.1,0.5-0.3,0.3,0.3c0.1,0,0.2-0.1,0.2,0l-0.1,0.2
			c0.1,0,0,0.3,0.2,0.1c-0.3,0.6,0.2,0.3,0.2,0.4l0.2-0.3c0,0.1,0.2,0,0.3-0.1l0.1-0.3c0.2-0.2,0,0.3,0.2,0.3
			c-0.1,0.1-0.1,0.1-0.1,0c-0.2,0.6,0.5-0.3,0.4,0.2c0.1-0.1,0.1,0,0.1,0c0,0,0,0,0,0c0,0,0,0,0,0c0,0,0,0.1,0,0.2
			c0-0.1,0-0.1,0-0.2c0,0,0.1,0,0.1-0.1l-0.1,0.3c0,0,0,0,0,0c0,0.1,0.1-0.1,0.2-0.3c0,0,0.1-0.1,0.1-0.2c-0.2,0.5,0.2-0.1-0.1,0.4
			c0.2-0.2,0.3-0.1,0.5-0.6c0,0.1,0,0.1-0.1,0.1c0,0.1,0,0.1,0.1,0l-0.2,0.4l0.3-0.4c-0.1,0.2-0.1,0.4-0.3,0.6
			c0.3-0.4,0.2-0.1,0.5-0.5l-0.1,0.2c0,0,0.3-0.3,0.2-0.1c-0.1,0.5,0.3,0.2,0.3,0.7c0.3-0.7-0.1,0.4,0.2-0.2
			c-0.1,0.2-0.1,0.3-0.2,0.4c0.2-0.1,0,0.3,0.3-0.1c-0.1,0.2-0.1,0.2-0.2,0.3c0,0,0.1-0.1,0.1,0c0,0.1-0.1,0.1-0.1,0.2
			c0.1,0,0.4-0.5,0.6-0.9c-0.1,0.2,0,0.2,0.2-0.1c-0.1,0.2-0.1,0.3-0.2,0.4c0,0,0.1,0.3,0.3,0c0,0.1,0,0.1,0.1,0
			c0.1,0.1,0.1,0.1,0.2,0.1l0-0.1c0.2-0.4,0.1-0.1,0.2-0.1l0,0c0,0.4,0.1-0.1,0.1,0.3l0.1-0.3c0.3-0.6,0,0.4,0.1,0.2l0-0.2
			c0.1-0.2-0.2,0.9-0.2,1c0,0.1-0.1,0.1-0.1,0.1c0,0.4,0.2-0.4,0.3-0.4c-0.1,0.2-0.2,0.5-0.2,0.6c0,0.2,0.5-0.6,0.4-0.2
			c0-0.2,0.1-0.3,0.2-0.4c0.1,0-0.1,0.7,0.2,0.2c0,0,0,0.1,0,0.1c0.1-0.1,0.2-0.1,0.4-0.4c-0.4,1,0.5-0.4,0.1,0.6l0.2,0l0,0.1
			c0.1,0.1,0.2-0.1,0.3-0.3c0,0.1-0.1,0.2-0.1,0.2c0.1,0.2,0.1,0.2,0.4-0.2l-0.1,0.3c0.1-0.2,0,0.6,0.3,0.2c0,0,0,0.1-0.1,0.1
			c0.3-0.3,0.1,1,0.5-0.1l0.2-0.2c-0.1-0.1,0.2-0.5,0.2-0.7c0.1,0,0,0.4-0.1,0.4l0-0.1c-0.2,0.6,0.1,0.3,0,0.7
			c0.3,0.1,0.4,0.5,0.7,0.6l0.1-0.5l0.1,0.1c0,0.1-0.1,0.4-0.1,0.3c0,0.3,0.2-0.2,0.2-0.3c0.1,0.2-0.2,0.5-0.2,0.5l0.1,0l0-0.1
			c0.1-0.2,0.2-0.4,0.2-0.3c0,0.1-0.1,0.3,0,0.3c0,0,0,0,0,0l0.1,0.1l0-0.4c0.1-0.2,0.1,0,0.1-0.4c-0.1,0.7,0.4,0.3,0.4,0.5
			c0.1-0.2,0.2-0.2,0.3-0.2c0-0.1,0.1-0.5,0.1-0.4c-0.2,0.8,0.1,0.4,0,1c0-0.4,0.2-0.1,0.3-0.7c0,0.1-0.1,0.3-0.1,0.5
			c0.2-0.3,0.3,0.3,0.5,0.2c0-0.1,0-0.3,0.1-0.4l0,0.6c0,0,0.1-0.6,0.1-0.2c0-0.1,0-0.2,0-0.3c0.3,0.6,0.8-0.3,1,0.8
			c0-0.2,0-0.3,0.1-0.2c0-0.1,0-0.3,0.1-0.4l0.1,0.5c0.1-0.4,0.2,0,0.2-0.4l-0.1,0.1c0.1-0.5,0-1.1,0.1-1.7
			c-0.1,0.5-0.1-0.8-0.3-0.1c0-0.1,0-0.2,0.1-0.3c-0.1,0.3-0.1,0.3-0.2,0.2l0-0.1c-0.2,0-0.2-0.2-0.4-0.4l0,0.3c0,0,0-0.1,0-0.2
			c-0.1,0.5,0.1,0,0,0.5c0-0.6-0.3-0.1-0.2-0.8c-0.1,0,0,0.4-0.1,0.3l0-0.2l-0.1,0.2c0,0,0-0.3,0-0.5c0,0,0,0,0.1,0
			c0-0.2-0.2,0-0.2,0l0,0.1c-0.2,0.2-0.4-0.1-0.6,0.2l0,0.1c-0.2,0.2-0.1-0.2-0.2-0.1l0,0c-0.1,0.1-0.1,0.2-0.2,0.2
			c0.1-0.2,0-0.3,0.1-0.5c-0.2,0.2-0.1,0.2-0.3,0.7l0-0.2c-0.1,0.2-0.1,0.3-0.2,0.4c0.1-0.2,0-0.4,0.2-0.6c0-0.5-0.4,0.5-0.2-0.3
			c-0.2,0.6,0,0.4,0,0.5c0,0.2-0.2,0.5-0.2,0.4c0,0,0.1-0.8,0-0.9c0,0,0,0,0,0c0-0.2-0.1,0.2-0.1-0.1c-0.1,0.4-0.1,0-0.2,0.5
			l0.1-0.1c-0.1,0.1-0.3,0.7-0.3,0.4c0-0.1,0.1-0.2,0.1-0.3c0-0.2-0.1,0.1-0.1-0.1c0.2-0.5,0.2-0.1,0.3-0.4c0-0.2-0.2,0.3,0-0.2
			c-0.2,0.7-0.1-0.1-0.3,0.4l0.1-0.3c0,0-0.1,0.2-0.1,0.2l0.1-0.4c-0.2,0.3,0-0.3-0.2-0.2c0.1,0-0.1,0.4-0.1,0.6
			c-0.3,0.3,0.1-0.8-0.1-0.7c0,0,0,0.2,0,0.3c0-0.1,0-0.2,0-0.4c-0.1,0-0.1,0.3-0.2,0.5c0.1-0.4-0.1,0.1-0.2,0.2l0.1-0.3
			c-0.1-0.2-0.2,0.6-0.3,0.3l0.2-0.4l-0.1,0.1l0.1-0.3c-0.2,0.2-0.1,0.2-0.2,0c-0.1,0.2-0.2,0.5-0.2,0.5c0-0.2,0.1-0.3,0-0.3
			c0.1-0.2,0.2-0.4,0.1-0.1c0-0.1,0.1-0.2,0.1-0.3c0-0.2-0.1-0.1-0.1-0.1c0,0,0,0,0,0.1l-0.3,0.4c0-0.1,0.1-0.2,0.1-0.3
			c0,0-0.1,0.2-0.1,0.2c0.1-0.2,0.2-0.5,0.3-0.6l-0.2,0.2c0-0.1,0-0.3,0.1-0.4c0-0.2-0.3,0.4-0.3,0.2c0,0,0,0.1-0.1,0.1
			c-0.1-0.1,0-0.4-0.2-0.1l0.1-0.5c-0.1,0.1-0.1,0.6-0.3,0.7c-0.1,0.1,0.1-0.4,0.1-0.5C415,64.9,414.8,65.3,414.9,64.9
			C414.9,64.9,414.9,64.9,414.9,64.9z M414,64.7C414,64.7,414.1,64.5,414,64.7C413.9,65,414,64.8,414,64.7z M412.3,64.8
			C412.4,64.7,412.4,64.8,412.3,64.8C412.3,64.9,412.3,64.9,412.3,64.8z M407.5,64.5L407.5,64.5C407.5,64.6,407.5,64.6,407.5,64.5z
			 M407.5,64.4c0,0-0.1,0.1-0.1,0.1C407.4,64.4,407.5,64.4,407.5,64.4C407.5,64.4,407.5,64.3,407.5,64.4z M416.7,68.5L416.7,68.5
			C416.8,68.3,416.8,68.4,416.7,68.5z"/>
		<path class="st0" d="M412.7,64.5c0,0,0,0.1-0.1,0.2C412.6,64.6,412.7,64.5,412.7,64.5z"/>
		<polygon class="st0" points="415.6,64.9 415.6,64.9 415.6,64.9 		"/>
		<path class="st0" d="M410.1,62.9c0,0.1,0,0.1-0.1,0.2C410.1,63,410.1,62.9,410.1,62.9z"/>
		<path class="st0" d="M406.8,64.5L406.8,64.5c0.1,0,0.1-0.1,0.1-0.1C406.8,64.4,406.8,64.5,406.8,64.5z"/>
		<path class="st0" d="M407.4,62.6C407.4,62.7,407.4,62.6,407.4,62.6l-0.1,0.1C407.3,62.8,407.4,62.7,407.4,62.6z"/>
		<path class="st0" d="M407.3,63.6c0.2-0.2,0.1-0.2,0-0.2c0,0,0,0,0,0C407.1,63.8,407.2,63.7,407.3,63.6z"/>
		<path class="st0" d="M407.3,63.5C407.3,63.5,407.3,63.5,407.3,63.5C407.2,63.6,407.2,63.5,407.3,63.5z"/>
		<path class="st0" d="M407.3,64.4c0-0.1-0.2,0.3-0.1,0.2C406.9,64.9,407.5,64.4,407.3,64.4z"/>
		<polygon class="st0" points="407.8,62.9 407.6,63.2 407.8,63 		"/>
		<path class="st0" d="M407.9,63.3l0-0.1C407.9,63.2,407.8,63.2,407.9,63.3C407.8,63.3,407.8,63.4,407.9,63.3z"/>
		<path class="st0" d="M407.8,63.2C407.8,63.2,407.8,63.2,407.8,63.2C407.8,63.3,407.8,63.3,407.8,63.2z"/>
		<polygon class="st0" points="407.9,62.9 407.9,62.9 407.9,63 		"/>
		<path class="st0" d="M408.5,63.7l0.1,0c0.1-0.1,0.1-0.2,0-0.1C408.5,63.6,408.5,63.6,408.5,63.7z"/>
		<path class="st0" d="M408.8,62.9c0,0.1-0.1,0.1-0.1,0.2l0.2-0.3L408.8,62.9z"/>
		<path class="st0" d="M409,62.9c0.1-0.1,0.3-0.2,0.2-0.2C409.1,62.7,409,62.8,409,62.9z"/>
		<polygon class="st0" points="409.6,63.9 409.6,63.9 409.2,64.4 		"/>
		<path class="st0" d="M411.2,63c0-0.2-0.2,0.4-0.2,0.1c-0.1,0.1,0,0.2-0.1,0.3C411,63.3,411,63.4,411.2,63z"/>
		<path class="st0" d="M410.9,63.4C410.9,63.4,410.9,63.4,410.9,63.4C410.9,63.4,410.9,63.4,410.9,63.4z"/>
		<polygon class="st0" points="420.1,69.5 420.2,69.6 420.1,69.4 		"/>
		<path class="st0" d="M420.3,69l0,0.4L420.3,69C420.3,69.1,420.3,69.1,420.3,69z"/>
		<path class="st0" d="M414.2,63.9L414.2,63.9c-0.1,0.2-0.1,0.2-0.1,0.2L414.2,63.9z"/>
		<polygon class="st0" points="414.7,64.4 414.7,64.4 414.6,64.8 		"/>
		<path class="st0" d="M415.4,64.2C415.4,64.2,415.3,64.2,415.4,64.2C415.4,64.2,415.2,64.6,415.4,64.2z"/>
	</g>
	<g>
		<path class="st0" d="M385.7,38.5c0,0,0.2,0.1,0.3,0.1C386,38.6,385.7,38.5,385.7,38.5z"/>
		<polygon class="st0" points="385.3,37.9 385.4,38 385.2,37.8 		"/>
		<path class="st0" d="M385.4,37.5c-0.4-0.1,0,0.2-0.2,0.2l-0.1,0l0.3,0.2C385.5,37.7,385.3,37.6,385.4,37.5z"/>
		<path class="st0" d="M386.5,37.7C386.3,37.7,386.3,37.6,386.5,37.7C386.4,37.7,386.4,37.8,386.5,37.7
			C386.4,37.7,386.4,37.7,386.5,37.7z"/>
		<path class="st0" d="M386.4,37.8C386.4,37.8,386.6,37.8,386.4,37.8L386.4,37.8z"/>
		<path class="st0" d="M386.4,37.5l0.1,0.1c0.1,0,0.1,0,0.2,0C386.7,37.6,386.6,37.6,386.4,37.5z"/>
		<path class="st0" d="M386.1,37.4L386.1,37.4C386.2,37.4,386.2,37.4,386.1,37.4z"/>
		<path class="st0" d="M386.3,37.5l-0.1-0.1C386.1,37.4,385.9,37.4,386.3,37.5C386.1,37.4,386.2,37.5,386.3,37.5z"/>
		<path class="st0" d="M386.2,37.5c-0.1,0-0.2,0-0.3-0.1C385.9,37.6,386.2,37.7,386.2,37.5z"/>
		<path class="st0" d="M385,37.4l-0.1,0L385,37.4C384.9,37.4,385.1,37.4,385,37.4z"/>
		<path class="st0" d="M386.7,37.3c-0.1,0-0.2-0.1-0.4-0.1l0.1,0.1C386.5,37.3,386.6,37.3,386.7,37.3z"/>
		<path class="st0" d="M386.4,37.2l-0.1-0.1C386.2,37.1,386.3,37.2,386.4,37.2z"/>
		<polygon class="st0" points="385.6,37.2 385.9,37.4 385.6,37.2 		"/>
		<polygon class="st0" points="386.8,37.1 387,37.2 386.7,37.1 		"/>
		<path class="st0" d="M386.9,37c0.2,0.1,0.3,0.1,0.4,0.1c0,0-0.2-0.1-0.3-0.2C387,37,387,37,386.9,37z"/>
		<path class="st0" d="M386.8,36.8c0,0,0.1,0.1,0.2,0.1C387,36.9,386.9,36.8,386.8,36.8z"/>
		<path class="st0" d="M386.3,37c0.1,0,0.2,0.1,0.3,0.1L386.3,37L386.3,37z"/>
		<path class="st0" d="M386.3,37L386.3,37C386.3,37,386.4,37,386.3,37C386.4,36.9,386.3,37,386.3,37z"/>
		<path class="st0" d="M386.3,37L386.3,37C386.3,37,386.3,37,386.3,37z"/>
		<path class="st0" d="M385.9,37.1c-0.1-0.1-0.3-0.2-0.5-0.2C385.6,37,385.7,37,385.9,37.1z"/>
		<path class="st0" d="M386,36.9L386,36.9c0,0.1,0.1,0.1,0.2,0.1L386,36.9z"/>
		<polygon class="st0" points="385.9,36.9 386,36.9 386,36.9 		"/>
		<path class="st0" d="M386.5,36.8c-0.1-0.1-0.1-0.1-0.1-0.1c-0.1,0-0.1,0-0.1,0.1C386.4,36.7,386.5,36.8,386.5,36.8z"/>
		<path class="st0" d="M386.4,36.9L386.4,36.9C386.4,36.8,386.4,36.8,386.4,36.9z"/>
		<polygon class="st0" points="386.5,36.3 386.5,36.3 386.5,36.3 		"/>
		<path class="st0" d="M386.2,36.7C386.2,36.7,386.2,36.7,386.2,36.7C386.3,36.7,386.3,36.7,386.2,36.7
			C386.3,36.7,386.2,36.7,386.2,36.7z"/>
		<path class="st0" d="M386.7,36.6c-0.1,0-0.1,0-0.2,0C386.6,36.6,386.8,36.7,386.7,36.6z"/>
		<path class="st0" d="M386.5,36.9L386.5,36.9C386.5,36.9,386.5,36.9,386.5,36.9z"/>
		<path class="st0" d="M386.5,36.9c0,0-0.1-0.1-0.1-0.1C386.3,36.8,386.4,36.8,386.5,36.9C386.4,36.9,386.4,36.9,386.5,36.9z"/>
		<path class="st0" d="M384.9,35.6c0.2,0.1,0.4,0.3,0.1,0.2c0.2,0.1,1,0.4,1.4,0.5c-0.1,0-0.2-0.1-0.3-0.2c-0.1,0-0.4,0-0.6-0.1
			c-0.1-0.1,0.1,0,0.2,0c-0.3-0.1-0.4-0.3-0.8-0.4l0.1,0.1C385.1,35.7,385,35.6,384.9,35.6z"/>
		<path class="st0" d="M386.4,36.4L386.4,36.4c0.1,0,0.2,0,0.4,0.1c-0.1-0.1-0.2-0.1-0.3-0.2L386.4,36.4L386.4,36.4z"/>
		<path class="st0" d="M386.4,36.6c-0.3-0.1-0.3-0.2-0.6-0.3c0,0.1,0.2,0.1,0.3,0.2C386,36.3,386.2,36.6,386.4,36.6
			C386.4,36.6,386.4,36.6,386.4,36.6c0,0.1,0.1,0.1,0.2,0.1l0,0h0l0,0C386.5,36.6,386.5,36.6,386.4,36.6L386.4,36.6
			C386.5,36.6,386.4,36.6,386.4,36.6C386.5,36.5,386.5,36.6,386.4,36.6l0.1,0.1l0,0l-0.1-0.2C386.4,36.5,386.4,36.5,386.4,36.6z"/>
		<path class="st0" d="M384.9,36.6C384.9,36.6,384.9,36.6,384.9,36.6C384.9,36.6,384.9,36.6,384.9,36.6z"/>
		<path class="st0" d="M385,36.6C385.1,36.6,385.2,36.7,385,36.6c0,0.1,0,0-0.1,0c0.1,0,0.2,0.1,0.3,0.1l0,0c0.1,0,0.5,0.1,0.5,0.1
			C385.4,36.7,385.3,36.7,385,36.6z"/>
		<path class="st0" d="M385.7,36.6l-0.1-0.1l-0.3,0l0.1,0.1C385.4,36.5,385.6,36.5,385.7,36.6z"/>
		<polygon class="st0" points="386.7,36.4 386.9,36.5 386.6,36.3 		"/>
		<polygon class="st0" points="386.7,36.2 386.9,36.3 386.8,36.2 		"/>
		<path class="st0" d="M386.2,28.2L386.2,28.2C386.2,28.2,386.2,28.2,386.2,28.2z"/>
		<path class="st0" d="M386.1,28.4l0.1,0C386.2,28.4,386.1,28.4,386.1,28.4z"/>
		<path class="st0" d="M387.8,33.2c0.2,0,0.6,0.1,0.3,0L387.8,33.2C387.9,33.2,387.9,33.2,387.8,33.2z"/>
		<path class="st0" d="M387,30.6L387,30.6c0,0,0.1,0.1,0.2,0.1C387.1,30.6,387,30.6,387,30.6z"/>
		<path class="st0" d="M385.9,30.1l0.2,0C386,30.1,385.9,30.1,385.9,30.1z"/>
		<path class="st0" d="M386.3,27.1l-0.3-0.1C386,27,386.2,27,386.3,27.1z"/>
		<path class="st0" d="M387.1,34.9c0.1,0,0.2,0,0.2,0C387.1,34.9,386.9,34.8,387.1,34.9z"/>
		<path class="st0" d="M389,29.3c0,0-0.1-0.1-0.2-0.1C388.9,29.2,389,29.3,389,29.3z"/>
		<path class="st0" d="M387.3,34.8C387.3,34.8,387.3,34.8,387.3,34.8C387.3,34.9,387.3,34.9,387.3,34.8
			C387.4,34.9,387.5,34.9,387.3,34.8z"/>
		<path class="st0" d="M387.7,23.2C387.7,23.2,387.7,23.2,387.7,23.2C387.7,23.2,387.7,23.2,387.7,23.2z"/>
		<path class="st0" d="M390.8,22.7C390.8,22.7,390.8,22.7,390.8,22.7C390.8,22.8,390.8,22.7,390.8,22.7z"/>
		<path class="st0" d="M387,35.8C387,35.8,387,35.8,387,35.8L387,35.8z"/>
		<path class="st0" d="M385.9,35.5c0,0-0.1,0-0.1-0.1C385.8,35.5,385.9,35.5,385.9,35.5z"/>
		<path class="st0" d="M385.8,33.9L385.8,33.9C385.7,33.9,385.7,33.9,385.8,33.9z"/>
		<path class="st0" d="M386.8,35.8C386.9,35.8,386.9,35.8,386.8,35.8C386.9,35.8,386.9,35.8,386.8,35.8z"/>
		<path class="st0" d="M387,35.8C387,35.8,387,35.8,387,35.8C387,35.9,387,35.9,387,35.8z"/>
		<path class="st0" d="M387,35.7C387,35.8,387,35.8,387,35.7C387,35.8,387,35.8,387,35.7C387,35.8,387,35.8,387,35.7z"/>
		<path class="st0" d="M387.8,25.5C387.8,25.5,387.8,25.5,387.8,25.5C387.8,25.5,387.8,25.5,387.8,25.5z"/>
		<polygon class="st0" points="385.3,31.5 385.3,31.5 385.3,31.5 		"/>
		<path class="st0" d="M385.1,31.4c0.3,0.2,0.3,0.2,0.2,0.2l0.8,0.3L385.1,31.4z"/>
		<path class="st0" d="M386.3,27.7l-0.3,0c-0.4-0.2-0.2-0.2-0.6-0.3c0.8,0.3,0,0.3,0.8,0.6l-0.2,0c0,0,0,0,0,0
			c-0.4,0,0.6,0.3,0.4,0.3c-0.1,0-0.2,0-0.3-0.1l0.2,0.2c0,0-0.2,0-0.1-0.1l0,0.2l0,0c0.1,0.1,0.3,0.2,0.4,0.2c-0.1,0-0.1,0-0.2-0.1
			l0.2,0.1c-0.2,0-0.4-0.2-0.4-0.2c-0.9-0.2,0.2,0.1-0.3,0.1l-0.1-0.1c-0.5-0.1-0.3,0-0.7,0c0.2,0,0.8,0.1,1,0.3c-0.1,0-0.1,0,0,0.1
			c-0.3-0.1-0.2,0-0.2,0l-0.4-0.1c0.1,0.1,0.3,0.2,0.5,0.3c-0.1,0-0.4,0-0.6-0.1c-0.1,0.1,0.5,0.1,0.5,0.2c-0.2,0,0,0.1,0.2,0.3
			c-0.2,0-0.2-0.1-0.4-0.1l0.3,0.2c0,0-0.1,0-0.2-0.1c0.1,0.1,0.4,0.1,0.5,0.2c0.4,0.2-0.7-0.1-0.2,0.2c-0.1,0-0.2-0.1-0.4-0.1
			c0.3,0.2,0.2,0.2,0.6,0.4l-0.3,0c0.3,0,0.6,0.2,0.9,0.4c0.1,0,0.3,0.1,0.3,0.1l0.2,0.2c-0.1,0-0.2-0.1-0.4-0.1c0,0,0.1,0,0.1,0.1
			c-0.2,0-0.4-0.1-0.6-0.2c0.1,0,0.2,0,0.3,0c-0.2-0.1-0.5-0.2-0.7-0.3c0,0,0.1,0.1,0.1,0.1c-0.1,0-0.1-0.1-0.2-0.1c0,0,0,0,0.1,0.1
			l-0.4-0.1l0.2,0.1l-0.3,0c0.4,0.2,1,0.6,1.1,0.8c-0.3-0.1-0.5-0.2-0.9-0.3c0.4,0.1-0.1-0.2,0-0.2c-0.1,0-0.2-0.1-0.3-0.1l0.3,0.3
			c-0.3-0.1-0.2-0.1-0.4-0.1c0.6,0.2,0.4,0.3,0.5,0.4c-0.2-0.1-0.4-0.2-0.3-0.2c-0.5-0.1,0.7,0.4,0.3,0.3c0,0,0,0-0.1-0.1
			c0.2,0.1,0,0.2-0.2,0.1l0,0c-0.1,0.1-0.1,0.3,0.4,0.6c-0.1,0-0.6-0.2-0.7-0.3l1.7,0.8c-0.4-0.2-1.5-0.5-1.8-0.7
			c-0.1,0-0.2,0,0,0.1c0.1,0,0.7,0.2,0.7,0.2c-0.5-0.1-0.3,0-0.7-0.1c0.1,0,0.8,0.3,0.8,0.3c-0.1,0-0.7-0.3-0.8-0.3l0.6,0.4
			c-0.1-0.1-0.6-0.2-0.8-0.3c0.1,0,0,0.1,0,0.1l0.2,0c-0.1,0.1,0.9,0.5,0.8,0.6c-0.1-0.1-0.9-0.4-1-0.3c0.3,0.2,1.6,0.8,1.9,1
			l-0.2-0.1l0.2,0.2c-0.5-0.2-1.6-0.8-2-1c-0.2,0-0.2-0.1-0.2,0c-0.2,0-0.3-0.1-0.3-0.2l-0.2,0.1c0.4,0.1,0.4,0.3,0.7,0.4l-0.4-0.3
			c0.4,0.1,1.1,0.5,1,0.6c-0.2,0-0.7-0.3-0.9-0.3c0.1,0.1,0.2,0.2,0.1,0.2l-0.2-0.1c-0.2,0,0.5,0.3,0.1,0.2c0,0-0.6-0.1-0.3,0
			c0.5,0.1,1.9,0.7,2.3,0.8c0,0-0.5,0-0.7-0.1c-0.4-0.1-0.9-0.4-1.2-0.5c0.1,0,0.2,0.1,0.3,0.1c-0.1,0-0.3-0.1-0.3-0.1
			c0.4,0.2-0.1,0.1,0.3,0.2c0.1,0.1-0.1,0-0.1,0.1c0.3,0.1,0.9,0.4,1,0.5c-0.1,0-0.2-0.1-0.3-0.1c-0.1,0.1-0.3,0.1-0.3,0.2
			c-0.1,0-0.2,0-0.4-0.1c0.1,0,0.2,0.1,0.2,0.2c-0.4-0.1,0-0.1-0.5-0.2c0.2,0.1,0.3,0.2,0.4,0.3c0.4,0.1,0.1-0.1,0-0.2
			c0.5,0.2,1,0.5,1.2,0.7c0.1,0.1-0.3-0.1-0.3,0c-0.2,0.1,0.8,0.5,0.4,0.5c-0.4-0.1-0.7-0.2-0.9-0.3c-0.1-0.1,0.3,0,0.3-0.1l-0.2,0
			c-0.1-0.1-0.2-0.2-0.1-0.1c-0.3-0.1-0.2,0.3-0.5,0.3c0.1,0.1,0.2,0.1,0.3,0.2l0-0.1c0.3,0.1,0.3,0.2,0.5,0.2
			c0.2,0.1,0.4,0.3,0.2,0.3l-0.4-0.1c0.1,0,0.2,0,0.1,0c0.2,0.1-0.6-0.1-0.1,0.2l0.3,0c0.2,0.1,0.5,0.4,0.4,0.4c0.4,0.1,0,0,0.4,0.1
			c-0.6-0.2,0.1-0.2-0.5-0.3c0.5,0.1,0.2,0,0.7,0.1c-0.1,0-0.2-0.1-0.2-0.1c0,0-0.1,0-0.1-0.1l0,0l0,0c0,0,0,0,0,0
			c-0.1,0-0.1,0-0.2,0c-0.3-0.1-0.2-0.2-0.4-0.3c0.1,0,0.1,0.1,0.3,0.1l-0.2-0.1c0.3,0.1,0.5,0.1,0.6,0.2l0-0.1c0.2,0,0.3,0,0.1-0.1
			c0.1,0-0.3-0.2-0.1-0.1l-0.1-0.2l0.1,0c0.1-0.1-0.4-0.4,0.2-0.4c-0.1-0.1-0.1-0.1,0-0.2l0.2,0.1c-0.1-0.1,0.3-0.1,0-0.2
			c0.7,0.2,0.2-0.2,0.4-0.2l-0.3-0.1c0-0.1,0-0.1-0.1-0.3l-0.3-0.1c-0.2-0.1,0.3-0.1,0.3-0.2c0.1,0,0.1,0.1,0,0.1
			c0.7,0.1-0.3-0.4,0.1-0.4c-0.1-0.1,0-0.1,0-0.1c0,0,0,0,0,0c0,0,0,0,0,0c0,0,0.1,0,0.2,0c-0.1,0-0.1,0-0.2,0c0,0,0-0.1-0.1-0.1
			l0.3,0.1c0,0,0,0,0,0c0.1,0-0.1-0.1-0.4-0.1c0,0-0.1-0.1-0.2-0.1c0.5,0.2-0.1-0.1,0.4,0c-0.2-0.1-0.1-0.2-0.6-0.4
			c0.1,0,0.1,0,0.1,0c0.1,0,0.1,0,0-0.1l0.4,0.1l-0.5-0.3c0.2,0,0.4,0.1,0.7,0.2c-0.4-0.3-0.1-0.2-0.5-0.4l0.2,0.1
			c0,0-0.3-0.2-0.1-0.2c0.5,0.1,0.2-0.4,0.7-0.4c-0.7-0.2,0.4,0-0.2-0.2c0.2,0.1,0.3,0.1,0.4,0.1c-0.1-0.2,0.3-0.1-0.1-0.3
			c0.2,0,0.2,0.1,0.3,0.1c0,0-0.1-0.1,0-0.1c0.1,0,0.1,0.1,0.2,0.1c0-0.1-0.5-0.3-1-0.5c0.3,0,0.2,0-0.1-0.2c0.2,0,0.3,0.1,0.4,0.2
			c0,0,0.3-0.1-0.1-0.3c0.1,0,0.1,0,0-0.1c0.1-0.1,0.1-0.1,0.1-0.2l-0.1,0c-0.5-0.2-0.1-0.1-0.1-0.2l0,0c0.4,0-0.1-0.1,0.3-0.1
			l-0.3-0.1c-0.6-0.2,0.4,0,0.2-0.2l-0.2,0c-0.2-0.1,0.9,0.2,1,0.1c0.1,0,0.1,0,0.1,0.1c0.4,0-0.4-0.1-0.4-0.3
			c0.2,0,0.5,0.2,0.6,0.2c0.2,0-0.6-0.4-0.2-0.4c-0.2,0-0.3-0.1-0.4-0.2c0-0.1,0.7,0,0.2-0.2c0,0,0.1,0,0.1,0
			c-0.1-0.1-0.2-0.2-0.4-0.4c1,0.3-0.4-0.5,0.5-0.2v-0.2l0.1,0c0.1-0.1-0.1-0.2-0.3-0.3c0.1,0,0.2,0,0.2,0.1
			c0.2-0.1,0.2-0.1-0.2-0.4L389,28c-0.2-0.1,0.6-0.1,0.2-0.3c0,0,0.1,0,0.1,0.1c-0.3-0.3,1-0.1-0.1-0.5l-0.2-0.2
			c-0.1,0.1-0.5-0.2-0.7-0.2c-0.1-0.1,0.4,0,0.4,0.1l-0.1,0c0.6,0.2,0.3-0.1,0.7,0c0.1-0.3,0.5-0.4,0.6-0.7l-0.5-0.1l0.1-0.1
			c0.1,0,0.4,0.1,0.3,0.1c0.3,0-0.2-0.2-0.3-0.2c0.2-0.1,0.5,0.2,0.5,0.2l0-0.1l-0.1,0c-0.2-0.1-0.4-0.2-0.3-0.2
			c0.1,0,0.3,0.1,0.3,0c0,0,0.1,0,0,0l0.1-0.1l-0.4-0.1c-0.2-0.1,0-0.1-0.4-0.2c0.7,0.1,0.3-0.4,0.6-0.3c-0.2-0.1-0.2-0.2-0.2-0.3
			c-0.1,0-0.5-0.1-0.4-0.2c0.8,0.3,0.4,0,1,0.1c-0.4-0.1,0-0.2-0.6-0.3c0.1,0,0.3,0.1,0.5,0.1c-0.3-0.2,0.3-0.3,0.2-0.5
			c-0.1,0-0.3-0.1-0.4-0.1l0.6,0.1c0,0-0.6-0.2-0.2-0.2c-0.1,0-0.2,0-0.3-0.1c0.6-0.2-0.2-0.8,0.9-0.9c-0.2,0-0.2,0-0.2-0.1
			c-0.1,0-0.3-0.1-0.4-0.1l0.5,0c-0.4-0.1,0-0.2-0.4-0.3l0.1,0.1c-0.5-0.2-1.1-0.2-1.7-0.3c0.5,0.2-0.8,0-0.1,0.3
			c-0.1,0-0.2-0.1-0.3-0.1c0.2,0.1,0.3,0.1,0.2,0.2l-0.1,0c0,0.2-0.3,0.2-0.5,0.4l0.3,0.1c0,0-0.1,0-0.2,0c0.4,0.2,0.1-0.1,0.6,0.1
			c-0.6-0.1-0.1,0.3-0.8,0.2c0,0.1,0.3,0.1,0.3,0.1l-0.2,0l0.2,0.1c0,0-0.3,0-0.4,0c0,0,0,0,0-0.1c-0.2,0,0,0.2,0,0.2l0.1,0
			c0.1,0.2-0.2,0.4,0.1,0.7l0.1,0c0.2,0.2-0.2,0.1-0.1,0.2l0,0c0.1,0.1,0.2,0.1,0.2,0.2c-0.1-0.1-0.3,0-0.5-0.1
			c0.2,0.2,0.2,0.1,0.7,0.4l-0.2,0c0.2,0.1,0.3,0.1,0.4,0.2c-0.2-0.1-0.4-0.1-0.6-0.2c-0.6,0,0.4,0.4-0.3,0.2c0.6,0.3,0.4,0,0.5,0
			c0.2,0,0.5,0.2,0.4,0.2c0,0-0.8-0.2-0.9,0c0,0,0,0,0,0c-0.2,0,0.2,0.2-0.1,0.1c0.4,0.1,0,0.1,0.4,0.2l-0.1-0.1
			c0.1,0.1,0.7,0.3,0.4,0.4c-0.1,0-0.2-0.1-0.3-0.2c-0.2,0,0.1,0.1-0.1,0.1c-0.5-0.2-0.1-0.2-0.4-0.4c-0.2,0,0.3,0.2-0.2,0
			c0.7,0.3-0.1,0.1,0.4,0.3l-0.3-0.1c0.1,0,0.2,0.1,0.2,0.1l-0.4-0.2c0.3,0.2-0.3,0-0.2,0.2c0-0.1,0.4,0.1,0.6,0.1
			c0.3,0.3-0.8-0.1-0.7,0.1c0,0,0.2,0,0.3,0c-0.1,0-0.2,0-0.4,0c0,0.1,0.3,0.1,0.5,0.2c-0.4-0.1,0.1,0.1,0.2,0.2l-0.3-0.1
			c-0.2,0.1,0.6,0.2,0.3,0.3l-0.4-0.2l0.1,0.1l-0.3-0.1c0.2,0.2,0.2,0.1,0,0.2c0.2,0.1,0.5,0.2,0.5,0.3c-0.2,0-0.3-0.1-0.3,0
			c-0.2-0.1-0.4-0.2-0.1-0.1c-0.1,0-0.2-0.1-0.3-0.1c-0.2,0-0.1,0.1-0.1,0.1c0,0,0,0,0.1,0l0.4,0.3c-0.1,0-0.2-0.1-0.3-0.1
			c0,0,0.2,0.1,0.2,0.1c-0.2-0.1-0.5-0.2-0.6-0.3l0.2,0.2c-0.1,0-0.3,0-0.4-0.1c-0.2,0,0.4,0.3,0.2,0.3c0.1,0,0.1,0,0.1,0.1
			c-0.1,0.1-0.4,0-0.1,0.3l-0.5-0.1c0.1,0.1,0.6,0.1,0.7,0.3c0.1,0.1-0.4-0.1-0.5-0.1C386.3,27.6,386.7,27.9,386.3,27.7
			C386.2,27.8,386.3,27.8,386.3,27.7z M386.2,28.8C386.1,28.7,385.9,28.6,386.2,28.8C386.4,28.8,386.3,28.8,386.2,28.8z M386.3,30.5
			C386.3,30.5,386.3,30.5,386.3,30.5C386.4,30.5,386.4,30.5,386.3,30.5z M386.9,35.4L386.9,35.4C387,35.4,386.9,35.4,386.9,35.4z
			 M386.7,35.5c0,0,0.1,0,0.1,0.1C386.7,35.5,386.7,35.4,386.7,35.5C386.7,35.4,386.6,35.4,386.7,35.5z M389.9,25.8L389.9,25.8
			C389.8,25.8,389.9,25.8,389.9,25.8z"/>
		<path class="st0" d="M386,30.2c0.1,0,0.1,0,0.2,0.1C386.1,30.2,386.1,30.2,386,30.2z"/>
		<polygon class="st0" points="386.3,27.1 386.3,27.1 386.3,27.1 		"/>
		<path class="st0" d="M384.7,33.1c0,0,0.1,0,0.2,0C384.8,33.1,384.8,33.1,384.7,33.1z"/>
		<path class="st0" d="M387,36.1L387,36.1c-0.1-0.1-0.1-0.1-0.2-0.1C386.9,36.1,387,36.1,387,36.1z"/>
		<path class="st0" d="M385,35.9C385,35.9,385,35.9,385,35.9l0.2,0.1C385.2,35.9,385.1,35.9,385,35.9z"/>
		<path class="st0" d="M386,35.8c-0.2-0.1-0.2,0-0.1,0c0,0,0,0,0,0C386.2,36,386.1,35.9,386,35.8z"/>
		<path class="st0" d="M385.9,35.8C385.9,35.8,385.9,35.9,385.9,35.8C386,35.9,385.9,35.9,385.9,35.8z"/>
		<path class="st0" d="M386.8,35.6c-0.1,0,0.3,0.1,0.2,0.1C387.3,35.9,386.7,35.5,386.8,35.6z"/>
		<polygon class="st0" points="385.2,35.5 385.5,35.6 385.3,35.5 		"/>
		<path class="st0" d="M385.5,35.3l-0.1,0C385.5,35.3,385.5,35.3,385.5,35.3C385.5,35.3,385.6,35.3,385.5,35.3z"/>
		<path class="st0" d="M385.5,35.4C385.5,35.4,385.5,35.4,385.5,35.4C385.6,35.4,385.6,35.4,385.5,35.4z"/>
		<polygon class="st0" points="385.1,35.4 385.2,35.4 385.2,35.3 		"/>
		<path class="st0" d="M385.9,34.6L385.9,34.6c-0.2-0.1-0.2-0.2-0.2-0.1C385.7,34.6,385.8,34.6,385.9,34.6z"/>
		<path class="st0" d="M384.9,34.5c0.1,0,0.1,0,0.2,0.1l-0.4-0.1L384.9,34.5z"/>
		<path class="st0" d="M384.9,34.3c-0.1,0-0.3-0.2-0.3-0.1C384.8,34.2,384.8,34.3,384.9,34.3z"/>
		<polygon class="st0" points="385.8,33.4 385.8,33.5 386.4,33.7 		"/>
		<path class="st0" d="M384.6,32c-0.2,0,0.4,0.2,0.2,0.2c0.1,0.1,0.2,0,0.3,0.1C385,32.1,385.1,32.1,384.6,32z"/>
		<path class="st0" d="M385.1,32.2C385.1,32.2,385.1,32.2,385.1,32.2C385.2,32.2,385.1,32.2,385.1,32.2z"/>
		<polygon class="st0" points="391.2,22.6 391.4,22.6 391.1,22.6 		"/>
		<path class="st0" d="M390.7,22.4l0.4,0.1L390.7,22.4C390.8,22.4,390.8,22.4,390.7,22.4z"/>
		<path class="st0" d="M385.3,28.6L385.3,28.6c0.2,0.1,0.2,0.1,0.2,0L385.3,28.6z"/>
		<polygon class="st0" points="385.8,28 385.8,28 386.2,28.1 		"/>
		<path class="st0" d="M385.6,27.3C385.5,27.3,385.6,27.4,385.6,27.3C385.5,27.3,386,27.4,385.6,27.3z"/>
	</g>
</g>
<g>
	<path class="st0" d="M283.7,400l4.8-155.9c-3.7-65.2,0.3-118.4-124.8-111.2l0,0c-103.2,5.9-115,59.6-111.2,124.8L78.9,400H283.7z"
		/>
	<path class="st0" d="M282.6,164.9c0,0-42.9-38.6-77.4-19.3c-24.3,13.6-24.6,39.5,24.7,105c48.8,64.8,80,84.1,81,85
		c23.9,21.2,55.9-11.3,53.6-35.9C362.5,277.6,282.6,164.9,282.6,164.9z"/>
	<path class="st0" d="M90.4,156.5c23.2,15.4,86.1,36.6,38.8,103.7c-46.7,66.3-73.5,92.2-74.5,93.1C31.5,375.2-1.5,343.7,0.1,319
		C1.4,296.9,68.4,141.9,90.4,156.5z"/>
	<g>
		<path class="st1" d="M203.2,132.2c2.2,14.2-8.8,19-23,21.2l-3.7-2.2c-14.2,2.2-25.8,3.7-28-10.5l-5.4-34.4
			c-2.2-14.2,7.5-27.5,21.7-29.7l3.2-0.5c14.2-2.2,27.5,7.5,29.7,21.7L203.2,132.2z"/>
		<path class="st2" d="M198.6,99.6c0,0-24.1,19.9-36.8,14.4l41.7,21.9L198.6,99.6z"/>
		<path class="st1" d="M202.1,81.2c3,19-8.2,31.1-27.3,34l-4.4,0.7c-19.1,3-33.4-5.1-36.3-24.1l-9.9-45.7
			c-3-19.1,10.1-36.9,29.1-39.9l4.4-0.7c19.1-3,36.9,10.1,39.9,29.1L202.1,81.2z"/>
		<g class="st3">
			
				<image style="overflow:visible;" width="492" height="450" xlink:href="FE1997B2.png"  transform="matrix(0.24 0 0 0.24 112.2444 65.1385)">
			</image>
		</g>
		<path class="st4" d="M129.2,64.1c20.8,1.8,46.8-18,45.3-42.4c0.6,9.6,17.2,24.8,24.6,29.1c3.1-15.8,7.4-30.8-8.2-39.5
			c-12.7-7.1-30.9-14.4-45.4-10c-39,11.8-37.2,55.4-57.8,82.4c-9.4,12.3-24.4,18.4-34.1,30.4c-18,22.3-3.1,44.9,21.2,54
			c33.7,12.5,68.2,0.9,89.3-27.1"/>
		<g class="st5">
			
				<image style="overflow:visible;" width="447" height="524" xlink:href="FE1997B6.png"  transform="matrix(0.24 0 0 0.24 93.05 74.6112)">
			</image>
		</g>
	</g>
	<g>
		<path class="st1" d="M134.7,70.8c0,0-7.5-10.2-15-3.2c-7.4,7.1,0.7,21.3,21.5,20.5"/>
		<line class="st6" x1="125.6" y1="73.7" x2="131.2" y2="77.5"/>
	</g>
	<g>
		<g>
			<g>
				<path class="st7" d="M155.5,64.7c-3-1.3-2.7,4.3-1.8,5.7c2.3,3.4,3.6-2.4,2.2-5L155.5,64.7z"/>
				<path class="st7" d="M185.6,60.1c-3-1.3-2.7,4.3-1.7,5.7c2.3,3.4,3.6-2.4,2.2-5L185.6,60.1z"/>
				<g>
					<g>
						<g>
							<g>
								<g>
									<g>
										<path class="st8" d="M170.2,84.3c0,0,0,0.3,0,0.3C170.3,84.6,170.2,84.2,170.2,84.3z"/>
										<polygon class="st8" points="170.8,83.5 170.8,83.6 170.9,83.3 										"/>
										<path class="st8" d="M171.5,83.5c-0.1-0.5-0.2,0.1-0.4-0.1l0-0.1l0,0.4C171.2,83.6,171.3,83.3,171.5,83.5z"/>
										<path class="st8" d="M171.9,84.6C171.9,84.4,172,84.4,171.9,84.6C171.8,84.6,171.8,84.6,171.9,84.6
											C171.9,84.6,171.9,84.6,171.9,84.6z"/>
										<path class="st8" d="M171.8,84.6C171.8,84.6,171.9,84.8,171.8,84.6L171.8,84.6z"/>
										<path class="st8" d="M172.2,84.4l-0.1,0.2c0,0.1,0.1,0.1,0.1,0.2C172.3,84.8,172.2,84.6,172.2,84.4z"/>
										<path class="st8" d="M172.2,84L172.2,84C172.2,84.2,172.2,84.2,172.2,84z"/>
										<path class="st8" d="M172.1,84.3l0.1-0.2c0-0.1,0-0.3,0,0.1C172.1,84,172.1,84.2,172.1,84.3z"/>
										<path class="st8" d="M172,84.2c-0.1-0.1-0.1-0.2-0.1-0.4C171.8,83.9,171.9,84.3,172,84.2z"/>
										<path class="st8" d="M171.4,82.9l-0.1-0.2l0,0.2C171.3,82.9,171.5,83.1,171.4,82.9z"/>
										<path class="st8" d="M172.8,84.7c0-0.1-0.1-0.3-0.1-0.4l-0.1,0.1C172.7,84.4,172.8,84.5,172.8,84.7z"/>
										<path class="st8" d="M172.7,84.2l0.1-0.2C172.7,84,172.7,84.1,172.7,84.2z"/>
										<polygon class="st8" points="172.2,83.4 172.1,83.9 172.2,83.4 										"/>
										<polygon class="st8" points="173.3,84.6 173.2,84.9 173.3,84.5 										"/>
										<path class="st8" d="M173.5,84.5c0,0.2,0.1,0.4,0.1,0.5c0.1-0.1,0.1-0.2,0.2-0.4C173.7,84.7,173.7,84.7,173.5,84.5z"/>
										<path class="st8" d="M173.9,84.3c0,0.1,0,0.2-0.1,0.3C173.8,84.5,173.9,84.5,173.9,84.3z"/>
										<path class="st8" d="M173,84c0,0.1,0.1,0.2,0.1,0.3L173,84L173,84z"/>
										<path class="st8" d="M173.1,84L173.1,84C173.1,84,173.1,84,173.1,84C173.1,84,173.1,84,173.1,84z"/>
										<path class="st8" d="M173,84L173,84C173,84,173,84,173,84z"/>
										<path class="st8" d="M172.5,83.7c0-0.2,0.2-0.4,0-0.6C172.5,83.3,172.6,83.4,172.5,83.7z"/>
										<path class="st8" d="M172.9,83.6l-0.1-0.1c0,0.1,0,0.2,0,0.3L172.9,83.6z"/>
										<polygon class="st8" points="172.9,83.5 172.9,83.6 173,83.7 										"/>
										<path class="st8" d="M173.6,84.1c0-0.1,0.1-0.2,0.2-0.2c-0.1-0.1-0.2-0.1-0.2-0.1C173.5,83.9,173.5,84.1,173.6,84.1z"/>
										<path class="st8" d="M173.3,84L173.3,84C173.3,84,173.3,84,173.3,84z"/>
										<polygon class="st8" points="174.4,83.8 174.4,83.7 174.4,83.8 										"/>
										<path class="st8" d="M173.5,83.8c-0.1-0.1-0.1,0-0.1,0.1C173.4,83.9,173.5,83.8,173.5,83.8
											C173.5,83.8,173.5,83.7,173.5,83.8z"/>
										<path class="st8" d="M174,84.2c0-0.1-0.1-0.1-0.1-0.2C173.9,84.1,174,84.2,174,84.2z"/>
										<path class="st8" d="M173.4,84.1L173.4,84.1C173.4,84.2,173.4,84.1,173.4,84.1z"/>
										<path class="st8" d="M173.4,84.1c0,0,0-0.1,0-0.2C173.4,83.9,173.4,84,173.4,84.1C173.3,84,173.4,84.1,173.4,84.1z"/>
										<path class="st8" d="M174.1,81.7c0.1,0.3,0,0.6-0.2,0.3c-0.1,0.2,0.2,1.2,0.4,1.7c0-0.1,0-0.2,0-0.4
											c-0.1-0.1-0.3-0.3-0.3-0.6c0.1-0.2,0.1,0.1,0.3,0.2c-0.1-0.3,0.1-0.6-0.1-1.1l-0.1,0.2C174.2,81.9,174.2,81.8,174.1,81.7z
											"/>
										<path class="st8" d="M174.1,83.7L174.1,83.7c0,0.1,0.1,0.2,0.2,0.4c0.1-0.2,0.1-0.3,0-0.4
											C174.4,83.8,174.1,83.8,174.1,83.7L174.1,83.7z"/>
										<path class="st8" d="M173.9,83.8c0-0.3,0.1-0.5-0.1-0.8c-0.1,0-0.1,0.3-0.1,0.4C173.9,83.3,173.7,83.6,173.9,83.8
											c0,0-0.1,0-0.1,0.1c0,0,0.1,0.1,0.1,0.1l0,0l0,0l0,0c0,0,0-0.1,0,0c0,0,0,0,0,0C173.9,83.9,173.9,83.8,173.9,83.8
											c0.1,0.1,0,0.1,0,0.1l0,0l0,0l0.2-0.2C174,83.7,174,83.8,173.9,83.8z"/>
										<path class="st8" d="M172.5,82.4C172.6,82.4,172.6,82.4,172.5,82.4C172.6,82.4,172.6,82.4,172.5,82.4z"/>
										<path class="st8" d="M172.7,82.5c0,0,0,0.2-0.1,0.1c-0.1-0.1,0-0.2,0-0.3c0,0.1-0.1,0.2,0,0.4l0,0
											c0.1,0.1,0.3,0.5,0.2,0.5C172.8,83,172.7,82.8,172.7,82.5z"/>
										<path class="st8" d="M173.2,83.1l0.2-0.2l-0.1-0.3l0,0.2C173.2,82.8,173.2,83,173.2,83.1z"/>
										<polygon class="st8" points="174.5,83.9 174.5,84.3 174.5,83.8 										"/>
										<polygon class="st8" points="174.7,83.8 174.8,84.1 174.8,83.9 										"/>
										<path class="st8" d="M172.4,71.9L172.4,71.9C172.4,71.9,172.4,71.9,172.4,71.9z"/>
										<path class="st8" d="M172.6,72.2l0.1-0.1C172.6,72.2,172.6,72.2,172.6,72.2z"/>
										<path class="st8" d="M178.4,77.4c0.2-0.2,0.6-0.4,0.3-0.2l-0.3,0.1C178.5,77.3,178.5,77.4,178.4,77.4z"/>
										<path class="st8" d="M175.4,74.4L175.4,74.4c0,0,0.1,0,0.2,0C175.5,74.4,175.4,74.4,175.4,74.4z"/>
										<path class="st8" d="M174.1,74.8l0.2-0.2C174.2,74.7,174.1,74.8,174.1,74.8z"/>
										<path class="st8" d="M171.3,70.2l-0.3,0.1C171,70.3,171.2,70.2,171.3,70.2z"/>
										<path class="st8" d="M177.8,82.2c0.2,0,0.3,0,0.3-0.1C177.9,82.1,177.6,82,177.8,82.2z"/>
										<path class="st8" d="M175.7,70.6c-0.1,0-0.1,0-0.2,0C175.5,70.7,175.6,70.7,175.7,70.6z"/>
										<path class="st8" d="M178.4,81.9C178.3,81.9,178.3,81.9,178.4,81.9c-0.1,0.1-0.1,0.2-0.2,0.2
											C178.3,82.1,178.5,82.1,178.4,81.9z"/>
										<path class="st8" d="M168.6,63.1C168.6,63.1,168.6,63.1,168.6,63.1C168.6,63.1,168.6,63.1,168.6,63.1z"/>
										<path class="st8" d="M170.9,60C170.9,60,170.9,60,170.9,60C171,60,171,60,170.9,60z"/>
										<path class="st8" d="M176,83.6C175.9,83.6,176,83.6,176,83.6L176,83.6z"/>
										<path class="st8" d="M175.2,82.5c0,0,0-0.1,0-0.2C175.2,82.4,175.2,82.5,175.2,82.5z"/>
										<path class="st8" d="M176.9,80.4L176.9,80.4C176.8,80.3,176.8,80.3,176.9,80.4z"/>
										<path class="st8" d="M175.8,83.5c0,0,0.1,0,0.1,0C175.9,83.5,175.9,83.5,175.8,83.5z"/>
										<path class="st8" d="M175.9,83.6C175.9,83.6,175.8,83.6,175.9,83.6C175.8,83.7,175.8,83.7,175.9,83.6z"/>
										<path class="st8" d="M176.1,83.5c0,0-0.1,0-0.1,0c0,0,0,0,0,0C176,83.5,176.1,83.5,176.1,83.5z"/>
										<path class="st8" d="M170.9,66.5C171,66.5,171,66.5,170.9,66.5C170.8,66.5,170.9,66.5,170.9,66.5z"/>
										<path class="st8" d="M174.8,77.1C174.8,77.1,174.8,77.1,174.8,77.1L174.8,77.1L174.8,77.1z"/>
										<path class="st8" d="M174.5,77c0.4,0,0.4,0,0.3,0.1l0.9-0.2L174.5,77z"/>
										<path class="st8" d="M172,71.1l-0.2,0.2c-0.5,0.1-0.4-0.1-0.7,0.2c0.9-0.4,0.3,0.4,1.2,0l-0.2,0.2c0,0-0.1,0-0.1,0
											c-0.4,0.3,0.7-0.2,0.7,0.1c0,0.1-0.2,0.2-0.3,0.2l0.3,0c0,0-0.2,0.1-0.2,0.1l0.2,0.2l0,0c0.2,0,0.4-0.1,0.5-0.1
											c-0.1,0.1-0.1,0-0.2,0.1l0.3,0c-0.2,0.2-0.5,0.2-0.5,0.1c-0.9,0.5,0.3,0-0.2,0.5l-0.2-0.1c-0.5,0.3-0.3,0.3-0.5,0.6
											c0.2-0.1,0.7-0.6,1-0.6c-0.1,0.1-0.1,0.1,0.2,0.1c-0.3,0.1-0.2,0.2-0.2,0.3l-0.4,0.2c0.2,0,0.4-0.1,0.6-0.1
											c0,0.1-0.3,0.3-0.6,0.4c0,0.2,0.5-0.4,0.7-0.2c-0.1,0.2,0.1,0.2,0.4,0.3c-0.1,0.2-0.3,0.1-0.4,0.2l0.4-0.1
											c0,0-0.1,0.1-0.2,0.1c0.2,0,0.4-0.2,0.6-0.1c0.5-0.2-0.6,0.5,0,0.4c-0.1,0.1-0.3,0.1-0.4,0.2c0.4,0,0.3,0.1,0.9,0
											l-0.2,0.3c0.3-0.2,0.7-0.3,1.1-0.3c0.1-0.1,0.3-0.2,0.3-0.2l0.3,0.1c-0.1,0.1-0.2,0.1-0.4,0.1c0,0,0.1,0,0.1,0
											c-0.1,0.1-0.4,0.2-0.7,0.3c0.1-0.1,0.2-0.1,0.2-0.2c-0.3,0.1-0.6,0.1-0.9,0.3c0.1,0,0.1,0,0.1,0c-0.1,0-0.1,0-0.2,0.1
											c0,0,0.1,0,0.2,0l-0.5,0.2l0.2-0.1l-0.2,0.4c0.6,0,1.4-0.2,1.7,0c-0.4,0.1-0.6,0.2-1,0.4c0.4-0.2-0.3-0.1-0.2-0.3
											c0,0.1-0.2,0.2-0.3,0.2l0.5,0.1c-0.4,0.1-0.2,0.2-0.4,0.3c0.7-0.3,0.5,0,0.8,0c-0.2,0.1-0.5,0.2-0.5,0
											c-0.5,0.3,0.9-0.1,0.5,0.2c0,0,0-0.1-0.1,0c0.2,0,0.1,0.2-0.1,0.2l0,0c0,0.2,0.2,0.5,0.8,0.4c-0.1,0-0.8,0.1-0.9,0.2
											c0,0,0.5,0,1.1-0.1c0.5,0,1.1,0,1.1,0c-0.5,0.1-1.8,0.5-2.1,0.4c-0.1,0.1-0.1,0.2,0.1,0.3c0.1-0.1,0.8-0.3,0.8-0.2
											c-0.6,0.3-0.3,0.2-0.8,0.5c0.1-0.1,0.9-0.2,0.9-0.2c-0.1,0-0.8,0.2-0.9,0.2c0,0,0.2,0,0.4,0c0.2,0,0.4,0,0.4,0
											c-0.2,0-0.7,0.2-0.9,0.3c0.2-0.1,0,0.2,0.1,0.2l0.2-0.1c0,0.3,1.2-0.1,1.2,0.1c-0.2,0-1,0.3-1.1,0.4
											c0.2,0,0.7-0.2,1.2-0.2c0.5-0.1,1-0.1,1.2,0.1l-0.2,0.1l0.3,0.2c-0.7-0.1-2.1-0.1-2.6,0c-0.2,0.1-0.3,0.1-0.2,0.1
											c-0.2,0.1-0.3,0.1-0.4,0.1c0,0-0.1,0.1-0.1,0.1c0.5-0.1,0.5,0,1,0c0,0-0.6-0.1-0.6-0.1c0.5-0.1,1.5-0.2,1.4,0.1
											c-0.2,0.1-0.9,0-1.1,0.1c0.2,0,0.4,0.1,0.2,0.1l-0.3,0c-0.2,0,0.7,0.1,0.2,0.2c0,0-0.7,0-0.4,0c0.6,0.1,2.5,0.2,2.9,0.3
											c0,0-0.5,0.3-0.8,0.2c-0.5,0-1.1-0.3-1.6-0.4c0.1,0,0.3,0.1,0.4,0.1c-0.1,0-0.5-0.1-0.4,0c0.5,0.1-0.1,0.1,0.5,0.2
											c0.1,0.1-0.1,0.1-0.1,0.1c0.4,0.1,1.2,0.5,1.2,0.7c-0.1-0.1-0.3-0.1-0.4-0.1c-0.1,0.2-0.4,0.2-0.6,0.3
											c-0.1-0.1-0.3-0.1-0.5-0.3c0.1,0.1,0.2,0.2,0.2,0.2c-0.5-0.2,0-0.1-0.5-0.4c0.3,0.2,0.3,0.3,0.4,0.5
											c0.4,0.3,0.2-0.1,0.1-0.2c0.6,0.4,1,0.9,1,1.3c-0.1,0.3-0.4-0.2-0.3-0.1c-0.4,0.1,0.4,1-0.2,0.8c-0.4-0.3-0.5-0.7-0.7-0.9
											c0-0.2,0.4,0.1,0.5,0l-0.2-0.1c0-0.1,0-0.2,0.1-0.2c-0.3-0.2-0.6,0.2-0.9,0c0,0.1,0,0.3,0.1,0.4l0.1-0.1
											c0.2,0.3,0,0.5,0.2,0.6c0,0.3-0.1,0.7-0.3,0.5l-0.2-0.4c0,0.1,0.2,0.2,0.2,0.1c0,0.2-0.4-0.5-0.3,0.1l0.2,0.3
											c0,0.3-0.1,0.8-0.3,0.7c0.2,0.4,0-0.1,0.3,0.4c-0.3-0.6,0.4-0.1,0.1-0.7c0.3,0.5,0.2,0.2,0.6,0.6c-0.1-0.1-0.2-0.2,0-0.2
											c0,0,0-0.1,0-0.1l0,0l0,0c0,0,0,0,0,0c-0.1,0-0.1-0.1-0.2-0.2c0-0.4,0.2-0.4,0.2-0.6c0.1,0,0,0.2,0.2,0.3l0-0.3
											c0.2,0.3,0.5,0.4,0.4,0.6c0,0,0.2-0.1,0.2-0.1c0.2,0.1,0.4,0,0.5-0.1c0.1,0,0-0.4,0.1-0.2l0.2-0.3l0.1,0.1
											c0.3-0.2,0.1-0.8,0.8-0.7c0-0.1,0-0.3,0.2-0.4l0.3,0.1c0-0.2,0.5-0.3,0.2-0.5c0.8,0.1,0.4-0.7,0.5-1L179,80
											c0-0.2-0.1-0.4-0.2-0.6l-0.3,0c-0.3-0.2,0.2-0.5,0.1-0.8c0.1,0,0.1,0.1,0,0.1c0.3-0.2,0.2-0.4-0.1-0.6
											c-0.2-0.2-0.4-0.3-0.2-0.5c-0.1,0-0.1-0.1,0-0.1c0,0,0,0,0,0c0,0,0,0,0,0c0,0,0.1-0.1,0.1-0.1c-0.1,0-0.1,0.1-0.2,0.1
											c0,0-0.1-0.1-0.2-0.1l0.3-0.1c0,0,0,0,0,0c0.1-0.1-0.2,0-0.4,0.1c-0.1,0-0.1,0-0.2,0c0.5-0.2-0.2-0.1,0.3-0.3
											c-0.3,0-0.3-0.2-0.9-0.1c0.1,0,0.1,0,0.1,0c0.1-0.1,0.1-0.2-0.1-0.2l0.4-0.1l-0.6,0c0.3-0.1,0.4-0.2,0.8-0.2
											c-0.6,0-0.2-0.1-0.8-0.2l0.3-0.1c0-0.1-0.5-0.1-0.2-0.2c0.5-0.3-0.2-0.9,0.2-1.4c-0.8,0.4,0.3-0.3-0.3-0.1
											c0.2-0.1,0.3-0.2,0.5-0.2c-0.3-0.1,0.2-0.4-0.4-0.3c0.2-0.1,0.3-0.1,0.4-0.1c0,0-0.2,0-0.1-0.1c0.1-0.1,0.2,0,0.3,0
											c-0.1-0.2-0.7,0-1.3,0.2c0.2-0.2,0.2-0.2-0.2-0.2c0.2-0.1,0.3-0.2,0.4-0.2c0-0.1,0.1-0.5-0.3-0.3c0.1-0.1,0-0.1-0.1-0.1
											c0-0.2,0-0.2-0.1-0.3l-0.1,0.1c-0.6,0.2-0.2-0.1-0.3-0.2l0.1,0c0.3-0.4-0.2,0,0.1-0.5l-0.3,0.2c-0.7,0.3,0.3-0.4,0-0.4
											l-0.2,0.1c-0.3,0,0.9-0.6,0.9-0.8c0.1,0,0.1,0,0.2,0c0.3-0.4-0.4,0.2-0.6,0c0.2-0.1,0.6-0.2,0.6-0.3
											c0.2-0.1-0.9,0-0.5-0.3c-0.2,0.1-0.3,0.2-0.5,0.2c-0.1-0.1,0.5-0.6-0.1-0.5c0,0,0.1-0.1,0.1-0.1c-0.2,0-0.4-0.2-0.7-0.1
											c1.1-0.6-0.8-0.3,0.3-0.7l-0.2-0.2l0.1,0c0-0.2-0.3-0.1-0.6-0.1c0.1-0.1,0.2-0.1,0.2-0.1c0.1-0.3,0-0.3-0.6-0.3l0.3-0.2
											c-0.2,0,0.4-0.6-0.1-0.7c0,0,0.1,0,0.2,0c-0.5-0.1,0.7-1.1-0.6-0.6l-0.4,0c0,0.3-0.6,0.2-0.7,0.4
											c-0.1-0.1,0.3-0.4,0.4-0.3l-0.1,0c0.7-0.2,0.1-0.4,0.5-0.6c-0.2-0.4-0.1-1-0.2-1.5l-0.5,0.3l0-0.2
											c0.1-0.1,0.4-0.2,0.4-0.1c0.3-0.2-0.3-0.1-0.4,0c0.1-0.3,0.6-0.2,0.6-0.2l-0.1-0.1l-0.1,0c-0.2,0-0.5,0.1-0.5,0
											c0.1-0.1,0.3-0.2,0.3-0.2c0,0,0,0,0-0.1l0-0.2l-0.4,0.2c-0.2,0-0.1-0.2-0.5,0.1c0.6-0.4-0.1-0.8,0.1-1
											c-0.3,0-0.4-0.1-0.4-0.3c-0.1,0.1-0.5,0.3-0.5,0.1c0.9-0.3,0.3-0.4,0.9-0.8c-0.4,0.3-0.3-0.3-0.8,0.1
											c0-0.1,0.3-0.1,0.5-0.3c-0.5-0.1,0-0.6-0.2-0.9c-0.1,0-0.3,0.2-0.5,0.2l0.5-0.4c-0.1,0-0.7,0.2-0.3,0
											c-0.1,0.1-0.2,0.1-0.3,0.1c0.3-0.8-0.9-1,0-2c-0.2,0.2-0.3,0.1-0.3,0.1c0,0.1-0.3,0.1-0.5,0.2l0.4-0.4
											c-0.5,0.1-0.1-0.3-0.6-0.1l0.1,0.1c-0.6,0.1-1.1,0.5-1.8,0.8c0.6-0.1-0.8,0.6,0.2,0.5c-0.1,0.1-0.2,0-0.4,0.1
											c0.3-0.1,0.4,0,0.3,0.2l-0.1,0c0.2,0.3,0,0.5-0.1,1l0.3-0.2c0,0.1-0.1,0.2-0.2,0.2c0.5-0.1-0.1-0.2,0.5-0.4
											c-0.6,0.4,0.2,0.5-0.5,0.9c0,0.1,0.4-0.2,0.4-0.1l-0.2,0.1l0.3-0.1c0,0.1-0.3,0.2-0.4,0.3c0,0-0.1,0-0.1,0
											c-0.2,0.2,0.2,0.2,0.1,0.3l0.1-0.2c0.3,0.2,0.2,0.7,0.8,0.9l0.1-0.1c0.4,0.1-0.1,0.3,0.1,0.5l0,0c0.2,0,0.3,0,0.3,0.1
											c-0.2,0-0.3,0.3-0.5,0.3c0.4,0.1,0.3,0,0.9-0.1l-0.2,0.1c0.3,0,0.4-0.1,0.5,0c-0.3,0-0.4,0.2-0.7,0.3
											c-0.4,0.5,0.7,0.2,0,0.6c0.8-0.2,0.3-0.4,0.5-0.4c0.2-0.2,0.6-0.1,0.5,0c0,0.1-0.8,0.5-0.7,0.7c0,0-0.1,0-0.1,0
											c-0.1,0.2,0.3,0.1,0.1,0.3c0.5-0.1,0,0.1,0.6-0.1l-0.2-0.1c0.2,0.1,0.9-0.1,0.6,0.2c-0.1,0-0.3,0-0.4,0
											c-0.1,0.1,0.2,0.1,0,0.2c-0.6,0.2-0.2-0.2-0.7-0.1c-0.2,0.2,0.5,0.1-0.1,0.3c0.8-0.2,0,0.3,0.6,0.2l-0.3,0.1
											c0.1,0,0.2,0,0.2,0l-0.5,0.1c0.4,0-0.2,0.4,0,0.4c-0.1-0.2,0.4-0.2,0.6-0.4c0.6,0.1-0.8,0.5-0.5,0.8
											c-0.1,0,0.1-0.3,0.3-0.2c0,0.1-0.1,0.2-0.3,0.3c0.2,0.2,0.3-0.2,0.6-0.2c-0.4,0.2,0.2,0,0.4,0.1l-0.3,0.1
											c-0.1,0.3,0.7-0.2,0.6,0.1l-0.5,0.1l0.2,0.1l-0.4,0.1c0.3,0,0.3,0.1,0.2,0.2c0.2-0.1,0.6-0.2,0.7-0.1
											c-0.2,0.2-0.3,0.1-0.2,0.2c-0.2,0.1-0.5,0.1-0.2-0.1c-0.1,0-0.2,0.1-0.3,0.1c-0.2,0.2,0,0.2,0.1,0.3c0,0,0-0.1,0.1-0.1
											l0.6,0c-0.1,0.1-0.2,0.1-0.3,0.1c0.1,0,0.2,0,0.3,0c-0.3,0.1-0.6,0.2-0.7,0.2l0.4,0.1c-0.1,0.1-0.3,0.3-0.4,0.3
											c-0.1,0.2,0.6,0.1,0.5,0.3c0.1,0,0.1,0,0.2,0c0,0.2-0.3,0.4,0.2,0.5l-0.4,0.3c0.2,0.1,0.5-0.4,0.8-0.3
											c0.2,0.1-0.4,0.2-0.5,0.4c0.3,0,0.8-0.1,0.5,0.2C172,71.2,172.1,71.1,172,71.1z M172.9,72.7c-0.1,0-0.3,0-0.1-0.1
											C173.2,72.5,173,72.6,172.9,72.7z M174.8,74.9c-0.1,0-0.1,0,0-0.1C174.9,74.8,174.9,74.8,174.8,74.9z M176.7,82.9
											C176.7,82.9,176.7,82.9,176.7,82.9C176.8,82.9,176.8,82.9,176.7,82.9z M176.4,82.9c0,0.1,0,0.1,0.1,0.1
											c0-0.1,0-0.1,0.1-0.1C176.4,82.8,176.4,82.8,176.4,82.9z M173,65.1L173,65.1C172.8,65.1,172.9,65.1,173,65.1z"/>
										<path class="st8" d="M174.3,74.8c0.1,0,0.1-0.1,0.2-0.1C174.4,74.7,174.3,74.7,174.3,74.8z"/>
										<polygon class="st8" points="171.4,70.1 171.4,70.1 171.3,70.2 										"/>
										<path class="st8" d="M175.5,79.4c0.1,0,0.1,0,0.2,0C175.6,79.4,175.5,79.4,175.5,79.4z"/>
										<path class="st8" d="M175.3,84l0.1-0.1c-0.1,0-0.1,0-0.2-0.1C175.3,83.9,175.3,84,175.3,84z"/>
										<path class="st8" d="M173.8,82C173.8,82.1,173.8,82,173.8,82l0,0.2C173.9,82.2,173.9,82.1,173.8,82z"/>
										<path class="st8" d="M174.9,82.9c-0.1-0.3-0.1-0.2-0.2-0.1c0,0,0,0,0,0C174.8,83.2,174.8,83,174.9,82.9z"/>
										<path class="st8" d="M174.7,82.8C174.6,82.8,174.6,82.8,174.7,82.8C174.6,83,174.6,82.8,174.7,82.8z"/>
										<path class="st8" d="M176.1,83.2c-0.1,0,0.1,0.4,0.1,0.3C176.3,83.9,176.4,82.9,176.1,83.2z"/>
										<polygon class="st8" points="174.5,81.9 174.7,82.3 174.6,82 										"/>
										<path class="st8" d="M175.2,82l-0.2-0.1c0,0.1,0,0.1,0,0.1C175.1,82,175.2,82.1,175.2,82z"/>
										<path class="st8" d="M175.1,82.1C175,82.1,175,82.1,175.1,82.1C175,82.1,175,82.1,175.1,82.1z"/>
										<polygon class="st8" points="174.7,81.8 174.7,81.8 174.8,81.8 										"/>
										<path class="st8" d="M176.5,81.4l0-0.2c-0.1-0.1-0.2-0.1-0.2-0.1C176.4,81.3,176.4,81.3,176.5,81.4z"/>
										<path class="st8" d="M175.4,80.8c0.1,0,0.1,0.1,0.2,0.2l-0.3-0.4L175.4,80.8z"/>
										<path class="st8" d="M175.6,80.6c-0.1-0.1-0.2-0.3-0.3-0.3C175.4,80.4,175.5,80.6,175.6,80.6z"/>
										<polygon class="st8" points="176.8,79.5 176.8,79.5 177.6,79.7 										"/>
										<path class="st8" d="M174.7,78.5c-0.1,0.2,0.5-0.1,0.3,0.1c0.2,0,0.1-0.2,0.3-0.2C175.1,78.4,175.1,78.3,174.7,78.5z"/>
										<path class="st8" d="M175.3,78.4c0,0,0.1,0,0.1,0C175.3,78.4,175.3,78.4,175.3,78.4z"/>
										<polygon class="st8" points="171.2,59.5 171.3,59.4 171.1,59.5 										"/>
										<path class="st8" d="M170.6,59.5l0.5-0.2L170.6,59.5C170.6,59.4,170.7,59.5,170.6,59.5z"/>
										<path class="st8" d="M172.2,73.3l0.1,0c0.1-0.1,0.1-0.1,0.1-0.1L172.2,73.3z"/>
										<polygon class="st8" points="172,72 172,72 172.3,71.8 										"/>
										<path class="st8" d="M171,71.2c0,0,0.1,0.1,0.1,0.1C171,71.2,171.5,70.9,171,71.2z"/>
									</g>
								</g>
							</g>
						</g>
					</g>
				</g>
			</g>
		</g>
		<g>
			<g>
				<g>
					<g>
						<g>
							<g>
								<path class="st8" d="M172.1,92.1c0,0-0.2-0.2-0.2-0.3C171.9,91.9,172.2,92.2,172.1,92.1z"/>
								<polygon class="st8" points="172.2,92.9 172.2,92.8 172.3,93 								"/>
								<path class="st8" d="M172,93.1c0.3,0.4,0.1-0.1,0.2,0l0.1,0.1l-0.2-0.4C172,92.9,172.1,93.2,172,93.1z"/>
								<path class="st8" d="M171.2,92.2C171.3,92.3,171.3,92.3,171.2,92.2C171.3,92.2,171.3,92.2,171.2,92.2
									C171.2,92.2,171.2,92.2,171.2,92.2z"/>
								<path class="st8" d="M171.3,92.2C171.3,92.1,171.1,92,171.3,92.2L171.3,92.2z"/>
								<path class="st8" d="M171.2,92.3l-0.1-0.2c-0.1-0.1-0.1-0.1-0.1-0.2C171,92.1,171.1,92.2,171.2,92.3z"/>
								<path class="st8" d="M171.3,92.7L171.3,92.7C171.3,92.6,171.3,92.5,171.3,92.7z"/>
								<path class="st8" d="M171.3,92.4l0,0.2c0,0.1,0.1,0.2,0-0.1C171.4,92.7,171.3,92.5,171.3,92.4z"/>
								<path class="st8" d="M171.3,92.5c0.1,0.1,0.1,0.1,0.2,0.3C171.6,92.7,171.4,92.4,171.3,92.5z"/>
								<path class="st8" d="M172.2,93.5l0.1,0.1L172.2,93.5C172.3,93.6,172.1,93.4,172.2,93.5z"/>
								<path class="st8" d="M170.8,92.2c0.1,0.1,0.1,0.3,0.2,0.4l0-0.1C171,92.4,170.9,92.3,170.8,92.2z"/>
								<path class="st8" d="M171,92.6l0,0.2C171.1,92.8,171.1,92.7,171,92.6z"/>
								<polygon class="st8" points="171.6,93.2 171.5,92.8 171.6,93.2 								"/>
								<polygon class="st8" points="170.7,92.2 170.6,92 170.7,92.4 								"/>
								<path class="st8" d="M170.6,92.3c-0.1-0.2-0.2-0.3-0.2-0.5c0,0,0,0.2,0.1,0.4C170.5,92.2,170.5,92.2,170.6,92.3z"/>
								<path class="st8" d="M170.5,92.5c0-0.1,0-0.1-0.1-0.2C170.5,92.3,170.5,92.4,170.5,92.5z"/>
								<path class="st8" d="M171,92.8c0-0.1-0.1-0.2-0.2-0.3L171,92.8L171,92.8z"/>
								<path class="st8" d="M171,92.8L171,92.8C171,92.8,170.9,92.8,171,92.8C170.9,92.8,171,92.8,171,92.8z"/>
								<path class="st8" d="M171,92.8L171,92.8C171,92.8,171,92.8,171,92.8z"/>
								<path class="st8" d="M171.4,93c0.1,0.2,0.1,0.4,0.3,0.6C171.5,93.4,171.4,93.3,171.4,93z"/>
								<path class="st8" d="M171.2,93.1L171.2,93.1c0,0,0-0.1,0-0.2L171.2,93.1z"/>
								<polygon class="st8" points="171.2,93.2 171.2,93.1 171.2,93.1 								"/>
								<path class="st8" d="M170.7,92.8c0,0.1,0,0.2,0,0.2c0,0,0.1,0.1,0.1,0C170.8,92.9,170.8,92.7,170.7,92.8z"/>
								<path class="st8" d="M170.9,92.8L170.9,92.8C170.9,92.8,170.9,92.8,170.9,92.8z"/>
								<polygon class="st8" points="170.5,93 170.5,93.1 170.5,93 								"/>
								<path class="st8" d="M170.9,93c0,0,0,0,0-0.1C170.9,93,170.9,93,170.9,93C170.9,93,170.9,93.1,170.9,93z"/>
								<path class="st8" d="M170.5,92.7c0,0.1,0.1,0.1,0.1,0.2C170.6,92.7,170.5,92.6,170.5,92.7z"/>
								<path class="st8" d="M170.8,92.7L170.8,92.7C170.8,92.7,170.8,92.7,170.8,92.7z"/>
								<path class="st8" d="M170.8,92.7c0,0,0,0.1,0.1,0.2C170.9,92.9,170.9,92.9,170.8,92.7C170.9,92.8,170.8,92.8,170.8,92.7z"/>
								<path class="st8" d="M171,95c-0.1-0.3-0.1-0.6,0.1-0.3c0-0.2-0.4-1.1-0.6-1.6c0,0.1,0.1,0.2,0.1,0.4
									c0.1,0.1,0.2,0.3,0.3,0.6c0,0.2-0.1-0.1-0.2-0.2c0.2,0.3,0.1,0.5,0.3,1.1l0-0.2C171,94.8,171,94.9,171,95z"/>
								<path class="st8" d="M170.6,93.1L170.6,93.1c0-0.1-0.1-0.2-0.2-0.4c0,0.1,0,0.3,0.1,0.3L170.6,93.1L170.6,93.1z"/>
								<path class="st8" d="M170.7,93c0.1,0.3,0.1,0.5,0.3,0.8c0.1,0,0-0.3-0.1-0.4C170.8,93.5,170.9,93.2,170.7,93
									C170.7,93,170.7,93,170.7,93c0-0.1,0-0.1-0.1-0.2l0,0v0l0,0c0,0,0,0.1,0,0c0,0,0,0,0,0C170.7,92.9,170.7,93,170.7,93
									c-0.1-0.1,0-0.1,0-0.1l0,0l0,0L170.7,93C170.6,93.1,170.7,93.1,170.7,93z"/>
								<path class="st8" d="M171.9,94.3C171.9,94.2,171.8,94.2,171.9,94.3C171.8,94.2,171.8,94.3,171.9,94.3z"/>
								<path class="st8" d="M171.7,94.1c0,0-0.1-0.2,0-0.1C171.8,94,171.8,94.1,171.7,94.1c0.1,0,0-0.1-0.1-0.3l0,0
									c-0.1-0.1-0.3-0.4-0.3-0.5C171.5,93.7,171.6,93.9,171.7,94.1z"/>
								<path class="st8" d="M171.2,93.6l0,0.2l0.2,0.2l-0.1-0.2C171.4,94,171.3,93.8,171.2,93.6z"/>
								<polygon class="st8" points="170.4,92.9 170.3,92.6 170.4,93 								"/>
								<polygon class="st8" points="170.3,92.9 170.2,92.7 170.3,92.8 								"/>
								<path class="st8" d="M162.4,95.2L162.4,95.2C162.4,95.3,162.4,95.2,162.4,95.2z"/>
								<path class="st8" d="M162.6,95.4l0.1-0.1C162.7,95.3,162.6,95.4,162.6,95.4z"/>
								<path class="st8" d="M167.7,93.2c0-0.3,0-0.7,0-0.4L167.7,93.2C167.7,93.1,167.7,93.2,167.7,93.2z"/>
								<path class="st8" d="M165.2,94.7L165.2,94.7c0,0,0.1-0.1,0.1-0.2C165.3,94.5,165.3,94.6,165.2,94.7z"/>
								<path class="st8" d="M164.7,95.9l0-0.2C164.7,95.8,164.7,95.9,164.7,95.9z"/>
								<path class="st8" d="M161,94.6l-0.2,0.2C160.8,94.9,160.9,94.7,161,94.6z"/>
								<path class="st8" d="M169.3,93.3c0-0.1-0.1-0.2-0.1-0.2C169.2,93.3,169.3,93.6,169.3,93.3z"/>
								<path class="st8" d="M164.3,92.3c0,0-0.1,0.1-0.1,0.2C164.2,92.4,164.3,92.4,164.3,92.3z"/>
								<path class="st8" d="M169.1,93.1C169.1,93.2,169.1,93.2,169.1,93.1C169.1,93.2,169.2,93.1,169.1,93.1
									C169.1,93,169.1,92.9,169.1,93.1z"/>
								<path class="st8" d="M158,89.9C158,89.9,158,89.9,158,89.9C158,89.9,158,89.9,158,89.9z"/>
								<path class="st8" d="M160.8,87.8C160.8,87.8,160.8,87.8,160.8,87.8C160.9,87.8,160.9,87.8,160.8,87.8z"/>
								<path class="st8" d="M169.9,92.9C169.9,92.9,169.9,92.9,169.9,92.9L169.9,92.9z"/>
								<path class="st8" d="M170.3,94.1c0,0,0,0.1,0,0.2C170.3,94.2,170.3,94.2,170.3,94.1z"/>
								<path class="st8" d="M169,95.2L169,95.2C169,95.2,169,95.2,169,95.2z"/>
								<path class="st8" d="M170,93.1C169.9,93,169.9,93,170,93.1C169.9,93,169.9,93,170,93.1z"/>
								<path class="st8" d="M169.9,92.9C169.9,92.9,169.9,92.9,169.9,92.9C169.9,92.9,169.9,92.9,169.9,92.9z"/>
								<path class="st8" d="M169.9,93C169.9,93,169.9,93,169.9,93C169.9,93,169.9,92.9,169.9,93C169.9,92.9,169.9,93,169.9,93z"/>
								<path class="st8" d="M160.1,92C160.1,92,160.1,92,160.1,92C160,92.1,160,92.1,160.1,92z"/>
								<polygon class="st8" points="166.5,96.5 166.5,96.5 166.5,96.5 								"/>
								<path class="st8" d="M166.3,96.7c0.1-0.4,0.1-0.3,0.2-0.2l0.1-0.9L166.3,96.7z"/>
								<path class="st8" d="M161.8,94.9l-0.1,0.3c-0.4,0.3-0.3,0.1-0.5,0.5c0.6-0.8,0.4,0.1,0.9-0.7l-0.1,0.2c0,0,0,0-0.1,0
									c-0.2,0.5,0.5-0.6,0.5-0.4c0,0.1,0,0.2-0.1,0.3l0.2-0.2c0,0-0.1,0.2-0.1,0.1l0.2,0l0,0c0.1-0.1,0.3-0.3,0.3-0.4
									c0,0.1-0.1,0.1-0.1,0.2l0.2-0.2c-0.1,0.2-0.3,0.4-0.3,0.4c-0.4,0.9,0.2-0.2,0.1,0.4l-0.1,0.1c-0.2,0.5-0.1,0.4-0.1,0.8
									c0.1-0.2,0.2-0.9,0.5-1.1c0,0.1,0,0.1,0.2,0c-0.2,0.3-0.1,0.3,0,0.3l-0.2,0.4c0.1-0.1,0.2-0.3,0.4-0.5
									c0.1,0.1-0.1,0.4-0.2,0.7c0.1,0.1,0.2-0.6,0.4-0.6c0,0.2,0.2,0.1,0.4-0.1c0,0.2-0.1,0.3-0.2,0.4l0.2-0.3c0,0,0,0.1-0.1,0.2
									c0.1-0.1,0.2-0.4,0.3-0.5c0.2-0.5-0.1,0.8,0.2,0.3c0,0.1-0.1,0.3-0.2,0.4c0.3-0.3,0.2-0.2,0.5-0.7l0,0.3
									c0.1-0.4,0.3-0.7,0.5-1c0-0.2,0.1-0.3,0.1-0.4l0.2-0.2c0,0.1-0.1,0.2-0.2,0.4c0,0,0-0.1,0.1-0.1c0,0.2-0.1,0.4-0.2,0.7
									c0-0.1,0-0.2,0.1-0.3c-0.1,0.3-0.3,0.6-0.3,0.8c0,0,0.1-0.1,0.1-0.1c0,0.1-0.1,0.1-0.1,0.2c0,0,0,0,0.1-0.2l-0.1,0.5
									l0.1-0.2l0.1,0.4c0.3-0.5,0.6-1.2,0.8-1.4c-0.1,0.4-0.2,0.6-0.3,1.1c0.1-0.5-0.2,0.2-0.3,0c0,0.1,0,0.3-0.1,0.3l0.3-0.4
									c-0.1,0.4,0,0.3,0,0.5c0.2-0.7,0.3-0.4,0.4-0.7c-0.1,0.2-0.1,0.5-0.2,0.4c0,0.6,0.3-0.8,0.3-0.3c0,0,0,0-0.1,0.1
									c0.1-0.2,0.2,0,0.1,0.2h0c0.1,0.1,0.4,0.1,0.6-0.5c0,0.1-0.2,0.8-0.2,0.9c0,0,0.2-0.5,0.3-1c0.1-0.5,0.3-1,0.3-1
									c-0.1,0.5-0.2,1.8-0.4,2.1c0,0.1,0.1,0.2,0.2,0c0-0.1,0.1-0.8,0.1-0.8c0,0.6,0,0.3,0,0.9c0-0.1,0.1-1,0.2-0.9
									c0,0.1-0.1,0.8-0.1,0.9l0.3-0.8c-0.1,0.1-0.1,0.7-0.1,0.9c0-0.2,0.1,0,0.2-0.1l0-0.2c0.2,0.1,0.3-1.2,0.4-1.1
									c0,0.2-0.1,1.1-0.1,1.2c0.1-0.4,0.3-2.1,0.4-2.4l0,0.2l0.1-0.3c-0.1,0.6-0.3,2-0.5,2.5c0,0.2,0,0.3,0.1,0.3
									c0,0.2-0.1,0.3-0.1,0.4l0.2,0.2c0-0.5,0.2-0.5,0.2-0.9l-0.3,0.5c0-0.5,0.2-1.4,0.3-1.3c0,0.2-0.1,0.9-0.1,1.1
									c0-0.2,0.2-0.3,0.2-0.2l-0.1,0.3c0.1,0.2,0.1-0.7,0.2-0.2c0,0,0.1,0.6,0.1,0.3c-0.1-0.6-0.1-2.4,0-2.8c0,0,0.2,0.5,0.2,0.8
									c0.1,0.4-0.1,1.1,0,1.5c0-0.1,0-0.3,0-0.4c0,0.1,0,0.4,0.1,0.4c0-0.5,0.2,0,0-0.4c0.1-0.1,0.1,0.1,0.2,0.1
									c0-0.3,0-1.1,0.1-1.3c0,0.1,0,0.3,0,0.4c0.1,0,0.2,0.3,0.4,0.3c0,0.1,0.1,0.3,0.1,0.5c0-0.1,0-0.3,0-0.3
									c0.1,0.4-0.1,0.1,0,0.6c0-0.3,0.1-0.4,0.1-0.6c-0.1-0.5-0.1-0.1-0.2,0.1c-0.1-0.6-0.1-1.3,0-1.6c0.1-0.2,0.1,0.4,0.1,0.3
									c0.2,0.1,0-1.1,0.2-0.7c0.1,0.4,0.2,0.8,0.2,1.1c-0.1,0.2-0.2-0.2-0.2-0.2l0.1,0.2c0,0.1,0,0.2-0.1,0.1
									c0.1,0.3,0.3,0,0.6,0.3c0-0.1,0-0.3-0.1-0.4l0,0.1c-0.1-0.3,0-0.5-0.1-0.6c0-0.2,0-0.6,0.1-0.5l0.1,0.4
									c0-0.1-0.1-0.2-0.1-0.1c0-0.2,0.3,0.6,0.2,0l-0.1-0.3c0-0.2-0.1-0.7,0-0.6c-0.2-0.4,0,0.1-0.2-0.4c0.2,0.6-0.2,0,0.1,0.7
									c-0.2-0.6-0.2-0.2-0.3-0.7c0,0.1,0.1,0.3,0,0.2c0,0,0,0.1,0,0.1l0,0l0,0c0,0,0,0,0,0c0,0.1,0.1,0.1,0.1,0.2
									c0.1,0.3,0,0.4,0,0.5c-0.1-0.1,0-0.2-0.1-0.3l0,0.3c-0.1-0.3-0.2-0.5-0.2-0.7l-0.1,0c-0.1-0.2-0.1-0.2-0.1-0.1
									c0-0.1,0,0.4,0,0.1l-0.1,0.2l0-0.1c-0.1,0-0.1,0.6-0.3,0c0,0.1-0.1,0.2-0.1,0.1l0-0.3c0,0.1-0.2-0.3-0.2,0
									c-0.1-0.8-0.2-0.2-0.3-0.3l0,0.4c-0.1,0-0.1,0.1-0.2,0.2l0,0.3c-0.1,0.3-0.2-0.2-0.3-0.2c0-0.1,0-0.1,0,0
									c-0.1-0.8-0.3,0.5-0.4,0c0,0.1-0.1,0.1-0.1,0c0,0,0,0,0,0c0,0,0,0,0,0c0-0.1,0-0.1,0-0.2c0,0.1,0,0.2,0,0.2
									c0,0-0.1,0-0.1,0.1l0-0.4c0,0,0,0,0,0c0-0.1,0,0.2-0.1,0.4c0,0.1,0,0.1-0.1,0.2c0-0.6-0.1,0.2-0.1-0.4
									c-0.1,0.3-0.2,0.2-0.3,0.8c0-0.1,0-0.1,0-0.1c0-0.1-0.1-0.2-0.1,0l0.1-0.5l-0.2,0.6c0-0.3,0-0.5,0.1-0.8
									c-0.2,0.5-0.1,0.2-0.3,0.7l0.1-0.3c0,0-0.2,0.4-0.1,0.1c0-0.6-0.4-0.1-0.4-0.7c-0.2,0.9,0-0.4-0.2,0.2
									c0-0.2,0.1-0.3,0.1-0.5c-0.2,0.2,0-0.4-0.3,0.2c0.1-0.2,0.1-0.3,0.1-0.4c0,0-0.1,0.2-0.1,0c0-0.1,0.1-0.2,0.1-0.2
									c-0.1,0-0.3,0.6-0.5,1.2c0-0.3,0-0.3-0.2,0.1c0-0.2,0.1-0.4,0.2-0.4c0,0-0.1-0.3-0.3,0.1c0-0.1,0,0-0.1,0
									c-0.1-0.1-0.1-0.1-0.1-0.1l0,0.1c-0.3,0.5-0.1,0.1-0.2,0.1l0-0.1c0-0.4-0.1,0.2-0.1-0.3l-0.1,0.3c-0.3,0.7,0.1-0.5-0.1-0.2
									l-0.1,0.2c-0.2,0.2,0.3-1,0.4-1.1c0-0.1,0.1-0.1,0.1-0.1c0.1-0.5-0.2,0.4-0.4,0.5c0.1-0.2,0.3-0.6,0.3-0.6
									c0.1-0.2-0.5,0.6-0.4,0.2c-0.1,0.2-0.2,0.4-0.3,0.5c-0.1,0,0.2-0.7-0.1-0.2c0,0,0-0.1,0.1-0.1c-0.1,0.1-0.3,0.1-0.5,0.4
									c0.6-1.1-0.6,0.3,0-0.6c0,0-0.2,0-0.2,0l0.1-0.1c0-0.1-0.2,0.1-0.4,0.3c0-0.1,0.1-0.2,0.1-0.2c0-0.3,0-0.2-0.5,0.1l0.2-0.3
									c-0.2,0.1,0.2-0.6-0.2-0.3c0,0,0.1-0.1,0.1-0.1c-0.4,0.2,0.5-1-0.5-0.1l-0.3,0.2c0,0.2-0.4,0.4-0.6,0.6
									c-0.1,0,0.2-0.4,0.3-0.4l0,0.1c0.5-0.5,0.1-0.3,0.4-0.6c-0.2-0.2-0.1-0.6-0.2-0.8l-0.4,0.4l0-0.1c0.1-0.1,0.3-0.3,0.3-0.2
									c0.2-0.2-0.3,0.1-0.4,0.1c0.1-0.2,0.5-0.3,0.5-0.4l-0.1,0l0,0c-0.2,0.1-0.4,0.2-0.4,0.2c0.1-0.1,0.3-0.2,0.3-0.2
									c0,0,0,0,0,0l0-0.1l-0.3,0.3c-0.2,0.1,0-0.1-0.4,0.2c0.6-0.5,0-0.5,0.2-0.7c-0.3,0.1-0.3,0-0.3-0.1
									c-0.1,0.1-0.5,0.3-0.5,0.2c0.9-0.4,0.3-0.3,0.9-0.7c-0.4,0.3-0.2-0.1-0.8,0.2c0-0.1,0.3-0.2,0.5-0.3c-0.4,0,0.1-0.4,0-0.5
									c-0.1,0-0.3,0.1-0.5,0.2l0.6-0.3c-0.1,0-0.7,0.2-0.3,0c-0.1,0-0.3,0.1-0.3,0.1c0.3-0.3,0-0.4,0-0.5
									c-0.1-0.1-0.1-0.3,0.4-0.6c-0.2,0.1-0.3,0.1-0.3,0c-0.1,0-0.3,0.1-0.5,0.1l0.5-0.2c-0.5,0.1-0.1-0.1-0.5-0.1l0.1,0
									c-0.6,0-1.2,0.3-1.9,0.4c0.6,0-0.9,0.4,0,0.4c-0.1,0.1-0.2,0-0.4,0.1c0.3,0,0.4,0,0.3,0.1l-0.1,0c0.1,0.2-0.2,0.4-0.3,0.7
									l0.3-0.1c0,0.1-0.1,0.1-0.2,0.2c0.5-0.1,0-0.2,0.6-0.3c-0.7,0.3,0.1,0.4-0.6,0.7c0,0.1,0.4-0.2,0.4-0.1l-0.2,0.1l0.3-0.1
									c0,0.1-0.3,0.2-0.5,0.3c0,0-0.1,0-0.1,0c-0.2,0.2,0.2,0.2,0.1,0.2l0.1-0.1c0.3,0.2,0.1,0.6,0.6,0.6l0.1-0.1
									c0.4,0-0.1,0.2,0.1,0.3l0,0c0.2,0,0.3,0,0.3,0c-0.2,0-0.3,0.3-0.5,0.3c0.4,0,0.3,0,0.9-0.2l-0.2,0.2
									c0.2-0.1,0.4-0.2,0.5-0.1c-0.2,0.1-0.3,0.3-0.6,0.4c-0.4,0.5,0.7-0.1,0,0.5c0.7-0.3,0.3-0.4,0.4-0.4
									c0.2-0.2,0.5-0.2,0.5-0.2c0,0.1-0.8,0.6-0.6,0.8c0,0-0.1,0-0.1,0c-0.1,0.2,0.3-0.1,0.1,0.2c0.4-0.2,0,0.1,0.5-0.2l-0.2,0
									c0.2,0,0.8-0.4,0.6-0.1c-0.1,0.1-0.3,0.1-0.3,0.2c-0.1,0.1,0.1,0,0,0.1c-0.5,0.3-0.2-0.1-0.6,0.1c-0.2,0.2,0.5-0.1-0.1,0.2
									c0.7-0.4,0,0.2,0.6-0.1l-0.3,0.2c0.1,0,0.2-0.1,0.2-0.1l-0.4,0.2c0.4-0.2-0.2,0.4,0.1,0.3c-0.1-0.1,0.3-0.3,0.5-0.5
									c0.5-0.1-0.6,0.7-0.3,0.8c-0.1,0,0.1-0.2,0.2-0.3c0,0.1-0.1,0.2-0.2,0.4c0.2,0.1,0.3-0.3,0.5-0.4c-0.3,0.3,0.2-0.1,0.3-0.1
									l-0.3,0.2c0,0.3,0.6-0.5,0.5-0.2l-0.4,0.3l0.2,0l-0.3,0.3c0.3-0.1,0.3-0.1,0.2,0.1c0.2-0.2,0.5-0.5,0.5-0.4
									c-0.1,0.2-0.3,0.2-0.1,0.3c-0.2,0.1-0.4,0.3-0.2,0c-0.1,0.1-0.2,0.1-0.3,0.2c-0.1,0.2,0.1,0.2,0.1,0.2c0,0,0-0.1,0-0.1
									l0.5-0.2c-0.1,0.1-0.2,0.2-0.2,0.2c0.1,0,0.2-0.1,0.2-0.1c-0.2,0.2-0.4,0.4-0.6,0.5l0.3-0.1c-0.1,0.1-0.2,0.3-0.3,0.4
									c0,0.2,0.6-0.3,0.5,0c0,0,0.1-0.1,0.1-0.1c0,0.1-0.1,0.5,0.3,0.2l-0.3,0.5c0.2,0,0.3-0.6,0.6-0.6c0.2-0.1-0.2,0.4-0.3,0.5
									c0.2-0.2,0.6-0.5,0.5-0.1C161.8,95,161.9,94.9,161.8,94.9z M163.1,95.4c-0.1,0.1-0.2,0.2-0.1,0
									C163.1,95.1,163.1,95.3,163.1,95.4z M165.2,95.4C165.1,95.5,165.1,95.4,165.2,95.4C165.1,95.3,165.2,95.3,165.2,95.4z
									 M169.7,93.3C169.7,93.3,169.7,93.3,169.7,93.3C169.6,93.2,169.7,93.2,169.7,93.3z M169.8,93.4c0-0.1,0-0.1,0-0.1
									C169.8,93.4,169.8,93.4,169.8,93.4C169.8,93.4,169.8,93.5,169.8,93.4z M161.9,90.4L161.9,90.4
									C161.7,90.5,161.8,90.4,161.9,90.4z"/>
								<path class="st8" d="M164.8,95.8c0-0.1,0-0.1,0.1-0.2C164.8,95.7,164.8,95.7,164.8,95.8z"/>
								<polygon class="st8" points="161,94.6 161,94.6 161,94.6 								"/>
								<path class="st8" d="M168.7,96.6c0-0.1,0-0.1-0.1-0.2C168.6,96.5,168.6,96.6,168.7,96.6z"/>
								<path class="st8" d="M170.1,92.7l0,0.1c0,0,0,0,0.1,0.1C170.1,92.8,170,92.7,170.1,92.7z"/>
								<path class="st8" d="M171.2,94.7C171.2,94.7,171.2,94.7,171.2,94.7l-0.1-0.2C171.1,94.5,171.1,94.6,171.2,94.7z"/>
								<path class="st8" d="M170.4,93.8c0.1,0.3,0.1,0.2,0.1,0.1c0,0,0,0,0,0C170.4,93.6,170.4,93.7,170.4,93.8z"/>
								<path class="st8" d="M170.6,94C170.6,93.9,170.6,93.9,170.6,94C170.6,93.8,170.6,93.9,170.6,94z"/>
								<path class="st8" d="M169.9,93.2c0,0.1-0.1-0.4,0-0.3C169.8,92.6,169.8,93.4,169.9,93.2z"/>
								<polygon class="st8" points="170.8,94.8 170.6,94.4 170.7,94.7 								"/>
								<path class="st8" d="M170.4,94.6L170.4,94.6C170.4,94.7,170.4,94.6,170.4,94.6C170.4,94.6,170.3,94.5,170.4,94.6z"/>
								<path class="st8" d="M170.4,94.6C170.5,94.6,170.5,94.6,170.4,94.6C170.5,94.5,170.4,94.5,170.4,94.6z"/>
								<polygon class="st8" points="170.7,94.9 170.7,94.9 170.6,94.9 								"/>
								<path class="st8" d="M169.6,94.7l-0.1,0.1c0,0.1,0,0.2,0.1,0.1C169.6,94.9,169.6,94.8,169.6,94.7z"/>
								<path class="st8" d="M170,95.7c0-0.1-0.1-0.2-0.1-0.3l0.1,0.5L170,95.7z"/>
								<path class="st8" d="M169.8,95.8c0,0.1-0.1,0.4,0,0.3C169.8,96,169.9,95.9,169.8,95.8z"/>
								<polygon class="st8" points="168.5,95.3 168.5,95.3 168.5,94.6 								"/>
								<path class="st8" d="M167.3,97.1c0.1,0.2,0.1-0.5,0.1-0.2c0-0.2-0.1-0.2,0-0.3C167.3,96.7,167.3,96.6,167.3,97.1z"/>
								<path class="st8" d="M167.4,96.5c0,0,0-0.1,0-0.1C167.4,96.5,167.4,96.5,167.4,96.5z"/>
								<polygon class="st8" points="161.2,87.6 161.3,87.5 161.1,87.6 								"/>
								<path class="st8" d="M160.6,87.6l0.5-0.1L160.6,87.6C160.7,87.5,160.7,87.5,160.6,87.6z"/>
								<path class="st8" d="M162.8,96.4l0.1-0.1c0-0.1,0-0.1,0-0.2L162.8,96.4z"/>
								<polygon class="st8" points="162.1,95.6 162.1,95.6 162.3,95.2 								"/>
								<path class="st8" d="M161,95.6c0,0,0.1,0,0.1,0C161.1,95.6,161.4,95.1,161,95.6z"/>
							</g>
						</g>
					</g>
				</g>
			</g>
		</g>
	</g>
	<path class="st9" d="M167.9,184.7c0.1,1.4-1,2.7-2.5,2.8c-1.4,0.1-2.7-1-2.8-2.5c-0.1-1.4,1-2.7,2.5-2.8
		C166.6,182.1,167.8,183.2,167.9,184.7z"/>
	<path class="st1" d="M27,292c28.7-35,58.4-69.1,86.8-104.3c62.9-77.6,51.2-46.2,83.8-21.2c-8,11.7-13.7,22.7-22.8,34.1
		c-1.8,2.3-3.7,4.5-5.5,6.5c-16.2,27.8-35.3,54.2-54.3,80c-15.9,21.5-40.9,74.2-72.1,68.9C7.6,350.2,8.4,314.7,27,292z"/>
	<g>
		<g>
			<g>
				<g>
					<g>
						<path class="st1" d="M163.5,128.2c0.9-0.6,1.7-1.3,2.5-2c3.9-3.3,15-8.9,19.4-3.5c5.8,7.2,2.9,8.5,2.9,8.5s12.6,4,9.7,11.1
							c0,0,7.8,4.6,5.9,12.2c1.3,3.1,12,3.7,4.2,16c-7.9,12.3-42.9,26.1-42.9,26.1s-31-28.2-31-28.2c-0.4,0.1,0.8,1.6,1,1.7
							c3.3-2.4,4.3-9.1,5.3-12.9c1.6-6.1,4-12.8,8.3-17.7C152.6,135.2,158.6,131.8,163.5,128.2z"/>
					</g>
					<path class="st10" d="M159.1,132.4c0.3,1.9,2-2.1,1.7-3.4"/>
					<path class="st10" d="M189.5,130.4c0,0-3,3.3-5.6,4.7"/>
					<path class="st10" d="M197.9,142.6c0,0-3,3.3-5.6,4.7"/>
					<path class="st10" d="M204.6,155c0,0-3,3.3-5.6,4.7"/>
				</g>
			</g>
		</g>
		<path class="st1" d="M165.6,129.9c0,0,24.2-29.6,28.9-31.7c4.7-2.1,14,4-19.4,44.4"/>
	</g>
	<path class="st1" d="M139.4,158.5c0,0-0.4-41.2,0.5-46.2c0.9-5,11.2-9.3,25.7,41.1"/>
	<g>
		<g>
			<path class="st1" d="M336.2,144c-9.2,29.7-14.6,61.3-20,91.9c-4.1,23.9-26.2,103.4,22.5,95.2c38.1-6.3,42-57.1,41.6-86.7
				c-0.7-46.3,2.5-106.5,0.4-121"/>
		</g>
		<path class="st1" d="M374.1,157.2c-2.6-14.5-4-18.3-4-18.3l7.3-17.1c0,0,5.7,6,9.2,1.7c0,0,3.4,6.4,5.9,3.4c2.5-3-3.3-23-8.9-27.4
			c-5.7-4.4-11.1-11.4-20.2-13.1c0,0,17.6-31.7,7.2-31.1c-10.4,0.6-20.8,31.8-26.1,42.1c-4.5,8.8-5.2,30.1-9.1,49.4"/>
		<path class="st10" d="M363.4,121.5c0,0-5.4-8.9-8.3-7.3c-2.9,1.5,11.4-25.9,2-21.5c-9.4,4.4-12.9,18.7-12.9,18.7"/>
		<path class="st10" d="M364.3,96.8c0,0,3.1,15,7,22.2"/>
		<path class="st10" d="M372.9,99c0,0,3.1,15,7,22.2"/>
		<path class="st10" d="M381.6,103.6c0,0,3.1,15,7,22.2"/>
	</g>
</g>
<line class="st11" x1="287.8" y1="319.2" x2="241.3" y2="268.2"/>
<path class="st11" d="M71.8,344.7c0,0,30.7-41.4,59.7-81.7"/>
</svg>
