<?xml version="1.0" encoding="utf-8"?>
<!-- Generator: Adobe Illustrator 25.4.1, SVG Export Plug-In . SVG Version: 6.00 Build 0)  -->
<svg version="1.1" id="레이어_1" xmlns="http://www.w3.org/2000/svg" xmlns:xlink="http://www.w3.org/1999/xlink" x="0px"
	 y="0px" viewBox="0 0 882.1 276.8" style="enable-background:new 0 0 882.1 276.8;" xml:space="preserve">
<style type="text/css">
	.st0{fill:#D91425;}
</style>
<g>
	<path class="st0" d="M882.1,104.4l-0.1,17.5c-7.8,0-14.1,6.3-14.1,14.1c0,0.1,0,0.2,0,0.3c0,0.1,0,0.2,0,0.3
		c0,7.8,6.3,14.1,14.1,14.1v17.5c-7.8,0-14.1,6.3-14.1,14.1c0,0,0,0,0,0c0,0,0,0,0,0c0,7.8,6.3,14.1,14.1,14.1v18.1
		c-7.8,0-14.1,6.3-14.1,14.1c0,0,0,0,0,0c0,0,0,0,0,0v0.2c0,0,0,0,0,0c0,0,0,0,0,0c0,7.8,6.3,14.1,14.1,14.1v0.3v18.1l0,0.8
		l-1.7,0.1c-7.8,0-14.1,6.3-14.1,14.1h-18.2h-0.6c0-7.8-6.3-14.1-14.1-14.1c-7.7,0-13.9,6.1-14.1,13.8c0,0.1,0,0.2,0,0.4h-17
		c0-7.8-6.3-14.1-14.1-14.1c-7.8,0-14.1,6.3-14.1,14.1h-17.5c0-7.8-6.3-14.1-14.1-14.1c-0.1,0-0.2,0-0.3,0c-0.1,0-0.2,0-0.3,0
		c-7.8,0-14.1,6.3-14.1,14.1H710c0-7.8-6.3-14.1-14.1-14.1c0,0,0,0,0,0c0,0,0,0,0,0c-7.8,0-14.1,6.3-14.1,14.1h-18.1
		c0-7.8-6.3-14.1-14.1-14.1c0,0,0,0,0,0c0,0,0,0,0,0c-7.8,0-14.1,6.3-14.1,14.1h-18.1c0-7.8-6.3-14.1-14.1-14.1c0,0,0,0,0,0
		c0,0,0,0,0,0c-7.8,0-14.1,6.3-14.1,14.1h-0.1h-17.5c0-7.8-6.3-14.1-14.1-14.1c0,0,0,0,0,0c0,0,0,0,0,0c-7.8,0-14.1,6.3-14.1,14.1
		h-18.1c0-7.8-6.3-14.1-14.1-14.1c0,0,0,0,0,0c0,0,0,0,0,0c-7.8,0-14.1,6.3-14.1,14.1h-18.1c0-7.8-6.3-14.1-14.1-14.1c0,0,0,0,0,0
		c0,0,0,0,0,0c-7.8,0-14.1,6.3-14.1,14.1h-0.6h-18.2h-0.4c0-7.8-6.3-14.1-14.1-14.1c-7.7,0-13.9,6.1-14.1,13.8c0,0.1,0,0.2,0,0.4
		h-17c0-7.8-6.3-14.1-14.1-14.1c-7.8,0-14.1,6.3-14.1,14.1h-17.5c0-7.8-6.3-14.1-14.1-14.1c-0.1,0-0.2,0-0.3,0c-0.1,0-0.2,0-0.3,0
		c-7.8,0-14.1,6.3-14.1,14.1h-17.5c0-7.8-6.3-14.1-14.1-14.1c0,0,0,0,0,0c0,0,0,0,0,0c-7.8,0-14.1,6.3-14.1,14.1H247
		c0-7.8-6.3-14.1-14.1-14.1c0,0,0,0,0,0c0,0,0,0,0,0c-7.8,0-14.1,6.3-14.1,14.1h-18.1c0-7.8-6.3-14.1-14.1-14.1c0,0,0,0,0,0
		c0,0,0,0,0,0c-7.8,0-14.1,6.3-14.1,14.1h-0.1h-17.5c0-7.8-6.3-14.1-14.1-14.1c0,0,0,0,0,0c0,0,0,0,0,0c-7.8,0-14.1,6.3-14.1,14.1
		h-18.1c0-7.8-6.3-14.1-14.1-14.1c0,0,0,0,0,0c0,0,0,0,0,0c-7.8,0-14.1,6.3-14.1,14.1H61.8c0-7.8-6.3-14.1-14.1-14.1c0,0,0,0,0,0
		c0,0,0,0,0,0c-7.8,0-14.1,6.3-14.1,14.1h-0.6H14.6c0-7.8-6.3-14.1-14.1-14.1c-0.2,0-0.3,0-0.5,0l0-1v-18.1v-0.3c0,0,0.1,0,0.1,0
		c7.8,0,14.1-6.3,14.1-14.1c0,0,0,0,0,0c0,0,0,0,0,0v-0.2c0,0,0,0,0,0c0,0,0,0,0,0c0-7.8-6.3-14.1-14.1-14.1c0,0-0.1,0-0.1,0v-18.1
		c0,0,0.1,0,0.1,0c7.8,0,14.1-6.3,14.1-14.1c0,0,0,0,0,0c0,0,0,0,0,0c0-7.8-6.3-14.1-14.1-14.1c0,0-0.1,0-0.1,0v-17.5
		c0,0,0.1,0,0.1,0c7.8,0,14.1-6.3,14.1-14.1c0-0.1,0-0.2,0-0.3c0-0.1,0-0.2,0-0.3c0-7.8-6.3-14.1-14.1-14.1c0,0-0.1,0-0.1,0v-17.5
		c0,0,0.1,0,0.1,0c7.8,0,14.1-6.3,14.1-14.1c0-7.8-6.3-14.1-14.1-14.1c0,0-0.1,0-0.1,0V59.1c0,0,0.1,0,0.1,0
		c7.8,0,14.1-6.3,14.1-14.1c0-7.8-6.3-14.1-14.1-14.1c0,0-0.1,0-0.1,0V14.1c0.2,0,0.3,0,0.5,0c7.8,0,14.1-6.3,14.1-14.1h18.2h0.4
		c0,7.8,6.3,14.1,14.1,14.1c0,0,0,0,0,0c0,0,0,0,0,0c7.8,0,14.1-6.3,14.1-14.1h18.1c0,7.8,6.3,14.1,14.1,14.1c0,0,0,0,0,0
		c0,0,0,0,0,0c7.8,0,14.1-6.3,14.1-14.1h18.1c0,7.8,6.3,14.1,14.1,14.1c0,0,0,0,0,0c0,0,0,0,0,0c7.8,0,14.1-6.3,14.1-14.1h17.5h0.1
		c0,7.8,6.3,14.1,14.1,14.1c0,0,0,0,0,0c0,0,0,0,0,0c7.8,0,14.1-6.3,14.1-14.1h18.1c0,7.8,6.3,14.1,14.1,14.1c0,0,0,0,0,0
		c0,0,0,0,0,0c7.8,0,14.1-6.3,14.1-14.1h18.1c0,7.8,6.3,14.1,14.1,14.1c0,0,0,0,0,0c0,0,0,0,0,0c7.8,0,14.1-6.3,14.1-14.1h17.5
		c0,7.8,6.3,14.1,14.1,14.1c0.1,0,0.2,0,0.3,0c0.1,0,0.2,0,0.3,0c7.8,0,14.1-6.3,14.1-14.1h17.5c0,7.8,6.3,14.1,14.1,14.1
		c7.8,0,14.1-6.3,14.1-14.1h17c0,0.1,0,0.2,0,0.4c0.2,7.6,6.4,13.8,14.1,13.8c7.8,0,14.1-6.3,14.1-14.1h0.6h18.2h0.4
		c0,7.8,6.3,14.1,14.1,14.1c0,0,0,0,0,0c0,0,0,0,0,0c7.8,0,14.1-6.3,14.1-14.1h18.1c0,7.8,6.3,14.1,14.1,14.1c0,0,0,0,0,0
		c0,0,0,0,0,0c7.8,0,14.1-6.3,14.1-14.1h18.1c0,7.8,6.3,14.1,14.1,14.1c0,0,0,0,0,0c0,0,0,0,0,0c7.8,0,14.1-6.3,14.1-14.1h17.5h0.1
		c0,7.8,6.3,14.1,14.1,14.1c0,0,0,0,0,0c0,0,0,0,0,0c7.8,0,14.1-6.3,14.1-14.1h18.1c0,7.8,6.3,14.1,14.1,14.1c0,0,0,0,0,0
		c0,0,0,0,0,0c7.8,0,14.1-6.3,14.1-14.1h18.1c0,7.8,6.3,14.1,14.1,14.1c0,0,0,0,0,0c0,0,0,0,0,0c7.8,0,14.1-6.3,14.1-14.1h17.5
		c0,7.8,6.3,14.1,14.1,14.1c0.1,0,0.2,0,0.3,0c0.1,0,0.2,0,0.3,0c7.8,0,14.1-6.3,14.1-14.1h17.5c0,7.8,6.3,14.1,14.1,14.1
		c7.8,0,14.1-6.3,14.1-14.1h17c0,0.1,0,0.2,0,0.4c0.2,7.6,6.4,13.8,14.1,13.8c7.8,0,14.1-6.3,14.1-14.1h0.6H866h0.2
		c0,7.8,6.3,14.1,14.1,14.1l1.7,0v16.7c-7.8,0-14.1,6.3-14.1,14.1c0,7.8,6.3,14.1,14.1,14.1v17c-7.8,0-14.1,6.3-14.1,14.1
		c0,7.8,6.3,14.1,14.1,14.1"/>
</g>
</svg>
