<?xml version="1.0" encoding="utf-8"?>
<!-- Generator: Adobe Illustrator 25.4.1, SVG Export Plug-In . SVG Version: 6.00 Build 0)  -->
<svg version="1.1" id="레이어_1" xmlns="http://www.w3.org/2000/svg" xmlns:xlink="http://www.w3.org/1999/xlink" x="0px"
	 y="0px" viewBox="0 0 100 100" style="enable-background:new 0 0 100 100;" xml:space="preserve">
<style type="text/css">
	.st0{fill:#FFFFFF;}
</style>
<path class="st0" d="M68.8,0H31.2C14,0,0,14,0,31.2v37.5C0,86,14,100,31.2,100h37.5C86,100,100,86,100,68.8V31.2C100,14,86,0,68.8,0
	z M90.6,68.8c0,12.1-9.8,21.9-21.9,21.9H31.2c-12.1,0-21.9-9.8-21.9-21.9V31.2c0-12.1,9.8-21.9,21.9-21.9h37.5
	c12.1,0,21.9,9.8,21.9,21.9V68.8z"/>
<path class="st0" d="M50,25c-13.8,0-25,11.2-25,25c0,13.8,11.2,25,25,25c13.8,0,25-11.2,25-25C75,36.2,63.8,25,50,25z M50,65.6
	c-8.6,0-15.6-7-15.6-15.6c0-8.6,7-15.6,15.6-15.6c8.6,0,15.6,7,15.6,15.6C65.6,58.6,58.6,65.6,50,65.6z"/>
<ellipse transform="matrix(0.2145 -0.9767 0.9767 0.2145 37.7962 93.249)" class="st0" cx="76.9" cy="23.1" rx="3.3" ry="3.3"/>
</svg>
