<?xml version="1.0" encoding="utf-8"?>
<!-- Generator: Adobe Illustrator 25.4.1, SVG Export Plug-In . SVG Version: 6.00 Build 0)  -->
<svg version="1.1" id="레이어_1" xmlns="http://www.w3.org/2000/svg" xmlns:xlink="http://www.w3.org/1999/xlink" x="0px"
	 y="0px" viewBox="0 0 52.7 42" style="enable-background:new 0 0 52.7 42;" xml:space="preserve">
<style type="text/css">
	.st0{fill:none;stroke:#FFFFFF;stroke-width:2;stroke-linecap:round;stroke-linejoin:round;stroke-miterlimit:10;}
</style>
<g>
	<g>
		<path class="st0" d="M4.1,25.7h12.9c0.4,0,0.8,0.1,1.2,0.2l13.3,5.4c2.1,0.8,4.3-0.7,4.3-2.9V4.1c0-2.2-2.3-3.7-4.3-2.9L18.2,6.6
			c-0.4,0.2-0.8,0.2-1.2,0.2H4.1C2.4,6.9,1,8.3,1,10v12.5C1,24.3,2.4,25.7,4.1,25.7z"/>
		<line class="st0" x1="6.5" y1="10.8" x2="6.5" y2="25.7"/>
		<path class="st0" d="M12.4,28.4l2.8,8.4c0.7,2-0.8,4.1-3,4.1h-0.6c-1.4,0-2.5-0.9-3-2.1L4.2,25.7"/>
	</g>
	<g>
		<g>
			<path class="st0" d="M42.4,21.7c1.9-1.1,3.2-3.1,3.2-5.5c0-2.3-1.3-4.4-3.2-5.5"/>
		</g>
		<g>
			<path class="st0" d="M45.3,27.3c3.8-2.2,6.4-6.3,6.3-11c0-4.7-2.6-8.8-6.3-11"/>
		</g>
	</g>
</g>
</svg>
