<?xml version="1.0" encoding="utf-8"?>
<!-- Generator: Adobe Illustrator 25.4.1, SVG Export Plug-In . SVG Version: 6.00 Build 0)  -->
<svg version="1.1" id="레이어_1" xmlns="http://www.w3.org/2000/svg" xmlns:xlink="http://www.w3.org/1999/xlink" x="0px"
	 y="0px" viewBox="0 0 44.2 42" style="enable-background:new 0 0 44.2 42;" xml:space="preserve">
<style type="text/css">
	.st0{fill:none;stroke:#FFFFFF;stroke-width:2;stroke-linecap:round;stroke-linejoin:round;stroke-miterlimit:10;}
</style>
<line class="st0" x1="5.5" y1="16.6" x2="43.2" y2="16.6"/>
<path class="st0" d="M10.9,5.4H5C2.7,5.6,0.9,7.6,1,9.9v26.7c-0.1,2.3,1.7,4.3,4,4.4h34.3c2.3-0.1,4.1-2.1,4-4.4V9.9
	c0.1-2.3-1.7-4.3-4-4.4h-2.7"/>
<line class="st0" x1="32.1" y1="1" x2="32.1" y2="9.9"/>
<line class="st0" x1="12.1" y1="1" x2="12.1" y2="9.9"/>
<line class="st0" x1="16.6" y1="5.4" x2="32" y2="5.4"/>
<path class="st0" d="M11.6,24.3c0-0.3,0.2-0.6,0.6-0.6c0.3,0,0.6,0.2,0.6,0.6"/>
<path class="st0" d="M12.7,24.3c0,0.3-0.2,0.6-0.6,0.6c-0.3,0-0.6-0.2-0.6-0.6"/>
<path class="st0" d="M22.7,24.3c0,0.3-0.2,0.6-0.6,0.6c-0.3,0-0.6-0.2-0.6-0.6"/>
<path class="st0" d="M21.6,24.3c0-0.3,0.2-0.6,0.6-0.6c0.3,0,0.6,0.2,0.6,0.6"/>
<path class="st0" d="M32.7,24.3c0,0.3-0.2,0.6-0.6,0.6c-0.3,0-0.6-0.2-0.6-0.6"/>
<path class="st0" d="M31.6,24.3c0-0.3,0.2-0.6,0.6-0.6c0.3,0,0.6,0.2,0.6,0.6"/>
<path class="st0" d="M12.7,33.2c0,0.3-0.2,0.6-0.6,0.6c-0.3,0-0.6-0.2-0.6-0.6"/>
<path class="st0" d="M11.6,33.2c0-0.3,0.2-0.6,0.6-0.6c0.3,0,0.6,0.2,0.6,0.6"/>
<path class="st0" d="M22.7,33.2c0,0.3-0.2,0.6-0.6,0.6c-0.3,0-0.6-0.2-0.6-0.6"/>
<path class="st0" d="M21.6,33.2c0-0.3,0.2-0.6,0.6-0.6c0.3,0,0.6,0.2,0.6,0.6"/>
<path class="st0" d="M32.7,33.2c0,0.3-0.2,0.6-0.6,0.6c-0.3,0-0.6-0.2-0.6-0.6"/>
<path class="st0" d="M31.6,33.2c0-0.3,0.2-0.6,0.6-0.6c0.3,0,0.6,0.2,0.6,0.6"/>
</svg>
