<?xml version="1.0" encoding="utf-8"?>
<!-- Generator: Adobe Illustrator 25.4.1, SVG Export Plug-In . SVG Version: 6.00 Build 0)  -->
<svg version="1.1" id="레이어_1" xmlns="http://www.w3.org/2000/svg" xmlns:xlink="http://www.w3.org/1999/xlink" x="0px"
	 y="0px" viewBox="0 0 800 586.7" style="enable-background:new 0 0 800 586.7;" xml:space="preserve">
<style type="text/css">
	.st0{fill:#FFFFFF;}
</style>
<path class="st0" d="M400,266.7c73.6,0,133.3-59.7,133.3-133.3C533.3,59.7,473.6,0,400,0S266.7,59.7,266.7,133.3
	C266.7,207,326.4,266.7,400,266.7z M400,26.7c58.9,0,106.7,47.8,106.7,106.7c0,58.9-47.8,106.7-106.7,106.7s-106.7-47.8-106.7-106.7
	C293.3,74.4,341.1,26.7,400,26.7z"/>
<path class="st0" d="M520,480c-7.4,0-13.3,6-13.3,13.3v80c0,7.4,6,13.3,13.3,13.3c7.4,0,13.3-6,13.3-13.3v-80
	C533.3,486,527.4,480,520,480z"/>
<path class="st0" d="M280,480c-7.4,0-13.3,6-13.3,13.3v80c0,7.4,6,13.3,13.3,13.3c7.4,0,13.3-6,13.3-13.3v-80
	C293.3,486,287.4,480,280,480z"/>
<path class="st0" d="M653.3,266.7c51.5,0,93.3-41.8,93.3-93.3c0-51.5-41.8-93.3-93.3-93.3c-51.5,0-93.3,41.8-93.3,93.3
	C560,224.9,601.8,266.7,653.3,266.7z M653.3,106.7c36.8,0,66.7,29.8,66.7,66.7c0,36.8-29.8,66.7-66.7,66.7
	c-36.8,0-66.7-29.8-66.7-66.7C586.7,136.5,616.5,106.7,653.3,106.7z"/>
<path class="st0" d="M653.3,293.3c-44.9,0.1-87.2,20.7-114.9,56c-77.2-74.6-199.6-74.6-276.8,0c-49.9-63.6-141.9-74.8-205.5-24.9
	C20.6,352.3-0.1,394.9,0,440v53.3c0,7.4,6,13.3,13.3,13.3s13.3-6,13.3-13.3V440c0.1-66.3,54-119.9,120.3-119.7
	c38.2,0.1,74,18.3,96.5,49.1c-28.1,35.2-43.4,78.9-43.5,124v80c0,7.4,6,13.3,13.3,13.3c7.4,0,13.3-6,13.3-13.3v-80
	c0-95.7,77.6-173.3,173.3-173.3s173.3,77.6,173.3,173.3v80c0,7.4,6,13.3,13.3,13.3c7.4,0,13.3-6,13.3-13.3v-80
	c0-45.1-15.4-88.8-43.5-124c39.2-53.5,114.3-65,167.7-25.9c30.8,22.5,49,58.4,49.1,96.5v53.3c0,7.4,6,13.3,13.3,13.3
	c7.4,0,13.3-6,13.3-13.3V440C799.9,359.1,734.3,293.5,653.3,293.3z"/>
<path class="st0" d="M733.3,426.7c-7.4,0-13.3,6-13.3,13.3v53.3c0,7.4,6,13.3,13.3,13.3c7.4,0,13.3-6,13.3-13.3V440
	C746.7,432.6,740.7,426.7,733.3,426.7z"/>
<path class="st0" d="M146.7,266.7c51.5,0,93.3-41.8,93.3-93.3c0-51.5-41.8-93.3-93.3-93.3s-93.3,41.8-93.3,93.3
	C53.3,224.9,95.1,266.7,146.7,266.7z M146.7,106.7c36.8,0,66.7,29.8,66.7,66.7c0,36.8-29.8,66.7-66.7,66.7
	c-36.8,0-66.7-29.8-66.7-66.7C80,136.5,109.8,106.7,146.7,106.7z"/>
<path class="st0" d="M66.7,426.7c-7.4,0-13.3,6-13.3,13.3v53.3c0,7.4,6,13.3,13.3,13.3s13.3-6,13.3-13.3V440
	C80,432.6,74,426.7,66.7,426.7z"/>
</svg>
