<?xml version="1.0" encoding="utf-8"?>
<!-- Generator: Adobe Illustrator 25.4.1, SVG Export Plug-In . SVG Version: 6.00 Build 0)  -->
<svg version="1.1" id="레이어_1" xmlns="http://www.w3.org/2000/svg" xmlns:xlink="http://www.w3.org/1999/xlink" x="0px"
	 y="0px" viewBox="0 0 33.6 42" style="enable-background:new 0 0 33.6 42;" xml:space="preserve">
<style type="text/css">
	.st0{fill:none;stroke:#FFFFFF;stroke-width:2;stroke-miterlimit:10;}
</style>
<line class="st0" x1="16.8" y1="41" x2="16.8" y2="12.6"/>
<path class="st0" d="M18.5,4.2c0.1-0.2,0.3-0.4,0.4-0.6c2-2.6,5.3-3.6,6.9-1.5c1.9,2.5,0,5.7-1.5,6.9c-1.9,1.3-4.2,2.2-6.5,2.5"/>
<path class="st0" d="M14.2,4.6c2.4,1.5,3.6,4.8,2,6.1c-2,1.1-4.4,1.1-6.4,0.1C7.2,9.5,6,6.7,7.8,4.7C9.9,2.3,12.7,3.7,14.2,4.6z"/>
<line class="st0" x1="32.6" y1="26.8" x2="1" y2="26.8"/>
<path class="st0" d="M3.1,11.5h27.4c1.2,0,2.1,0.9,2.1,2.1v25.2c0,1.2-0.9,2.1-2.1,2.1H3.1C1.9,41,1,40.1,1,38.9V13.6
	C1,12.5,1.9,11.5,3.1,11.5z"/>
</svg>
