<?xml version="1.0" encoding="utf-8"?>
<!-- Generator: Adobe Illustrator 25.4.1, SVG Export Plug-In . SVG Version: 6.00 Build 0)  -->
<svg version="1.1" id="레이어_1" xmlns="http://www.w3.org/2000/svg" xmlns:xlink="http://www.w3.org/1999/xlink" x="0px"
	 y="0px" viewBox="0 0 101.1 80.4" style="enable-background:new 0 0 101.1 80.4;" xml:space="preserve">
<style type="text/css">
	.st0{fill:none;stroke:#474747;stroke-width:2;stroke-linecap:round;stroke-linejoin:round;stroke-miterlimit:10;}
	.st1{fill:none;stroke:#E62411;stroke-width:2;stroke-linecap:round;stroke-linejoin:round;stroke-miterlimit:10;}
</style>
<g>
	<rect x="10.9" y="11.2" class="st0" width="80" height="58"/>
	<g>
		<path class="st1" d="M32.7,39.5c5.6,0,10.2,4.6,10.2,10.2C43,55.4,38.4,60,32.7,60c-5.6,0-10.2-4.6-10.2-10.2
			C22.5,44.1,27.1,39.5,32.7,39.5z"/>
		<polyline class="st1" points="43.2,37 51.3,22.5 68.7,52.2 47.9,52.2 		"/>
		<polyline class="st1" points="59.9,25.2 78.9,25.2 78.9,45.2 71.9,45.2 		"/>
		<polyline class="st1" points="41.9,25.2 22.9,25.2 22.9,37.2 		"/>
	</g>
</g>
<g>
	<path class="st0" d="M100.1,23.3c-1.7,0-3-1.3-3-3c0-1.7,1.3-3,3-3v-3.6c-1.7,0-3-1.3-3-3c0-1.7,1.3-3,3-3V4l-0.4,0
		c-1.7,0-3-1.3-3-3h0h-3.9c0,1.7-1.3,3-3,3c-1.6,0-3-1.3-3-2.9c0,0,0-0.1,0-0.1h-3.6c0,1.7-1.3,3-3,3c-1.7,0-3-1.3-3-3h-3.7
		c0,1.7-1.3,3-3,3c0,0,0,0-0.1,0c0,0,0,0-0.1,0c-1.7,0-3-1.3-3-3h-3.7c0,1.7-1.3,3-3,3c0,0,0,0,0,0c0,0,0,0,0,0c-1.7,0-3-1.3-3-3
		h-3.9c0,1.7-1.3,3-3,3c0,0,0,0,0,0c0,0,0,0,0,0c-1.7,0-3-1.3-3-3h-3.9c0,1.7-1.3,3-3,3c0,0,0,0,0,0c0,0,0,0,0,0c-1.7,0-3-1.3-3-3h0
		h-3.7c0,1.7-1.3,3-3,3c0,0,0,0,0,0c0,0,0,0,0,0c-1.7,0-3-1.3-3-3H24c0,1.7-1.3,3-3,3c0,0,0,0,0,0c0,0,0,0,0,0c-1.7,0-3-1.3-3-3
		h-3.9c0,1.7-1.3,3-3,3c0,0,0,0,0,0c0,0,0,0,0,0c-1.7,0-3-1.3-3-3H8H4.1c0,1.7-1.3,3-3,3C1.1,4,1,4,1,4v3.6c0,0,0,0,0,0
		c1.7,0,3,1.3,3,3c0,1.7-1.3,3-3,3c0,0,0,0,0,0v3.6c0,0,0,0,0,0c1.7,0,3,1.3,3,3c0,1.7-1.3,3-3,3c0,0,0,0,0,0V27c0,0,0,0,0,0
		c1.7,0,3,1.3,3,3c0,0,0,0,0,0.1c0,0,0,0,0,0.1c0,1.7-1.3,3-3,3c0,0,0,0,0,0v3.7c0,0,0,0,0,0c1.7,0,3,1.3,3,3c0,0,0,0,0,0
		c0,0,0,0,0,0c0,1.7-1.3,3-3,3c0,0,0,0,0,0v3.9c0,0,0,0,0,0c1.7,0,3,1.3,3,3c0,0,0,0,0,0c0,0,0,0,0,0c0,1.7-1.3,3-3,3c0,0,0,0,0,0
		v3.9c0,0,0,0,0,0c1.7,0,3,1.3,3,3c0,0,0,0,0,0c0,0,0,0,0,0c0,1.7-1.3,3-3,3c0,0,0,0,0,0v0.1v3.9c0,0,0,0,0,0c1.7,0,3,1.3,3,3
		c0,0,0,0,0,0c0,0,0,0,0,0c0,1.7-1.3,3-3,3c0,0,0,0,0,0l0,0v3.7c0,0,0.1,0,0.1,0c1.7,0,3,1.3,3,3H8h0.1c0-1.7,1.3-3,3-3c0,0,0,0,0,0
		c0,0,0,0,0,0c1.7,0,3,1.3,3,3H18c0-1.7,1.3-3,3-3c0,0,0,0,0,0c0,0,0,0,0,0c1.7,0,3,1.3,3,3h3.9c0-1.7,1.3-3,3-3c0,0,0,0,0,0
		c0,0,0,0,0,0c1.7,0,3,1.3,3,3h3.7h0c0-1.7,1.3-3,3-3c0,0,0,0,0,0c0,0,0,0,0,0c1.7,0,3,1.3,3,3h3.9c0-1.7,1.3-3,3-3c0,0,0,0,0,0
		c0,0,0,0,0,0c1.7,0,3,1.3,3,3h3.9c0-1.7,1.3-3,3-3c0,0,0,0,0,0c0,0,0,0,0,0c1.7,0,3,1.3,3,3h3.7c0-1.7,1.3-3,3-3c0,0,0,0,0.1,0
		c0,0,0,0,0.1,0c1.7,0,3,1.3,3,3h3.7c0-1.7,1.3-3,3-3c1.7,0,3,1.3,3,3h3.6c0,0,0-0.1,0-0.1c0-1.6,1.4-2.9,3-2.9c1.7,0,3,1.3,3,3h3.9
		c0-1.7,1.3-3,3-3l0.4,0v-3.7l0,0c-1.7,0-3-1.3-3-3c0,0,0,0,0,0c0,0,0,0,0,0c0-1.7,1.3-3,3-3v-3.9v-0.1c-1.7,0-3-1.3-3-3
		c0,0,0,0,0,0c0,0,0,0,0,0c0-1.7,1.3-3,3-3v-3.9c-1.7,0-3-1.3-3-3c0,0,0,0,0,0c0,0,0,0,0,0c0-1.7,1.3-3,3-3v-3.9c-1.7,0-3-1.3-3-3
		c0,0,0,0,0,0c0,0,0,0,0,0c0-1.7,1.3-3,3-3v-3.7c-1.7,0-3-1.3-3-3c0,0,0,0,0-0.1c0,0,0,0,0-0.1c0-1.7,1.3-3,3-3V23.3"/>
</g>
</svg>
