<?xml version="1.0" encoding="utf-8"?>
<!-- Generator: Adobe Illustrator 25.4.1, SVG Export Plug-In . SVG Version: 6.00 Build 0)  -->
<svg version="1.1" id="레이어_1" xmlns="http://www.w3.org/2000/svg" xmlns:xlink="http://www.w3.org/1999/xlink" x="0px"
	 y="0px" viewBox="0 0 103.4 81.7" style="enable-background:new 0 0 103.4 81.7;" xml:space="preserve">
<style type="text/css">
	.st0{fill:none;stroke:#E62411;stroke-width:2;stroke-linecap:round;stroke-linejoin:round;stroke-miterlimit:10;}
	.st1{fill:none;stroke:#E62411;stroke-width:2;stroke-linejoin:round;stroke-miterlimit:10;}
	.st2{fill:none;stroke:#394553;stroke-width:2;stroke-linecap:round;stroke-linejoin:round;stroke-miterlimit:10;}
</style>
<g>
	<g>
		<polyline class="st0" points="46.2,71 63.1,52.8 82.3,73 		"/>
		<g>
			<polyline class="st0" points="46,36.8 102.3,36.7 102.4,80.7 46,80.7 46,45 			"/>
		</g>
		<polyline class="st1" points="83.6,64.4 90.5,57.8 102.1,70.5 		"/>
		<path class="st0" d="M79.3,44.8c2.7,0,5,2.2,5,5c0,2.7-2.2,5-5,5c-2.7,0-5-2.2-5-5C74.4,47,76.6,44.8,79.3,44.8z"/>
	</g>
	<g>
		<line class="st2" x1="37" y1="70" x2="6" y2="70"/>
		<path class="st2" d="M81,11H34.9L27.6,1H5.3C2.7,1,1,2.7,1,5.3v59.5c0,2.7,2,4.8,4.5,4.8c2.5,0,4.5-2.2,4.5-4.8V20h80v9"/>
	</g>
</g>
</svg>
