<?xml version="1.0" encoding="utf-8"?>
<!-- Generator: Adobe Illustrator 25.4.1, SVG Export Plug-In . SVG Version: 6.00 Build 0)  -->
<svg version="1.1" id="레이어_1" xmlns="http://www.w3.org/2000/svg" xmlns:xlink="http://www.w3.org/1999/xlink" x="0px"
	 y="0px" viewBox="0 0 210.3 111.1" style="enable-background:new 0 0 210.3 111.1;" xml:space="preserve">
<style type="text/css">
	.st0{fill:#E62411;}
	
		.st1{clip-path:url(#SVGID_00000062887731539334825220000000382033795175011484_);fill:url(#SVGID_00000114045353381695916050000011433939557412239751_);}
	
		.st2{clip-path:url(#SVGID_00000152236102187127062840000014755400909126022058_);fill:url(#SVGID_00000163769233441609425770000009262688894549653393_);}
	.st3{fill:#3E3A39;}
	
		.st4{clip-path:url(#SVGID_00000065786309379670516120000002277040965323641736_);fill:url(#SVGID_00000069361689593839955730000008878452173998735256_);}
	.st5{font-family:'NotoSansKR-Bold-KSCpc-EUC-H';}
	.st6{font-size:36px;}
</style>
<g>
	<g>
		<path class="st0" d="M117.7,23.6c-0.2,0.1-0.2,0.2-0.1,0.3l13.2,10.8l6-18.7L117.7,23.6z"/>
	</g>
	<g>
		<defs>
			<path id="SVGID_1_" d="M198.3,22.5l-18.9,7.4c-0.2,0.1-0.2,0.2-0.1,0.3l0,0l13,10.6c0.1,0.1,0.4,0.2,0.6,0.2l3.6,0.4
				c0.2,0,0.2-0.1,0.1-0.2l-13.3-10.8l19.2-7.5c0.2-0.1,0.2-0.1,0-0.2l-3.6-0.4c0,0-0.1,0-0.1,0C198.6,22.4,198.4,22.4,198.3,22.5"
				/>
		</defs>
		<clipPath id="SVGID_00000183968068375136072820000010966112586072514475_">
			<use xlink:href="#SVGID_1_"  style="overflow:visible;"/>
		</clipPath>
		
			<linearGradient id="SVGID_00000062904213931058734600000011240471736006380674_" gradientUnits="userSpaceOnUse" x1="-492.7533" y1="897.9634" x2="-492.1406" y2="897.9634" gradientTransform="matrix(38.2034 0 0 -38.2034 19004.082 34337.1484)">
			<stop  offset="0" style="stop-color:#E62411"/>
			<stop  offset="0.5238" style="stop-color:#EF8200"/>
			<stop  offset="0.9897" style="stop-color:#F9BE00"/>
			<stop  offset="1" style="stop-color:#F9BE00"/>
		</linearGradient>
		
			<rect x="179.2" y="22.4" style="clip-path:url(#SVGID_00000183968068375136072820000010966112586072514475_);fill:url(#SVGID_00000062904213931058734600000011240471736006380674_);" width="23.5" height="19.1"/>
	</g>
	<g>
		<path class="st0" d="M194.8,21.9l-24.9-2.5l-6,18.7l24.9,2.5c0.2,0,0.2-0.1,0.1-0.2l-13.2-10.8l19.2-7.5C195,22,195,22,194.8,21.9
			"/>
	</g>
	<g>
		<defs>
			<path id="SVGID_00000178921061149786741480000000369623105308547767_" d="M205.9,23.2L187,30.7c-0.2,0.1-0.2,0.2-0.1,0.3
				c0,0,0,0,0,0l13,10.6c0.1,0.1,0.4,0.2,0.6,0.2l3.6,0.4c0.2,0,0.2-0.1,0.1-0.2L191,31.2l19.2-7.5c0.2-0.1,0.2-0.1,0-0.2l-3.6-0.4
				c0,0-0.1,0-0.1,0C206.3,23.1,206.1,23.2,205.9,23.2"/>
		</defs>
		<clipPath id="SVGID_00000014604196882565450130000002030654850481907600_">
			<use xlink:href="#SVGID_00000178921061149786741480000000369623105308547767_"  style="overflow:visible;"/>
		</clipPath>
		
			<linearGradient id="SVGID_00000139983109249250514840000009493466697379631548_" gradientUnits="userSpaceOnUse" x1="-492.8976" y1="897.9562" x2="-492.2849" y2="897.9562" gradientTransform="matrix(38.2034 0 0 -38.2034 19017.2598 34337.6484)">
			<stop  offset="0" style="stop-color:#E62411"/>
			<stop  offset="0.5238" style="stop-color:#EF8200"/>
			<stop  offset="0.9897" style="stop-color:#F9BE00"/>
			<stop  offset="1" style="stop-color:#F9BE00"/>
		</linearGradient>
		
			<rect x="186.8" y="23.1" style="clip-path:url(#SVGID_00000014604196882565450130000002030654850481907600_);fill:url(#SVGID_00000139983109249250514840000009493466697379631548_);" width="23.5" height="19.1"/>
	</g>
	<path class="st0" d="M195,9.4l-58.7-6c-3.3-0.3-5.8,1.5-6.6,4c-0.4,1.4,0,2.7,1,3.6l19.7,16.1l0,0l0,0L195,9.5
		C195.2,9.4,195.2,9.4,195,9.4"/>
	<path class="st0" d="M181.2,52.3L181.2,52.3l-30.9-25.2l0,0l0,0l-28.4,11.2c-1.5,0.7-2.7,1.8-3.1,3.2c-0.8,2.5,0.4,4.7,3.7,5
		l58.7,6C181.3,52.5,181.4,52.4,181.2,52.3"/>
	<path class="st3" d="M27.5,77.8c0.1,0.8,0.1,1.9,0,2.7c-1.2,0.1-7.2,0.1-8.5,0c-0.1-2.3-0.1-13.8,0-16.1c1.8-0.1,6.2-0.1,7.7,0
		c0.1,0.8,0.1,1.9,0,2.7c-1.2,0-3.4,0-4.9,0c0,3,0,7.5,0,10.7C23.3,77.8,26,77.8,27.5,77.8 M35.5,81.9c-0.5,0.1-2.2,0-2.9,0
		c0-1.2,0-4.9,0-8.6h-1.3c0,3.7,0,7.3,0,8.4c-0.5,0.1-2.2,0.1-2.9,0c-0.1-2.4-0.1-15.7,0-17.8c0.5-0.1,2.3-0.1,2.9,0
		c0,1,0,3.6,0,6.6h1.2c0-3.1,0-5.8,0-6.7c0.5-0.1,2.3-0.1,2.9,0C35.5,66.3,35.5,79.4,35.5,81.9"/>
	<path class="st3" d="M37,67.6c-0.1-0.8-0.1-1.8,0-2.5c0.4,0,2.2,0,4.4,0c0-0.5,0-1.1,0-1.5c0.5-0.1,2.3-0.1,3.1,0c0,0.4,0,1,0,1.5
		c1.7,0,3.3,0,4.1,0c0,0.7,0.1,1.8,0,2.5C46.9,67.7,38.1,67.7,37,67.6 M43,75.8c-4.1,0-5.6-0.9-5.6-3.8c0-2.9,1.5-3.8,5.6-3.8
		c4.1,0,5.6,0.9,5.6,3.8C48.6,74.9,47.1,75.8,43,75.8 M53.3,79.3c0.1,0.7,0.1,1.9,0,2.6c-1.6,0.1-13.1,0.1-14.9,0
		c-0.1-1.5-0.1-4,0-5.2c0.6-0.1,2.3-0.1,3,0c0,1,0,1.5,0,2.6C45.8,79.3,51.8,79.3,53.3,79.3 M43,73.4c2.2,0,2.8-0.4,2.8-1.4
		c0-1.1-0.6-1.4-2.8-1.4c-2.2,0-2.8,0.4-2.8,1.4C40.2,73.1,40.8,73.4,43,73.4 M54.8,72.1c-0.3,0-0.9,0.1-1.7,0.1c0,2.5,0,4.7,0,5.6
		c-0.6,0.1-2.3,0.1-3,0C50,76,50,65.3,50,63.8c0.5-0.1,2.3-0.1,3,0c0,0.9,0,3.1,0,5.6c0.7,0,1.3,0,1.7,0
		C54.8,70.2,54.8,71.4,54.8,72.1"/>
	<path class="st3" d="M56.1,64.2c1.2-0.1,8.7-0.1,10.2,0c0.1,2.2,0.1,7.6,0,9.5c-1.3,0.1-8.7,0.1-10.2,0C56,71.4,56,66.2,56.1,64.2
		 M57.6,75.2c0.6-0.1,2.3-0.1,3,0c0,1,0,3.1,0,4.1c4.4,0,10.4,0,11.9,0c0.1,0.7,0.1,1.9,0,2.6c-1.6,0.1-13.1,0.1-14.9,0
		C57.5,80.4,57.5,76.3,57.6,75.2 M63.4,71.1c0-0.7,0-3.7,0-4.5c-1,0-3.2,0-4.5,0c0,0.7,0,3.7,0,4.5C60,71.2,62.4,71.2,63.4,71.1
		 M69.2,63.8c0.5-0.1,2.3-0.1,3,0c0,2.2,0.1,10.9,0,12.9c-0.6,0.1-2.3,0.1-3,0C69.1,75,69.1,65.3,69.2,63.8"/>
	<path class="st3" d="M91.2,73.2c-0.8,0.1-3.7,0.1-7.1,0.1v1.8c2.7,0,5.2,0,6,0.1c0.1,1.7,0.1,5.8,0,6.8c-0.7,0-2.3,0-3.1,0
		c0-1,0-3,0-4.2c-4.4,0-10.5,0.1-12,0c-0.1-0.8-0.1-1.8,0-2.6c0.7,0,3.2-0.1,6-0.1c0-0.6,0-1.2,0-1.8c-3.1,0-6.1,0-7.1-0.1
		c-0.1-0.7-0.1-1.8,0-2.6c4.2-0.1,15.4,0,17.2,0C91.3,71.3,91.3,72.4,91.2,73.2 M75.3,66.6c-0.1-0.8-0.1-1.8,0-2.6
		c1.6-0.1,12.6-0.1,14.4,0c0.1,1.7,0.1,4.7,0,5.7c-0.6,0.1-2.4,0.1-3,0c0-1.1,0-2,0-3C82.2,66.6,76.8,66.6,75.3,66.6"/>
	<path class="st0" d="M109.6,77.8c-0.8,0.1-3.7,0.1-7.1,0.1c0,1.4,0,3.3,0,4.1c-0.7,0-2.3,0-3.1,0c0-0.7,0-2.6,0-4.1
		c-3.1,0-6.1,0-7.1-0.1c-0.1-0.7-0.1-1.8,0-2.6c4.2-0.1,15.4,0,17.2,0C109.7,75.9,109.7,76.9,109.6,77.8 M93.1,68.9
		c0-3.2,1.8-4.8,8-4.8c6.1,0,8,1.5,8,4.8c0,3.2-1.8,4.8-8,4.8C94.9,73.6,93.1,72.1,93.1,68.9 M96.2,68.9c0,1.6,0.9,2.1,4.9,2.1
		c3.9,0,4.9-0.5,4.9-2.1c0-1.6-0.9-2.1-4.9-2.1C97.1,66.8,96.2,67.3,96.2,68.9"/>
	<path class="st0" d="M128.1,81.4c-1.7,0.1-14.9,0.1-17.2,0c-0.1-0.7-0.1-1.8,0-2.6l3.1,0c0-1.3,0-2.7,0-3.4c0.6-0.1,2.3-0.1,3,0
		c0,0.8,0,2.2,0,3.4h4.8c0-1.2,0-2.6,0-3.4c0.7-0.1,2.4-0.1,3,0c0,0.7,0,2.2,0,3.4c1.5,0,2.6,0,3.1,0
		C128.2,79.5,128.2,80.5,128.1,81.4 M111.7,74.2c-0.1-0.8-0.1-1.8,0-2.6c0.5,0,1.5,0,2.8,0c0-1.3,0-3,0-4.3c-1.1,0-2,0-2.6,0
		c-0.1-0.8-0.1-1.9,0-2.6c3.3-0.1,13.3-0.1,15.2,0c0,0.7,0,1.7,0,2.6c-0.5,0-1.5,0-2.6,0l0,4.3c1.2,0,2.2,0,2.8,0
		c0.1,0.8,0.1,1.7,0,2.6C124.7,74.3,114,74.3,111.7,74.2 M117.4,71.5c1.3,0,2.7,0,4.1,0c0-1.3,0-3,0-4.3h-4V71.5z"/>
	<path class="st0" d="M135,72.1c-1.4,1.1-2.8,2.2-4.1,3.1c-0.5-0.4-1.4-1.5-1.7-2.1c1.4-1,2.8-2.1,4.2-3.2v-3.1c-1.7,0-3.2,0-3.8,0
		c-0.1-0.8-0.1-1.9,0-2.6c1.6,0,7.1-0.1,10.6,0c0.1,0.8,0.1,1.9,0,2.6c-0.7,0-2.1,0-3.7,0l0,3.1c1.5,1,3,1.9,4.6,3
		c-0.3,0.6-1.1,1.7-1.5,2.2C138,74.2,136.4,73.2,135,72.1 M146.1,81.9c-1.6,0.1-12.9,0.1-14.7,0c-0.1-1.5-0.1-4.7,0-5.9
		c0.6-0.1,2.3-0.1,3,0c0,1,0,2.2,0,3.3c4.4,0,10.2,0,11.7,0C146.1,80,146.1,81.2,146.1,81.9 M142.7,67.8c0-1.9,0-3.5,0-4
		c0.5-0.1,2.3-0.1,3,0c0,2.2,0.1,10.9,0,12.9c-0.6,0.1-2.3,0.1-3,0c0-0.8,0-3.4,0-6.1c-1.1,0-2.2,0-2.8,0c-0.1-0.8-0.1-2,0-2.8
		C140.4,67.8,141.6,67.8,142.7,67.8"/>
	<path class="st0" d="M155.1,71.1c1.6,2.5,3.8,6,4.8,7.8c-0.5,0.6-1.8,1.5-2.4,1.6c-0.7-1-2.5-3.9-4-6.5c-1.3,2.7-2.7,5.6-3.4,6.8
		c-0.6-0.1-2-0.8-2.5-1.4c0.9-1.9,3-5.9,4.3-8.5c0-2.5,0-5.7,0-6.6c0.5-0.1,2.4-0.1,3.1,0C155.1,65.4,155.1,68.7,155.1,71.1
		 M164.4,81.9c-0.6,0.1-2.3,0.1-3,0c-0.1-2.3-0.1-15.7,0-18c0.5-0.1,2.3-0.1,3,0C164.4,66.6,164.4,79.5,164.4,81.9"/>
	<path class="st0" d="M178.6,77.8c0.1,0.8,0.1,1.8,0,2.6c-1.1,0.1-9.4,0.1-12.4,0c-0.1-0.8-0.1-1.9,0-2.6c0.7,0,2.5-0.1,4.7-0.1
		v-2.1c-2.9-0.3-4-1.4-4-3.7c0-2.7,1.5-3.8,5.6-3.8c4.1,0,5.6,1,5.6,3.8c0,2.4-1.1,3.5-4,3.7v2.1C176.1,77.8,177.9,77.8,178.6,77.8
		 M166.4,67.6c-0.1-0.8-0.1-1.8,0-2.5c0.4,0,2.2,0,4.4,0c0-0.5,0-1,0-1.5c0.5-0.1,2.3-0.1,3.1,0c0,0.4,0,0.9,0,1.5
		c1.7,0,3.3,0,4.1,0c0,0.7,0.1,1.8,0,2.5C176.3,67.6,167.6,67.6,166.4,67.6 M172.4,73.3c2.2,0,2.8-0.4,2.8-1.4c0-1-0.6-1.4-2.8-1.4
		c-2.2,0-2.8,0.4-2.8,1.4C169.6,72.9,170.2,73.3,172.4,73.3 M182.7,81.9c-0.6,0.1-2.3,0.1-3,0c-0.1-2.3-0.1-15.7,0-18
		c0.5-0.1,2.3-0.1,3,0C182.7,66.5,182.7,79.4,182.7,81.9"/>
	<g>
		<defs>
			<path id="SVGID_00000169533861181003184680000006799417816330829201_" d="M73.6,0c-0.5,0-0.9,0.4-0.9,0.9c0,3.2-2.6,5.8-5.8,5.8
				c-3.2,0-5.8-2.6-5.8-5.8c0-0.5-0.4-0.9-0.9-0.9h-8.5c-0.5,0-0.9,0.4-0.9,0.9c0,3.2-2.6,5.8-5.8,5.8c-3.2,0-5.8-2.6-5.8-5.8
				c0-0.5-0.4-0.9-0.9-0.9h-8.5c-0.5,0-0.9,0.4-0.9,0.9c0,3.2-2.6,5.8-5.8,5.8s-5.8-2.6-5.8-5.8c0-0.5-0.4-0.9-0.9-0.9H7.9
				C7.4,0,7,0.4,7,0.9c0,3.2-2.6,5.8-5.8,5.8c0,0-0.1,0-0.1,0L1,6.7c-0.2,0-0.5,0.1-0.7,0.3C0.1,7.1,0,7.4,0,7.6v8.5
				c0,0.3,0.1,0.5,0.3,0.7C0.5,16.9,0.7,17,1,17l0.1,0c0,0,0.1,0,0.1,0C4.4,17,7,19.6,7,22.8c0,3.2-2.6,5.8-5.8,5.8c0,0-0.1,0-0.1,0
				l-0.1,0c-0.3,0-0.5,0.1-0.7,0.3C0.1,29,0,29.2,0,29.5V38c0,0.3,0.1,0.5,0.3,0.7c0.2,0.2,0.4,0.3,0.7,0.3l0.1,0c0,0,0.1,0,0.1,0
				c3.2,0,5.8,2.6,5.8,5.8c0,3.2-2.6,5.8-5.8,5.8c0,0-0.1,0-0.1,0l-0.1,0c-0.3,0-0.5,0.1-0.7,0.3C0.1,50.8,0,51.1,0,51.3v8.5
				c0,0.2,0.1,0.5,0.3,0.7c0.2,0.2,0.4,0.3,0.7,0.3l0.1,0c0,0,0.1,0,0.1,0c3.2,0,5.8,2.6,5.8,5.8c0,3.2-2.6,5.8-5.8,5.8
				c0,0-0.1,0-0.1,0l-0.1,0c-0.3,0-0.5,0.1-0.7,0.3C0.1,72.7,0,72.9,0,73.2v8.5c0,0.3,0.1,0.5,0.3,0.7c0.2,0.2,0.4,0.3,0.7,0.3
				l0.1,0c0,0,0.1,0,0.1,0c3.2,0,5.8,2.6,5.8,5.8c0,3.2-2.6,5.8-5.8,5.8c0,0-0.1,0-0.1,0l-0.1,0c-0.3,0-0.5,0.1-0.7,0.3
				C0.1,94.6,0,94.8,0,95.1v8.5c0,0.2,0.1,0.5,0.3,0.7c0.2,0.2,0.4,0.3,0.7,0.3l0.1,0c0,0,0.1,0,0.1,0c3.2,0,5.8,2.6,5.8,5.8
				c0,0.5,0.4,0.9,0.9,0.9h8.5c0.5,0,0.9-0.4,0.9-0.9c0-3.2,2.6-5.8,5.8-5.8s5.8,2.6,5.8,5.8c0,0.5,0.4,0.9,0.9,0.9h8.5
				c0.5,0,0.9-0.4,0.9-0.9c0-3.2,2.6-5.8,5.8-5.8c3.2,0,5.8,2.6,5.8,5.8c0,0.5,0.4,0.9,0.9,0.9h8.5c0.5,0,0.9-0.4,0.9-0.9
				c0-3.2,2.6-5.8,5.8-5.8c3.2,0,5.8,2.6,5.8,5.8c0,0.5,0.4,0.9,0.9,0.9h8.5c0.5,0,0.9-0.4,0.9-0.9c0-3.2,2.6-5.8,5.8-5.8
				c0.5,0,0.9-0.4,0.9-0.9v-8.5c0-0.5-0.4-0.9-0.9-0.9c-3.2,0-5.8-2.6-5.8-5.8c0-0.3,0-0.6,0.1-0.9c0.1-0.5-0.3-1-0.8-1
				c-0.5-0.1-1,0.3-1,0.8c-0.1,0.4-0.1,0.8-0.1,1.2c0,3.9,2.9,7.1,6.7,7.6v6.7c-3.5,0.4-6.2,3.2-6.6,6.6h-6.8
				c-0.5-3.8-3.7-6.7-7.6-6.7c-3.9,0-7.1,2.9-7.6,6.7h-6.8c-0.5-3.8-3.7-6.7-7.6-6.7c-3.9,0-7.1,2.9-7.6,6.7h-6.8
				c-0.5-3.8-3.7-6.7-7.6-6.7c-3.9,0-7.1,2.9-7.6,6.7H8.8c-0.4-3.6-3.3-6.4-6.9-6.7V96c3.9-0.3,7-3.6,7-7.6c0-4-3.1-7.3-7-7.6v-6.7
				c3.9-0.3,7-3.6,7-7.6c0-4-3.1-7.3-7-7.6v-6.7c3.9-0.3,7-3.6,7-7.6c0-4-3.1-7.3-7-7.6v-6.7c3.9-0.3,7-3.6,7-7.6s-3.1-7.3-7-7.6
				V8.5c3.6-0.3,6.5-3.1,6.9-6.7h6.8c0.5,3.8,3.7,6.7,7.6,6.7c3.9,0,7.1-2.9,7.6-6.7h6.8c0.5,3.8,3.7,6.7,7.6,6.7
				c3.9,0,7.1-2.9,7.6-6.7h6.8c0.5,3.8,3.7,6.7,7.6,6.7c3.9,0,7.1-2.9,7.6-6.7h6.8c0.4,3.5,3.2,6.2,6.6,6.6v6.7
				c-3.6,0.4-6.5,3.4-6.7,7.1c0,0.5,0.4,0.9,0.9,1c0.5,0,0.9-0.4,1-0.9c0.2-3,2.7-5.4,5.8-5.4c0.5,0,0.9-0.4,0.9-0.9V7.6
				c0-0.5-0.4-0.9-0.9-0.9c-3.2,0-5.8-2.6-5.8-5.8c0-0.5-0.4-0.9-0.9-0.9H73.6z"/>
		</defs>
		<clipPath id="SVGID_00000160175914972328017970000001834909797662491285_">
			<use xlink:href="#SVGID_00000169533861181003184680000006799417816330829201_"  style="overflow:visible;"/>
		</clipPath>
		
			<linearGradient id="SVGID_00000044872237488467138820000010620432201132155066_" gradientUnits="userSpaceOnUse" x1="-495.3908" y1="903.6038" x2="-494.7782" y2="903.6038" gradientTransform="matrix(146.5654 0 0 -146.5654 72607.1406 132492.625)">
			<stop  offset="0" style="stop-color:#E62411"/>
			<stop  offset="0.5238" style="stop-color:#EF8200"/>
			<stop  offset="0.9897" style="stop-color:#F9BE00"/>
			<stop  offset="1" style="stop-color:#F9BE00"/>
		</linearGradient>
		
			<rect style="clip-path:url(#SVGID_00000160175914972328017970000001834909797662491285_);fill:url(#SVGID_00000044872237488467138820000010620432201132155066_);" width="89.8" height="111.1"/>
	</g>
</g>
<text transform="matrix(1 0 0 1 18.0171 55.5713)" class="st3 st5 st6">2021</text>
</svg>
