<?xml version="1.0" encoding="utf-8"?>
<!-- Generator: Adobe Illustrator 25.4.1, SVG Export Plug-In . SVG Version: 6.00 Build 0)  -->
<svg version="1.1" id="레이어_1" xmlns="http://www.w3.org/2000/svg" xmlns:xlink="http://www.w3.org/1999/xlink" x="0px"
	 y="0px" viewBox="0 0 132.8 75.5" style="enable-background:new 0 0 132.8 75.5;" xml:space="preserve">
<style type="text/css">
	
		.st0{clip-path:url(#SVGID_00000110460827671685641520000010084784523269234087_);fill:none;stroke:#3F3F3F;stroke-width:2;stroke-miterlimit:10;}
	.st1{clip-path:url(#SVGID_00000110460827671685641520000010084784523269234087_);fill:#3F3F3F;}
	.st2{clip-path:url(#SVGID_00000110460827671685641520000010084784523269234087_);fill:none;stroke:#3F3F3F;stroke-miterlimit:10;}
	.st3{clip-path:url(#SVGID_00000003073461358131231360000016767941148568285067_);fill:#3F3F3F;}
</style>
<g>
	<defs>
		<path id="SVGID_1_" d="M49.4,55.9c-0.1,0.1-0.2,0.2-0.3,0.3c-0.1,0.1-0.2,0-0.3,0.1c0-0.1,0-0.3,0.1-0.4
			C49,55.9,49.3,55.9,49.4,55.9z M21,54.5c-0.1,0.4-0.9,0-0.6,0.5c0,0,0.5-0.1,0.8-0.1c0.1,0,0.2,0.1,0.3,0.1c0,0,0.1-0.1,0.1-0.2
			c-0.1-0.2-0.3-0.4-0.5-0.6C21.1,54.4,21.1,54.4,21,54.5z M52.5,7.4c-0.1-0.1-0.1-0.2-0.2-0.2c-0.1,0.1-0.2,0.2-0.2,0.3
			C52.3,7.4,52.4,7.4,52.5,7.4L52.5,7.4z M52.9,11.7c-0.1,0-0.2-0.1-0.3-0.1c0,0.1,0.1,0.2,0.1,0.3c0.1,0.2,0.2,0.3,0.4,0.4
			c0.1-0.1,0.1-0.3,0.2-0.4c0-0.1,0-0.2,0-0.3C53.1,11.6,53,11.6,52.9,11.7z M54.3,8.5c-0.1,0-0.2,0.2-0.2,0.3
			c0.1,0,0.2,0.1,0.3,0.1C54.4,8.7,54.4,8.6,54.3,8.5z M55.1,7.5C55.1,7.5,55.1,7.5,55.1,7.5c0.1,0.1,0.2,0.1,0.3,0.2
			c0,0,0.2-0.2,0.4-0.3c-0.3-0.2-0.5-0.5-0.8-0.7c0,0,0,0-0.1,0C55.2,6.9,55.4,7.1,55.1,7.5z M22.6,55.1c0,0-0.1,0.1-0.2,0.2
			c0.2,0.1,0.4,0.2,0.7,0.3c0,0,0,0,0.1,0C23.1,55.2,22.8,55.2,22.6,55.1z M44.9,59.4c-0.2-0.1-0.4-0.1-0.5-0.1
			c0.1,0.1,0.2,0.2,0.3,0.3C44.8,59.5,44.8,59.4,44.9,59.4z M23.5,54.4c-0.2-0.2-0.3-0.3-0.5-0.5c-0.1,0-0.2,0-0.3,0
			c0,0.1,0,0.1,0,0.2c-0.1,0.4,0.3,0.4,0.6,0.5C23.3,54.6,23.4,54.5,23.5,54.4z M44.7,62c0.2,0.2,0.4,0.4,0.6,0.6
			c0,0,0.1-0.1,0.3-0.2c-0.2-0.2-0.4-0.4-0.6-0.5C44.9,61.9,44.8,62,44.7,62z M44.3,59.2c-0.1,0-0.2,0.2-0.3,0.2
			c0.1,0.1,0.3,0.2,0.4,0.2c-0.1-0.1-0.2-0.1-0.3-0.2C44.1,59.5,44.2,59.3,44.3,59.2z M44.9,60.8c0,0-0.1-0.2-0.2-0.2
			c-0.1,0-0.3,0.1-0.3,0.1c0,0.1,0.1,0.2,0.2,0.4C44.8,60.9,44.9,60.9,44.9,60.8z M40.7,59.4c-0.1,0.1-0.3,0.3-0.4,0.2
			c-0.6-0.5-0.4,0.2-0.6,0.3c-0.2,0.1-0.3,0.3,0,0.4c0.2,0.1,0.4,0.2,0.5,0.2c0.4-0.1,0.7-0.3,1.1-0.5c0.1-0.1,0.1-0.2,0.2-0.3
			c0,0,0,0.1,0.1,0.1c0,0,0.1-0.1,0.1-0.2c-0.1-0.1-0.1-0.2-0.2-0.2C41.2,59,41.2,59,40.7,59.4z M27.3,3.3C27.6,3.5,27.8,3.8,28,4
			c0,0,0.1-0.1,0.3-0.3c-0.3-0.3-0.5-0.5-0.8-0.7C27.6,3.1,27.4,3.2,27.3,3.3z M74.5,39.6c0-0.6,0.1-1.2,0.1-1.8c0-0.2,0-0.3,0-0.5
			c-0.1-0.1-0.3-0.1-0.5-0.2c0.2,0.4,0.3,0.8,0.2,1C73.3,39.2,73.7,39.5,74.5,39.6z M2.2,31c-0.2-0.1-0.4-0.2-0.5-0.3
			c0,0.2-0.1,0.5-0.1,0.7C1.8,31.3,2,31.1,2.2,31z M12.4,31.9c-0.3-0.1-0.5-0.3-0.8-0.4c0,0-0.2,0.1-0.2,0.1
			c0.2,0.2,0.3,0.4,0.6,0.7C12.2,32.1,12.3,32,12.4,31.9z M52.4,8.2c0.1,0,0.3,0.1,0.4,0.1c0.1,0,0.1-0.1,0.2-0.2
			C53,8,52.9,7.9,52.9,7.8l0,0c-0.1,0-0.2,0-0.3,0c-0.2,0-0.4,0.1-0.4-0.2c0-0.1,0-0.1,0-0.1c-0.2,0.4-1.2,0-0.9,0.8
			C51.2,8.4,52,8.2,52.4,8.2z M72.5,34.4c-0.5,1.1-1.1,2.2-1.6,3.3c0.2,0,0.4,0.1,0.6,0.1c0.4-0.1,0.8-0.2,1-0.4
			c0.2-0.2,0.2-0.6,0.4-0.8c0.3,0.1,0.8,0.1,0.9,0.2c0,0.1,0.1,0.2,0.1,0.2c0.2-0.1,0.4-0.1,0.6-0.2c0-1-0.1-2-0.2-3
			C73.8,34.2,73.4,34.9,72.5,34.4z M68.7,57.6c-0.2,0.2-0.3,0.5-0.5,0.7c-0.9,1.4-2,2.7-3.1,4c-0.3,0.4-0.7,0.8-1.1,1.1
			c-4.9,5.1-11.3,8.7-18.5,10.3l0,0c-0.1,0-0.3,0-0.4,0.1c-2.4,0.5-4.8,0.7-7.4,0.7c-1.9,0-3.8-0.1-5.6-0.4
			c-0.4-0.1-0.8-0.1-1.1-0.2c-1.8-0.3-3.6-0.8-5.3-1.4c-0.4-0.1-0.8-0.3-1.1-0.4c-1.1-0.4-2.2-0.9-3.2-1.4c0-0.1-0.1-0.1-0.1-0.2
			c0,0-0.1,0.1-0.1,0.1c-1.6-0.8-3.2-1.8-4.7-2.8c0.1-0.1,0.3-0.2,0.4-0.4c0,0-0.2-0.2-0.2-0.2c-0.2,0.1-0.3,0.2-0.5,0.3
			c-0.4-0.3-0.9-0.7-1.3-1c0-0.1,0-0.2,0-0.3c0-0.2-0.4-0.3-0.6-0.5c0,0.1,0,0.3,0,0.4c-2-1.6-3.8-3.5-5.3-5.5
			c0.1-0.2,0.2-0.3,0.3-0.3c1.6,0,2-1.5,3.4-1.7c0.1,0,0.2-0.2,0.2-0.4c-0.2,0-0.4-0.1-0.5-0.1c-0.4,0.1-0.7,0.3-1,0.5
			c-0.5,0.2-1,0.6-1.5,0.7c-0.6,0.1-1.1,0.2-1.5,0.6c-0.1-0.2-0.3-0.4-0.4-0.6c0.2-0.1,0.2-0.2,0.1-0.4c0-0.1-0.1-0.2-0.1-0.2
			c-0.1,0.1-0.2,0.2-0.2,0.3c-0.2-0.3-0.5-0.7-0.7-1c0,0,0.1-0.1,0.1-0.1c0-0.1-0.2-0.2-0.3-0.2c-1.2-1.8-2.2-3.7-3-5.7
			c0.1,0,0.2,0,0.4,0c0,0,0.1,0,0.1,0c-0.1,0-0.1,0.1-0.2,0.1c0.2,0,0.4,0,0.5,0c0.2,0,0.3,0.1,0.4,0c0.1,0,0.1-0.2,0.2-0.3
			c-0.1,0-0.1-0.1-0.2-0.1c-0.1,0-0.3,0.1-0.6,0.1c0.1-0.1,0.1-0.2,0.1-0.4c0-0.4-0.2-0.6-0.5-0.7c-0.1,0-0.4,0.1-0.6,0.2
			c-0.8-2.2-1.5-4.5-1.9-6.9c0.2,0,0.3,0.1,0.5,0.1c0.1,0,0.2,0,0.3,0c0-0.1,0-0.4-0.1-0.4c-0.3-0.1-0.6-0.2-0.8-0.4
			c-0.1-0.4-0.1-0.9-0.2-1.3c0.5,0.2,1.1,0.5,1.7,0.6c0.4,0.1,1.2-0.6,1.9-1c0.1-0.1,0.3-0.2,0.4-0.2c1.7-0.3,0.6-0.8,0.2-1.3l0,0
			c0,0,0,0,0,0c0.1,0,0.3,0,0.4,0c0.4-0.1,0.9-0.2,1.3-0.4c-0.1,0-0.1-0.1-0.2-0.1c-0.5,0.1-0.9,0.1-1.4,0.2c-0.1,0-0.1,0.2-0.2,0.3
			c0,0,0,0-0.1,0c0,0,0,0,0,0c-0.7,0-1.6-1.6-2.2,0.2c-0.1,0.2-1.4,0.3-1.6,0.2c-0.2-0.2-0.4-0.3-0.6-0.3c0-0.5-0.1-1-0.1-1.5
			c0.6,0.1,1.2,0.2,1.8,0.3c0.3,0,0.7,0,1-0.1c0.3-0.1,0.5-0.3,0.8-0.4c-0.3-0.1-0.6-0.3-0.9-0.4c-0.3,0-0.7,0.1-1.5,0.2
			c-0.1,0-0.5,0.2-1.1,0.4c0-0.3,0-0.6,0-1c0-1.7,0.1-3.5,0.4-5.1c0.3-0.1,0.6-0.3,0.5-0.7c0-0.1,0.1-0.2,0.2-0.3
			c0.6,0.6,1-0.2,1.5-0.3c0.4-0.1,0.4-0.2-0.1-0.5c-0.1-0.1-0.3-0.3-0.3-0.4c0-0.1,0.3-0.2,0.4-0.3c0.2-0.1,0.6,0.1,0.4-0.3
			c-0.4-0.8,1-0.2,0.8-0.7c0.1,0.2,0.1,0.4,0.2,0.6C5,29.9,5.2,30.1,5.2,30c0.3-0.1,0.5-0.1,0.5,0.2c0,0.3,0.1,0.5,0,0.8
			c-0.1,0.2-0.2,0.4,0.2,0.3c0.2,0,0.6-0.1,0.6-0.2c0-0.5,0-1.1,0-1.6c0-0.1,0.1-0.3,0.1-0.4c0.3,0.1,0.6,0.1,0.8,0.2
			c0,0,0,0.3-0.1,0.4c-0.3,0.3-0.4,0.6,0.1,0.7c1.1,0.3,1.7,1.2,2.9,1.4c0.2,0,0.3,0.2,0.5,0.3c-0.2,0.1-0.4,0.2-0.6,0.3
			c-0.2,0.1-0.3,0.1-0.5,0.2c-0.2,0.1-0.3,0.3-0.4,0.5c0.2,0,0.4,0.1,0.6,0.1c0.1,0,0.3,0,0.4,0c0.7,0,1.3-0.1,0.9,0.8
			c0,0,0.2,0.1,0.3,0.1c0.6-0.1,0.9-0.8,1.6-0.6c-0.1-0.5-0.2-1-0.3-1.5c0-0.2,0-0.4-0.2-0.6c-0.1-0.2-0.4-0.4-0.6-0.4
			c-0.6,0-1.1,0.2-1.7,0.2c-0.3,0-0.6-0.1-0.8-0.2c0.2-0.2,0.3-0.4,0.5-0.5c0.8-0.3,0.3-0.5-0.1-0.6c-0.3-0.1-0.5-0.2-0.7-0.3
			c-0.3-0.3-0.6-0.5-0.9-0.8c0,0-0.2,0-0.2,0.1c0,0.1,0,0.2,0,0.2c-0.2-0.1-0.4-0.1-0.5-0.2c-0.1,0-0.1-0.3,0-0.3
			c0.2,0,0.3-0.1,0.5-0.1c-0.2-0.1-0.4-0.1-0.5-0.2c-0.3-0.1-0.5-0.3-0.7-0.4c-0.2-0.1-0.5-0.1-0.6-0.1c-0.6,0.6-1,0.3-1.6,0
			c-0.4-0.2-0.8-0.1-1.2-0.1c-0.2,0-0.4-0.6-0.7-0.8c0,0,0,0-0.1,0c0.6-1.8,1.2-3.5,2-5.2c0.1,0.2,0.2,0.4,0.3,0.7
			c0.1-0.2,0.2-0.3,0.2-0.4c0-0.2,0.1-0.5-0.2-0.6c-0.1,0-0.1,0-0.2,0c0.9-1.8,2-3.6,3.1-5.2c0.2,0.1,0.4,0.3,0.6,0.5
			c0-0.1,0.1-0.1,0.1-0.1c0.1,0.2,0.2,0.3,0.3,0.6c0.2-0.2,0.4-0.4,0.5-0.6c0-0.1-0.2-0.3-0.3-0.3c-0.1,0-0.2,0.1-0.4,0.1
			c0.1-0.1,0.1-0.2,0.1-0.2c-0.2-0.1-0.4-0.2-0.6-0.3c0.4-0.6,0.9-1.2,1.3-1.7c0.1,0,0.1,0.1,0.2,0.1c0.1,0,0.4-0.1,0.6-0.2
			c0.4-0.4,0.9-0.6,1.5-0.3c0.1,0,0.2-0.1,0.3-0.1c-0.1-0.1-0.2-0.2-0.2-0.2c-0.4,0-0.9,0-1.2-0.1c-0.2,0-0.3,0-0.4,0
			c0.1-0.1,0.2-0.3,0.4-0.4c0.3,0,0.6,0,0.9,0c0.1,0,0.2-0.1,0.4-0.2c-0.1-0.1-0.2-0.2-0.3-0.2c-0.2,0-0.3,0-0.5,0
			c4.1-4.4,9.3-7.7,15.2-9.7c-0.3,0.4-0.7,0.7-1.2,1c0,0,0,0.1,0,0.1c-0.1,0.2-0.3,0.4-0.5,0.5c-0.8,0.7-1.6,1.4-2.4,2.1
			C22.1,6.7,22,6.9,22,7c0.1,0.1,0.2,0.2,0.4,0.2c0.1,0,0.3-0.2,0.4-0.2c0.2,0,1-0.4,0.4,0.5c-0.2,0.3,0,0.4,0.3,0.4
			c0.7,0,1.2-0.1,1-1.2c-0.1-0.4,0.1-0.8,0.2-1.1c0.2,0.2,0.4,0.4,0.6,0.6c0.3,0.4,0.6,0,0.8-0.1C26.1,6,26,5.8,26,5.6
			c-0.1-0.2-0.2-0.4-0.2-0.6c0.4,0,0.6-0.9,1.1-0.4c0.7,0.6,1.3-0.2,2-0.1c0,0,0.1-0.3,0.1-0.4c0-0.3-0.2-0.5-0.2-0.8
			c-0.2-0.9-0.2-0.9,0.7-1.2c0.1,0,0.1-0.1,0.2-0.2C32.2,1.3,35,1,37.8,1c14.9,0,27.8,8.9,33.5,21.7c-0.1,0.1-0.2,0.2-0.2,0.3
			c0,0,0.1,0.1,0.1,0.2c0.1-0.1,0.2-0.1,0.2-0.2c1.4,3.2,2.4,6.6,2.8,10.2c-0.3,0.1-0.6,0.3-0.9,0.4c-0.2,0.1-0.4,0.1-0.7,0.1
			c0-0.2,0-0.5,0-0.7c0.1-0.2,0.3-0.3,0.4-0.5c0.1-0.2,0.2-0.4,0.2-0.6c-0.3,0.1-0.7,0.1-0.8,0.3c-0.7,0.8-1.7,1.3-2.7,1.7
			c-0.2-0.1-0.4-0.2-0.5-0.2c-0.3,0.2-0.5,0.4-0.7,0.6c-0.5,0.2-1.1,0.3-1.6,0.5c-1.9,0.6-2.2,0.5-2.2-1.1c0-0.3-0.1-0.7-0.3-0.9
			c-0.2-0.1-0.7,0-1.1,0c0.5,1.2-0.6,1.2-1.4,1.5c0.1-0.2,0.1-0.4,0.2-0.5c-0.1,0-0.2-0.1-0.4-0.1c-0.3,0.1-0.2,0.4-0.2,0.6
			c0,0,0,0.1,0.1,0.1c-0.1,0-0.2,0.1-0.2,0.1c-0.1,0.1-0.2,0.2-0.3,0.2c0.2,0.1,0.4,0.2,0.7,0.2c1,0.2,2,0.5,3.1,0.6
			c0.9,0.1,1,0.4,0.5,0.9c-0.9,0.9,1.1,1.3,0.6,1.9c-0.5,0.6-1.6,0.8-2.3,1.3c-0.4,0.3-0.3,0.7,0.5,0.7c1.4-0.1,2.7-0.2,4.1-0.2
			c0.5,0,1,0.1,1.4,0.2c0.2,0,0.5,0.3,0.4,0.4c-0.1,0.2-0.4,0.4-0.6,0.4c-0.5,0-0.9-0.1-1.4-0.1c-0.8,0-1.6-0.1-2.4-0.1
			c-0.2,0-0.4,0.1-0.7,0.2c0.2,0.1,0.3,0.2,0.5,0.3c0.5,0.2,0.7,0.3,0.8,0.5c2-0.3,3.9-0.9,5.9-1.5c-0.2-0.1-0.4-0.1-0.7-0.2
			c0.1-0.1,0.2-0.2,0.3-0.2c0.3,0,0.6,0.1,1,0.2c0.5-0.2,1.1-0.3,1.6-0.5c-0.3,5.7-2,11.1-4.7,15.9c-0.2,0.4-0.5,0.8-0.7,1.2
			c-0.2-0.1-0.5-0.1-0.7-0.2c-0.2-0.1-0.4-0.1-0.6-0.2c-0.1,0-0.3,0-0.4,0c0.1,0.1,0.1,0.3,0.2,0.3C68,57.1,68.4,57.3,68.7,57.6z
			 M65.4,32.6c-0.2-0.1-0.4-0.2-0.6-0.3c-0.1,0-0.2,0.1-0.4,0.2c0.3,0.1,0.6,0.2,0.8,0.2C65.2,32.8,65.3,32.7,65.4,32.6z M66.7,33.8
			c-0.2-0.1-0.4-0.1-0.6-0.2c-0.1,0.1-0.2,0.2-0.2,0.3c0.2,0,0.3,0.1,0.5,0.1C66.5,34,66.6,33.9,66.7,33.8z M67.9,31.7
			c-0.1-0.1-0.2-0.1-0.2-0.2c0.2-0.2,0.4-0.4,0.6-0.6c0,0-0.3-0.3-0.4-0.3c-0.4,0.2-0.7,0.4-1.5,0.9c0.1,0,0.2,0,0.3,0.1
			c-0.1,0-0.1,0-0.2,0c-0.2,0-0.4-0.1-0.6-0.1c-0.2,0-0.5,0-0.7,0c0.2,0.1,0.3,0.2,0.5,0.3c0.1,0.1,0.4,0.3,0.3,0.4
			c-0.1,0.4,0.2,0.4,0.5,0.4c1,0,1.7,0.2,1.7,1.1c0,0,0.1,0,0.2,0.1c0,0,0,0,0,0l0,0l0,0C69,33,68.5,32.4,67.9,31.7z M66,24.7
			c-0.2-0.3-0.4-0.6-0.6-0.9C65.2,24,65,24.1,65,24.1c0.2,0.3,0.5,0.5,0.8,0.7C65.9,24.8,66,24.7,66,24.7z M71.2,28.6
			c-0.3-0.1-0.5-0.3-0.8-0.4c-0.7,0.4-1.3,0.7-1.8,1.1c0,0,0,0,0,0c-0.7-0.5-1.5-0.4-2.3-0.7c-0.1,0-0.2,0.1-0.3,0.1
			c0.1,0.1,0.2,0.2,0.3,0.3c0.8,0.2,1.5,0.6,2.2,1c0,0.1,0,0.1,0,0.2c0.1,0,0.3,0,0.5,0c0.3,0,0.7,0,1,0c0.1,0,0.1-0.1,0.2-0.2
			c-0.1,0-0.2-0.1-0.2-0.1c0.3-0.2,0.5-0.5,0.8-0.8C70.9,28.9,71,28.7,71.2,28.6z M70.1,26.4c0.3-0.1,0.8-0.1,1-0.3
			c0.4-0.3,0.6-0.8,0.8-1.2c-0.3,0.1-0.7,0.3-1.2,0.5C70.5,25.8,70.3,26.1,70.1,26.4z M67.9,27.7c0.2,0.1,0.5,0.3,0.7,0.3
			c0.1,0,0.3-0.3,0.4-0.4c-0.2-0.1-0.4-0.2-0.6-0.3C68.1,27.4,68,27.6,67.9,27.7z M67.4,23.7c-0.3,0-0.6,0-0.9,0.1
			c0,0-0.1,0.3-0.2,0.6c0.3-0.1,0.6-0.2,0.8-0.3C67.2,24.1,67.3,23.9,67.4,23.7z M65.5,16.2c0.2,0.2,0.3,0.5,0.6,0.9
			c-0.3-0.2-0.6-0.4-0.8-0.6c-0.1,0.1-0.4,0.3-0.4,0.4c-0.2,0.5,0.5,0.3,0.7,0.5c0.1,0.1,0.3-0.1,0.7-0.1c-0.1-0.1-0.1-0.1-0.2-0.2
			c0.2-0.3,0.3-0.5,0.3-0.6c0-0.1-0.1-0.3-0.2-0.4c0.2,0.1,0.4,0.3,0.5,0.4c0.1,0,0.2-0.1,0.3-0.1c-0.2-0.2-0.4-0.4-0.7-0.5
			c0,0-0.2,0.1-0.3,0.1c0,0,0-0.1-0.1-0.1C65.9,16,65.7,16.1,65.5,16.2z M64.5,18.8c-0.1,0-0.2,0.1-0.2,0.2c0,0.1,0.1,0.2,0.2,0.2
			c0.1,0,0.2-0.1,0.6-0.3C64.7,18.9,64.6,18.8,64.5,18.8z M63.9,16.3c0.2,0.1,0.5,0.2,0.6,0.2c0.3-0.1,0.6-0.3,1-0.5
			c-0.1-0.1-0.2-0.2-0.2-0.2c-0.5,0.1-0.9,0.2-1.4,0.3C63.9,16.1,63.9,16.3,63.9,16.3z M63.7,30.6c0.3,0.1,0.5,0.3,0.7,0.3
			c0.2,0,0.6-0.1,0.6-0.1c0.2-0.5,0.3-1.1,0.3-1.6c0-0.3-0.6-0.5-0.9-0.7c0,0.3,0.1,0.6,0.1,0.9c0,0.3-0.2,0.6-0.3,0.9
			C64.1,30.4,63.9,30.5,63.7,30.6z M4.8,25.2c-0.1-0.1-0.3-0.2-0.4-0.2c-0.1,0-0.3,0.1-0.4,0.1c0.1,0.1,0.2,0.2,0.3,0.3
			C4.6,25.3,4.7,25.3,4.8,25.2z M6.7,21.4c0-0.2,0-0.5,0-0.7c0,0-0.1-0.1-0.1-0.1c0,0,0,0,0,0c0-0.3-0.5-0.9-0.6-0.8
			c-0.3,0-0.5,0.5-0.5,1.1c0,0.2,0,0.4,0.4,0.4c0.2,0,0.4-0.1,0.5-0.3c-0.1,0.3-0.3,0.7,0,1c0.1,0.1,0.1,0.2,0.1,0.2
			c0.1-0.1,0.2-0.2,0.2-0.3C6.7,21.8,6.7,21.6,6.7,21.4z M5.1,31.6c-0.2,0-0.3-0.3-0.5-0.3c-0.2,0-0.7-0.2-0.7,0.2
			c0,0.2,0.2,0.5,0.4,0.7c0.1,0.1,0.4,0,0.6,0c0.6,0,0.7,0,0.7-0.2C5.7,31.5,5.4,31.7,5.1,31.6z M7.3,54.4c-0.1,0-0.3-0.1-0.4-0.1
			c-0.1,0-0.2,0.1-0.4,0.2c0.3,0.1,0.4,0.2,0.5,0.2C7.2,54.7,7.2,54.5,7.3,54.4z M7.7,37c-0.2-0.1-0.4-0.3-0.4-0.2
			c-0.2,0.2-0.3,0.3-0.5,0.5c0.2,0,0.4,0.1,0.5,0.1C7.4,37.3,7.5,37.2,7.7,37z M63.4,44.4c-0.4,0-0.6,0.6-0.4,0.9
			c0.1,0.2,0.2,0.4,0.3,0.6c0.1,0.1,0.2,0.2,0.3,0.3c0.3,0.2,0.9,0,1.1-0.3C65,45.3,64,44.3,63.4,44.4z M62.9,37.3
			c0.3,0.1,0.6,0.2,0.7,0.1c0.3-0.1,0.5-0.3,0.7-0.4c-0.2-0.1-0.5-0.4-0.6-0.3C63.4,36.8,63.2,37,62.9,37.3z M62.8,49
			c0.2,0.4,0.5,0.7,0.8,1.1c0-0.4,0-0.7,0.1-1.1c0-0.1,0.1-0.2,0.2-0.3c0.1-0.4-0.2-0.8-0.6-0.8C62.6,47.9,62.4,48.4,62.8,49z
			 M62.2,51.5c0.1,0.1,0.2,0.1,0.4,0.2c0.1-0.1,0.2-0.1,0.3-0.2c-0.2-0.1-0.3-0.2-0.5-0.3C62.3,51.3,62.2,51.5,62.2,51.5z
			 M61.5,38.9c0,0.1,0.1,0.2,0.2,0.3c0.1-0.1,0.3-0.2,0.3-0.3c0-0.1-0.1-0.2-0.2-0.4C61.7,38.7,61.5,38.8,61.5,38.9z M61.6,34.4
			c-0.3-0.2-0.5-0.4-0.7-0.4c-0.3,0-0.5,0.1-0.8,0.1c0.3,0.2,0.6,0.4,0.9,0.6C61,34.8,61.2,34.6,61.6,34.4z M59.2,56.6
			c0.3,0,0.6,0,0.9-0.1c0.1,0,0.2-0.1,0.4-0.2c-0.1-0.1-0.2-0.2-0.3-0.2c-0.5,0-1,0-1.5,0.1c-0.3,0-0.6,0.1-0.9,0.2
			c0.3,0.1,0.6,0.2,0.9,0.2C58.8,56.6,59,56.6,59.2,56.6z M50,53.5c0,0.1,0,0.2,0,0.3c0.1,0.1,0.4,0.3,0.4,0.2
			c0.2-0.1,0.3-0.3,0.5-0.5c-0.2,0-0.4-0.1-0.6-0.1C50.3,53.4,50.1,53.5,50,53.5L50,53.5C50,53.5,50,53.4,50,53.5
			c-0.1-0.2-0.1-0.4-0.2-0.6c-0.1,0.1-0.2,0.2-0.4,0.3C49.6,53.3,49.8,53.4,50,53.5C50,53.5,50,53.5,50,53.5L50,53.5z M48.4,37
			c-0.3-0.5-0.5-1-0.8-1.5c-0.3-0.5-0.9-1.3-1.2-1.3c-1.9,0.4-1-0.7-1.2-1.2c0,0,0,0,0,0c0,0,0,0,0,0c0.6,0,1.1-0.1,1.7-0.2
			c0.2,0,0.5-0.1,0.7-0.2c-0.1-0.1-0.2-0.4-0.4-0.4c-0.8-0.3-2-0.3-2.4-0.8c-1-1-1.7-0.4-2.4,0.1c-0.6,0.4-0.3,0.8,0.4,0.9
			c0.9,0.1,1.8-0.2,2.4,0.5c0,0,0,0,0,0c0,0,0,0,0,0c-0.6,0.1-1.2,0.3-1.8,0.4c0.4,0.4,0.8,0.8,1.2,1.2c0.5,0.5,2.5,0.3,1.4,1.7
			c0,0,0.2,0.2,0.4,0.2C46.9,36.7,47.6,36.8,48.4,37z M47.5,53.1c-0.2,0.1-0.4,0.1-0.6,0.2c0.3,0.1,0.6,0.1,1,0.2
			c0.1,0,0.1-0.1,0.2-0.1C47.9,53.2,47.7,53.2,47.5,53.1z M44.4,40.8c-0.2-0.1-0.3-0.4-0.5-0.4c-0.9-0.1-1.9-0.2-2.7-0.3
			c-0.7,0.2-1.1,0.4-1.5,0.5c0.4,0.1,0.9,0.4,1.3,0.4c0.9,0.1,1.8,0,2.7,0C44,41.1,44.2,40.9,44.4,40.8z M44,44.9
			c-0.2,0.1-0.3,0.2-0.5,0.4c0.2,0.2,0.3,0.3,0.5,0.4c0.1-0.1,0.4-0.2,0.4-0.4C44.3,45.2,44.1,45.1,44,44.9z M38.8,55.4L38.8,55.4
			c0.1,0,0.1,0,0.2,0c0.2,0,0.4-0.1,0.5-0.2c-0.2-0.1-0.4-0.2-0.6-0.2c-0.2,0-0.4,0.1-0.6,0.1c0-0.1,0-0.2,0-0.2
			c0.2-0.6-0.2-0.9-0.6-1.2c-0.3-0.2-0.9-0.1-1.1,0.1c-0.2,0.3,0,0.8-0.2,1.1c0.2,0.2,0.4,0.3,0.6,0.5c0.2,0.1,0.5,0.2,0.7,0.3
			c0.4,0.1,0.6,0,0.6-0.3C38.5,55.4,38.6,55.4,38.8,55.4z M31.5,19.6c-0.2-0.1-0.3-0.3-0.5-0.4c-0.1,0-0.2,0.1-0.3,0.2
			c0.1,0.2,0.2,0.3,0.4,0.5C31.2,19.8,31.3,19.7,31.5,19.6z M31.1,22.3c0,0-0.2-0.1-0.2-0.1c-0.1,0-0.3,0.2-0.3,0.2
			c0,0.3,0.1,0.5,0.2,0.8c0,0.1,0.1,0.1,0.2,0.2c0,0,0.1-0.1,0.1-0.1C31.1,22.9,31.1,22.6,31.1,22.3z M30.7,14.7
			c0.1,0,0.2-0.1,0.2-0.1c0,0,0-0.1,0-0.1c-0.1-0.3-0.7-0.5-1-0.4c0,0-0.1,0.1-0.1,0.1c0,0.1,0,0.2,0.1,0.2
			C30.2,14.5,30.4,14.6,30.7,14.7z M31.5,20.7c0.4,0.2,0.8,0.5,1.1,0.6c0.2,0,0.5-0.4,0.8-0.6c-0.3-0.2-0.6-0.5-0.9-0.6
			C32.2,20.2,31.8,20.5,31.5,20.7z M32.4,19.2c0.2-0.1,0.4-0.3,0.5-0.5c-0.2,0-0.4-0.1-0.5-0.1c-0.1,0-0.2,0.2-0.4,0.3
			C32.2,19.1,32.3,19.2,32.4,19.2z M49.1,12.3c-0.2,0-0.3-0.1-0.5-0.1c-0.2,0-0.3,0.2-0.5,0.2c0.6,0.5,0.4,1,0.4,1.4
			c0,0.1,0.1,0.2,0.1,0.4c0.1-0.1,0.2-0.2,0.3-0.3c0.2-0.2,0.1-0.7,0.6-0.6c0.1,0,0.3-0.1,0.4-0.1c-0.1-0.1-0.2-0.2-0.3-0.3
			C49.5,12.7,49,12.9,49.1,12.3z M49.7,14.2c-0.2,0-0.5,0.3-0.8,0.5c0.3,0.3,0.6,0.6,1.1,0.9c0.1-0.2,0.3-0.4,0.3-0.5
			C50.4,14.7,50.3,14.2,49.7,14.2z M48.1,15.6c0.2,0.2,0.4,0.5,0.6,0.7c0.1-0.2,0.2-0.4,0.2-0.5c-0.2-0.2-0.4-0.4-0.7-0.6
			C48.2,15.4,48,15.6,48.1,15.6z M47.9,21.2c-0.1,0-0.3,0.1-0.8,0.3c0.5,0.2,0.7,0.3,0.9,0.3c0.1,0,0.3-0.2,0.4-0.3
			C48.5,21.1,48.2,21.2,47.9,21.2z M42.8,19.3c-0.2,0.1-0.4,0.1-0.6,0.2c0.2,0.1,0.3,0.3,0.5,0.4c1.1,0.4,2.2,0.9,3.4,1.3
			c0.1,0,0.3,0,0.4,0c-0.1-0.1-0.1-0.3-0.2-0.3C45.3,20.2,44.2,19.5,42.8,19.3z M45,17.2c0.3-0.4,0.7-0.8,0.9-1.3
			c0-0.1-0.5-0.3-0.7-0.5c-0.3,0.3-0.6,0.7-1,1C44.6,16.8,44.8,17,45,17.2z M45,23.3c0,0,0.1,0.2,0.1,0.2c0.3,0.1,0.7,0.3,0.8,0.3
			c0.3,0,0.3,0,0.4,0c0.2-0.1,0.5-0.1,0.6-0.2c0.1-0.1,0.1-0.5,0-0.5c-0.2-0.1-0.5-0.2-0.7-0.1c-0.3,0.2-0.5,0.5-0.8,0.1
			C45.4,23,45.2,23.2,45,23.3z M47.3,20.4c0.2-0.3,0.5-0.6,0.4-0.7c-0.1-0.2-0.4-0.5-0.6-0.5c-0.2,0-0.5,0.2-0.7,0.4
			C46.7,19.7,46.9,20,47.3,20.4z M46.5,19c0.1,0,0.2,0.1,0.2,0.1c0.1-0.1,0.2-0.2,0.4-0.3c-0.1-0.2-0.1-0.2-0.2-0.3
			C46.8,18.6,46.6,18.8,46.5,19z M47.2,16.3c0.1-0.1,0.3-0.2,0.5-0.3c-0.2,0-0.3-0.2-0.5-0.1c-0.2,0-0.4,0.2-0.5,0.2
			C46.8,16.1,46.9,16.2,47.2,16.3z M47.9,14.1c-0.2-0.1-0.3-0.2-0.4-0.2c-0.1,0-0.2,0.2-0.2,0.3c0,0.1,0.2,0.2,0.3,0.2
			C47.7,14.4,47.8,14.2,47.9,14.1z M47.5,12.6c-0.3-0.2-0.6-0.4-0.9-0.6c-0.4,0.2-0.6,0.3-0.8,0.4c0.4,0.2,0.7,0.4,1.1,0.5
			C47,13,47.3,12.8,47.5,12.6z M47.1,10.5c0-0.4-0.3-0.3-0.5-0.3c-0.1,0-0.3,0.1-0.8,0.3c0.5,0.2,0.7,0.3,0.9,0.3
			C46.8,10.7,47.1,10.6,47.1,10.5z M46.6,9.2C46.4,9.2,46.3,9,46.2,9c-0.1,0-0.3,0.1-0.6,0.2c0.3,0.1,0.5,0.2,0.6,0.2
			C46.3,9.4,46.4,9.3,46.6,9.2z M45.5,12.1C45.4,12,45,11.9,44.9,12c-0.3,0.2-0.5,0.5-0.8,0.1c0,0-0.3,0.2-0.4,0.3
			c0,0,0.1,0.2,0.1,0.2c0.3,0.1,0.7,0.3,0.8,0.3c0.3,0,0.3,0,0.4,0c0.2-0.1,0.5-0.1,0.6-0.2C45.7,12.5,45.6,12.1,45.5,12.1z
			 M41.1,11.9C41,11.9,40.7,12,40.7,12c0.1,0.4,0.7,0.7,0.3,1.2c0.1,0,0.2-0.1,0.4-0.1c0,0-0.1,0.1-0.1,0.1c0,0.1,0.1,0.3,0.1,0.3
			c0.2-0.1,0.5-0.1,0.6-0.3c0.1-0.1,0.1-0.3,0.1-0.5c0,0,0,0,0,0c0.4-0.1,0.8-0.1,1.2,0.3c0.5,0.4,0.4,0.6,0,1
			c-0.1,0.1,0.3,0.7,0.4,0.7c0.8-0.1,1.6-0.3,2.4-0.5c0,0,0-0.1,0.1-0.2c-0.2-0.1-0.4-0.2-0.6-0.2c-0.3-0.1-0.5-0.2-0.8-0.3
			c0.3-0.5-0.2-0.5-0.4-0.7C43.4,12,42.1,12.5,41.1,11.9z M42,34c0.2-0.2,0.3-0.5,0.5-0.8c-0.2,0-0.3,0-0.5,0c0-0.1,0-0.2,0-0.3
			c-0.2,0.1-0.4,0.2-0.5,0.2c0,0,0,0,0,0c-0.6,0-1.1-0.2-1.7-0.1c-0.4,0.1-0.8,0.4-1.4,0.7c0.4,0.1,0.5,0.1,0.7,0.1
			c0.5,0.1,1.2,0.1,1.5,0.2c0,0-0.1,0-0.1,0c-0.5,0.3-0.9,0.7-1.4,1.1c0.6-0.1,1.1-0.2,1.7-0.4c0.2,0,0.3-0.1,0.4-0.2
			c0.2,0,0.4-0.1,0.6-0.3C41.8,34.2,41.9,34.1,42,34z M41.3,38.8c0.3,0.1,0.4,0.2,0.5,0.2c0.6-0.2,1.1-0.5,1.6-0.8
			c-0.1-0.1-0.3-0.2-0.3-0.1C42.5,38.3,41.9,38.5,41.3,38.8z M40.4,50.4c-0.2,0-0.5-0.1-0.6-0.1c-0.4,0.1-0.8,0.4-1.2,0.4
			c-0.4,0-0.8-0.2-1.2-0.4c-0.3,0.7,0.8,0.4,1,0.8c0.1,0.2,0.4,0.4,0.7,0.5c0.1,0.1,0.2,0,0.3,0.1c0.1-0.1,0.3-0.1,0.3-0.1
			c-0.1-0.4,0.4-0.6,0.7-0.8C40.4,50.7,40.3,50.5,40.4,50.4z M40.3,51.6c0,0-0.2,0.1-0.5,0.3c0.4,0.2,0.6,0.3,0.9,0.4
			c0.1,0,0.3-0.1,0.4-0.1C40.8,52,40.6,51.8,40.3,51.6z M37.3,40.2c-0.2,0-0.5-0.1-0.4,0.3c0,0.2,0.2,0.4,0.4,0.6
			c0.1-0.1,0.2-0.2,0.4-0.3c0,0,0.1,0.1,0.1,0.1c0.1,0,0.3,0,0.4-0.1c0,0,0-0.2,0-0.3c-0.3-0.2-0.4-0.5-0.3-0.8
			c0-0.2-0.3-0.4-0.5-0.7c-0.1,0.2-0.2,0.4-0.2,0.4C37.4,39.6,37.3,39.9,37.3,40.2z M37.6,37.4c0,0,0,0.2,0.1,0.2c0.1,0,0.2,0,0.3,0
			c0.4-0.4,0.8-0.6,1.3-0.3c0.2,0.1,0.4,0,0.3-0.3c-0.1-0.1-0.1-0.3-0.2-0.4l0,0l0,0l0,0c-0.4,0-0.7,0.1-1-0.2
			c-0.2-0.2-0.4-0.2-0.6-0.4l0,0l0,0l0,0C37.6,36.4,38.2,37,37.6,37.4z M39,40.5c-0.1-0.1-0.2-0.2-0.3-0.3c-0.1,0.2-0.2,0.3-0.2,0.4
			c0,0,0.2,0.2,0.2,0.1C38.7,40.7,38.8,40.6,39,40.5z M38.7,44.1c-0.1,0.1-0.3,0.3-0.3,0.3c0.1,0.1,0.3,0.2,0.4,0.3
			c0.1-0.1,0.2-0.2,0.2-0.3C39,44.3,38.8,44.3,38.7,44.1z M37.6,46.9c-0.2-0.1-0.3-0.1-0.4-0.1c-0.1,0-0.1,0.1-0.2,0.1
			c0.1,0.1,0.2,0.2,0.4,0.2C37.4,47.2,37.5,47.1,37.6,46.9z M37.3,47.3c-0.1,0.2-0.3,0.4-0.3,0.6c0,0.2,0.2,0.4,0.4,0.5
			c0.1-0.2,0.1-0.4,0.2-0.6C37.4,47.6,37.4,47.4,37.3,47.3z M36.9,51c0.1,0.1,0.2,0.2,0.3,0.3c0-0.1,0.1-0.1,0.1-0.1
			c-0.1-0.1-0.2-0.2-0.3-0.3C37,50.8,37,50.9,36.9,51z M40.2,49.8C40.2,49.8,40.2,49.7,40.2,49.8c-0.2-0.1-0.5-0.3-0.6-0.2
			c-0.3,0.2-0.5,0.4-0.8,0.6l0,0.1C39.3,50.1,39.8,50,40.2,49.8C40.2,49.9,40.2,49.8,40.2,49.8z M40,45.2c0-0.1-0.2-0.3-0.4-0.5
			c-0.6,0.6-1.4,0.3-2.1,0.4c-0.1,0-0.2,0.1-0.2,0.1c0,0.1,0.1,0.2,0.1,0.2c0.4,0.4,0.8,1,1.4,0.3c0,0,0.1,0.1,0.2,0.2
			c0.1,0.1,0.1,0.2,0.2,0.3c0.1,0,0.3,0,0.3-0.1C39.6,45.9,39.8,45.6,40,45.2z M40,38.7c0,0,0-0.2,0-0.2c-0.2,0.1-0.4,0.2-0.7,0.3
			c-0.1,0-0.3,0-0.4,0.1c-0.2,0.1-0.3,0.3-0.4,0.5c0.2,0.1,0.4,0.2,0.7,0.3C39.5,39.3,39.7,39,40,38.7z M40.2,36.5
			c0.2-0.1,0.5-0.2,0.7-0.3c-0.2-0.1-0.4-0.3-0.5-0.3c-0.2,0-0.5,0.2-0.9,0.5C39.9,36.4,40.1,36.5,40.2,36.5z M41.3,14.1
			c-0.1-0.1-0.2-0.2-0.4-0.2c0,0-0.2,0.2-0.2,0.2c0.1,0.1,0.3,0.3,0.5,0.4C41.2,14.4,41.2,14.2,41.3,14.1z M42,17.2
			c0-0.2,0.1-0.4,0.1-0.5c0-0.1-0.2-0.2-0.3-0.3c-0.1,0-0.2,0.1-0.4,0.3C41.6,16.8,41.8,17,42,17.2z M40.4,18.1
			c0,0.1-0.1,0.2-0.1,0.2c0.1,0.1,0.2,0.2,0.3,0.4c0.2-0.1,0.2-0.2,0.3-0.2C40.7,18.4,40.5,18.3,40.4,18.1z M38.3,28.1
			c0,0-0.1,0-0.2,0c-0.2,0-0.3,0-0.5,0.1c0.1,0.1,0.3,0.3,0.4,0.3c0.8,0.1,1.7,0.2,2.5,0.3c0.1,0,0.3-0.1,0.4-0.1
			c-0.1-0.1-0.3-0.3-0.4-0.3C39.9,28.3,39.2,28.2,38.3,28.1z M38.8,25.7c-0.4-0.4-0.8-0.7-1.2-1.1c0,0-0.2,0-0.2,0.1
			c0,0.1,0,0.3,0,0.4c0.6,0,0.5,0.6,0.8,0.8c0.1,0.1,0.1,0.3,0.2,0.4c0.1-0.2,0.2-0.4,0.2-0.5C38.7,25.8,38.7,25.7,38.8,25.7z
			 M37.4,14.7c-0.4-0.4-0.8-0.7-1.2-1.1c0,0-0.2,0-0.2,0.1c0,0.1,0,0.3,0,0.4c0.6,0,0.5,0.6,0.8,0.8c0.1,0.1,0.1,0.3,0.2,0.4
			c0.1-0.2,0.2-0.4,0.2-0.5C37.3,14.8,37.3,14.7,37.4,14.7z M36.2,33.2c-0.2,0-0.3,0.2-0.6,0.3c0.4,0.2,0.7,0.4,1,0.4
			c0.2,0,0.3-0.3,0.5-0.5C36.7,33.3,36.4,33.2,36.2,33.2z M34.9,35.4c-0.2,0-0.4,0.2-0.6,0.3c0,0,0,0.2,0,0.2
			c0.4,0.1,0.8,0.2,1.2,0.2c0.1,0,0.2-0.1,0.4-0.3C35.6,35.7,35.2,35.5,34.9,35.4z M35.6,38.8c0.1-0.3-0.3-0.6-1-0.5
			c0,0-0.1,0.1-0.3,0.1c0.1,0.1,0.2,0.2,0.3,0.2c0.5,0.2,0.4,0.4,0,0.6c-0.1,0.1-0.2,0.2-0.3,0.3c0.2,0,0.4,0.1,0.5,0
			C35.1,39.3,35.5,39,35.6,38.8z M34.4,27.6c-0.2,0-0.3-0.3-0.5-0.3c-0.2,0-0.7-0.2-0.7,0.2c0,0.2,0.2,0.5,0.4,0.7
			c0.1,0.1,0.4,0,0.6,0c0.6,0,0.7,0,0.7-0.2C35,27.5,34.6,27.6,34.4,27.6z M34.5,22.5c-0.1-0.1-0.2-0.1-0.3-0.1
			c-0.2,0-0.4,0.1-0.5,0.2c0.1,0.1,0.3,0.4,0.4,0.4C34.2,23,34.3,22.7,34.5,22.5z M34.2,17.4c-0.1,0-0.2,0.1-0.4,0.1
			c0.1,0.2,0.2,0.5,0.4,0.9c0.1-0.2,0.2-0.3,0.2-0.4C34.4,17.8,34.6,17.5,34.2,17.4z M33.7,21c-0.1,0-0.3,0.1-0.4,0.1
			c0.1,0.1,0.2,0.2,0.3,0.3c0.2-0.1,0.3-0.1,0.5-0.2C33.9,21.1,33.8,21,33.7,21z M32.5,36.8c0.3-0.2,0.5-0.5,0.8-0.7
			c-0.2,0-0.5-0.1-0.9-0.1c-0.1,0.2-0.3,0.4-0.4,0.6C32,36.6,32.5,36.8,32.5,36.8z M32.2,38.7c-0.1,0.2-0.3,0.3-0.3,0.4
			c0,0.1,0.2,0.2,0.3,0.2c0.1-0.1,0.2-0.2,0.2-0.3C32.4,38.9,32.3,38.8,32.2,38.7z M33.1,53c0,0-0.1,0.1-0.1,0.1
			c0,0-0.1,0.1-0.1,0.1c-0.1,0.1-0.1,0.2,0,0.3c0.2,0.4,0.7,0.4,1.1,0.3c0.1,0,0.2-0.3,0.2-0.3c-0.2-0.2-0.5-0.3-0.7-0.4
			c0-0.1-0.1-0.2-0.1-0.3c0,0,0,0,0,0c-0.1,0-0.2-0.1-0.3-0.1c-0.1,0-0.1,0.1-0.2,0.2C32.9,52.9,33,53,33.1,53z M33.9,54.7l0.1,0.1
			c0.1-0.1,0.3-0.1,0.4-0.2c-0.1-0.1-0.1-0.2-0.1-0.2C34.2,54.6,34.1,54.6,33.9,54.7z M34.7,53.5c0.1,0,0.2-0.2,0.4-0.3
			c-0.2-0.1-0.3-0.2-0.5-0.3c-0.1,0.1-0.3,0.3-0.2,0.3C34.4,53.3,34.5,53.5,34.7,53.5z M35.2,41.9c0.1,0.1,0.2,0.1,0.3,0.1
			c0.5-0.1,0.6-0.8,0.2-1.1c0,0-0.1-0.1-0.2,0l0,0c0,0.3,0,0.5,0,0.6c-0.1-0.1-0.3-0.2-0.4-0.2c-0.2,0-0.6,0-0.6,0.1
			c-0.1,0.4,0.3,0.1,0.4,0.2C35,41.7,35,41.8,35.2,41.9z M35.4,58.1c0.1,0.1,0.2,0.1,0.3,0.2c0.1,0,0.1,0,0.4-0.1
			c-0.3-0.1-0.4-0.2-0.5-0.2C35.6,58,35.5,58.1,35.4,58.1z M36.2,45c0.1-0.1,0.3-0.2,0.5-0.2c-0.2-0.1-0.3-0.2-0.5-0.2
			c-0.2,0-0.4,0.2-0.7,0.3C35.8,44.9,35.9,44.9,36.2,45z M36.1,51.6c0,0.1,0.1,0.2,0.2,0.2c0,0,0.1-0.1,0.2-0.2
			c-0.1-0.1-0.2-0.2-0.3-0.3C36.2,51.5,36.1,51.6,36.1,51.6z M40.8,54.2c0.1,0.1,0.6-0.2,0.9-0.2c-0.2-0.1-0.4-0.2-0.7-0.3
			c-0.3-0.1-0.8,0.2-0.7-0.4c0-0.5,0-0.5-0.3-0.4c-0.3,0.1-0.6,0.1-0.9,0.2c-0.1,0-0.1,0.2-0.1,0.2c0.6,0.5,0.5,0.8-0.3,0.9
			c-0.1,0-0.2,0.2-0.2,0.2c0.2,0,0.3,0.1,0.4,0.1c0.2,0,0.4-0.1,0.6-0.2C39.9,54.1,40.2,53.7,40.8,54.2z M41.5,52.6
			c-0.2-0.2-0.3-0.3-0.4-0.3c-0.1,0-0.2,0.1-0.3,0.2c0.1,0.1,0.2,0.3,0.3,0.3C41.1,52.8,41.2,52.7,41.5,52.6z M41.5,43.4
			c0.1,0,0.2-0.1,0.4-0.2c-0.2-0.3-0.4-0.4-0.6-0.6c0,0.1-0.1,0.3-0.1,0.4C41.2,43.1,41.1,43.4,41.5,43.4z M48.6,27.3
			c0.1-0.1,0.3-0.2,0.5-0.3c-0.2,0-0.3-0.1-0.5-0.1c-0.2,0-0.4,0.2-0.5,0.2C48.1,27.1,48.3,27.2,48.6,27.3z M48.6,45.7
			c0.2,0.1,0.3,0.3,0.5,0.4c0-0.1,0.1-0.2,0.1-0.2c-0.1-0.1-0.2-0.2-0.3-0.4C48.7,45.6,48.7,45.6,48.6,45.7z M49.5,25.6
			c-0.1-0.1-0.3-0.3-0.3-0.3c-0.2,0.1-0.4,0.3-0.7,0.4c0.1,0.1,0.2,0.3,0.2,0.3C49,25.8,49.2,25.7,49.5,25.6z M49.3,30.9
			c0,0.1,0.1,0.2,0.1,0.2c0.1,0,0.1,0,0.2,0c0.2,0.1,1,0.2,1.4,0.4c0.9,0.4,1.7,1,1.9-0.4c0-0.1,0.4-0.2,0.6-0.3
			c1.3-0.7,1.3-0.7-0.1-1.5c-0.3-0.2-0.7-0.2-1.1-0.3c0,0.3,0.1,0.5,0.1,0.8c0,0.2,0,0.6-0.1,0.6c-0.4,0.1-0.8,0.1-1.2,0.2
			c0-0.2,0-0.4,0-0.7c0-0.3,0-0.5,0-1.2c0,0-0.2-0.3-0.5-0.6c-0.3,0.2-0.9,0.4-1,0.7c-0.1,0.5-0.2,1-0.2,1.5
			C49.4,30.5,49.3,30.7,49.3,30.9z M52.6,24.9c0.1,0.1,0.4,0.4,0.4,0.4c0.4-0.2,0.8-0.4,1.3-0.7c-0.3-0.1-0.4-0.2-0.5-0.2
			C53.5,24.5,53,24.7,52.6,24.9z M53.8,17.6c0.2,0,0.4-0.2,0.4-0.3c0-0.1-0.3-0.3-0.4-0.3c-0.2,0-0.3,0.2-0.9,0.5
			C53.4,17.6,53.6,17.6,53.8,17.6z M54.6,27.4L54.6,27.4L54.6,27.4c-0.2,0-0.3-0.1-0.4,0c-0.3,0-0.5,0.1-0.8,0.2c0,0,0,0.2,0.1,0.2
			c0.3,0,0.6,0,0.9-0.1C54.5,27.7,54.5,27.5,54.6,27.4C54.6,27.4,54.6,27.4,54.6,27.4L54.6,27.4c0.1,0,0.2,0.1,0.2,0.1
			c0.3,0,0.6,0,0.9,0c0-0.4,0-0.7-0.1-1.1c-0.3,0.2-0.6,0.3-0.8,0.5C54.8,27.1,54.7,27.2,54.6,27.4C54.6,27.4,54.6,27.4,54.6,27.4
			L54.6,27.4z M57.4,19.5c-0.7,0.2-1.2,0.4-1.7,0.9c-0.1,0.1-0.1,0.1-0.1,0.2c0.2,0.5,0.2,1,0,1.5c0.4,0,0.8-0.2,1.1-0.7
			c0.2-0.2,0.4-0.7,0.6-0.7c0.1,0,0.2,0,0.3,0c0.1,0.3,0.2,0.6,0.6,0.5c0.4-0.1,0.6-0.7,0.9-1c0,0,0,0,0,0c1-0.7,1.7-1.7,3-1.9
			c0.1,0,0.2-0.3,0.3-0.5c-0.2,0-0.5-0.1-0.7-0.1c-0.5,0.2-1,0.4-1.5,0.7c-0.7,0.3-1.4,0.8-2.1,1c-0.1-0.5-0.2-1-0.3-1.5
			c-0.1-0.6-0.5-0.5-0.9-0.3c-0.2,0.1-0.3,0.3-0.5,0.4c-0.4,0.3-0.6,0.5,0,0.8C57,18.9,57.3,19.2,57.4,19.5z M60.9,21.2
			c-0.6,0.7-1.3,1.5-1.9,2.2c0,0,0,0.1,0.1,0.1c0,0,0.1,0.1,0.1,0.1c0.4-0.2,1-0.3,1.1-0.5c0.4-0.6,0.5-1.2,0.7-1.8
			C61,21.2,60.9,21.1,60.9,21.2z M50.3,36.6c0-0.1,0.1-0.2,0.2-0.3c-0.1-0.1-0.2-0.2-0.3-0.3c-0.1,0-0.1,0.1-0.2,0.1
			C50.1,36.3,50.2,36.5,50.3,36.6z M50,51.3c0.3,0.1,0.5,0.3,0.8,0.4c0-0.1,0.1-0.2,0.1-0.3c-0.1-0.5-0.4-0.2-0.6-0.3
			C50.1,51.2,50,51.3,50,51.3z M51.8,36c0.6-1.1,1.8-1.4,3.2-1.7c0.3-0.1,0.5-0.5,0.8-0.8c-0.2-0.1-0.4-0.1-0.6-0.2
			c0.1,0,0.2,0,0.3-0.1c-0.3-0.2-0.4-0.4-0.6-0.5c-0.1,0-0.2,0.2-0.3,0.3l0,0c-0.1-0.1-0.3-0.1-0.4-0.2c0.4,1.1-0.7,0.5-1.5,0.7
			c-0.9-0.3-1.2,0.1-1.3,0.9c-0.1,0.1-0.2,0.2-0.1,0.2c0,0,0,0,0,0.1c-0.2,0.2-0.5,0.3-0.7,0.5c-0.1,0.1-1.1,0-0.3,0.4
			C50.7,36,51.7,36.1,51.8,36z M53.6,32.2c0.5-0.1,0.9-0.2,1.4-0.3c-0.3-0.1-0.6-0.1-0.8-0.2c-0.3,0-0.6,0-1.4-0.1
			C53.2,32,53.4,32.2,53.6,32.2z M54.7,35.9c0.3,0.1,0.7,0.2,1,0.4c0.1-0.1,0.3-0.4,0.2-0.4c-0.2-0.1-0.5-0.2-0.7-0.3
			C55,35.6,54.8,35.7,54.7,35.9z M56.3,29.8c0-0.2,0.2-0.4,0.1-0.5c-0.1-0.2-0.3-0.3-0.5-0.6c0,0.3-0.1,0.5-0.1,0.6
			C55.9,29.5,56.1,29.6,56.3,29.8z M55.4,24.7c-0.1,0.2-0.3,0.3-0.3,0.5c0,0.1,0.1,0.2,0.2,0.3c0.1-0.1,0.3-0.2,0.3-0.3
			C55.6,25.1,55.5,24.9,55.4,24.7z M55.6,18.7c0-0.1-0.1-0.2-0.2-0.3c-0.2,0.3-0.4,0.6-0.6,0.9c0,0,0,0.1,0,0.1c0,0,0,0-0.1,0l0.1,0
			c0,0,0,0,0,0C55.4,19.5,55.8,19.3,55.6,18.7z M51.3,39.4c-0.2-0.2-0.3-0.4-0.4-0.3c-0.1,0.1-0.2,0.2-0.3,0.3c0,0,0.1,0.3,0.2,0.3
			C50.9,39.6,51.1,39.5,51.3,39.4z M52.2,37.2c-0.5,0-0.9,0-1.2,0.1c-0.3,0.2-0.5,0.5-0.7,0.7c0.3,0,0.7,0.1,0.9,0
			C51.5,37.9,51.8,37.6,52.2,37.2z M53.3,37.3C53.3,37.3,53.3,37.3,53.3,37.3c0.1,0,0.2,0.1,0.3,0.2c0,0,0.3-0.1,0.4-0.2
			c0.1-0.1,0.2-0.3,0.3-0.4c-0.2-0.1-0.5-0.2-0.7-0.2c-0.1,0-0.1,0-0.2,0c-0.3-0.2-0.7-0.5-1-0.7c0,0-0.3,0.2-0.7,0.5
			C52.3,36.9,52.8,37.1,53.3,37.3z M53.9,37.8c0,0.5,0.5,0.4,0.8,0.3c0.2,0,0.4-0.2,1.1-0.5c-0.8-0.2-1.1-0.3-1.4-0.3
			C54.2,37.4,53.9,37.6,53.9,37.8z M55.8,49.1c0.1,0.3,0.3,0.7,0.4,1c0.1-0.1,0.3-0.2,0.4-0.3c0.1-0.1,0.2-0.2,0.2-0.3
			c0-0.4-0.5-0.9-0.7-0.8C56,48.7,55.7,49,55.8,49.1z M57.2,32c0.2,0,0.4-0.2,0.4-0.3s-0.3-0.3-0.4-0.3c-0.2,0-0.3,0.2-1,0.6
			C56.7,32,56.9,32.1,57.2,32z M58.2,26.7c-0.3-0.3-0.5-0.6-0.8-0.9c-0.2,0.2-0.6,0.4-0.6,0.6c0,0.3,0.4,0.5,0.6,0.8
			C57.7,26.9,57.9,26.8,58.2,26.7z M57.5,27.9c-0.1,0-0.3,0.1-0.5,0.2c0.2,0.2,0.3,0.5,0.5,0.6c0.1,0.1,0.4-0.2,0.8-0.3
			C58,28.2,57.8,28,57.5,27.9z M57.4,37.3c0.9,0,1.5,0.1,1.8,0c0.5-0.3,0.9-0.8,1.4-1.2C60,36,59.4,35.7,59,35.8
			C58.5,36.1,58.1,36.6,57.4,37.3z M59.8,27.1c0.1-0.1,0.2-0.3,0.4-0.4c-0.1,0-0.3-0.2-0.3-0.1c-0.1,0.1-0.1,0.3-0.2,0.4
			C59.6,27,59.7,27,59.8,27.1z M59.8,54.1c-0.1,0-0.3-0.1-0.4-0.1c-0.2,0-0.3,0.1-0.5,0.2c0.1,0.1,0.2,0.2,0.3,0.3
			C59.4,54.3,59.6,54.2,59.8,54.1z M59.7,54.8c-0.3,0.3-0.4,0.4-0.5,0.5c0.1,0,0.3,0.2,0.4,0.1c0.1-0.1,0.3-0.2,0.3-0.3
			C59.9,55.1,59.8,54.9,59.7,54.8z M60.5,50.3c-0.2-0.3-0.9-0.5-0.9-0.3c-0.1,0.5-0.9,0.6-0.6,1.3c-0.1,0.4,0,0.7,0.5,0.8
			c0.3,0-0.5,0.5,0.1,0.5c0.2,0,0.5-0.2,0.7-0.3C60.6,52,60.7,50.7,60.5,50.3z M62.1,31.2c-0.3-0.2-0.6-0.3-1-0.4
			c-0.1,0-0.3,0.2-0.7,0.5c0.5,0.1,0.7,0.2,1,0.2C61.6,31.5,61.9,31.3,62.1,31.2z M62.6,24.3c-0.2-0.1-0.4-0.3-0.6-0.4
			c-0.3-0.1-0.7-0.1-1-0.1c-0.9,0-1.8,0.1-2.7,0.2v0c-0.7,0-1.5,0.1-2.2,0.1c-0.1,0-0.2,0.1-0.3,0.2c0.1,0.1,0.2,0.3,0.4,0.3
			c0.5,0,1.1-0.2,1.4,0c0.7,0.5,1.3,1.1,2,1.7c0.2,0.1,0.4,0.1,0.6,0.2c-0.1-0.1-0.2-0.3-0.2-0.4c-0.8-1.5-0.7-1.7,1.2-1.7
			c0.3,0,0.6,0,0.9,0C62.3,24.3,62.4,24.3,62.6,24.3z M62.3,13.3c-0.1,0.1-0.2,0.3-0.4,0.6c0.3,0.3,0.6,0.5,0.9,0.7
			c0.1-0.1,0.4-0.4,0.4-0.4C62.9,13.9,62.6,13.6,62.3,13.3z M62,12.5c0,0-0.1-0.3-0.1-0.3c-0.4,0.1-0.7,0.2-1.1,0.3
			c0,0-0.1,0.1-0.1,0.1c0,0.1,0.1,0.3,0.2,0.5C61.4,12.9,61.7,12.7,62,12.5z M59.2,11.1c0,0,0.4,0.3,0.6,0.4c0.5,0.2,1,0.4,1.6,0.4
			c0.3,0,1-0.4,1-0.6c0-0.3-0.5-0.9-0.7-0.8C61,10.6,60.4,11,60,10.3C59.7,10.5,59.4,10.8,59.2,11.1z M51.1,5.1
			c0.3,0.1,0.5,0.3,0.8,0.4c0.1,0,0.2-0.1,0.5-0.1c-0.4-0.2-0.6-0.4-0.8-0.5C51.4,4.7,51.2,5,51.1,5.1z M47.4,4.7
			c0.3,0.2,0.5,0.4,0.8,0.6c0.1-0.2,0.3-0.4,0.3-0.6c0-0.1-0.2-0.3-0.3-0.6C47.8,4.3,47.6,4.5,47.4,4.7z M46.5,5
			c0,0-0.5,0.3-0.4,0.4c0.1,0.4,0.3,0.7,0.5,1.1c0.4-0.2,0.6-0.4,0.9-0.6C47.1,5.6,46.8,5.3,46.5,5z M44,4.4
			c0.2,0.7,0.8,0.3,1.2,0.3c0.2,0.1,0.5,0,0.7,0c0.1,0,0.2-0.1,0.3-0.2c-0.1-0.1-0.2-0.3-0.3-0.3c-0.2-0.1-0.5,0-0.7,0
			c0,0,0-0.1,0-0.1C44.8,4.2,44.4,4.3,44,4.4z M45.5,7.5c-0.1,0.2-0.3,0.3-0.4,0.5c0.1,0,0.2,0.1,0.2,0.1c0.1-0.1,0.2-0.2,0.4-0.3
			C45.6,7.6,45.6,7.5,45.5,7.5z M43,5.3c0,0,0.1,0.2,0.3,0.3c0.2-0.2,0.3-0.3,0.5-0.4C43.6,5.2,43.5,5,43.4,5
			C43.3,5.1,43.1,5.2,43,5.3z M43,7.9c0,0,0,0.1,0,0.2c0.1,0.1,0.1,0.1,0.2,0.2c0.3,0.2,0.7,0.4,1,0.6c0,0.1,0.1,0.1,0.1,0.2
			c0,0,0.1,0,0.1-0.1c0.2,0.1,0.4,0.3,0.6,0.4c0,0,0.3-0.1,0.3-0.1c-0.4-0.5,0.3-0.3,0.5-0.4c0.2-0.1,0.5-0.2,0.7-0.3
			c0,0-0.1,0-0.1,0c0.1-0.1,0.2-0.1,0.3-0.2c0.2-0.1,0.4-0.2,0.6-0.3C47.3,8,47.4,8,47.5,8c0.4,0,0.8,0,1.3,0c0,0,0.1,0,0.2,0
			C49,8,49.1,8,49.2,8c0.3-0.1,0.7-0.4,0.9,0c-0.1,0-0.1,0.1-0.2,0.1c0,0,0.1,0.1,0.1,0.1c-0.2,0.1-0.6,0.2-0.9,0.3
			c-0.2,0.1-0.5,0-0.8,0c-0.4,0.1-0.7,0.3-1,0.4c0.3,0.2,0.6,0.5,0.9,0.6c0.3,0.1,0.8,0.1,0.9,0c0.6-0.5,1.3-0.3,2-0.5
			c0.1,0,0.1,0.1,0.2,0.1c0.1,0,0.2-0.1,0.3-0.1c0,0-0.1,0-0.1-0.1c0.5-0.2,0.7-0.1,0.6,0.5c0,0.1,0.1,0.2,0.2,0.3
			c0,0,0.3-0.1,0.3-0.2c0.1-0.2,0.1-0.4,0.2-0.5c0.1,0,0.2,0.1,0.3,0.1c-0.1,0.1-0.2,0.1-0.3,0.3c0.2,0,0.4,0.1,0.5,0.1
			c-0.1,0.1-0.2,0.2-0.2,0.3c0,0.3,0.1,0.5,0.2,0.8c0,0.1,0.1,0.1,0.2,0.2c0-0.1,0.1-0.1,0.1-0.2c0-0.2-0.1-0.5,0-0.6
			c0.1-0.1,0.1-0.2,0.2-0.2c0.1,0,0.2,0.1,0.3,0.2c0.9,0.5,1,1.5,1.3,2.3c0.2,0.8,0.1,1,0.6,1.3c-0.1,0.1-0.2,0.2-0.4,0.2
			c-0.1-0.1-0.1-0.1-0.2-0.2c0,0-0.1,0.1-0.1,0.1c0,0-0.1,0-0.1-0.1c-0.3-0.3-0.6-0.6-0.9-0.9c0.1,0,0.2-0.1,0.2-0.1
			c-0.2-0.2-0.5-0.4-0.7-0.4l0,0c-0.2-0.2-0.2-0.5-0.4-0.8l0,0c0,0,0,0,0.1,0c-0.1-0.1-0.1-0.2-0.2-0.3c-0.3-0.3-0.7-0.4-1.1-0.4
			c-0.2-0.3-0.6-0.5-0.9-0.6c-0.1-0.1-0.4,0.1-0.4,0.1c0,0.5-0.2,1,0.4,1.3c0.3,0.2,0.7,0.3,0.9,0.6c0.2,0.2,0.1,0.5,0.2,0.7
			c-0.3-0.1-0.7,0-0.8-0.2c-0.3-0.3-0.5-0.7-0.8-1.1c-0.1-0.1-0.4-0.1-0.6-0.2c0,0.2-0.1,0.3-0.1,0.5c0.2,0.7,1.1,1,1,1.8
			c0,0,0.1,0.1,0.1,0.1c0,0,0.1,0,0.1-0.1c0,0.1-0.1,0.1-0.1,0.2c0,0,0.1,0.1,0.2,0.2c0.1-0.1,0.2-0.2,0.3-0.3
			c-0.1-0.1-0.1-0.1-0.1-0.2c0.4,0,0.6,0.5,1.1,0.4c0.3-0.1,0.8,0.1,0.6,0.8C53,15.2,53,15.6,53,15.9c1,0.2,2.1,0.3,3.1,0.5
			c-0.1,0-0.2-0.1-0.2-0.2c-0.2-0.3-0.3-0.6-0.4-0.8c0,0,0,0,0-0.1c0.1,0,0.1,0.1,0.2,0c0.1,0,0.1-0.1,0.2-0.1
			c0.2,0.3,0.4,0.5,0.5,0.8c0,0.1-0.1,0.2-0.1,0.3c0.3,0,0.5,0.1,0.8,0.1c0.1-0.2,0.2-0.5,0.3-0.7c0,0,0.3-0.1,0.3,0
			c0.4,0.6,1.1,0.3,1.6,0.5c0.3,0.1,0.5,0.2,0.6,0.3c0.5-0.2,0.9-0.4,1.4-0.6c0,0,0,0-0.1,0c0-0.5,0-1,0.2-1.4
			c0.2-0.5,0.3-0.8-0.5-0.8c-1-0.1-1.2-0.7-0.6-1.4c0.3-0.4-0.1-0.5-0.2-0.5c-1.2,0.1-1.6-0.6-1.7-1.5c-0.1-0.6-0.1-0.5-0.7-0.3
			c-0.1,0-0.3,0-0.4-0.1c-0.2-0.3-0.2-0.7-0.5-0.9c-0.3-0.3-0.4-0.5-0.2-0.6c0.4,0,0.7,0.1,1.1,0.4c0.1,0.1,0.4,0,0.6-0.1
			c0.1-0.1,0-0.4-0.1-0.4c-0.4-0.1-0.6-0.3-0.6-0.5c0,0,0,0,0-0.1c0,0,0,0,0,0c0-0.2,0.1-0.3,0.2-0.5c0,0,0,0,0,0
			c-0.4-0.3-0.8-0.6-1.2-0.9c-0.1,0-0.2,0-0.4-0.1l0,0c0.1,0,0.1,0,0.2,0C56,6.1,55.9,6,55.8,5.9c0,0-0.1,0.1-0.1,0.1
			c-0.6-0.4-0.7-0.3-1.1,0.5c0,0-0.1,0-0.1-0.1c-0.1-0.1-0.3-0.2-0.4-0.2c-0.2-0.2-0.4-0.4-0.6-0.3c-0.7,0.1-1.3,0.6-2,0.7
			c-0.4,0.1-0.8-0.1-1.3-0.2c0-0.1,0.1-0.1,0.2-0.2c0.1-0.1,0.1-0.4,0.1-0.6c-0.2,0.1-0.5,0.2-0.6,0.3c-0.2,0.2-0.5,0.7-0.6,0.6
			c-0.5-0.1-0.8,0.1-1,0.3c-0.9,0-1.6,0.3-2.2,0.9C46,8,45.8,8,45.7,8.1c-0.2-0.1-0.4,0-0.6,0c-0.2,0-0.5,0-0.6-0.1
			c-0.1-0.2-0.1-0.5-0.6-0.3C43.6,7.8,43.3,7.8,43,7.9z M50.6,10.8c0.1-0.3,0.3-0.4,0.2-0.6c-0.1-0.1-0.4-0.2-0.5-0.2
			c-0.1,0-0.3,0.3-0.3,0.4C50,10.5,50.3,10.6,50.6,10.8z M42.6,5.9c0,0.1,0.1,0.1,0.2,0.2C42.8,6,42.9,5.9,43,5.8
			c0,0-0.1-0.1-0.2-0.3C42.7,5.7,42.6,5.8,42.6,5.9z M41.7,8.7C42,8.9,42.2,9,42.4,9.1c0.1,0,0.2-0.1,0.3-0.1
			c-0.2-0.2-0.4-0.4-0.7-0.5C42.1,8.5,42,8.6,41.7,8.7z M40,5.6c0.2,0.2,0.4,0.4,0.6,0.5c0-0.2,0.1-0.4,0.1-0.5
			c0-0.1-0.2-0.2-0.3-0.3C40.3,5.3,40.2,5.5,40,5.6z M39.8,9.7c-0.1,0.2-1.4,0.3-1.6,0.2c-0.8-0.9-1.4,0.4-2.1,0.1
			c-0.1,0.2-0.2,0.5-0.2,0.5c1.2,0.5,2.3,1.2,3.6,1.5c0.2,0.1,0.5-0.1,0.9-0.4c0.1,0,0.1-0.1,0.2-0.1c0,0,0,0,0,0
			c0.3-0.2,0.5-0.4,0.8-0.5c0.1-0.1,0.3-0.2,0.4-0.2c1.7-0.3,0.6-0.8,0.2-1.3l0,0l-0.1,0c0,0,0,0,0,0C41.3,9.6,40.4,8,39.8,9.7z
			 M36.7,5.1L37,4.3c-0.2-0.1-0.4-0.2-0.5-0.4C36.3,4,36.2,4,36.2,4.1c0,0.5-0.4,0.5-0.8,0.4c-0.1,0-0.2,0-0.4,0.1
			c0.1,0.1,0.1,0.2,0.2,0.2c0.1,0.1,0.3,0.1,0.4,0.2c0,0.1,0.1,0.1,0.1,0.2c-0.2,0.4-0.2,0.7,0.1,1c0.1,0.1,0.3,0.3,0.4,0.2
			c0.4-0.2,0.5-0.5,0.5-0.9C36.7,5.4,36.7,5.3,36.7,5.1L36.7,5.1z M35.4,9.5c0,0,0.2,0.1,0.4,0.3c0.1-0.3,0.1-0.5,0.1-0.7
			c0,0-0.1-0.1-0.2-0.1C35.7,9.2,35.5,9.3,35.4,9.5z M38.9,7.4c0.1,0.1,0.2,0.2,0.3,0.4c0.2-0.1,0.2-0.2,0.3-0.2
			c-0.2-0.1-0.3-0.3-0.5-0.4C39,7.2,38.9,7.3,38.9,7.4z M38.3,9.3c0.4,0,0.5,0.1,0.7,0c0.1,0,0.2-0.1,0.3-0.1
			c-0.2,0-0.3-0.1-0.5-0.1C38.7,9.1,38.6,9.2,38.3,9.3z M37.8,5.6c0,0.1,0.1,0.1,0.3,0.2c0.1-0.1,0.2-0.2,0.2-0.3
			c0-0.1-0.2-0.2-0.3-0.1C37.9,5.4,37.8,5.5,37.8,5.6z M35.4,3.3c0.2,0.1,0.3,0.1,0.5,0.2c0.2,0.1,0.6,0.1,0.7,0.2
			c0.1,0.3,0.2,0.5,0.6,0.2c0.2-0.1,0.5-0.3,0.7-0.4c-0.2-0.1-0.5-0.1-0.7-0.2c-0.4-0.1-0.8-0.2-1.2-0.3c-0.1,0-0.2,0-0.3,0
			C35.5,3.1,35.5,3.2,35.4,3.3z M33.8,3.5c0.4,0.2,0.8,0.5,1.3,0.8C35.2,4.2,35.4,4,35.4,4c-0.3-0.3-0.6-0.5-0.9-0.8
			c-0.1,0-0.3,0.1-0.4,0.1C33.9,3.4,33.9,3.5,33.8,3.5z M34.2,7c0.1,0.1,0.1,0.2,0.1,0.2c0.1-0.1,0.2-0.2,0.2-0.3c0-0.2,0-0.4,0-0.6
			c0-0.2,0-0.5,0-0.7c0,0-0.1-0.1-0.1-0.1c-0.1,0-0.2,0.1-0.2,0.1C34.4,6.1,33.8,6.6,34.2,7z M33.8,13.5c0.2,0.1,0.3,0.3,0.3,0.3
			c0.3-0.2,0.6-0.4,0.9-0.6c0,0-0.2-0.2-0.2-0.2C34.4,13.2,34.1,13.3,33.8,13.5z M32.9,6.4c-0.1,0-0.2,0.1-0.4,0.1
			c0.1,0.2,0.2,0.5,0.4,0.9C33,7.2,33.1,7.1,33.1,7C33,6.8,33.2,6.5,32.9,6.4z M32.7,14.1c-0.2,0-0.5-0.1-0.5,0.3
			c0,0.1,0.1,0.2,0.2,0.4c0.3-0.2,0.5-0.4,0.7-0.6C32.9,14.2,32.8,14.1,32.7,14.1z M32.3,4.2c0,0.1,0.1,0.2,0.1,0.2
			c0.1-0.3,0.2-0.5,0.4-0.8c-0.1,0-0.2-0.1-0.2-0.1C32.1,3.6,32.4,4,32.3,4.2z M31.9,10.1c0.1,0.1,0.2,0.2,0.3,0.3
			c0.2-0.1,0.3-0.1,0.5-0.2c-0.1-0.1-0.3-0.2-0.4-0.2C32.2,10,32,10,31.9,10.1z M31.8,16.5c0,0.2,0.2,0.5,0.4,0.7
			c0.1,0.1,0.4,0,0.6,0c0.6,0,0.7,0,0.7-0.2c0.3,0.1,0.6,0.4,0.9,0.3c0.4-0.1,0.8-0.2,1.2-0.3c-0.1,0.4-0.3,0.7,0,1.1
			c0.1,0.1,0.1,0.2,0.1,0.2c0.1-0.1,0.2-0.2,0.2-0.3c0-0.2,0-0.4,0-0.6c0-0.2,0-0.4,0-0.6c0.1,0,0.2-0.1,0.3-0.1
			c-0.1-0.1-0.2-0.4-0.4-0.4c-0.3-0.1-0.6,0-1.2,0c-0.2,0.1-0.6,0.2-1,0.4c0.1-0.1,0.1-0.2,0.1-0.2c-0.1-0.1-0.4-0.2-0.5-0.2
			c-0.1,0-0.1,0.1-0.2,0.1c-0.1-0.1-0.3-0.3-0.4-0.3C32.3,16.3,31.9,16.1,31.8,16.5z M30.8,3.4c0,0.1,0.1,0.2,0.2,0.4
			c0.3-0.2,0.5-0.4,0.7-0.6c-0.1-0.1-0.2-0.1-0.4-0.1C31.1,3.1,30.8,3,30.8,3.4z M29.8,11.5c0,0.1,0,0.2,0.1,0.2
			c0.3-0.1,0.5-0.3,0.8-0.4c0.1-0.1,0.4-0.1,0.5-0.1c0.2-0.2,0.3-0.4,0.5-0.5c-0.3-0.1-0.5-0.1-0.9-0.2
			C30.4,10.8,30.1,11.2,29.8,11.5z M29.3,38.4c0.1,0.1,0.2,0.3,0.4,0.3c0.1,0,0.3-0.1,0.7-0.2c-0.3-0.2-0.5-0.3-0.6-0.3
			C29.6,38.2,29.5,38.3,29.3,38.4z M28.1,11.4c0,0.3,0.7,0.8,1.1,0.6c0.1,0,0.2-0.1,0.2-0.1c-0.3-0.3-0.6-0.6-0.9-1
			C28.3,11.2,28.1,11.3,28.1,11.4z M27.4,38.3c0-0.1-0.1-0.2-0.1-0.2C27.1,38,27,37.9,27,37.8c-0.2-0.6-0.5-0.2-0.9-0.2l-0.2,0.7
			c0.1,0.1,0.3,0.3,0.4,0.4c0.1,0,0.2-0.1,0.2-0.1c0.1-0.5,0.3-0.5,0.7-0.3C27.2,38.4,27.3,38.3,27.4,38.3z M26.9,57.9
			C26.9,57.9,26.8,57.9,26.9,57.9c0,0.2,0,0.3,0.1,0.4c0.3-0.2,0.5-0.3,0.7-0.4c0,0-0.1-0.2-0.1-0.2C27.4,57.7,27.1,57.8,26.9,57.9z
			 M23.1,57.3c-0.1,0.1-0.1,0.1-0.2,0.2c0.1,0,0.2,0,0.3,0c0,0.1,0,0.2,0.1,0.2c0.2,0.6,0,0.7,0.6,1c0.1,0.1,0.3,0.2,0.4,0.3
			c0.1,0.1,0.2,0.1,0.3,0.1c0-0.1,0.1-0.2,0.1-0.3c-0.1-0.3-0.3-0.6-0.4-0.9c-0.3,0-0.6,0-0.5-0.5c0-0.1,0-0.1,0-0.2
			c0.2-0.2,0.3-0.4,0.5-0.6c-0.2,0-0.4-0.1-0.5,0c-0.1,0.1-0.2,0.2-0.3,0.2c0-0.1-0.1-0.2-0.1-0.2c-0.1-0.3,0-0.6,0-0.9
			c0-0.1-0.1-0.2-0.2-0.3c0.5-0.4,1-0.6,1.6-0.1c0.1,0,0.3,0,0.4-0.1c0,0,0-0.3,0-0.3c-0.5-0.1-0.5-0.4-0.3-0.8
			c0.2-0.3,0.2-0.6,0.3-0.9c0.1-0.1,0.3-0.2,0.5-0.3c-0.3,0-0.5-0.2-0.7-0.1c-0.2,0.1-0.4,0.3-0.5,0.5c-0.2,0.2-0.3,0.3-0.6,0.1
			c-0.6-0.4-0.7-0.4-1,0.3c-0.2-0.2-0.5-0.5-0.7-0.5c-0.5,0.1-0.9,0.4-1.3,0.5c-0.5,0.1-0.9-0.3-1.5,0c-0.2,0.1-0.4,0.2-0.7,0.2
			c-0.5,0-0.8,0.1-1.2,0.3c-0.1,0.3-0.2,0.5-0.3,0.8c0.1-0.1,0.2-0.1,0.3-0.2c0.3-0.1,0.6-0.3,0.9-0.4c0.1,0,0.3,0.1,0.4,0.1
			c0.1,0,0.3,0.2,0.3,0.1c0.2-0.1,0.5-0.3,0.6,0.1c0,0-0.4,0.2-0.6,0.3c-0.2,0-0.3,0-0.5,0c-0.2,0.1-0.5,0.2-0.7,0.3
			c0.2,0.1,0.4,0.3,0.6,0.4c0.2,0.1,0.5,0.1,0.6,0c0.4-0.4,1-0.2,1.5-0.4c0.4-0.1,0.6-0.1,0.5,0.3c0,0.1,0.1,0.2,0.2,0.2
			c0,0,0.2-0.1,0.2-0.1c0.2-0.9,0.3-0.3,0.5,0c0.1,0.1,0.3,0.2,0.4,0.2C22.8,56.5,23,56.9,23.1,57.3z M18.7,57.9
			c0.1-0.3,0.2-0.6,0.2-0.8c0-0.2-0.1-0.4-0.1-0.5c-0.2,0.1-0.5,0.2-0.6,0.3c-0.2,0.3-0.3,0.7-0.4,1.1c-0.2-0.1-0.3-0.2-0.5-0.3
			c-0.2,0.1-0.4,0.2-0.6,0.3c0.2,0.1,0.5,0.3,0.8,0.3c0,0,0.1,0,0.1-0.1c-0.1,0.2-0.3,0.4-0.5,0.6c0,0,0.1,0.3,0.3,0.3
			c0.1,0,0.3,0,0.5-0.1c0,0,0,0.1,0,0.1c0,0.1,0.1,0.1,0.2,0.1c0.1,0,0.1-0.1,0.2-0.2c-0.1-0.1-0.2-0.1-0.2-0.1
			C18.4,58.6,18.8,58.1,18.7,57.9z M17.6,62.4c-0.1,0-0.3,0.2-0.5,0.2c0.2,0.2,0.3,0.3,0.6,0.6c0.1-0.2,0.3-0.4,0.3-0.5
			C18,62.6,17.8,62.4,17.6,62.4z M21,14.5c0-0.3,0.2-0.7,0.1-0.8c-0.3-0.2-0.8-0.3-1.3-0.4c-0.2-0.1-0.4-0.1-0.6-0.2
			c-0.1,0-0.3,0-0.4,0c0.1,0.1,0.1,0.3,0.2,0.3C19.6,13.8,20.3,14.2,21,14.5C21,14.6,21,14.6,21,14.5C21,14.6,21,14.6,21,14.5
			c0.3,0.2,0.6,0.3,0.8,0.4c0.1,0,0.2,0,0.4-0.1c-0.1-0.1-0.2-0.1-0.3-0.2C21.6,14.7,21.3,14.6,21,14.5C21.1,14.6,21,14.5,21,14.5z
			 M22.5,13.2c-0.3-0.2-0.7-0.4-1-0.5c-0.1,0-0.2-0.1-0.2-0.2c0,0.1,0,0.2-0.1,0.3c-0.1,0.6,0.6,0.6,1,0.8c0.1,0.1,0.3,0,0.5,0
			C22.6,13.5,22.6,13.3,22.5,13.2L22.5,13.2L22.5,13.2z M22.7,12.2c0.1-0.1,0.2-0.2,0.3-0.3c-0.2-0.1-0.5-0.2-0.7-0.3
			c-0.1,0-0.2,0-0.3,0C22.2,11.8,22.5,12,22.7,12.2z M24.7,58.4c-0.1,0.4,0.3,0.8,0.5,0.8c0.2-0.1,0.2-0.2,0.2-0.3
			c0.1,0,0.2-0.1,0.3-0.1c-0.2-0.1-0.3-0.2-0.3-0.2c0-0.1-0.1-0.2-0.1-0.3c0-0.7,0.2-1.4,0.3-2.1c0-0.1,0-0.2,0-0.3
			c-0.1,0-0.3,0-0.4,0.1c-0.2,0.7-0.8,1.3-0.6,2.1C24.7,58.2,24.7,58.3,24.7,58.4z M24.4,57.7c-0.1,0.1-0.2,0.2-0.3,0.3c0,0,0,0,0,0
			l0,0c0,0,0,0,0,0c0.2,0,0.4-0.1,0.5-0.1C24.6,57.9,24.5,57.8,24.4,57.7z M25.9,57.7c0.1,0,0.2-0.1,0.4-0.1c-0.2,0-0.3-0.1-0.5-0.1
			c-0.1,0-0.2,0.1-0.4,0.1C25.6,57.6,25.8,57.7,25.9,57.7z M25.8,42c0-0.3-0.5-0.9-0.7-0.8c-0.6,0.1-1.2,0.5-1.6-0.2
			c-0.3,0.3-0.6,0.5-0.8,0.8c0,0,0.4,0.3,0.6,0.4c0.5,0.2,1,0.4,1.6,0.4C25.2,42.6,25.8,42.2,25.8,42z M23.8,48.9
			c-0.1,0.1-0.2,0.2-0.4,0.4c0.2,0.2,0.3,0.4,0.5,0.6c0.1-0.1,0.3-0.3,0.3-0.3C24.1,49.3,23.9,49.1,23.8,48.9z M24.6,39.8
			c0.1-0.1,0.2-0.3,0.2-0.3c-0.6-0.3-1.2-0.5-1.7-0.8c0,0-0.2,0.2-0.3,0.3C23.4,39.3,24,39.6,24.6,39.8z M25,27.8
			c-0.1-0.1-0.2-0.2-0.3-0.3c-0.1,0.1-0.2,0.2-0.2,0.3c0,0.1,0.2,0.3,0.3,0.5C24.9,28,25,27.8,25,27.8z M24.7,20.5
			c0,0-0.2-0.2-0.3-0.2c-0.2,0.1-0.4,0.3-0.5,0.4c0.1,0,0.3,0.1,0.5,0.2C24.5,20.7,24.6,20.6,24.7,20.5z M24.1,14.7
			c-0.2-0.2-0.4-0.3-0.7-0.4c-0.1,0.1-0.3,0.3-0.2,0.3c0.1,0.2,0.3,0.3,0.6,0.5C23.9,14.8,24.1,14.7,24.1,14.7z M23,16.7
			c0,0.1,0.2,0.3,0.3,0.5c0.1-0.2,0.3-0.4,0.2-0.4c-0.1-0.1-0.2-0.2-0.3-0.3C23.2,16.6,23,16.7,23,16.7z M21.7,32.7
			c-0.1,0.2-0.3,0.4-0.4,0.6c-0.2,0.5-0.3,0.9-0.5,1.4c-0.3,0.4-0.2,0.8,0.4,0.9c0.4,0,1-0.2,1.1-0.5c0.2-0.4,0-0.9,0.2-1.3
			c0.1-0.2,0.5-0.4,0.8-0.6C22.8,33,22.3,32.9,21.7,32.7z M20.6,45.4c-0.3,0-0.6-0.1-1.1-0.2c-0.3,0.2-0.7,0.5-1,0.7
			c0.2,0.1,0.5,0.3,0.5,0.2C19.6,45.9,20.1,45.6,20.6,45.4z M19,49.9c-0.1,0.2-0.2,0.4-0.2,0.5c0.1,0.2,0.3,0.4,0.5,0.5
			c0-0.2,0.1-0.4,0.1-0.6C19.3,50.2,19.2,50.1,19,49.9z M18.5,43.8c-0.2-0.1-0.4-0.3-0.6-0.3c-0.1,0-0.2,0.1-0.3,0.2
			c0.1,0.2,0.3,0.3,0.4,0.4C18.1,44.1,18.3,44,18.5,43.8z M20.4,17.4c0.1,0,0.3-0.1,0.4-0.1c-0.1-0.1-0.2-0.2-0.3-0.3
			c-0.2-0.2-0.7-0.1-0.6-0.6c-0.2,0-0.3-0.1-0.5-0.1c-0.2,0-0.3,0.2-0.5,0.2c0.6,0.5,0.4,1,0.4,1.4c0,0.1,0.1,0.2,0.1,0.4
			c0.1-0.1,0.2-0.2,0.3-0.3C20,17.8,19.9,17.3,20.4,17.4z M19.3,30.8c-0.2,0-0.4,0.2-0.5,0.2c0.2,0.1,0.3,0.1,0.6,0.2
			c0.1-0.1,0.3-0.2,0.5-0.3C19.6,30.9,19.4,30.8,19.3,30.8z M20.3,52.8c0.2,0.1,0.4,0.2,0.5,0.2c0,0,0.1,0,0.3-0.1
			c-0.2-0.2-0.4-0.3-0.5-0.3C20.5,52.6,20.4,52.8,20.3,52.8z M21.5,52.4c0.1,0.1,0.3,0.1,0.4,0.1c0.1,0,0.2,0,0.3-0.1
			c0-0.1,0-0.1,0.1-0.2c-0.2-0.1-0.4-0.3-0.7-0.4c-0.2,0-0.4,0.1-0.6,0.1C21.1,52.2,21.2,52.3,21.5,52.4z M18.7,25.2
			c-0.1,0-0.3,0.1-0.8,0.3c0.5,0.2,0.7,0.3,0.9,0.3c0.1,0,0.3-0.2,0.4-0.3C19.2,25.1,18.9,25.2,18.7,25.2z M18.5,14.5
			c-0.2-0.1-0.4-0.2-0.4-0.1c-0.2,0.2-0.5,0.5-0.7,0.7c0.1,0,0.3,0.1,0.3,0.1C18,15,18.2,14.8,18.5,14.5z M18.3,11.6
			c-0.1-0.1-0.2-0.3-0.4-0.5c0,0-0.1,0-0.2,0.1c0.1,0.2,0.2,0.5,0.4,0.7C18.2,11.8,18.2,11.8,18.3,11.6z M17.6,12.7
			C17.6,12.7,17.6,12.7,17.6,12.7c-0.1,0-0.1,0-0.2,0c-0.3,0.1-0.5,0.2-0.7,0.3c0.2,0.1,0.4,0.2,0.6,0.2c0.1,0,0.2,0,0.3-0.1l0,0
			c0,0,0,0.1,0,0.1c0,0.1,0.1,0.2,0.2,0.4c0-0.1,0.1-0.3,0.1-0.4c0-0.1,0-0.2,0-0.3c0,0,0,0,0.1,0c0,0,0,0,0,0c0-0.1,0-0.2,0.1-0.2
			c0.2-0.2,0.2-0.4,0-0.6C17.8,12.3,17.7,12.5,17.6,12.7z M17.2,23c0.1,0,0.2,0.1,0.2,0.1c0.1-0.1,0.2-0.2,0.4-0.3
			c-0.1-0.2-0.1-0.2-0.2-0.3C17.5,22.7,17.4,22.8,17.2,23z M17.8,34c0.5,0.3,0.7,0.5,0.8,0.5c0.4-0.3,0.8-0.7,1.3-1.1
			c-0.1-0.1-0.3-0.2-0.3-0.2C19,33.4,18.5,33.6,17.8,34z M15,37.7c1,0.1,2.1,0.2,3.1,0.4c0-0.1,0-0.2,0.1-0.4c0.3,0,0.7,0,1,0
			c0.3-0.1,0.6-0.2,0.9-0.4c-0.3-0.3-0.4-0.7-0.8-0.8c-0.4-0.1-1,0-1.5,0.1C16.9,36.9,16,37.3,15,37.7z M15.5,38.4
			c-0.1,0-0.2,0.1-0.3,0.2c0.1,0.1,0.2,0.1,0.3,0.3c0.1-0.1,0.2-0.2,0.2-0.3C15.8,38.5,15.6,38.4,15.5,38.4z M15,57
			c0.1,0.2,0.3,0.3,0.5,0.7c0.1-0.2,0.2-0.3,0.2-0.4c-0.1-0.2-0.2-0.3-0.3-0.4C15.3,56.9,15.1,57,15,57z M17.4,40.4
			c0.4-0.3,0.6-0.5,0.8-0.7c-0.7-0.2-1.4-0.4-2.1-0.5c-0.1,0-0.2,0.2-0.4,0.4C16.2,39.8,16.8,40.1,17.4,40.4z M24,62.1
			c0.6,0.2,0.7,0.6,0.7,1.1c0,0.3,0.1,0.7,0.5,0.6c0.3-0.1,0.4-0.4,0.6-0.7c-0.2-0.2-0.5-0.2-0.6-0.4c-0.1-0.4-0.2-0.8-0.2-1.2
			c-0.1-0.4-0.3-0.3-0.6-0.2c-0.1,0.1-0.2,0.2-0.3,0.3C23.8,61.8,23.7,62,24,62.1z M26.3,58.7c0.1-0.1,0.2-0.2,0.2-0.2
			c0-0.1-0.1-0.3-0.2-0.4c-0.3,0.1-0.4,0.1-0.5,0.1C26,58.3,26.1,58.5,26.3,58.7z M26.7,52.6c-0.1-0.1-0.2-0.1-0.3-0.2
			c-0.2,0.1-0.4,0.2-0.6,0.4c0,0,0.1,0.2,0.2,0.3C26.2,52.8,26.5,52.7,26.7,52.6z M25.9,24.7c0.2,0.2,0.4,0.3,0.7,0.5
			c0.1-0.1,0.1-0.2,0.2-0.2c-0.2-0.2-0.5-0.3-0.7-0.4C26.1,24.5,26,24.6,25.9,24.7z M26.3,18.9c0.2-0.5,0.3-0.7,0.3-0.7
			c-0.1-0.2-0.3-0.3-0.4-0.4c-0.1,0.1-0.2,0.2-0.2,0.3C26,18.3,26.1,18.5,26.3,18.9z M28.3,14.8c-0.1-0.1-0.3-0.4-0.4-0.4
			c-0.1,0-0.3,0.2-0.5,0.4c0.1,0.1,0.2,0.2,0.3,0.1C27.9,14.9,28.1,14.8,28.3,14.8z M28.2,17.7c0.2,0.1,0.4,0.3,0.4,0.2
			c0.2-0.1,0.4-0.3,0.5-0.5c-0.2,0-0.4-0.1-0.5-0.1C28.5,17.4,28.4,17.5,28.2,17.7z M26.9,20c-0.1,0-0.2,0.2-0.2,0.3
			c0.1,0,0.2,0.1,0.3,0.1c0.6-0.1,1.2-0.2,1.7-0.3c0,0,0.1-0.1,0.1-0.1c0,0-0.1-0.1-0.1-0.1C28.1,20,27.5,20,26.9,20z M27.5,22.9
			c-0.1,0.1-0.2,0.2-0.3,0.4c0,0,0.2,0.2,0.3,0.2c0.2-0.1,0.4-0.3,0.5-0.4C27.8,23,27.7,23,27.5,22.9z M26.3,30
			c0,0.1-0.1,0.2-0.1,0.3c0.1,0.1,0.2,0.2,0.3,0.4c0.2-0.1,0.2-0.2,0.3-0.2C26.6,30.2,26.5,30.1,26.3,30z M28.2,25.4
			c-0.1-0.2-0.5-0.4-0.7-0.6c-0.2,0.3-0.4,0.3-0.7,0.3c0.1,0.2,0.2,0.5,0.2,0.6C26.6,26.1,27,26,27.1,26
			C27.8,26,28.3,25.7,28.2,25.4z M27.4,30.7c0.2,0.1,0.4,0.3,0.6,0.4c0.1,0,0.2,0,0.3,0c0.3-0.1,0.9,0.3,0.8-0.4
			c-0.1-0.5-0.5-0.1-0.8-0.2c-0.1,0-0.2,0-0.3,0C27.8,30.5,27.6,30.6,27.4,30.7z M27.8,33.1c0,0.1,0.3,0.3,0.4,0.3
			c0.2,0,0.3-0.2,1.1-0.6c-0.6,0-0.8-0.1-1.1,0C28.1,32.8,27.8,33,27.8,33.1z M25.4,7.2c0,0.1,0.1,0.3,0.2,0.3
			C26,7.7,26.4,7.9,26.9,8c0.1,0,0.4-0.1,0.5-0.1c-0.1-0.2-0.2-0.4-0.4-0.4c-0.4-0.2-0.9-0.3-1.4-0.5C25.6,7,25.4,7.1,25.4,7.2z
			 M23.8,9.8c0.2,0.1,0.4,0.2,0.7,0.3c0.3,0.1,0.7,0.1,1.1,0.2c0.1,0,0.3-0.1,0.4-0.2c-0.1-0.1-0.2-0.2-0.4-0.3
			c-0.3-0.1-0.6-0.3-0.9-0.3C24.4,9.5,24.1,9.7,23.8,9.8z M23.3,12.8c-0.5-0.1-0.8-0.1-0.7,0.4c0.7,0,1.4,0.1,2,0.5
			c0.1,0.1,0.2,0.2,0.4,0.2c0.1,0.1,0.2,0.1,0.3,0.2c0,0,0.1-0.1,0.1-0.1c0.3,0,0.5,0,0.8-0.3c0.2-0.2,0.7-0.1,1.1-0.1
			c0.2,0,0.3,0,0.5,0c0.1-0.1,0.1-0.2,0.2-0.3c0.2-0.2,0.3-0.4,0.5-0.6c0,0-0.1,0-0.1,0c-0.8-0.1-1.8-0.1-2.2-0.9
			c-0.1-0.3-0.3,0-0.4,0.2c-0.3,0.5-0.3,0.5-0.9,0.2c-0.1-0.1-0.5,0-0.6,0.1C23.8,12.9,23.8,12.9,23.3,12.8z M19.2,10.1
			c0.4,0.1,0.7,0.1,1.1,0.1c0.2,0,0.3-0.2,0.5-0.3c0.5-0.3,1.8-0.3,2,0c0.2,0.3,0.4,0.6,0.5,0.9c0-0.3-0.2-0.8-0.1-1
			c0.4-0.7,0-0.7-0.6-0.8c-0.8,0.2-1.8,0.4-2.7,0.7C19.7,9.6,19.4,9.9,19.2,10.1z M16.7,8.2c0.2,0,0.3,0.1,0.5,0.1
			c0.2,0.1,0.3,0.3,0.5,0.3c0.4,0.1,0.8,0.1,1.2,0.1c0-0.5-0.5-0.4-0.9-0.5C17.7,8.1,17.4,8,17.2,8C17,8,16.8,8.1,16.7,8.2z
			 M16.2,27.1c0,0-0.3,0.2-0.4,0.3c0,0,0.1,0.2,0.1,0.2c0.3,0.1,0.7,0.3,0.8,0.3c0.3,0,0.3,0,0.4,0c0.2-0.1,0.5-0.1,0.6-0.2
			c0.1-0.1,0.1-0.5,0-0.5C17.5,27,17.2,26.9,17,27C16.7,27.2,16.5,27.5,16.2,27.1z M14.4,10.6c0.1,0.4,0.4,0.8,0.6,1.2
			c0,0.1,0.2,0.1,0.3,0.1c0.1-0.1,0.2-0.2,0.2-0.3c0-0.5,0.1-1-0.2-1.5c-0.1-0.2-0.1-0.3-0.3-0.1C14.7,10.2,14.3,10.4,14.4,10.6z
			 M13.9,12.8c0.4,0,0.8,0,1.2,0c0.1,0,0.1,0,0.2,0c0,0,0,0,0,0c0,0,0,0,0.1,0c0.1,0.1,0.2,0.3,0.4,0.3c0.2,0.1,0.4,0,0.6-0.1
			c-0.1-0.1-0.3-0.2-0.4-0.2c-0.2,0-0.4-0.1-0.5-0.1c0,0,0,0,0,0c0,0,0,0,0,0c-0.3-0.4-0.8-0.1-1.2-0.1C14,12.7,14,12.8,13.9,12.8z
			 M14.9,54.8C14.9,54.8,14.9,54.8,14.9,54.8c-0.2,0.1-0.3,0.2-0.5,0.3c0.1,0.1,0.1,0.2,0.2,0.3C14.7,55.2,14.8,55,14.9,54.8
			C14.9,54.8,14.9,54.8,14.9,54.8L14.9,54.8z M11.3,17c0.1-0.1,0.3-0.3,0.3-0.3c-0.3-0.3-0.6-0.5-0.9-0.8c-0.1,0-0.3,0.1-0.4,0.1
			c-0.1,0-0.1,0.1-0.2,0.2C10.4,16.5,10.8,16.7,11.3,17z M11.6,22.6c-0.2-0.1-0.3-0.3-0.5-0.4c0,0.1-0.1,0.2-0.1,0.2
			c0.1,0.1,0.2,0.2,0.3,0.4C11.5,22.7,11.6,22.6,11.6,22.6z M11.7,16c0.2,0.1,0.3,0.1,0.5,0.2c0.2,0.1,0.6,0.1,0.7,0.2
			c0.1,0.3,0.2,0.5,0.6,0.2c0.2-0.1,0.5-0.3,0.7-0.4c-0.2-0.1-0.5-0.1-0.7-0.2c-0.4-0.1-0.8-0.2-1.2-0.3c-0.1,0-0.2,0-0.3,0
			C11.7,15.8,11.7,15.9,11.7,16z M12.7,17.3c0.1-0.1,0.1-0.3,0.1-0.5c-0.2,0-0.4-0.1-0.5,0c-0.2,0.1-0.3,0.3-0.4,0.4
			c0,0.1,0.1,0.3,0.1,0.3C12.3,17.5,12.5,17.5,12.7,17.3z M12.7,21.2c0-0.2,0.1-0.4,0.1-0.5c0-0.1-0.2-0.2-0.3-0.3
			c-0.1,0-0.2,0.1-0.4,0.3C12.4,20.9,12.5,21,12.7,21.2z M12.6,47.2c0,0,0.1-0.1,0.1-0.2c-0.2-0.1-0.4-0.2-0.5-0.2
			C12,46.9,12,46.9,11.9,47C12.1,47.1,12.3,47.1,12.6,47.2z M11.9,49.4c-0.1,0.1-0.1,0.2-0.1,0.2c0.1,0.1,0.2,0.3,0.3,0.4
			c0,0,0.1-0.1,0.2-0.2C12.2,49.7,12,49.6,11.9,49.4z M10.3,40.9c0,0,0.1,0.3,0.2,0.3c0.6,0,1.2,0.1,1.8,0.1c0.1,0,0.2-0.1,0.3-0.2
			c-0.1-0.1-0.2-0.2-0.3-0.2c-0.5-0.1-0.9-0.1-1.4-0.1c0-0.1,0-0.1-0.1-0.2C10.6,40.7,10.4,40.8,10.3,40.9z M11.1,46
			c-0.1,0-0.3,0.2-0.4,0.2c0.2,0.2,0.3,0.5,0.7,0.9c0.1-0.4,0.2-0.5,0.2-0.7C11.5,46.2,11.5,45.9,11.1,46z M10,53.3
			c0,0,0.1-0.2,0.1-0.2C10,53,9.9,52.9,9.7,52.9c-0.1,0-0.2,0.1-0.3,0.1C9.6,53.1,9.8,53.2,10,53.3z M10.6,55.1
			c-0.1,0-0.3-0.2-0.3-0.1c-0.1,0.1-0.1,0.3-0.2,0.4c0,0,0.1,0.1,0.2,0.1C10.3,55.4,10.5,55.3,10.6,55.1z M10.9,57
			c0-0.1-0.1-0.2-0.2-0.3c-0.1,0.1-0.2,0.2-0.1,0.2c0,0.1,0.1,0.2,0.2,0.4C10.9,57.1,10.9,57,10.9,57z M11.6,54.8
			c-0.1-0.1-0.2-0.2-0.3-0.3c-0.1,0.2-0.3,0.3-0.4,0.4c0.2,0.1,0.3,0.1,0.5,0.2C11.5,55.1,11.6,54.8,11.6,54.8z M12.2,56.9
			c-0.2-0.1-0.3-0.2-0.5-0.3c0,0.1-0.1,0.2,0,0.3c0.1,0.2,0.3,0.3,0.5,0.6C12.2,57.2,12.3,57,12.2,56.9z M12.8,55.1
			c-0.2-0.1-0.4-0.1-0.6-0.2c0,0-0.1,0.1-0.2,0.3c0.3,0,0.5,0.1,0.7,0.1C12.8,55.4,12.8,55.2,12.8,55.1z M13.1,51.7
			c-0.1-0.1-0.3-0.2-0.4-0.3c0,0-0.1,0.1-0.2,0.2c0.2,0.1,0.3,0.2,0.5,0.3C13,52,13.1,51.8,13.1,51.7z M13.2,43.2
			c0-0.1-0.1-0.2-0.2-0.4c-0.1,0.3-0.2,0.4-0.2,0.4c0,0.1,0.1,0.2,0.2,0.2C13.1,43.3,13.2,43.2,13.2,43.2z M13.2,29.3
			c-0.1-0.2-0.2-0.2-0.2-0.3c-0.1,0.2-0.2,0.3-0.4,0.5c0.1,0,0.2,0.1,0.2,0.1C13,29.6,13.1,29.4,13.2,29.3z M13.3,28.4
			c0.1-0.2,0.3-0.4,0.4-0.6c0-0.1,0-0.2,0-0.3c-0.1-0.3,0.3-1-0.4-0.9c-0.4,0.1-0.1,0.6-0.2,0.9c0,0.1,0,0.2,0,0.3
			C13.2,28,13.2,28.2,13.3,28.4z M14.1,63c-0.2-0.2-0.4-0.3-0.6-0.5c0,0.2-0.1,0.4,0,0.5c0,0.1,0.2,0.2,0.3,0.3
			C13.8,63.4,13.9,63.2,14.1,63z M14.3,40.9c-0.1-0.1-0.4-0.2-0.5-0.2c-0.1,0-0.3,0.3-0.3,0.4c0,0.1,0.3,0.2,0.6,0.3
			C14.1,41.2,14.3,41,14.3,40.9z M17,63.8c0.1,0,0.2,0,0.3,0c0-0.1,0-0.2-0.1-0.2c-0.7-0.5-1.5-1-2.4-1.1c-0.1,0-0.3,0.1-0.4,0.1
			c0.1,0.1,0.2,0.2,0.4,0.3C15.4,63.2,16.2,63.5,17,63.8z M17.2,65.3c0.1,0,0.2-0.2,0.3-0.3c-0.1-0.1-0.3-0.1-0.5-0.2
			c-0.2,0.1-0.2,0.2-0.3,0.3C16.8,65.1,17,65.2,17.2,65.3z M18.6,66c0.1-0.1,0.2-0.2,0.4-0.3c-0.2-0.1-0.4-0.2-0.6-0.3
			c-0.5,0.3-0.9,0.5-1.3,0.8c-0.1,0.1-0.1,0.4-0.1,0.6c0.3,0,0.6,0,0.8-0.1C18.2,66.5,18.4,66.2,18.6,66z M19.2,66.7
			c-0.1-0.1-0.2-0.2-0.2-0.2c-0.2,0.1-0.3,0.2-0.5,0.3c0.1,0.1,0.1,0.2,0.2,0.2C18.9,66.9,19,66.8,19.2,66.7z M19.4,59
			c-0.2,0-0.4,0.2-0.5,0.3c0.2,0.2,0.4,0.4,0.7,0.6c0.1-0.2,0.2-0.2,0.2-0.3C19.8,59.4,19.8,59,19.4,59z M19.9,58.4
			C19.9,58.4,20,58.5,19.9,58.4c0.1,0.1,0.1,0.2,0.1,0.2c0.1,0.1,0.2,0.2,0.3,0.3c0,0,0.2-0.2,0.3-0.4c-0.1,0-0.1,0-0.1-0.1
			c0.4-0.1,0.8-0.2,1.3-0.3c0.1,0.1,0.2,0.1,0.4,0.2c0.2-0.1,0.3-0.2,0.5-0.3c-0.2-0.1-0.3-0.3-0.5-0.3l0,0c0,0,0,0,0-0.1
			c-0.4,0.1-0.8,0.2-1.2,0.3c-0.3,0.1-0.6,0.1-0.8,0.2C20,58.2,20,58.3,19.9,58.4z M22.2,65.7c0.5,0.1,1.2,0.2,1.8-0.2
			c0.5-0.4,1-0.8,1.5-1.3c-0.8,0-1.5,0.1-2.3,0.1c0,0.2,0.1,0.3,0.1,0.5c0,0.1,0,0.2-0.1,0.3c-0.1-0.1-0.2-0.2-0.3-0.3
			c-0.3-0.1-0.8-0.4-0.8-0.4c-0.7,0.7-2.1,1-2.2,2.1c0,0.1,0,0.3,0.1,0.3c0.2,0,0.4,0,0.5,0c0.2-0.1,0.5-0.3,0.5-0.5
			C21,65.5,21.4,65.5,22.2,65.7z M21.6,66.5c0.3-0.1,0.5-0.3,0.9-0.5c-0.2-0.1-0.3-0.2-0.3-0.2c-0.3,0.1-0.6,0.3-0.9,0.4
			C21.4,66.4,21.6,66.6,21.6,66.5z M23.5,68c0-0.2,0-0.5,0-0.7c-0.2,0.1-0.4,0.2-0.6,0.4c-0.1,0.1-0.1,0.2-0.2,0.3l0,0l0,0
			c-0.1,0-0.2,0-0.3,0c-0.2,0-0.3,0.1-0.5,0.1l0,0.2c0.2,0,0.4,0,0.6-0.1c0.1,0,0.1-0.1,0.1-0.2h0c0.1,0,0.1,0.1,0.2,0.1
			C23.1,68,23.3,68,23.5,68z M23.9,69.3c0-0.1-0.2-0.2-0.3-0.4c0,0.2-0.1,0.3-0.1,0.4c0.1,0.1,0.2,0.2,0.3,0.3
			C23.9,69.5,24,69.3,23.9,69.3z M25.2,68.6c-0.2-0.1-0.4-0.3-0.5-0.3c-0.1,0-0.2,0.1-0.3,0.1c0.1,0.1,0.2,0.3,0.4,0.4
			C24.8,68.9,25,68.7,25.2,68.6z M24.6,67.8c0.2-0.1,0.4-0.2,0.6-0.3c-0.2-0.2-0.4-0.4-0.5-0.6c-0.2,0.1-0.4,0.3-0.4,0.4
			C24.2,67.4,24.4,67.6,24.6,67.8z M28.2,65.8c-0.1-0.1-0.2-0.2-0.4-0.3c-0.2-0.1-0.5-0.1-0.7-0.1c-0.6,0-1.2,0.1-1.8,0.1v0
			c-0.5,0-1,0-1.5,0.1c-0.1,0-0.1,0.1-0.2,0.1c0.1,0.1,0.2,0.2,0.2,0.2c0.3,0,0.7-0.1,1,0c0.5,0.3,0.9,0.8,1.3,1.1
			c0.1,0.1,0.3,0.1,0.4,0.1c-0.1-0.1-0.1-0.2-0.2-0.3c-0.5-1-0.5-1.1,0.8-1.1c0.2,0,0.4,0,0.6,0C27.9,65.9,28,65.9,28.2,65.8z
			 M28.4,46.3c-0.3-0.1-0.5-0.2-0.6-0.2c-0.3,0-0.6,0-0.5,0.5c0,0.2,0.1,0.3,0.2,0.4C27.8,46.8,28,46.6,28.4,46.3z M29,38.5
			c-0.5-0.2-0.6-0.3-0.7-0.3c-0.3,0-0.5,0.2-0.7,0.2c0.1,0.1,0.3,0.3,0.4,0.3C28.1,38.7,28.4,38.6,29,38.5z M29.4,60.6
			c0.2-0.1,0.4-0.2,0.7-0.4c-0.1-0.1-0.1-0.1-0.2-0.1c-0.3,0.1-0.6,0.1-0.9,0.2c0,0,0,0.1,0,0.1C29.1,60.5,29.3,60.6,29.4,60.6z
			 M30.4,66.1c-0.1-0.2-0.2-0.4-0.4-0.6c-0.1,0.1-0.3,0.3-0.3,0.3c0.2,0.2,0.3,0.3,0.5,0.5C30.4,66.2,30.5,66.1,30.4,66.1z
			 M30.6,37.8c0.2,0.1,0.3,0.1,0.1,0.4c-0.1,0.1-0.1,0.3-0.1,0.5c0,0,0.2,0.1,0.3,0c0.2-0.1,0.4-0.3,0.5-0.4c0-0.5-0.4-0.6-0.7-0.7
			c-0.1,0-0.2,0-0.4-0.1C30.5,37.6,30.5,37.7,30.6,37.8z M32.4,59.9c-0.3-0.1-0.6-0.2-0.8-0.2c-0.3,0-0.7-0.1-0.9,0.3
			c0.3,0.1,0.6,0.1,1,0.2C31.8,60.1,32.1,60,32.4,59.9z M33.4,73.6c-0.4-0.1-0.1-0.8-0.6-0.7c-0.2,0.1-0.3,0.3-0.5,0.5
			c0.2,0.2,0.5,0.5,0.8,0.8C33.3,73.9,33.3,73.8,33.4,73.6z M34.3,64.8c-0.1-0.1-0.1-0.2-0.1-0.2c-0.1,0.1-0.2,0.2-0.3,0.3
			c0,0,0.1,0.1,0.1,0.1C34.1,65,34.2,64.9,34.3,64.8z M35.7,64.3c0.2-0.1,0.6-0.3,0.9-0.5c0,0-0.1-0.1-0.1-0.1
			c-0.4,0-0.7,0.1-1.1,0.2c-0.1,0-0.2,0.2-0.3,0.3C35.3,64.2,35.4,64.2,35.7,64.3z M36.1,67.9c0.1,0.2,0.2,0.4,0.3,0.5
			c0,0,0.1-0.1,0.1-0.2c-0.1-0.1-0.2-0.3-0.3-0.4C36.3,67.8,36.2,67.9,36.1,67.9z M37.7,71.2c0,0-0.2-0.2-0.2-0.2
			c-0.2,0.1-0.4,0.2-0.5,0.3c0,0.1,0.2,0.3,0.3,0.5C37.5,71.5,37.6,71.4,37.7,71.2z M38.5,68.1c0,0-0.1-0.2-0.2-0.1
			c-0.5,0.2-1.1,0.5-1.6,0.8c-0.1,0.1-0.2,0.3-0.3,0.6c0.7-0.2,1.2-0.3,1.6-0.5C38.2,68.7,38.3,68.4,38.5,68.1z M40.9,66.9
			c0.4-0.5,0-0.6-0.5-0.7c-0.7,0.1-1.5,0.3-2.3,0.4c-0.3,0.1-0.5,0.2-0.7,0.4c0.3,0.1,0.6,0.1,0.9,0.1c0.1,0,0.3-0.1,0.4-0.2
			c0.5-0.2,1.5-0.2,1.7,0c0.2,0.2,0.3,0.5,0.4,0.7C40.9,67.4,40.8,67.1,40.9,66.9z M37.7,64.7c0.1-0.1,0.2-0.3,0.3-0.4
			c0,0-0.3-0.2-0.3-0.2c-0.2,0.1-0.4,0.3-0.5,0.5C37.2,64.6,37.4,64.7,37.7,64.7z M46.7,61c0-0.2-0.2-0.3-0.2-0.5l0,0l0,0l0,0
			c-0.3-0.1-0.6-0.1-1-0.2c-0.1,0-0.3-0.2-0.4-0.2c0.1-0.1,0.3-0.2,0.5-0.3c0.1,0,0.3,0,0.5,0c0,0,0,0,0,0l0,0c0,0,0,0,0,0
			c-0.2-0.2-0.4-0.3-0.6-0.5c-0.1-0.1-0.3-0.3-0.4-0.5c-0.1-0.8-0.1-0.8-0.9-0.3c-0.1,0.1-0.3,0.2-0.4,0.3c-0.2,0.3-0.4,0.3-0.7,0.2
			c-0.3-0.1-0.8-0.1-0.8-0.6c0-0.3-0.1-0.6-0.2-0.9c-0.1-0.3-0.4-0.6-0.6-0.8c-0.3-0.2-1-0.2-0.4-0.8c0.1,0,0-0.3-0.1-0.3
			c-0.2-0.1-0.4-0.2-0.6-0.1c-0.1,0-0.4,0.3-0.3,0.3c0.3,0.4,0,0.5-0.3,0.7c-0.3,0.1-0.5,0.3,0.1,0.4c0.1,0,0.2,0.2,0.3,0.3
			c-0.1,0.1-0.3,0.2-0.4,0.2c-0.4,0.1-0.8,0.2-1.3,0.2c-0.2,0-0.4,0-0.5,0c-0.2,0-0.3-0.1-0.5-0.1c0,0.2-0.1,0.5,0,0.6
			c0.2,0.3,0.5,0.5,0.7,0.8c0.1,0.1,0.3,0.2,0.3-0.1c0-0.1,0-0.3,0-0.4c0.1-0.1,0.2-0.3,0.3-0.3c0.2,0,0.4,0.1,0.5,0.2
			c0.1,0,0.1,0.3,0,0.4c-0.2,0.3-0.4,0.6-0.7,0.8c-0.1,0.1-0.2,0.3-0.2,0.4c0,0,0-0.1-0.1-0.1c-0.5-0.2-1.1-0.4-1.6-0.6
			c0.1,0,0.1,0,0.1,0c-0.1-0.1-0.2-0.2-0.3-0.3c0,0-0.2,0.1-0.2,0.1c0,0,0,0,0,0.1c0,0-0.1,0-0.1,0c-0.1,0-0.3,0.1-0.5,0.2
			c0,0.1,0.1,0.1,0.1,0.1c-0.3-0.1-0.5-0.2-0.7-0.2c-0.5,0.1-1,0.2-1.4,0.3c-0.1,0-0.2,0.2-0.3,0.2c0.1,0.1,0.3,0.2,0.4,0.1
			c0.7-0.2,1.3-0.2,2,0c0.1,0,0.2,0,0.3,0c0.1,0,0.2-0.1,0.3-0.1c0-0.1-0.1-0.2-0.1-0.2c0.6,0.2,1.3,0.4,1.9,0.5
			c0.1,0,0.1,0,0.2-0.1c0,0.1,0.1,0.1,0.2,0.1c0.6,0.4,0.7,0.8,0.5,1.4c-0.1,0.4-0.2,0.8-0.8,0.9c-0.3,0-0.6,0.2-0.8,0.4
			c-0.1,0-0.1,0.2-0.1,0.3c0.1,0,0.2,0.1,0.3,0.1c0.1,0,0.3,0,0.4,0c0.4-0.2,0.9-0.6,1.4,0c0,0,0.3-0.1,0.3-0.2
			c-0.1-0.6,0.3-0.5,0.7-0.4c0.4,0.1,0.4-0.1,0.4-0.3c-0.5-0.4-0.7-0.9-0.5-1.2c0.2-0.2,0.5-0.4,0.9-0.5c0.2,0.1,0.3,0.2,0.5,0.3
			c0,0,0.2-0.2,0.2-0.3c0,0-0.1-0.1-0.1-0.1c0.5,0,1,0.1,1.4,0.4c-0.1,0.1-0.3,0.3-0.4,0.4c0.3-0.1,0.5-0.1,0.7-0.1
			c0,0.1,0,0.2,0,0.2c-0.1,0.2-0.3,0.3-0.5,0.4c-0.2,0-0.4,0-0.6,0c0,0,0-0.1,0.1-0.1c-0.2,0-0.4-0.1-0.6,0
			c-0.2,0.1-0.3,0.3-0.7,0.8c0.5-0.1,0.8-0.1,0.9-0.2c0.1-0.1,0.2-0.2,0.2-0.3c0.1,0.1,0.2,0.2,0.4,0.3c0.1,0,0,0.3,0,0.3
			c-0.1,0.2-0.3,0.3-0.4,0.4c-0.7,0.5-1.4,1.1-2.1,1.6c-0.1,0.1-0.2,0.2-0.1,0.3c0,0,0,0,0.1,0.1c-0.1,0.1-0.2,0.2-0.1,0.2
			c0,0.1,0.2,0.2,0.3,0.5c0.1-0.2,0.2-0.4,0.2-0.5c0,0-0.1-0.1-0.1-0.1c0.1,0,0.2-0.1,0.3-0.1c0.2,0,0.9-0.3,0.3,0.4
			c-0.2,0.2,0,0.3,0.3,0.3c0.6,0,1-0.1,0.9-0.9c0-0.3,0.1-0.6,0.2-0.9c0.2,0.2,0.3,0.3,0.5,0.5c0.3,0.3,0.5,0,0.7,0
			c0-0.1-0.1-0.3-0.2-0.4c-0.1-0.2-0.1-0.3-0.2-0.5c0.4,0,0.5-0.6,0.9-0.3c0.6,0.5,1.2-0.1,1.7,0c0,0,0.1-0.2,0.1-0.3
			c0-0.2-0.1-0.4-0.2-0.6c-0.1-0.7-0.1-0.7,0.7-0.9C46.6,61.2,46.7,61,46.7,61z M40.9,62.1C40.9,62.1,40.9,62.2,40.9,62.1L40.9,62.1
			z M46.1,56.2c0.1,0,0.2-0.1,0.2-0.2c0-0.1-0.1-0.2-0.2-0.2c-0.1,0-0.2,0.1-0.5,0.2C45.9,56.1,46,56.2,46.1,56.2z M48.3,59.1
			c0.2-0.1,0.3-0.2,0.5-0.3c-0.2-0.1-0.4-0.2-0.6-0.3c-0.4,0.2-0.9,0.3-1.3,0.5c0.4,0,0.8,0.1,1.2,0.1
			C48.2,59.2,48.3,59.2,48.3,59.1z M48.2,57.8c0,0,0.2,0.1,0.2,0c0.1-0.2,0.4-0.3,0.4-0.5c0-0.1-0.2-0.3-0.4-0.4
			c-0.2-0.1-0.5-0.1-0.7-0.1c0,0,0,0.1,0,0.1C47.8,57.2,48,57.5,48.2,57.8z M49.7,66c-0.2-0.3-0.4-0.6-0.6-0.9
			c0-0.1-0.2-0.1-0.2-0.1c-0.1,0-0.2,0.1-0.2,0.1c-0.1,0.4,0.4,1.2,0.8,1.4c0.1,0,0.2,0,0.2-0.1C49.7,66.3,49.7,66.1,49.7,66z
			 M50.1,60.4c0.2,0,0.3,0,0.6-0.1c-0.3-0.2-0.4-0.4-0.6-0.5c-0.1,0-0.2,0.2-0.3,0.3C49.9,60.2,50,60.3,50.1,60.4z M52.2,65.8
			c0-0.4-0.2-0.4-0.4-0.4c-0.1,0-0.2,0.1-0.3,0.1c0,0,0,0-0.1,0c-0.4-0.2-0.7-0.3-0.9,0.1c-0.1,0.1-0.2,0.4-0.2,0.5
			c0.2,0.4,0.5,0.6,0.9,0.5c0,0,0.1,0,0.3,0c0,0,0.3-0.1,0.4-0.2h0C52.3,66.4,52.2,66.1,52.2,65.8z M54.8,61
			c-0.1-0.1-0.2-0.2-0.4-0.3c-0.2,0.2-0.4,0.3-0.6,0.4c-0.2-0.4-0.4-0.2-0.6,0.1c-0.1,0.1-0.1,0.3-0.1,0.4c0,0.1,0.3,0.2,0.3,0.1
			c0.3-0.3,0.6-0.3,1-0.3C54.6,61.4,54.7,61.2,54.8,61z M55.5,63.3c-0.1,0-0.1-0.1-0.3-0.2c-0.1,0.1-0.2,0.2-0.2,0.4
			c0,0.1,0.1,0.2,0.1,0.2C55.2,63.6,55.3,63.5,55.5,63.3z M55.9,56.2c0.1,0,0.3-0.1,0.4-0.2c-0.1-0.1-0.2-0.2-0.3-0.2
			c-0.8-0.4-1.7-0.6-2.7-0.5c-0.4,0-1,0-1.2-0.2c-0.4-0.5-0.6-0.3-1.1,0c-0.4,0.2-0.9,0.3-1.3,0.4c-1,0.3-1.6,0.1-2-0.7
			c-0.1-0.3-0.6-0.7-0.8-0.6c-1.3,0.3-1.6-0.8-2.6-1c0,0-0.1-0.2,0-0.3c0-0.1,0.2-0.1,0.3-0.2c-0.4-0.5-0.8-1-1.3-1.4
			c-0.2-0.2-0.9,0-1.3,0c-0.2,0-0.4,0.2-0.6,0.4c0.3,0.2,0.4,0.7,0.8,0.4c0.3-0.2,0.5-0.2,0.7,0c0.3,0.3,0.5,0.7,0.4,1.1
			c-0.1,0.4-0.2,0.5-0.7,0.4c-0.2,0-0.4,0-0.6-0.1c0.1,0.1,0.3,0.3,0.4,0.3c0.4,0,0.7,0.8,1.2,0.1c0,0,0.3,0.1,0.4,0.1
			c0.1,0.4,0.2,0.4,0.7,0.3c1-0.2,2.3,0.5,2.3,1.2c0,0.3-0.4,0.7,0.1,0.9c0.3,0.1,0.8,0,1.2,0c0.1,0,0.3,0,0.4,0
			c0.2,0.3,0.4,0.6,0.7,0.8c0.3,0.4,1.5,0.6,1.7,0.2c0.5-0.9,1.1-0.8,1.8-0.3c0,0,0.1,0.1,0.1,0c0.2-0.1,0.4-0.1,0.5-0.2
			c0,0-0.1-0.3-0.2-0.3c-0.4-0.2-0.8-0.3-1.2-0.4c-0.2-0.1-0.4-0.2-0.6-0.3c0.3-0.1,0.5-0.3,0.8-0.3c1.1,0.2,2.2-0.1,3.2,0.5
			C55.6,56.1,55.8,56.2,55.9,56.2z M57.2,63.9c-0.1-0.1-0.3-0.3-0.4-0.4c-0.1,0.1-0.2,0.3-0.2,0.4c0,0.1,0.1,0.3,0.2,0.4
			C57,64.2,57.1,64,57.2,63.9z M57.4,59.8c-0.3-0.2-0.7-0.4-1-0.5c0,0-0.2,0.1-0.2,0.2c0.3,0.2,0.6,0.5,1,0.8
			C57.3,60,57.4,59.8,57.4,59.8z M58.3,57.8c0.1,0,0.4-0.1,0.6-0.2c0.4-0.4,0.9-0.6,1.5-0.3c0.1,0,0.2-0.1,0.3-0.1
			c-0.1-0.1-0.2-0.2-0.2-0.2c-0.4,0-0.9,0-1.2-0.1c-0.5,0-0.9,0-1.3,0.1c-0.2,0-0.3,0.2-0.5,0.4C57.8,57.6,58,57.8,58.3,57.8z
			 M60,64.7c0-0.2,0-0.2,0-0.3c-0.4-0.2-0.6-0.7-1-1c0,0-0.2,0.1-0.3,0.2c-0.1,0.1-0.1,0.3-0.1,0.3c0.3,0.3,0.6,0.6,0.9,0.9
			C59.7,64.9,59.9,64.8,60,64.7z M62.6,59.7c-0.2-0.1-0.5-0.1-0.7-0.2c-0.4-0.1-0.8-0.2-1.2-0.3c-0.1,0-0.2,0-0.3,0
			c0,0.1-0.1,0.1-0.1,0.2c0.2,0.1,0.3,0.1,0.5,0.2c0.2,0.1,0.6,0.1,0.7,0.2c0.1,0.3,0.2,0.5,0.6,0.2C62.2,60,62.4,59.8,62.6,59.7z
			 M64.2,59.9c-0.5,0.5-0.4,1.3-0.7,1.8c-0.1,0.2,0,0.4,0,0.8c0,0.1,0,0.3,0.1,0.6c0,0.1,0.2,0.1,0.4,0.1c0,0,0.1-0.2,0.1-0.2
			c-0.7-0.5,0.2-0.9,0-1.5C64,61,64.5,60.5,64.2,59.9z M64.8,57.7c-0.1-0.1-0.2-0.2-0.3-0.3c-0.1,0.1-0.2,0.2-0.2,0.3
			c0,0.1,0.2,0.2,0.3,0.5C64.7,57.9,64.8,57.7,64.8,57.7z M64.9,56.6c-0.1-0.1-0.3-0.2-0.4-0.2c-0.2,0-0.4-0.1-0.5-0.1c0,0,0,0,0,0
			c0,0,0,0,0,0c-0.3-0.4-0.8-0.1-1.2-0.1c0,0-0.1,0.1-0.1,0.1c0.4,0,0.8,0,1.2,0c0.1,0,0.1,0,0.2,0c0,0,0,0,0,0c0,0,0,0,0,0
			c0.1,0.1,0.2,0.3,0.4,0.3C64.5,56.8,64.7,56.7,64.9,56.6z M66,43.1c0.5-0.1,1-0.3,1.6-0.4c-0.2-0.2-0.3-0.4-0.4-0.4
			c-0.5,0-1,0-1.3,0.4C65.9,42.8,65.9,43,66,43.1z M65.3,51.6c0.2-0.3,0.5-0.6,0.7-0.9c-0.1-0.1-0.2-0.1-0.5-0.2
			c-0.1,0.2-0.3,0.5-0.3,0.7C65.1,51.2,65.2,51.4,65.3,51.6z M65.3,51.7c0.2,0,0.3,0.1,0.5,0.1c0.2,0.1,0.3,0.3,0.5,0.3
			c0.4,0.1,0.8,0.1,1.2,0.1c0-0.5-0.5-0.4-0.9-0.5c-0.2-0.1-0.5-0.1-0.7-0.2C65.6,51.5,65.4,51.6,65.3,51.7z M66.6,56.5
			c-0.2-0.1-0.4-0.2-0.6-0.3c-0.3,0.1-0.5,0.2-0.7,0.3c0.2,0.1,0.4,0.2,0.6,0.2C66.1,56.7,66.4,56.6,66.6,56.5z M68,37.9
			c-0.1,0.4-0.2,0.6-0.1,0.8c0.1,0.2,0.4,0.2,0.7,0.3c0-0.2,0.1-0.5,0.1-0.7C68.6,38.2,68.3,38.1,68,37.9z"/>
	</defs>
	<clipPath id="SVGID_00000016070414768150610470000008901199478406071743_">
		<use xlink:href="#SVGID_1_"  style="overflow:visible;"/>
	</clipPath>
	
		<path style="clip-path:url(#SVGID_00000016070414768150610470000008901199478406071743_);fill:none;stroke:#3F3F3F;stroke-width:2;stroke-miterlimit:10;" d="
		M37.8,1C17.5,1,1,17.5,1,37.8c0,15.6,9.8,29,23.6,34.3c0.4,0.2,0.8,0.3,1.1,0.4c1.7,0.6,3.5,1.1,5.3,1.4c0.4,0.1,0.8,0.1,1.1,0.2
		c1.8,0.3,3.7,0.4,5.6,0.4c10.3,0,19.7-4.3,26.3-11.1c0.4-0.4,0.7-0.8,1.1-1.1c1.1-1.2,2.2-2.6,3.1-4c0.5-0.8,1.1-1.6,1.5-2.5
		c3-5.3,4.7-11.5,4.7-18C74.5,17.5,58.1,1,37.8,1z"/>
	<path style="clip-path:url(#SVGID_00000016070414768150610470000008901199478406071743_);fill:#3F3F3F;" d="M39,69.7L39,69.7
		c-0.6,0-1,0.5-1,1v0c0,0.6,0.5,1,1.1,1c0,0,0,0,0,0c0.6,0,1-0.5,1-1v0C40,70.2,39.5,69.7,39,69.7z M34.7,69.6L34.7,69.6
		c-0.6,0-1.1,0.4-1.1,0.9v0.1c0,0.5,0.4,1,0.9,1c0,0,0,0,0,0c0,0,0.1,0,0.1,0c0.5,0,1-0.4,1-0.9c0,0,0-0.1,0-0.1
		C35.6,70.1,35.2,69.6,34.7,69.6z M44.4,70.1c-0.1-0.5-0.5-0.9-1-0.9c-0.1,0-0.1,0-0.2,0c-0.6,0.1-0.9,0.6-0.8,1.2
		c0.1,0.5,0.5,0.9,1,0.9c0.1,0,0.1,0,0.2,0c0.5-0.1,0.9-0.5,0.9-1C44.4,70.2,44.4,70.2,44.4,70.1z M30.8,69
		c-0.1-0.1-0.2-0.1-0.3-0.1c-0.1,0-0.2,0-0.2,0c-0.5,0-0.9,0.3-1,0.8c-0.1,0.6,0.2,1.1,0.8,1.2c0.1,0,0.2,0,0.2,0
		c0.2,0,0.4-0.1,0.6-0.2c0.2-0.1,0.4-0.4,0.4-0.6c0-0.1,0-0.2,0-0.2C31.3,69.5,31.1,69.2,30.8,69z M48.6,69
		c-0.2-0.5-0.8-0.8-1.3-0.7c-0.5,0.2-0.8,0.7-0.7,1.3c0.1,0.4,0.6,0.7,1,0.7c0.1,0,0.2,0,0.3,0c0.4-0.1,0.7-0.6,0.7-1
		C48.7,69.2,48.7,69.1,48.6,69z M26.4,67.7c-0.1,0-0.2-0.1-0.4-0.1c-0.3,0-0.6,0.1-0.8,0.3c-0.1,0.1-0.2,0.2-0.2,0.3
		c-0.2,0.5,0.1,1.1,0.6,1.3c0.1,0,0.2,0.1,0.4,0.1c0.2,0,0.3,0,0.5-0.1c0.2-0.1,0.4-0.3,0.5-0.5c0.1-0.1,0.1-0.2,0.1-0.4
		C27,68.2,26.8,67.8,26.4,67.7z M52.7,67.2c-0.2-0.5-0.8-0.7-1.4-0.5c-0.5,0.2-0.7,0.9-0.5,1.4c0.2,0.4,0.5,0.6,0.9,0.6
		c0.1,0,0.3,0,0.4-0.1c0.4-0.2,0.6-0.6,0.6-0.9C52.8,67.5,52.8,67.4,52.7,67.2z M22.5,65.9c-0.2-0.1-0.3-0.1-0.5-0.1
		c-0.4,0-0.7,0.2-0.9,0.5c-0.3,0.5-0.1,1.1,0.4,1.4c0.2,0.1,0.3,0.1,0.5,0.1c0.4,0,0.7-0.2,0.9-0.5C23.2,66.8,23,66.1,22.5,65.9z
		 M56.5,65c-0.3-0.5-0.9-0.6-1.4-0.3v0c-0.5,0.3-0.6,1-0.3,1.4c0.2,0.3,0.5,0.5,0.9,0.5c0.2,0,0.4-0.1,0.6-0.2
		c0.3-0.2,0.5-0.5,0.5-0.9C56.6,65.4,56.6,65.2,56.5,65z M18.9,63.6L18.9,63.6c-0.2-0.1-0.4-0.2-0.6-0.2c-0.3,0-0.6,0.2-0.8,0.4
		c-0.1,0.2-0.2,0.4-0.2,0.6c0,0.3,0.1,0.6,0.4,0.8c0,0,0,0,0,0c0.2,0.1,0.4,0.2,0.6,0.2c0.3,0,0.6-0.1,0.8-0.4
		C19.5,64.6,19.3,63.9,18.9,63.6z M59.9,62.2c-0.2-0.2-0.5-0.4-0.8-0.4c-0.2,0-0.5,0.1-0.7,0.2c-0.3,0.3-0.4,0.7-0.3,1.1
		c0,0.1,0.1,0.2,0.2,0.3c0.2,0.2,0.5,0.4,0.8,0.4c0.2,0,0.5-0.1,0.7-0.2c0.1-0.1,0.2-0.3,0.3-0.4c0-0.1,0.1-0.2,0.1-0.4
		C60.2,62.7,60.1,62.4,59.9,62.2z M15.6,60.8c-0.2-0.2-0.5-0.3-0.7-0.3c-0.3,0-0.5,0.1-0.7,0.3c-0.4,0.4-0.4,1.1,0,1.5
		c0.2,0.2,0.5,0.3,0.7,0.3c0.3,0,0.5-0.1,0.7-0.3c0.2-0.2,0.3-0.5,0.3-0.7C15.9,61.3,15.8,61,15.6,60.8z M63,59.1
		C63,59.1,63,59.1,63,59.1c-0.2-0.2-0.5-0.3-0.7-0.3c-0.1,0-0.1,0-0.2,0c-0.2,0-0.4,0.1-0.6,0.3c-0.4,0.4-0.4,1.1,0.1,1.5
		c0.2,0.2,0.4,0.3,0.7,0.3c0.3,0,0.6-0.1,0.8-0.3c0.2-0.2,0.3-0.4,0.3-0.7C63.3,59.6,63.2,59.3,63,59.1z M12.8,57.7
		c-0.2-0.3-0.5-0.4-0.8-0.4c-0.2,0-0.5,0.1-0.6,0.2c-0.4,0.4-0.5,1-0.2,1.5c0.2,0.2,0.5,0.4,0.8,0.4c0.2,0,0.5-0.1,0.6-0.2
		c0.3-0.2,0.4-0.5,0.4-0.8C13,58.1,12.9,57.9,12.8,57.7z M65.6,55.5c-0.2-0.1-0.4-0.2-0.6-0.2c-0.3,0-0.7,0.2-0.9,0.4
		C64,56,64,56.3,64,56.5c0,0.3,0.2,0.5,0.4,0.7c0.2,0.1,0.4,0.2,0.6,0.2c0.3,0,0.7-0.2,0.9-0.4c0.1-0.1,0.1-0.3,0.2-0.4
		c0-0.1,0-0.1,0-0.2C66.1,56.1,65.9,55.7,65.6,55.5z M10.3,54.2c-0.2-0.3-0.5-0.5-0.9-0.5c-0.2,0-0.4,0-0.5,0.1
		c-0.5,0.3-0.6,0.9-0.4,1.4c0.2,0.3,0.5,0.5,0.9,0.5c0.2,0,0.4,0,0.5-0.1c0.3-0.2,0.5-0.5,0.5-0.9C10.5,54.5,10.4,54.3,10.3,54.2z
		 M67.7,51.7c-0.1-0.1-0.3-0.1-0.5-0.1c-0.4,0-0.7,0.2-0.9,0.6c-0.3,0.5-0.1,1.1,0.5,1.4c0.1,0.1,0.3,0.1,0.5,0.1
		c0.4,0,0.7-0.2,0.9-0.6c0.1-0.1,0.1-0.3,0.1-0.5C68.3,52.2,68.1,51.9,67.7,51.7z M8.4,50.4c-0.2-0.4-0.6-0.6-0.9-0.6
		c-0.1,0-0.3,0-0.4,0.1c-0.5,0.2-0.8,0.8-0.6,1.4c0.2,0.4,0.6,0.6,1,0.6c0.1,0,0.3,0,0.4-0.1c0.4-0.2,0.6-0.6,0.6-1
		C8.5,50.6,8.4,50.5,8.4,50.4z M69.3,47.6c-0.1,0-0.2-0.1-0.3-0.1c-0.4,0-0.8,0.3-1,0.7c-0.2,0.5,0.1,1.1,0.6,1.3
		c0.1,0,0.2,0.1,0.3,0.1c0.4,0,0.8-0.3,1-0.7c0-0.1,0.1-0.2,0.1-0.3C70,48.1,69.8,47.7,69.3,47.6z M7,46.3c-0.1-0.5-0.6-0.7-1-0.7
		c-0.1,0-0.2,0-0.3,0c-0.6,0.2-0.9,0.7-0.7,1.3c0.1,0.5,0.6,0.8,1,0.8c0.1,0,0.2,0,0.3,0c0.5-0.1,0.7-0.5,0.7-1
		C7,46.5,7,46.4,7,46.3z M70.3,43.3c-0.1,0-0.1,0-0.2,0c-0.5,0-0.9,0.3-1,0.8c-0.1,0.6,0.2,1.1,0.8,1.2c0.1,0,0.1,0,0.2,0
		c0.5,0,0.9-0.3,1-0.8c0-0.1,0-0.1,0-0.2C71.2,43.8,70.8,43.4,70.3,43.3z M6.1,42.2c-0.1-0.5-0.5-0.9-1-0.9c0,0-0.1,0-0.1,0
		c-0.6,0.1-1,0.6-0.9,1.2c0.1,0.5,0.5,0.9,1,0.9c0.1,0,0.1,0,0.1,0c0.5-0.1,0.9-0.5,0.9-1C6.1,42.3,6.1,42.2,6.1,42.2z M70.8,38.9
		L70.8,38.9c-0.6,0-1.1,0.4-1.1,1c0,0.6,0.4,1.1,1,1.1h0.1c0.5,0,1-0.4,1-1v-0.1C71.7,39.4,71.3,38.9,70.8,38.9z M4.8,36.7
		c-0.6,0-1,0.5-1,1v0.1c0,0.6,0.5,1,1,1c0.6,0,1-0.5,1-1v-0.1C5.8,37.2,5.3,36.7,4.8,36.7z M70.7,34.5L70.7,34.5
		c-0.6,0-1.1,0.5-1,1.1c0,0.6,0.5,1,1,1h0.1c0.6,0,1-0.5,1-1v-0.1C71.7,34.9,71.2,34.5,70.7,34.5z M5.2,32.3c0,0-0.1,0-0.1,0
		c-0.5,0-1,0.4-1,0.9c-0.1,0.6,0.3,1.1,0.9,1.2c0,0,0.1,0,0.1,0c0.5,0,0.9-0.4,1-0.9c0,0,0-0.1,0-0.1C6.1,32.9,5.7,32.4,5.2,32.3z
		 M71.1,30.9c-0.1-0.5-0.5-0.8-1-0.8c-0.1,0-0.1,0-0.2,0c-0.6,0.1-0.9,0.7-0.8,1.2c0.1,0.5,0.5,0.8,1,0.8c0.1,0,0.1,0,0.2,0
		c0.5-0.1,0.8-0.5,0.8-1C71.2,31.1,71.1,31,71.1,30.9z M6.2,28.1c-0.1,0-0.2,0-0.3,0c-0.5,0-0.9,0.3-1,0.8c-0.2,0.6,0.2,1.1,0.7,1.3
		c0.1,0,0.2,0,0.3,0c0.4,0,0.9-0.3,1-0.8c0-0.1,0-0.2,0-0.3C7,28.6,6.7,28.2,6.2,28.1z M69.9,26.5c-0.1-0.4-0.6-0.7-1-0.7
		c-0.1,0-0.2,0-0.3,0.1c-0.5,0.2-0.8,0.8-0.6,1.3c0.1,0.4,0.5,0.7,1,0.7c0.1,0,0.2,0,0.3-0.1c0.4-0.1,0.7-0.5,0.7-1
		C70,26.8,70,26.7,69.9,26.5z M7.8,23.9c-0.1-0.1-0.3-0.1-0.4-0.1c-0.4,0-0.8,0.2-0.9,0.6c-0.2,0.5,0,1.1,0.6,1.4
		c0.1,0.1,0.3,0.1,0.4,0.1c0.4,0,0.8-0.2,1-0.6c0.1-0.1,0.1-0.3,0.1-0.4C8.4,24.5,8.2,24.1,7.8,23.9z M68.1,22.4
		c-0.2-0.4-0.5-0.6-0.9-0.6c-0.2,0-0.3,0-0.5,0.1c-0.5,0.3-0.7,0.9-0.4,1.4c0.2,0.4,0.5,0.6,0.9,0.6c0.2,0,0.3,0,0.5-0.1
		c0.4-0.2,0.6-0.5,0.6-0.9C68.2,22.7,68.2,22.5,68.1,22.4z M9.9,20.1c-0.2-0.1-0.4-0.1-0.5-0.1c-0.4,0-0.7,0.2-0.9,0.5c0,0,0,0,0,0
		c-0.3,0.5-0.1,1.1,0.4,1.4C9,21.9,9.2,22,9.4,22c0.4,0,0.7-0.2,0.9-0.5c0.1-0.2,0.1-0.3,0.1-0.5C10.4,20.6,10.2,20.3,9.9,20.1z
		 M65.8,18.5C65.6,18.2,65.3,18,65,18c-0.2,0-0.4,0.1-0.6,0.2c-0.5,0.3-0.6,1-0.3,1.4c0.2,0.3,0.5,0.4,0.8,0.4
		c0.2,0,0.4-0.1,0.6-0.2c0.3-0.2,0.4-0.5,0.4-0.8C66,18.8,65.9,18.6,65.8,18.5z M12.5,16.5c-0.2-0.1-0.4-0.2-0.6-0.2
		c-0.3,0-0.6,0.1-0.8,0.4c-0.4,0.4-0.3,1.1,0.2,1.4c0.2,0.1,0.4,0.2,0.6,0.2c0.3,0,0.6-0.1,0.8-0.4c0.1-0.2,0.2-0.4,0.2-0.6
		C12.9,17,12.8,16.7,12.5,16.5z M63,14.9c-0.2-0.2-0.5-0.3-0.8-0.3c-0.2,0-0.5,0.1-0.7,0.3c-0.4,0.4-0.5,1-0.1,1.5
		c0.2,0.2,0.5,0.3,0.8,0.3c0.2,0,0.5-0.1,0.7-0.3c0.2-0.2,0.3-0.5,0.3-0.8C63.3,15.3,63.2,15.1,63,14.9z M15.6,13.3
		c-0.2-0.2-0.5-0.3-0.7-0.3c-0.3,0-0.5,0.1-0.7,0.3c-0.4,0.4-0.4,1.1,0,1.5c0.2,0.2,0.5,0.3,0.8,0.3c0.3,0,0.5-0.1,0.7-0.3
		c0.2-0.2,0.3-0.5,0.3-0.7C15.9,13.8,15.8,13.5,15.6,13.3z M59.7,11.7c-0.2-0.2-0.4-0.2-0.7-0.2c-0.3,0-0.6,0.1-0.8,0.4
		c-0.4,0.4-0.3,1.1,0.1,1.5c0.2,0.2,0.4,0.2,0.7,0.2c0.3,0,0.6-0.1,0.8-0.4c0.2-0.2,0.2-0.4,0.2-0.7C60.1,12.2,60,11.9,59.7,11.7z
		 M19,10.6c-0.2-0.3-0.5-0.4-0.8-0.4c-0.2,0-0.4,0.1-0.6,0.2c-0.5,0.3-0.6,1-0.2,1.4c0.2,0.3,0.5,0.4,0.8,0.4c0.2,0,0.4-0.1,0.6-0.2
		c0.3-0.2,0.4-0.5,0.4-0.8C19.2,11,19.2,10.8,19,10.6z M56.1,9.1c-0.2-0.1-0.4-0.2-0.6-0.2c-0.3,0-0.7,0.2-0.9,0.5
		c-0.3,0.5-0.2,1.1,0.3,1.4c0.2,0.1,0.4,0.2,0.6,0.2c0.3,0,0.7-0.2,0.9-0.5c0.1-0.2,0.2-0.4,0.2-0.6C56.5,9.6,56.4,9.3,56.1,9.1z
		 M22.8,8.3c-0.2-0.3-0.5-0.5-0.9-0.5c-0.2,0-0.3,0-0.5,0.1c-0.5,0.3-0.7,0.9-0.4,1.4c0.2,0.3,0.5,0.5,0.9,0.5c0.2,0,0.3,0,0.5-0.1
		c0.3-0.2,0.5-0.5,0.5-0.9C22.9,8.7,22.9,8.5,22.8,8.3z M52.1,6.9c-0.1-0.1-0.3-0.1-0.4-0.1c-0.4,0-0.7,0.2-0.9,0.6
		c-0.2,0.5,0,1.1,0.5,1.4c0.1,0.1,0.3,0.1,0.4,0.1c0.4,0,0.8-0.2,0.9-0.6c0.1-0.1,0.1-0.3,0.1-0.4C52.7,7.4,52.4,7,52.1,6.9z
		 M26.8,6.6c-0.2-0.4-0.5-0.7-1-0.7c-0.1,0-0.2,0-0.4,0.1c-0.5,0.2-0.8,0.8-0.6,1.3c0.2,0.4,0.6,0.7,1,0.7c0.1,0,0.2,0,0.4-0.1
		c0.4-0.2,0.7-0.5,0.7-1C26.9,6.8,26.9,6.7,26.8,6.6z M47.8,5.2c-0.1,0-0.2,0-0.3,0c-0.4,0-0.8,0.3-1,0.7c-0.2,0.5,0.1,1.1,0.7,1.3
		c0.1,0,0.2,0,0.3,0c0.4,0,0.9-0.3,1-0.7c0-0.1,0-0.2,0-0.3C48.5,5.8,48.3,5.4,47.8,5.2z M31.1,5.4c-0.1-0.5-0.6-0.8-1-0.8
		c-0.1,0-0.2,0-0.2,0c-0.6,0.1-0.9,0.7-0.8,1.2c0.1,0.5,0.5,0.8,1,0.8c0.1,0,0.2,0,0.2,0c0.5-0.1,0.8-0.5,0.8-1
		C31.1,5.6,31.1,5.5,31.1,5.4z M43.4,4.2c-0.1,0-0.1,0-0.2,0c-0.5,0-0.9,0.4-1,0.9c-0.1,0.6,0.3,1.1,0.9,1.2c0.1,0,0.1,0,0.2,0
		c0.5,0,0.9-0.4,1-0.9c0-0.1,0-0.1,0-0.2C44.3,4.7,43.9,4.3,43.4,4.2z M35.5,4.8c-0.1-0.5-0.5-0.9-1-0.9c0,0-0.1,0-0.1,0
		c-0.6,0.1-1,0.6-0.9,1.1c0.1,0.5,0.5,0.9,1,0.9c0,0,0.1,0,0.1,0c0.5-0.1,0.9-0.5,0.9-1C35.5,4.9,35.5,4.9,35.5,4.8z M38.9,3.7
		L38.9,3.7c-0.6,0-1.1,0.4-1.1,1c0,0.6,0.4,1.1,1,1.1h0c0.6,0,1-0.4,1-1v0C39.9,4.2,39.4,3.8,38.9,3.7z"/>
	
		<path style="clip-path:url(#SVGID_00000016070414768150610470000008901199478406071743_);fill:none;stroke:#3F3F3F;stroke-miterlimit:10;" d="
		M37.8,8C21.3,8,8,21.3,8,37.8c0,11.6,6.7,21.7,16.4,26.6c0.5,0.2,0.9,0.5,1.4,0.7c1.6,0.7,3.4,1.3,5.2,1.7c0.4,0.1,0.8,0.2,1.2,0.2
		c1.8,0.4,3.7,0.6,5.7,0.6c5.2,0,10-1.3,14.2-3.6c0.7-0.4,1.3-0.7,1.9-1.2c2.3-1.5,4.5-3.3,6.3-5.4c0.3-0.4,0.7-0.8,1-1.2
		c4-5.1,6.4-11.5,6.4-18.4C67.6,21.3,54.2,8,37.8,8z M56.9,58.6c0.6-0.2,1.1-0.7,1.3-1.3C57.8,57.8,57.4,58.2,56.9,58.6z"/>
</g>
<g>
	<defs>
		<path id="SVGID_00000102505510731014520180000002785020733880902023_" d="M96.9,20.1c0.2,0,0.3,0,0.5-0.1c0.1,0.1,0.2,0.2,0.2,0.3
			c-0.1,0.1-0.3,0.3-0.5,0.4c-0.2-0.1-0.4-0.2-0.5-0.3C96.5,20.3,96.7,20.2,96.9,20.1z M88.8,23.8c0.5-0.2,1.1-0.5,1.6-0.7
			c-0.5-0.4-0.5-0.8,0.3-1.1c0.5-0.2,0.7-0.4,0.7-0.7c-1.3,0.4-2.5,1-3.6,1.5C87.5,23.3,87.8,23.5,88.8,23.8z M99.2,29.2
			c-0.1-0.1-0.1-0.1-0.2-0.2c-0.4,0-0.7,0.1-1,0.1c0,0,0.1,0.1,0.1,0.1c0,0,0.1,0.1,0.1,0.1c0.1,0,0.2,0,0.4,0
			C98.7,29.3,98.9,29.2,99.2,29.2z M94.9,30.1c-0.4-0.1-0.6-0.3-0.8-0.3c-0.2,0-0.4,0.1-0.5,0.2c0.2,0.1,0.5,0.3,0.8,0.4
			c0,0,0.1,0,0.1,0C94.5,30.4,94.7,30.3,94.9,30.1z M114.8,42c0.2,0.1,0.3,0.2,0.5,0.2c0,0,0-0.1,0-0.1C115.2,42,114.9,42,114.8,42z
			 M126.1,45.8c-0.1,0.1-0.1,0.2-0.2,0.3c0.2,0,0.5,0.1,0.7,0.1c0,0,0,0,0,0C126.5,46.1,126.3,46,126.1,45.8z M99.9,28.9
			c0.2,0.3,0,0.6,0,0.9c0,0-0.5,0.1-0.6,0.1c-0.4-0.2-0.9-0.4-1.2-0.6c-0.4,0-0.7,0-1-0.1c-1,0.1-2,0.3-2.8,0.5
			c0.1,0.1,0.2,0.1,0.3,0.2c0.4,0.2,0.5,0.5-0.2,0.6c0,0-0.1,0-0.1,0c0,0-0.1,0-0.1,0l0,0c-0.5,0.1-0.5,0.2,0.1,0.4
			c0.1,0,0.2,0,0.3,0.1c0.4-0.1,0.8-0.2,1.2-0.2c0,0,0,0-0.1,0c0.1-0.1,0.3-0.2,0.4-0.3c0.2,0,0.4,0,0.9,0.1c1.4-0.2,3-0.3,4.8-0.3
			c4.3,0,7.3,0.6,9.8,1.4c0-0.4-0.2-0.8-0.6-0.9c0.7,0,1.4,0,2.1,0.1c-2.8-1.1-6.2-1.9-11.3-1.9C101.2,28.9,100.6,28.9,99.9,28.9z
			 M125,45.7c-0.5-0.5-1-1-1.7-1.4c-0.6-0.3-1.5,0-1.2,0.4c0.1,0.1,0.1,0.3,0.2,0.5c0.9,0.3,1.9,0.5,2.9,0.8
			C125.1,45.9,125.1,45.8,125,45.7z M83,25.7c0,0,0.3-0.2,0.5-0.4c0.3,0.2,0.6,0.3,0.9,0.5c0.5-0.2,1.1-0.5,1.6-0.7
			c0.1-0.3,0.1-0.7,0.2-1.1C86,24,85.7,24,85.5,24c-3.4,1.6-6.9,3-13.3,3.1c0.1,0.2,0.2,0.3,0.4,0.5c0.2,0.2,0.4,0.5,0.7,0.8
			c4.6-0.2,7.7-1,10.4-2.1C83.4,26.1,83.2,25.9,83,25.7z M120.2,34c-0.5,0.8,0.5,1.3,1.3,1.9c0.5,0.1,1,0.1,1.3,0.2c0,0,0.1,0,0.1,0
			c-0.1,0-0.1-0.1-0.2-0.1c-0.4-0.1-0.8-0.5-1-0.8c-0.2-0.2-0.1-0.4,0-0.6C121.3,34.4,120.7,34.2,120.2,34z M121.7,35.9
			c0,0-0.1-0.1-0.2-0.1c-0.1,0-0.1,0-0.2,0C121.5,35.8,121.6,35.9,121.7,35.9z M123.6,36.5C123.6,36.5,123.6,36.5,123.6,36.5
			c0.2-0.2-0.3-0.3-0.6-0.4C123.3,36.2,123.5,36.3,123.6,36.5z M111.8,21.7c0,0-0.1,0.3-0.2,0.5c0,0-0.5,0-0.5,0
			c-0.2-0.3-0.3-0.5-0.4-0.8c0-0.1,0.1-0.3,0.2-0.4c0,0,0,0,0,0c-0.8-0.2-1.6-0.4-2.5-0.6c-0.2,0.3-0.2,0.7-0.3,1.1
			c0,0.1-0.1,0.1-0.1,0.2c3.6,0.6,6.1,1.8,8.7,3.1c3.8,1.8,7.7,3.7,15.4,3.7c0.4,0,0.7-0.3,0.7-0.6c0-0.4-0.3-0.7-0.7-0.7
			c-7.4,0-11-1.7-14.8-3.6c-1.7-0.8-3.4-1.7-5.5-2.3C111.8,21.3,111.8,21.4,111.8,21.7z M114.4,41.8c0-0.1,0.1-0.2,0.4-0.4
			c-0.6-0.5-1.3-1-1.6-1.5c0,0,0,0,0,0c-1.2-0.4-2.5-0.9-4-1.2c0,0.5-0.9,0.7-1.4,0.8c-0.2,0-0.5,0.1-0.7,0.2c1.7,0.2,3.2,0.6,4.5,1
			c0.2,0.1,0.4,0.1,0.7,0.2C113,41.2,113.7,41.5,114.4,41.8z M48.4,38.8C48.4,38.7,48.4,38.7,48.4,38.8c-2-0.5-4.2-0.7-7-0.7
			c-0.4,0-0.6,0.3-0.6,0.6c0,0.4,0.3,0.6,0.6,0.6c2.9,0,5.2,0.3,7.1,0.7C48.5,39.6,48.5,39.2,48.4,38.8z M75.8,46.1
			c-0.7-0.5-0.2-0.7,0.3-0.9c0.6-0.2,1.4-0.1,2-0.3c0.1,0,0.2-0.1,0.3-0.1c-1.9,0.4-4.1,0.6-6.8,0.6c-7.4,0-11-1.7-14.8-3.6
			c-2.1-1-4.3-2.1-7.1-2.8c0,0.1,0,0.3,0,0.4c0.1,0,0.1,0,0.2,0c-0.1,0.3-0.1,0.6-0.2,0.9c1.2,0.3,2.4,0.7,3.4,1.2c0.3,0,0.7,0,1,0
			c0.3,0.1,1.4-0.1,0.5,0.6c0,0,0,0.1,0,0.1c0.4,0.2,1.3,0.6,1.3,0.6c0.3-0.2,0.9-0.1,1.7-0.2c0.1,0.3,0.4,0.7,0.2,0.9
			c0,0.1-0.1,0.1-0.2,0.2c1.4,0.7,3,1.3,4.8,1.9c0-0.2,0.1-0.3,0.6-0.3c0.3,0,0.6,0.1,1,0.2c-0.1,0.1-0.3,0.3-0.5,0.4
			c2.2,0.5,4.8,0.9,8.1,0.9c1.6,0,3.1-0.1,4.4-0.2C76,46.3,75.9,46.2,75.8,46.1z M116.4,41.7c-0.2,0-0.6-0.1-0.7-0.1
			c-0.2,0.1-0.2,0.3-0.3,0.4c0.2,0,0.4,0,0.5,0C116,42,116.2,41.8,116.4,41.7z M87.1,42.9c1.7-0.8,3.4-1.6,5.4-2.3
			c0.2-0.1,0.5-0.2,0.7-0.2c1.1-0.3,2.3-0.6,3.7-0.8c-0.3-0.1-0.6-0.2,0.1-0.4c0.3-0.1,1.5-0.1,0.5-0.7c-0.1,0,0-0.1,0-0.3
			c-0.2,0-0.4,0-0.6,0.1c0.1,0.1,0.2,0.2,0.3,0.3c0,0-0.1,0.1-0.1,0.2c-0.3-0.2-0.5-0.3-0.8-0.5c-1.3,0.2-2.4,0.4-3.5,0.7
			c-1.8,0.5-3.3,1.1-4.8,1.8c0,0.1-0.1,0.2-0.2,0.3c-0.2,0.2-0.5,0.5-1.1,0.3c-0.1,0-0.2,0.1-0.3,0.1c-2.3,1.1-4.5,2.2-7.5,2.9
			c0.1,0,0.1,0.2,0.2,0.4c0,0.3-0.1,0.6,0,0.8c0.5-0.1,0.9-0.2,1.3-0.3c-0.1,0-0.3-0.1-0.4-0.2c0-0.1,0.1-0.2,0.2-0.3
			c0.2,0.1,0.4,0.2,0.4,0.2c0,0.1-0.1,0.1-0.2,0.2c1.5-0.4,2.9-0.9,4.1-1.5c0,0,0.1-0.1,0.1-0.1c0,0,0,0,0.1,0
			c0.7-0.3,1.3-0.6,1.9-0.9C86.9,43,87,43,87.1,42.9z M72.3,28.4c-0.3-0.4-0.6-0.9-0.9-1.3c-0.7,0-1.3,0-1.9-0.1
			c0.1,0.1,0.3,0.2,0.4,0.2c-0.1,0.1-0.3,0.2-0.4,0.2c-0.4-0.1-0.9-0.2-1.3-0.4c0.1-0.1,0.1-0.1,0.1-0.2c-0.8-0.1-1.5-0.1-2.2-0.3
			c0.2,0.1,0.3,0.2,0.5,0.3c0.1,0.1,0.1,0.1,0.2,0.2c0.5-0.1,0.8-0.1,0.9-0.1c0.5,0.1,1,0.8,1.1,1.2c0.9,0.1,1.8,0.1,2.9,0.1
			C71.9,28.4,72.1,28.4,72.3,28.4z M41.4,30.2c1.4,0,2.7,0.1,3.9,0.2c-0.3-0.2-0.5-0.3-0.8-0.5c0,0,0.1-0.1,0.2-0.2
			c0.3,0.2,0.6,0.5,0.9,0.7c0,0,0,0,0,0.1c4.1,0.5,6.8,1.6,9.4,2.8c0,0,0.1,0,0.1,0l0,0c0.3,0.2,0.7,0.3,1,0.5
			c0.8,0.4,1.6,0.8,2.4,1.1c0.4-0.2,0.8-0.3,1.1-0.5c0.3,0.3,0.8,0.6,1,0.9c0,0.1-0.1,0.2-0.2,0.3c0.4,0.2,0.9,0.3,1.4,0.5
			c0,0,0.1-0.1,0.1-0.1c0.1,0.1,0.2,0.2,0.3,0.3c1.3,0.4,2.8,0.7,4.5,0.9c1.4,0.2,3,0.3,4.8,0.3c6.7,0,10.5-1.4,13.9-3
			c-0.3-0.1-0.5-0.2-0.6-0.4c-0.2-0.2,0-0.5,0.1-0.8c-1.9,0.9-3.8,1.7-6.3,2.2c0,0,0.1,0.1,0.1,0.1c-0.2,0.2-0.3,0.3-0.4,0.4
			c-0.1-0.1-0.3-0.2-0.4-0.4c-1.8,0.3-3.9,0.6-6.4,0.6c-2.4,0-4.5-0.2-6.2-0.5c0,0,0,0,0,0c-0.1,0.1-0.3,0.2-0.5,0.3c0,0,0,0-0.1,0
			c0.4,0.1,0.8,0.3,1.1,0.4c0.1,0,0,0.2-0.1,0.3c0,0.1-0.2,0.1-0.3,0.1c-0.2-0.1-0.3-0.1-0.5-0.2c-0.3-0.2-0.6-0.4-0.9-0.7
			c0,0,0,0,0,0c-0.2-0.2-0.4-0.3-0.3-0.3c0,0,0,0,0,0c0.1-0.1,0.2-0.2,0.3-0.2c-0.5-0.1-0.9-0.2-1.3-0.3c0,0,0,0.1,0,0.1
			c0,0.5-0.7,0.4-1.3,0.3c-0.1,0.1-0.1,0.1-0.2,0.2c-0.2-0.1-0.4-0.1-0.5-0.2c0,0,0-0.1,0-0.1C61,35.3,61,35.3,61,35.2
			c0.2-0.2,0.4-0.3,0.7-0.5c-1.8-0.6-3.3-1.3-4.8-2.1c-1.9-0.9-3.8-1.8-6.1-2.5c-0.5,0.2-1,0.4-1.7,0.4c-1,0.1-1.5-0.2-1.6-0.9
			c0-0.1,0-0.2,0-0.2c-1.7-0.3-3.7-0.5-5.9-0.5c-0.4,0-0.6,0.3-0.6,0.6C40.8,29.9,41.1,30.2,41.4,30.2z M98.1,19.9
			c1.2-0.1,2.4-0.2,3.8-0.2c1,0,1.9,0,2.8,0.1c0.2,0.2,0.5,0.4,1,0.6c0.2,0.1,0.3,0.2,0.4,0.4c0.1,0.2,1.1,0.3,0.8,0.6
			c-1.4-0.2-3-0.3-4.9-0.3c-0.1-0.1-0.2-0.2-0.2-0.3c-0.1-0.1-0.1-0.1-0.1-0.2c-0.1-0.2-0.2-0.3-0.3-0.5c-0.2,0.2-0.4,0.4-0.6,0.6
			c-0.1,0.1-0.2,0.2-0.3,0.3c0.2,0.1,0.3,0.1,0.5,0.2c-1.2,0-2.4,0.1-3.4,0.2c0.1-0.3,0.2-0.5,0.5-0.8
			C98.3,20.3,98.3,20.1,98.1,19.9z M103.7,20.9c0.1,0.1,0.3,0.2,0.4,0.1c0.2-0.1,0.5-0.2,0.6-0.3c0.1-0.1-0.1-0.2-0.2-0.4
			C104.2,20.6,104,20.7,103.7,20.9z M86.4,34.1c0.1-0.1,0.6-0.3,0.7-0.3c1.2-0.6,2.4-1.2,3.7-1.7c-0.1,0-0.2,0-0.2-0.1
			c0.1-0.1,0.2-0.2,0.3-0.3c0.2-0.1,0.5-0.2,0.8-0.3c0.7-0.2,0.8-0.4,0.2-0.7c-0.1-0.1-0.2-0.2-0.3-0.3c-1.5,0.5-2.8,1.1-4.1,1.7
			c0.3,0.2,0.6,0.4,0.8,0.6c-0.2,0.3-0.3,0.4-0.4,0.5c-0.3-0.3-0.6-0.6-0.9-0.9c-0.1,0-0.2,0.1-0.3,0.1c-0.1,0-0.2,0.1-0.3,0.1
			c-0.4,0.2-0.7,0.4-1.1,0.5c0.1,0,0.1,0,0.1,0C85.8,33.5,86.1,33.8,86.4,34.1z M128.3,45.5c-0.2-0.2-0.8-0.1-1.2-0.2
			c0.1,0.2,0,0.5,0.2,0.7c0.2,0.2,0.5,0.3,0.8,0.4c0.4,0,0.7,0.1,1.1,0.1C129,46.2,128.8,45.8,128.3,45.5z M41.4,21.1
			c3.8,0,6.6,0.5,8.9,1.1c0,0,0.1,0,0.1-0.1c0.1,0.1,0.1,0.1,0.2,0.2c2.1,0.7,3.9,1.5,5.6,2.4c1.9,0.9,3.8,1.8,6.2,2.5
			c0.1,0,0.2-0.1,0.4-0.2c0.1,0.1,0.1,0.2,0.1,0.3c0.4,0.1,0.9,0.2,1.3,0.3c0.4-0.1,1.1-0.2,1.7-0.4c-0.5-0.1-0.9-0.3-1.3-0.5
			c-0.2-0.1-0.5-0.3-0.4-0.4c0,0,0.1-0.1,0.1-0.1c-0.8-0.2-1.6-0.4-2.3-0.6c0.1,0.2,0.1,0.3,0.1,0.6c0,0.1-0.2,0.3-0.4,0.3
			c-0.2,0-0.6,0-0.7-0.1c-0.5-0.4-0.7-0.8-0.2-1.2c-0.1,0-0.2-0.1-0.4-0.1c0,0-0.1,0-0.1,0c0,0-0.1,0-0.1-0.1
			c-1.2-0.5-2.4-1-3.5-1.6c0,0-0.1,0-0.1,0c-0.3-0.1-0.6-0.1-0.9-0.2c-0.3-0.1-1.8-0.2-0.7-0.6c-3.3-1.5-7.1-2.9-13.7-2.9
			c-0.4,0-0.6,0.3-0.6,0.6C40.8,20.8,41.1,21.1,41.4,21.1z M132.2,45.3c-1,0-2,0-2.9-0.1c0.3,0.4,1,0.7,1.1,1.1c0,0.1,0,0.2-0.1,0.2
			c0.6,0,1.2,0,1.8,0c0.4,0,0.7-0.3,0.7-0.6C132.8,45.6,132.5,45.3,132.2,45.3z M80.8,54.3c-0.5-0.3-0.5-0.5,0.3-0.6
			c0.4,0,0.8,0,1.1-0.1c0.3-0.1,0.4-0.3,0.7-0.5c0.1,0.1,0.2,0.1,0.2,0.2c0,0.2,0,0.3,0.1,0.5c0.4-0.2,0.9-0.3,1.3-0.5
			c-0.1-0.1-0.2-0.3-0.1-0.4c0-0.1,0.3-0.2,0.5-0.1c0.2,0,0.4,0.1,0.6,0.1c0.5-0.2,1.5-0.7,1.6-0.8c1.6-0.8,3.1-1.5,4.9-2.1
			c0.3-0.1,0.5-0.2,0.8-0.3c-0.5-0.4-1.2-0.5-2.1-0.5c-0.2,0-0.3,0-0.4,0c-1.2,0.5-2.3,1-3.4,1.5c-0.1,0-0.2,0.1-0.3,0.1
			c-2.2,1.1-4.4,2.1-7.3,2.8c0.1,0.3-0.2,0.4-0.6,0.7c-0.3,0.2-0.4,0.5-0.7,0.8c0-0.3,0-0.6,0-0.9c0-0.1,0-0.2,0-0.3
			c-1.8,0.3-3.9,0.5-6.4,0.5c-0.8,0-1.5,0-2.1-0.1c-0.3,0.1-0.8,0.1-1.2,0.2c-0.1,0-0.2-0.1-0.4-0.2c0.1,0,0.1-0.1,0.2-0.1
			c-5.2-0.5-8.2-1.9-11.3-3.4c-1.3-0.6-2.5-1.2-4-1.8c-0.1,0-0.3,0.1-0.4,0.1c-0.2,0-0.6-0.1-0.9-0.2c0.1-0.1,0.2-0.2,0.3-0.3
			c-2-0.7-4.2-1.2-7.1-1.4c0,0.1-0.5,0.3-0.8,0.3c-0.2,0-0.6-0.1-0.6-0.2c0-0.1,0-0.2,0-0.2c-0.6,0-1.3,0-1.9,0
			c-0.4,0-0.6,0.3-0.6,0.6c0,0.4,0.3,0.7,0.6,0.7c7.4,0,11,1.7,14.9,3.6c3.8,1.8,7.7,3.7,15.4,3.7c4,0,7-0.5,9.4-1.3
			C81,54.5,80.9,54.4,80.8,54.3z M132.6,36.3c-0.1,0-0.3,0-0.3-0.1c0,0-0.1,0-0.1-0.1c-2.8,0-5.1-0.3-7.1-0.7
			c0.3,0.3,0.6,0.5,0.6,0.8c0,0.2-0.1,0.4-0.3,0.6c1.9,0.4,4.1,0.6,6.8,0.6c0.4,0,0.7-0.3,0.7-0.7C132.8,36.6,132.7,36.5,132.6,36.3
			z M132.8,55.1c0,0.4-0.3,0.7-0.7,0.7c-3.1,0-5.6-0.3-7.8-0.8c0.3-0.3,0.6-0.6,1-0.9c-0.2,0-0.4-0.1-1-0.2
			c-0.2,0.3-0.4,0.6-0.5,0.9c0,0,0,0,0,0.1c-2.1-0.5-3.8-1.2-5.5-2c0.1,0,0.1-0.1,0.1-0.1c-0.3-0.2-0.6-0.4-0.9-0.7
			c-0.1,0.1-0.2,0.1-0.3,0.2c-0.2-0.1-0.4-0.2-0.6-0.3c-3.7-1.8-7.3-3.5-14.3-3.6c-0.1-0.2-0.2-0.4-0.4-0.7
			c-0.1-0.1-0.5-0.2-0.8-0.2c-0.3,0.3-1,0.7-1,1c-2.5,0.1-4.5,0.4-6.3,0.9c-0.2-0.4-0.3-0.8-0.7-1.2c1.2-0.3,2.5-0.6,4-0.8
			c0,0.1-0.1,0.2-0.1,0.2c-0.1,0.5,0.6,0.4,1.2,0.4c0.3,0,0.6-0.2,0.9-0.2c-0.4-0.1-0.8-0.3-1.3-0.5c1-0.1,2.1-0.2,3.2-0.2
			c0.3,0.1,0.6,0.2,1.1,0.4c0.1-0.1,0.2-0.3,0.3-0.4c5,0.1,8.3,1,11.1,2.1c-0.1,0.1-0.2,0.2-0.1,0.3c0,0.1,0.2,0.2,0.3,0.4
			c0.2-0.1,0.4-0.1,0.7-0.3c0.5,0.2,1,0.5,1.5,0.7c0.3,0.3,0.6,0.6,0.9,0.9c0.1-0.1,0.1-0.2,0.3-0.4c2.7,1.3,5.4,2.6,9.3,3.2
			c0,0.3,0.1,0.5,0.2,0.8c0.1,0.1,0.4,0.3,0.6,0.4c0.2-0.2,0.3-0.4,0.5-0.6c-0.1-0.1-0.3-0.3-0.4-0.4c1.4,0.2,2.9,0.3,4.7,0.3
			C132.5,54.5,132.8,54.8,132.8,55.1z M107.7,48c-0.2-0.1-0.3-0.2-0.5-0.3c-0.1,0-0.3,0.1-0.4,0.2c0.2,0.1,0.4,0.3,0.5,0.4
			C107.5,48.2,107.6,48.1,107.7,48z M117.9,32.9c0,0.2-0.1,0.4-0.1,0.6c0,0.2,0.1,0.4,0.2,0.6c0.3-0.1,0.8-0.1,1-0.2
			c0.1-0.1,0.2-0.2,0.3-0.3C118.8,33.3,118.3,33.1,117.9,32.9z M103.8,38.1c0.1,0,0.2,0.1,0.3,0.2c0.1,0.1,0.3,0.3,0.4,0.3
			c0.2,0,0.5-0.2,0.5-0.3c0-0.1,0-0.1,0-0.2C104.7,38.1,104.3,38.1,103.8,38.1z M104.1,38.8c-0.2,0.2-0.4,0.4-0.5,0.5
			c0.2,0,0.5,0,0.7,0c0.1-0.1,0.1-0.1,0.2-0.2C104.5,39.1,104.3,39,104.1,38.8z M100.2,38.3c0.2,0,0.6,0.1,0.9,0.2
			c0.7,0.3,0.7,0.4,1.6,0c0.2-0.1,0.4-0.2,0.6-0.3c0.2-0.1,0.2-0.2,0.3-0.2c-0.5,0-1.1,0-1.6,0c-1,0-2,0-2.9,0.1
			C99.2,38.4,99.5,38.5,100.2,38.3z M115.4,31.9c0.2,0.2,0.3,0.5,0.3,0.8c0,0.4-0.2,0.5-0.8,0.2c-0.1,0-0.1,0-0.2-0.1
			c0.4,0.2,0.8,0.4,1.2,0.5c0.6-0.1,1.2-0.4,1.3-0.8c-0.7-0.3-1.4-0.7-2.2-1C115.1,31.6,115.3,31.7,115.4,31.9z M91.6,22.5
			c-0.1,0.1-0.1,0.2-0.2,0.3c0.3-0.1,0.7-0.2,1-0.3c-0.1-0.1-0.2-0.1-0.3-0.2C92,22.3,91.7,22.3,91.6,22.5z M86.8,24.1
			c0.2-0.1,0.3-0.2,0.5-0.3c-0.2,0-0.6-0.1-0.7-0.1c-0.2,0.1-0.2,0.3-0.3,0.4C86.5,24.1,86.6,24.1,86.8,24.1z M119,34.6
			c-0.2,0-0.3,0-0.5,0c0.2,0.1,0.6,0.2,0.6,0.2C119.1,34.8,119,34.7,119,34.6z"/>
	</defs>
	<clipPath id="SVGID_00000132082089861771938590000008574923907874061243_">
		<use xlink:href="#SVGID_00000102505510731014520180000002785020733880902023_"  style="overflow:visible;"/>
	</clipPath>
	<path style="clip-path:url(#SVGID_00000132082089861771938590000008574923907874061243_);fill:#3F3F3F;" d="M132.8,27.7
		c0,0.4-0.3,0.6-0.7,0.6c-7.7,0-11.6-1.9-15.4-3.7c-3.8-1.8-7.4-3.6-14.8-3.6c-3.7,0-6.4,0.4-8.7,1.1c-2.3,0.7-4.2,1.6-6.1,2.5
		c-0.1,0-0.2,0.1-0.3,0.1c-3.7,1.8-7.6,3.6-15.1,3.6c-7.7,0-11.6-1.9-15.4-3.7c-3.8-1.8-7.4-3.6-14.9-3.6c-0.4,0-0.6-0.3-0.6-0.6
		c0-0.4,0.3-0.6,0.6-0.6c7.7,0,11.6,1.9,15.4,3.7c3.8,1.8,7.4,3.6,14.8,3.6c7.4,0,11-1.7,14.8-3.6c0.1,0,0.2-0.1,0.3-0.1
		c1.6-0.8,3.3-1.6,5.3-2.2c2.5-0.8,5.6-1.4,9.8-1.4c7.7,0,11.6,1.9,15.4,3.7c3.8,1.8,7.4,3.6,14.8,3.6
		C132.5,27.1,132.8,27.4,132.8,27.7z M132.2,36.2c-7.4,0-11-1.7-14.8-3.6c-3.8-1.8-7.7-3.7-15.4-3.7c-3.6,0-6.4,0.4-8.7,1
		c-2.5,0.7-4.5,1.6-6.4,2.5c-0.1,0-0.2,0.1-0.3,0.1c-3.8,1.8-7.4,3.6-14.8,3.6c-7.4,0-11-1.7-14.8-3.6c-3.8-1.8-7.7-3.7-15.4-3.7
		c-0.4,0-0.6,0.3-0.6,0.6c0,0.4,0.3,0.7,0.6,0.7c7.4,0,11,1.7,14.9,3.6c3.8,1.8,7.7,3.7,15.4,3.7c7.5,0,11.4-1.8,15.1-3.6
		c0.1,0,0.2-0.1,0.3-0.1c1.6-0.8,3.1-1.5,4.9-2.1c2.6-0.9,5.6-1.5,9.9-1.5c7.4,0,11,1.7,14.8,3.6c3.8,1.8,7.7,3.7,15.4,3.7
		c0.4,0,0.7-0.3,0.7-0.7C132.8,36.5,132.5,36.2,132.2,36.2z M132.2,45.3c-7.4,0-11-1.7-14.8-3.6c-3.8-1.8-7.7-3.7-15.4-3.7
		c-3.8,0-6.6,0.5-9,1.1c-2.4,0.7-4.2,1.6-6.1,2.4c-0.1,0-0.2,0.1-0.3,0.1c-3.8,1.8-7.4,3.6-14.8,3.6c-7.4,0-11-1.7-14.8-3.6
		C53,39.9,49.1,38,41.4,38c-0.4,0-0.6,0.3-0.6,0.6c0,0.4,0.3,0.6,0.6,0.6c7.4,0,11,1.7,14.9,3.6c3.8,1.8,7.7,3.7,15.4,3.7
		c7.5,0,11.4-1.8,15.1-3.6c0.1,0,0.2-0.1,0.3-0.1c1.9-0.9,3.8-1.8,6.1-2.5c2.3-0.7,5-1.1,8.7-1.1c7.4,0,11,1.7,14.8,3.6
		c3.8,1.8,7.7,3.7,15.4,3.7c0.4,0,0.7-0.3,0.7-0.6C132.8,45.6,132.5,45.3,132.2,45.3z M132.2,54.5c-7.4,0-11-1.7-14.8-3.6
		c-3.8-1.8-7.7-3.7-15.4-3.7c-3.6,0-6.4,0.4-8.7,1c-2.5,0.7-4.5,1.6-6.4,2.5c-0.1,0-0.2,0.1-0.3,0.1c-3.8,1.8-7.4,3.6-14.8,3.6
		c-7.4,0-11-1.7-14.8-3.6c-3.8-1.8-7.7-3.7-15.4-3.7c-0.4,0-0.6,0.3-0.6,0.6c0,0.4,0.3,0.7,0.6,0.7c7.4,0,11,1.7,14.9,3.6
		c3.8,1.8,7.7,3.7,15.4,3.7c7.5,0,11.4-1.8,15.1-3.6c0.1,0,0.2-0.1,0.3-0.1c1.6-0.8,3.1-1.5,4.9-2.1c2.6-0.9,5.6-1.5,10-1.5
		c7.4,0,11,1.7,14.8,3.6c3.8,1.8,7.7,3.7,15.4,3.7c0.4,0,0.7-0.3,0.7-0.7C132.8,54.8,132.5,54.5,132.2,54.5z"/>
</g>
</svg>
