<?xml version="1.0" encoding="utf-8"?>
<!-- Generator: Adobe Illustrator 25.4.1, SVG Export Plug-In . SVG Version: 6.00 Build 0)  -->
<svg version="1.1" id="레이어_1" xmlns="http://www.w3.org/2000/svg" xmlns:xlink="http://www.w3.org/1999/xlink" x="0px"
	 y="0px" viewBox="0 0 92.9 93" style="enable-background:new 0 0 92.9 93;" xml:space="preserve">
<style type="text/css">
	.st0{fill:#F57E25;}
	.st1{fill:#E62411;}
</style>
<g>
	<g>
		<path class="st0" d="M92.9,34.7c0,2.7-2.6,4.9-5.8,4.9H5.8c-3.2,0-5.8-2.2-5.8-4.9v-7.4c0-2.7,2.6-4.9,5.8-4.9h81.4
			c3.2,0,5.8,2.2,5.8,4.9V34.7z"/>
	</g>
</g>
<g>
	<g>
		<g>
			<path class="st0" d="M8.8,42.4V87c0,3.3,2.8,5.9,6.1,5.9H78c3.4,0,6.1-2.7,6.1-5.9V42.4H8.8z"/>
		</g>
	</g>
</g>
<g>
	<path class="st1" d="M76.8,14.2L70.2,2.5c-1.6-3-4.8-3.3-7-0.8L46.9,20L30.6,1.7c-2.2-2.5-5.4-2.2-7,0.8l-6.5,11.8
		c-1.6,2.9-0.3,5.8,3.1,6.4l18.3,3.1V93h15.8V23.9l19.4-3.3C77,20.1,78.4,17.2,76.8,14.2z M23.8,13.8l3-5.3C27.5,7.1,29,7,30,8.1
		l12,11.2c1,1.1,0.6,1.9-0.9,1.6l-15.9-4.2C23.7,16.4,23.1,15.1,23.8,13.8z M68.6,16.6l-16.3,4.6c-1.5,0.3-1.9-0.5-0.9-1.6L63.8,8.1
		c1-1.1,2.4-1,3.2,0.3l3,5.3C70.7,15.1,70.1,16.4,68.6,16.6z"/>
</g>
</svg>
