<?xml version="1.0" encoding="utf-8"?>
<!-- Generator: Adobe Illustrator 25.4.1, SVG Export Plug-In . SVG Version: 6.00 Build 0)  -->
<svg version="1.1" id="레이어_1" xmlns="http://www.w3.org/2000/svg" xmlns:xlink="http://www.w3.org/1999/xlink" x="0px"
	 y="0px" viewBox="0 0 79.3 84.7" style="enable-background:new 0 0 79.3 84.7;" xml:space="preserve">
<style type="text/css">
	.st0{fill:#F57E25;}
	.st1{fill:#E62411;}
</style>
<g>
	<g>
		<g>
			<g>
				<g>
					<path class="st0" d="M28.8,65.9h-1.8v11.2h1.8c1.1,0,2-0.9,2-2v-7.1C30.9,66.8,30,65.9,28.8,65.9z"/>
				</g>
			</g>
		</g>
		<g>
			<g>
				<g>
					<path class="st0" d="M6.2,55v26c0,2,1.6,3.6,3.6,3.6h9.9c2,0,3.6-1.6,3.6-3.6V55H6.2z"/>
				</g>
			</g>
		</g>
		<g>
			<g>
				<path class="st1" d="M25.3,14.7H2.6c-1.4,0-2.6,1.2-2.6,2.6v31.5c0,1.4,1.1,2.6,2.6,2.6h22.7V14.7z"/>
			</g>
		</g>
		<g>
			<g>
				<path class="st1" d="M76.3,23.3h-7.1v19.3h7.1c1.6,0,3-1.3,3-3V26.3C79.3,24.6,78,23.3,76.3,23.3z"/>
			</g>
		</g>
		<g>
			<g>
				<path class="st0" d="M65.3,0.8C65.3,0.8,65.3,0.8,65.3,0.8c-0.4-0.8-1.2-1.1-2.2-0.7L63,0.3c0,0-34,14.4-34,14.4v36.6
					c0.1,0,34,14.4,34,14.4l0.1,0.1c1,0.4,1.8,0.1,2.2-0.6c0,0,0,0,0,0c0.1-0.3,0.2-0.5,0.2-0.9V1.7C65.5,1.4,65.4,1.1,65.3,0.8z"/>
			</g>
		</g>
	</g>
</g>
</svg>
