<?xml version="1.0" encoding="utf-8"?>
<!-- Generator: Adobe Illustrator 25.4.1, SVG Export Plug-In . SVG Version: 6.00 Build 0)  -->
<svg version="1.1" id="레이어_1" xmlns="http://www.w3.org/2000/svg" xmlns:xlink="http://www.w3.org/1999/xlink" x="0px"
	 y="0px" viewBox="0 0 106.1 99.7" style="enable-background:new 0 0 106.1 99.7;" xml:space="preserve">
<style type="text/css">
	.st0{fill:#F57E25;}
	.st1{fill:#E62411;}
	.st2{fill:#FFFFFF;}
</style>
<g>
	<path class="st0" d="M83.5,95.6c0,2.3-1.8,4.1-4.1,4.1H4.1c-2.3,0-4.1-1.8-4.1-4.1V7.5c0-2.3,1.8-4.1,4.1-4.1h75.3
		c2.3,0,4.1,1.8,4.1,4.1V95.6z"/>
	<path class="st1" d="M58.2,13.9c0,1-0.8,1.9-1.9,1.9H27.2c-1,0-1.9-0.8-1.9-1.9v-12c0-1,0.8-1.9,1.9-1.9h29.1c1,0,1.9,0.8,1.9,1.9
		V13.9z"/>
	<g>
		<rect x="18.4" y="29.5" class="st2" width="46.6" height="4.9"/>
		<rect x="18.4" y="42.8" class="st2" width="46.6" height="4.9"/>
		<rect x="18.4" y="56.1" class="st2" width="46.6" height="4.9"/>
		<rect x="18.4" y="69.4" class="st2" width="39.9" height="4.9"/>
	</g>
	<g>
		<polygon class="st0" points="101.5,43.4 90.4,32.6 95,27.9 106.1,38.7 		"/>
		<polygon class="st1" points="100.1,45 75.6,70 64.5,59.2 89,34.2 		"/>
		<polygon class="st1" points="60.9,74.2 68.2,72.1 62.7,66.8 		"/>
		<polygon class="st2" points="64.5,59.2 62.7,66.8 68.2,72.1 75.6,70 		"/>
	</g>
</g>
</svg>
