<?xml version="1.0" encoding="utf-8"?>
<!-- Generator: Adobe Illustrator 25.4.1, SVG Export Plug-In . SVG Version: 6.00 Build 0)  -->
<svg version="1.1" id="레이어_1" xmlns="http://www.w3.org/2000/svg" xmlns:xlink="http://www.w3.org/1999/xlink" x="0px"
	 y="0px" viewBox="0 0 60.9 60.2" style="enable-background:new 0 0 60.9 60.2;" xml:space="preserve">
<style type="text/css">
	.st0{fill:none;stroke:#FFFFFF;stroke-width:2.5;stroke-linejoin:round;stroke-miterlimit:10;}
	.st1{fill:none;stroke:#FFFFFF;stroke-width:2.5;stroke-miterlimit:10;}
</style>
<line class="st0" x1="46" y1="16.8" x2="14.9" y2="16.8"/>
<g>
	<g>
		<path class="st0" d="M52.8,26v-13c0-2.2,1.4-3.9,3.3-3.9c1.9,0,3.5,1.7,3.5,3.9v25.2L48.1,53.3c0,0-1.3,1.5-0.9,6.8"/>
		<path class="st1" d="M33.4,60.2l0-11.7c0-4.5,5.3-7.6,5.3-7.6c2.4-1.6,5.1-4.4,5.1-4.4l4.5-4.9c1.9-2,4.6-2.6,6-1.3
			c1.4,1.3,1.1,4-0.8,6.1l-6.4,6.9"/>
	</g>
	<g>
		<path class="st0" d="M8.1,26v-13c0-2.2-1.4-3.9-3.3-3.9c-1.9,0-3.5,1.7-3.5,3.9v25.2l11.5,15.1c0,0,1.3,1.5,0.9,6.8"/>
		<path class="st1" d="M27.5,60.2l0-11.7c0-4.5-5.3-7.6-5.3-7.6c-2.4-1.6-5.1-4.4-5.1-4.4l-4.5-4.9c-1.9-2-4.6-2.6-6-1.3
			c-1.4,1.3-1.1,4,0.8,6.1l6.4,6.9"/>
	</g>
</g>
<g>
	<line class="st0" x1="30.5" y1="32.3" x2="30.5" y2="1.3"/>
	<g>
		<path class="st0" d="M29.2,1.5c0,0-15.1,13.1,0,30.4"/>
		<path class="st0" d="M31.7,1.5c0,0,15.1,13.1,0,30.4"/>
	</g>
	<path class="st0" d="M30.5,1.2C39,1.2,46,8.2,46,16.8c0,8.6-7,15.5-15.5,15.5c-8.6,0-15.5-7-15.5-15.5C14.9,8.2,21.9,1.2,30.5,1.2z
		"/>
</g>
</svg>
