<?xml version="1.0" encoding="utf-8"?>
<!-- Generator: Adobe Illustrator 25.4.1, SVG Export Plug-In . SVG Version: 6.00 Build 0)  -->
<svg version="1.1" id="레이어_1" xmlns="http://www.w3.org/2000/svg" xmlns:xlink="http://www.w3.org/1999/xlink" x="0px"
	 y="0px" viewBox="0 0 81.6 49.5" style="enable-background:new 0 0 81.6 49.5;" xml:space="preserve">
<style type="text/css">
	.st0{fill:none;stroke:#FFFFFF;stroke-width:2.5;stroke-linejoin:round;stroke-miterlimit:10;}
	.st1{fill:none;stroke:#FFFFFF;stroke-width:2.5;stroke-linecap:round;stroke-linejoin:round;stroke-miterlimit:10;}
	.st2{fill:#FFFFFF;}
</style>
<g>
	<g>
		<line class="st0" x1="33.2" y1="32.5" x2="18.7" y2="32.5"/>
	</g>
	<g>
		<path class="st1" d="M21.2,23c0,0-0.5,7.5-4.5,12.8c0,0-2.2,8,1.5,12.5H6.6l0-11c0-6-3.7-6.6-4.9-14.2
			C-3.6-10.5,39.8,4.7,39.8,4.7l18.7,0c0,0,0.6-2.2,2.7-2.2c1.1,0,2.2-0.1,3.1,2.7l5.4,0.8c0,0,6.1,4.4,10.6,8.6
			c0,0-0.9,1.7-2.3,4.5l-9.4,1.7c0,0-6.5,1.2-10,3.2c0,0-4.9,4.6-10.3,6.2"/>
	</g>
	<g>
		<path class="st1" d="M37.4,23.8c0,0-1.7,9,5.8,23.8h10.7l-3.1-4.2c0,0-5.7-9.5-1.2-19.3"/>
	</g>
</g>
<path class="st2" d="M68.5,9.8c1.1,0,2,0.9,2,2c0,1.1-0.9,2-2,2c-1.1,0-2-0.9-2-2C66.4,10.7,67.4,9.8,68.5,9.8z"/>
<path class="st2" d="M77.8,12.6c1.1,0,2,0.9,2,2s-0.9,2-2,2c-1.1,0-2-0.9-2-2S76.6,12.6,77.8,12.6z"/>
</svg>
