<?xml version="1.0" encoding="utf-8"?>
<!-- Generator: Adobe Illustrator 25.4.1, SVG Export Plug-In . SVG Version: 6.00 Build 0)  -->
<svg version="1.1" id="레이어_1" xmlns="http://www.w3.org/2000/svg" xmlns:xlink="http://www.w3.org/1999/xlink" x="0px"
	 y="0px" viewBox="0 0 367.7 464.9" style="enable-background:new 0 0 367.7 464.9;" xml:space="preserve">
<style type="text/css">
	.st0{fill:#1E9393;}
</style>
<g>
	<path class="st0" d="M104.4,0.1c0,7.8-6.3,14.1-14.1,14.1c-7.8,0-14.1-6.3-14.1-14.1h-17c0,7.8-6.3,14.1-14.1,14.1
		c-7.8,0-14.1-6.3-14.1-14.1H14.1l0,1.7c0,7.8-6.3,14.1-14.1,14.1v0.2v18.2c7.8,0,14.1,6.3,14.1,14.1c0,7.7-6.1,13.9-13.8,14.1
		c-0.1,0-0.2,0-0.4,0v17c7.8,0,14.1,6.3,14.1,14.1c0,7.8-6.3,14.1-14.1,14.1v17.5c7.8,0,14.1,6.3,14.1,14.1c0,0.1,0,0.2,0,0.3
		c0,0.1,0,0.2,0,0.3c0,7.8-6.3,14.1-14.1,14.1v17.5c7.8,0,14.1,6.3,14.1,14.1c0,0,0,0,0,0c0,0,0,0,0,0c0,7.8-6.3,14.1-14.1,14.1
		v18.1c7.8,0,14.1,6.3,14.1,14.1c0,0,0,0,0,0c0,0,0,0,0,0c0,7.8-6.3,14.1-14.1,14.1v18.1c7.8,0,14.1,6.3,14.1,14.1c0,0,0,0,0,0
		c0,0,0,0,0,0c0,7.8-6.3,14.1-14.1,14.1v0.1v17.5c7.8,0,14.1,6.3,14.1,14.1c0,0,0,0,0,0c0,0,0,0,0,0c0,7.8-6.3,14.1-14.1,14.1v18.1
		c7.8,0,14.1,6.3,14.1,14.1c0,0,0,0,0,0c0,0,0,0,0,0c0,7.8-6.3,14.1-14.1,14.1v18.1c7.8,0,14.1,6.3,14.1,14.1c0,0,0,0,0,0
		c0,0,0,0,0,0c0,7.8-6.3,14.1-14.1,14.1v0.4v18.2c7.8,0,14.1,6.3,14.1,14.1c0,0.2,0,0.3,0,0.5h16.8c0,0,0-0.1,0-0.1
		c0-7.8,6.3-14.1,14.1-14.1c7.8,0,14.1,6.3,14.1,14.1c0,0,0,0.1,0,0.1h17.1c0,0,0-0.1,0-0.1c0-7.8,6.3-14.1,14.1-14.1
		c7.8,0,14.1,6.3,14.1,14.1c0,0,0,0.1,0,0.1h17.5c0,0,0-0.1,0-0.1c0-7.8,6.3-14.1,14.1-14.1c0.1,0,0.2,0,0.3,0c0.1,0,0.2,0,0.3,0
		c7.8,0,14.1,6.3,14.1,14.1c0,0,0,0.1,0,0.1h17.5c0,0,0-0.1,0-0.1c0-7.8,6.3-14.1,14.1-14.1c0,0,0,0,0,0c0,0,0,0,0,0
		c7.8,0,14.1,6.3,14.1,14.1c0,0,0,0.1,0,0.1h18.1c0,0,0-0.1,0-0.1c0-7.8,6.3-14.1,14.1-14.1c0,0,0,0,0,0c0,0,0,0,0,0
		c7.8,0,14.1,6.3,14.1,14.1c0,0,0,0.1,0,0.1h18.1c0,0,0-0.1,0-0.1c0-7.8,6.3-14.1,14.1-14.1c0,0,0,0,0,0c0,0,0,0,0,0
		c7.8,0,14.1,6.3,14.1,14.1c0,0,0,0.1,0,0.1h0.3h18.1c0,0,0-0.1,0-0.1c0-7.8,6.3-14.1,14.1-14.1c0,0,0,0,0,0c0,0,0,0,0,0
		c7.8,0,14.1,6.3,14.1,14.1c0,0,0,0.1,0,0.1l0.1,0h17.3c0-0.2,0-0.3,0-0.5c0-7.8,6.3-14.1,14.1-14.1v-18.2v-0.6
		c-7.8,0-14.1-6.3-14.1-14.1c0,0,0,0,0,0c0,0,0,0,0,0c0-7.8,6.3-14.1,14.1-14.1V385c-7.8,0-14.1-6.3-14.1-14.1c0,0,0,0,0,0
		c0,0,0,0,0,0c0-7.8,6.3-14.1,14.1-14.1v-18.1c-7.8,0-14.1-6.3-14.1-14.1c0,0,0,0,0,0c0,0,0,0,0,0c0-7.8,6.3-14.1,14.1-14.1v-17.5
		v-0.1c-7.8,0-14.1-6.3-14.1-14.1c0,0,0,0,0,0c0,0,0,0,0,0c0-7.8,6.3-14.1,14.1-14.1v-18.1c-7.8,0-14.1-6.3-14.1-14.1c0,0,0,0,0,0
		c0,0,0,0,0,0c0-7.8,6.3-14.1,14.1-14.1v-18.1c-7.8,0-14.1-6.3-14.1-14.1c0,0,0,0,0,0c0,0,0,0,0,0c0-7.8,6.3-14.1,14.1-14.1V154
		c-7.8,0-14.1-6.3-14.1-14.1c0-0.1,0-0.2,0-0.3c0-0.1,0-0.2,0-0.3c0-7.8,6.3-14.1,14.1-14.1v-17.5c-7.8,0-14.1-6.3-14.1-14.1
		c0-7.8,6.3-14.1,14.1-14.1v-17c-0.1,0-0.2,0-0.4,0c-7.6-0.2-13.8-6.4-13.8-14.1c0-7.8,6.3-14.1,14.1-14.1V15.9
		c-7.8,0-14.1-6.3-14.1-14.1l-0.1-1.7h-17.1l-0.1,0c0,7.8-6.3,14.1-14.1,14.1c0,0,0,0,0,0c0,0,0,0,0,0c-7.8,0-14.1-6.3-14.1-14.1
		h-18.1h-0.3c0,7.8-6.3,14.1-14.1,14.1c0,0,0,0,0,0c0,0,0,0,0,0c-7.8,0-14.1-6.3-14.1-14.1h-18.1c0,7.8-6.3,14.1-14.1,14.1
		c0,0,0,0,0,0c0,0,0,0,0,0c-7.8,0-14.1-6.3-14.1-14.1h-18.1c0,7.8-6.3,14.1-14.1,14.1c0,0,0,0,0,0c0,0,0,0,0,0
		c-7.8,0-14.1-6.3-14.1-14.1h-17.5c0,7.8-6.3,14.1-14.1,14.1c-0.1,0-0.2,0-0.3,0c-0.1,0-0.2,0-0.3,0c-7.8,0-14.1-6.3-14.1-14.1
		L104.4,0"/>
</g>
</svg>
