<?xml version="1.0" encoding="utf-8"?>
<!-- Generator: Adobe Illustrator 25.4.1, SVG Export Plug-In . SVG Version: 6.00 Build 0)  -->
<svg version="1.1" id="레이어_1" xmlns="http://www.w3.org/2000/svg" xmlns:xlink="http://www.w3.org/1999/xlink" x="0px"
	 y="0px" viewBox="0 0 542.2 274.9" style="enable-background:new 0 0 542.2 274.9;" xml:space="preserve">
<style type="text/css">
	.st0{fill:#2A71C1;}
</style>
<g>
	<path class="st0" d="M0.1,196.8c9.1,0,16.5,4.7,16.5,10.6c0,5.8-7.4,10.6-16.5,10.6v12.7c9.1,0,16.5,4.7,16.5,10.6
		c0,5.8-7.4,10.6-16.5,10.6v12.5H2c9.1,0,16.5,4.7,16.5,10.6h0.2H40c0-5.8,7.4-10.6,16.5-10.6c9,0,16.3,4.6,16.5,10.3
		c0,0.1,0,0.2,0,0.3h19.9c0-5.8,7.4-10.6,16.5-10.6s16.5,4.7,16.5,10.6h20.4c0-5.8,7.4-10.6,16.5-10.6c0.1,0,0.3,0,0.4,0
		c0.1,0,0.3,0,0.4,0c9.1,0,16.5,4.7,16.5,10.6h20.4c0-5.8,7.4-10.6,16.5-10.6l0,0l0,0c9.1,0,16.5,4.7,16.5,10.6h21.1
		c0-5.8,7.4-10.6,16.5-10.6l0,0l0,0c9.1,0,16.5,4.7,16.5,10.6h21.1c0-5.8,7.4-10.6,16.5-10.6l0,0l0,0c9.1,0,16.5,4.7,16.5,10.6h0.1
		h20.4c0-5.8,7.4-10.6,16.5-10.6l0,0l0,0c9.1,0,16.5,4.7,16.5,10.6h21.1c0-5.8,7.4-10.6,16.5-10.6l0,0l0,0c9.1,0,16.5,4.7,16.5,10.6
		h21.1c0-5.8,7.4-10.6,16.5-10.6l0,0l0,0c9.1,0,16.5,4.7,16.5,10.6h0.5h21.2c0-5.8,7.4-10.6,16.5-10.6c0.2,0,0.4,0,0.6,0v-12.5
		c-0.1,0-0.1,0-0.1,0c-9.1,0-16.5-4.7-16.5-10.6c0-5.8,7.4-10.6,16.5-10.6h0.1v-12.8c-0.1,0-0.1,0-0.1,0c-9.1,0-16.5-4.7-16.5-10.6
		c0-5.8,7.4-10.6,16.5-10.6h0.1v-13.1c-0.1,0-0.1,0-0.1,0c-9.1,0-16.5-4.7-16.5-10.6c0-0.1,0-0.2,0-0.3s0-0.2,0-0.3
		c0-5.8,7.4-10.6,16.5-10.6h0.1V149c-0.1,0-0.1,0-0.1,0c-9.1,0-16.5-4.7-16.5-10.6l0,0l0,0c0-5.8,7.4-10.6,16.5-10.6h0.1v-13.6
		c-0.1,0-0.1,0-0.1,0c-9.1,0-16.5-4.7-16.5-10.6l0,0l0,0c0-5.8,7.4-10.6,16.5-10.6h0.1V79.6c-0.1,0-0.1,0-0.1,0
		c-9.1,0-16.5-4.7-16.5-10.6l0,0l0,0c0-5.8,7.4-10.6,16.5-10.6h0.1v-0.2V44.7c-0.1,0-0.1,0-0.1,0c-9.1,0-16.5-4.7-16.5-10.6l0,0l0,0
		c0-5.8,7.4-10.6,16.5-10.6h0.1v-0.1V10.5c-0.2,0-0.4,0-0.6,0c-9.1,0-16.5-4.7-16.5-10.6h-21.2h-0.8c0,5.8-7.4,10.6-16.5,10.6l0,0
		l0,0c-9.1,0-16.5-4.7-16.5-10.6H449c0,5.8-7.4,10.6-16.5,10.6l0,0l0,0C423.4,10.6,416,5.8,416,0h-21.1c0,5.8-7.4,10.6-16.5,10.6
		l0,0l0,0c-9.1,0-16.5-4.7-16.5-10.6h-20.4h-0.1c0,5.8-7.4,10.6-16.5,10.6l0,0l0,0c-9.1,0-16.5-4.7-16.5-10.6h-21.1
		c0,5.8-7.4,10.6-16.5,10.6l0,0l0,0c-9.1,0-16.5-4.7-16.5-10.6h-21.1c0,5.8-7.4,10.6-16.5,10.6l0,0l0,0C207.4,10.6,200,5.8,200,0
		h-20.4c0,5.8-7.4,10.6-16.5,10.6c-0.1,0-0.3,0-0.4,0c-0.1,0-0.3,0-0.4,0c-9.1,0-16.5-4.7-16.5-10.6h-20.4c0,5.8-7.4,10.6-16.5,10.6
		S92.4,5.9,92.4,0H72.7c0,0.1,0,0.2,0,0.3C72.4,6,65.2,10.6,56.2,10.6c-9.1,0-16.5-4.7-16.5-10.6H18.5c0,5.8-7.4,10.6-16.5,10.6
		l-1.9,0.1v12.8v0.1c9.1,0,16.5,4.7,16.5,10.6l0,0l0,0c0,5.8-7.4,10.6-16.5,10.6v13.5v0.2c9.1,0,16.5,4.7,16.5,10.6l0,0l0,0
		c0,5.8-7.4,10.6-16.5,10.6v13.5c9.1,0,16.5,4.7,16.5,10.6l0,0l0,0c0,5.8-7.4,10.6-16.5,10.6v13.5c9.1,0,16.5,4.7,16.5,10.6l0,0l0,0
		c0,5.8-7.4,10.6-16.5,10.6v13.1c9.1,0,16.5,4.7,16.5,10.6c0,0.1,0,0.2,0,0.3s0,0.2,0,0.3c0,5.8-7.4,10.6-16.5,10.6L0,196.8"/>
</g>
</svg>
