<?xml version="1.0" encoding="utf-8"?>
<!-- Generator: Adobe Illustrator 25.4.1, SVG Export Plug-In . SVG Version: 6.00 Build 0)  -->
<svg version="1.1" id="레이어_1" xmlns="http://www.w3.org/2000/svg" xmlns:xlink="http://www.w3.org/1999/xlink" x="0px"
	 y="0px" viewBox="0 0 330 330" style="enable-background:new 0 0 330 330;" xml:space="preserve">
<style type="text/css">
	.st0{fill:#FFFFFF;}
	.st1{fill:#E62411;}
</style>
<g>
	<ellipse transform="matrix(0.7071 -0.7071 0.7071 0.7071 -68.3452 164.9999)" class="st0" cx="165" cy="165" rx="159" ry="159"/>
	<g>
		<path class="st1" d="M165,12c40.9,0,79.3,15.9,108.2,44.8C302.1,85.7,318,124.1,318,165c0,40.9-15.9,79.3-44.8,108.2
			S205.9,318,165,318c-40.9,0-79.3-15.9-108.2-44.8S12,205.9,12,165c0-40.9,15.9-79.3,44.8-108.2C85.7,27.9,124.1,12,165,12 M165,0
			C73.9,0,0,73.9,0,165c0,91.1,73.9,165,165,165s165-73.9,165-165C330,73.9,256.1,0,165,0L165,0z"/>
	</g>
</g>
<g>
	<g>
		<path class="st1" d="M165,23c37.9,0,73.6,14.8,100.4,41.6C292.2,91.4,307,127.1,307,165c0,37.9-14.8,73.6-41.6,100.4
			C238.6,292.2,202.9,307,165,307c-37.9,0-73.6-14.8-100.4-41.6C37.8,238.6,23,202.9,23,165c0-37.9,14.8-73.6,41.6-100.4
			C91.4,37.8,127.1,23,165,23 M165,19C84.4,19,19,84.4,19,165c0,80.6,65.4,146,146,146c80.6,0,146-65.4,146-146
			C311,84.4,245.6,19,165,19L165,19z"/>
	</g>
</g>
<g>
	<polygon class="st1" points="164.7,32.6 169.7,42.6 180.7,44.2 172.7,51.9 174.6,62.9 164.7,57.7 154.9,62.9 156.7,51.9 
		148.8,44.2 159.8,42.6 	"/>
	<polygon class="st1" points="201.9,40.3 203.1,48 210.2,51.3 203.2,54.9 202.2,62.6 196.7,57.1 189,58.6 192.6,51.6 188.8,44.7 
		196.5,46 	"/>
	<polygon class="st1" points="127.4,40.3 126.2,48 119.1,51.3 126.1,54.9 127.1,62.6 132.6,57.1 140.3,58.6 136.7,51.6 140.5,44.7 
		132.8,46 	"/>
</g>
<g>
	<polygon class="st1" points="164.7,296.8 169.7,286.8 180.7,285.2 172.7,277.4 174.6,266.5 164.7,271.6 154.9,266.5 156.7,277.4 
		148.8,285.2 159.8,286.8 	"/>
	<polygon class="st1" points="201.9,289.1 203.1,281.4 210.2,278.1 203.2,274.5 202.2,266.8 196.7,272.3 189,270.8 192.6,277.8 
		188.8,284.6 196.5,283.4 	"/>
	<polygon class="st1" points="127.4,289.1 126.2,281.4 119.1,278.1 126.1,274.5 127.1,266.8 132.6,272.3 140.3,270.8 136.7,277.8 
		140.5,284.6 132.8,283.4 	"/>
</g>
</svg>
