<?xml version="1.0" encoding="utf-8"?>
<!-- Generator: Adobe Illustrator 25.4.1, SVG Export Plug-In . SVG Version: 6.00 Build 0)  -->
<svg version="1.1" id="레이어_1" xmlns="http://www.w3.org/2000/svg" xmlns:xlink="http://www.w3.org/1999/xlink" x="0px"
	 y="0px" viewBox="0 0 13.9 13.9" style="enable-background:new 0 0 13.9 13.9;" xml:space="preserve">
<style type="text/css">
	.st0{fill:#FFFFFF;}
</style>
<g id="Page-1">
	<g id="Group">
		<path id="Path" class="st0" d="M6.9,5.5l5.2-5.2c0.4-0.4,1-0.4,1.4,0c0.4,0.4,0.4,1,0,1.4L8.4,6.9l5.2,5.2c0.4,0.4,0.4,1,0,1.4
			c-0.4,0.4-1,0.4-1.4,0L6.9,8.4l-5.2,5.2c-0.4,0.4-1,0.4-1.4,0c-0.4-0.4-0.4-1,0-1.4l5.2-5.2L0.3,1.7c-0.4-0.4-0.4-1,0-1.4
			c0.4-0.4,1-0.4,1.4,0L6.9,5.5z"/>
	</g>
</g>
</svg>
