<?xml version="1.0" encoding="utf-8"?>
<!-- Generator: Adobe Illustrator 25.4.1, SVG Export Plug-In . SVG Version: 6.00 Build 0)  -->
<svg version="1.1" id="레이어_1" xmlns="http://www.w3.org/2000/svg" xmlns:xlink="http://www.w3.org/1999/xlink" x="0px"
	 y="0px" viewBox="0 0 14.1 14.1" style="enable-background:new 0 0 14.1 14.1;" xml:space="preserve">
<style type="text/css">
	.st0{fill:#FFFFFF;}
</style>
<path class="st0" d="M13.8,12.1L10.7,9c0,0,0,0-0.1,0c0.6-0.9,1-2,1-3.2C11.6,2.6,9,0,5.8,0C2.6,0,0,2.6,0,5.8
	c0,3.2,2.6,5.8,5.8,5.8c1.2,0,2.3-0.4,3.2-1c0,0,0,0,0,0.1l3.1,3.1c0.5,0.5,1.2,0.5,1.7,0C14.2,13.3,14.2,12.6,13.8,12.1z M5.8,9.6
	C3.7,9.6,2,7.9,2,5.8C2,3.7,3.7,2,5.8,2c2.1,0,3.8,1.7,3.8,3.8C9.6,7.9,7.9,9.6,5.8,9.6z"/>
</svg>
