<?xml version="1.0" encoding="utf-8"?>
<!-- Generator: Adobe Illustrator 25.4.1, SVG Export Plug-In . SVG Version: 6.00 Build 0)  -->
<svg version="1.1" id="레이어_1" xmlns="http://www.w3.org/2000/svg" xmlns:xlink="http://www.w3.org/1999/xlink" x="0px"
	 y="0px" viewBox="0 0 243.1 243.1" style="enable-background:new 0 0 243.1 243.1;" xml:space="preserve">
<path d="M15.7,102.4c0-47.8,38.9-86.7,86.7-86.7s86.7,38.9,86.7,86.7c0,47.8-38.9,86.7-86.7,86.7S15.7,150.2,15.7,102.4z
	 M243.1,232.4l-63.7-63.7c12.8-17.1,25.5-43.2,25.5-66.2C204.8,45.8,159,0,102.4,0S0,45.8,0,102.4C0,159,45.8,204.8,102.4,204.8
	c23,0,49.1-12.7,66.2-25.5l63.7,63.7L243.1,232.4z"/>
</svg>
