<?xml version="1.0" encoding="utf-8"?>
<!-- Generator: Adobe Illustrator 25.4.1, SVG Export Plug-In . SVG Version: 6.00 Build 0)  -->
<svg version="1.1" id="레이어_1" xmlns="http://www.w3.org/2000/svg" xmlns:xlink="http://www.w3.org/1999/xlink" x="0px"
	 y="0px" viewBox="0 0 10.1 16.1" style="enable-background:new 0 0 10.1 16.1;" xml:space="preserve">
<style type="text/css">
	.st0{opacity:0.3;}
	.st1{fill:#FFFFFF;}
</style>
<g id="Page-1_1_" class="st0">
	<g id="Group_1_">
		<g id="Path_1_">
			<path d="M2,1c0.3,0,0.5,0.1,0.7,0.3l6,6c0.4,0.4,0.4,1.1,0,1.5l-6,6C2.6,15,2.3,15.1,2,15.1S1.5,15,1.3,14.8
				c-0.4-0.4-0.4-1.1,0-1.5L6.6,8L1.3,2.8c-0.4-0.4-0.4-1.1,0-1.5C1.5,1.1,1.8,1,2,1 M2,0C1.5,0,1,0.2,0.6,0.6
				c-0.8,0.8-0.8,2.1,0,2.9L5.1,8l-4.6,4.6c-0.8,0.8-0.8,2.1,0,2.9C1,15.9,1.5,16.1,2,16.1c0.5,0,1.1-0.2,1.4-0.6l6-6
				c0.8-0.8,0.8-2.1,0-2.9l-6-6C3.1,0.2,2.6,0,2,0L2,0z"/>
		</g>
	</g>
</g>
<g id="Page-1">
	<g id="Group">
		<path id="Path" class="st1" d="M8.8,8.8l-6,6c-0.4,0.4-1.1,0.4-1.5,0c-0.4-0.4-0.4-1.1,0-1.5L6.6,8L1.3,2.8
			c-0.4-0.4-0.4-1.1,0-1.5c0.4-0.4,1.1-0.4,1.5,0l6,6C9.2,7.7,9.2,8.4,8.8,8.8L8.8,8.8z"/>
	</g>
</g>
</svg>
