<?xml version="1.0" encoding="utf-8"?>
<!-- Generator: Adobe Illustrator 25.4.1, SVG Export Plug-In . SVG Version: 6.00 Build 0)  -->
<svg version="1.1" id="레이어_1" xmlns="http://www.w3.org/2000/svg" xmlns:xlink="http://www.w3.org/1999/xlink" x="0px"
	 y="0px" viewBox="0 0 10.1 16.1" style="enable-background:new 0 0 10.1 16.1;" xml:space="preserve">
<style type="text/css">
	.st0{opacity:0.3;}
	.st1{fill:#FFFFFF;}
</style>
<g id="Page-1_1_" class="st0">
	<g id="Group_1_">
		<g id="Path_1_">
			<path d="M8,1c0.3,0,0.5,0.1,0.7,0.3c0.4,0.4,0.4,1.1,0,1.5L3.5,8l5.3,5.3c0.4,0.4,0.4,1.1,0,1.5C8.6,15,8.3,15.1,8,15.1
				S7.5,15,7.3,14.8l-6-6c-0.4-0.4-0.4-1.1,0-1.5l6-6C7.5,1.1,7.8,1,8,1 M8,0C7.5,0,7,0.2,6.6,0.6l-6,6c-0.8,0.8-0.8,2.1,0,2.9l6,6
				C7,15.9,7.5,16.1,8,16.1c0.5,0,1.1-0.2,1.4-0.6c0.8-0.8,0.8-2.1,0-2.9L4.9,8l4.6-4.6c0.8-0.8,0.8-2.1,0-2.9C9.1,0.2,8.6,0,8,0
				L8,0z"/>
		</g>
	</g>
</g>
<g id="Page-1">
	<g id="Group">
		<path id="Path" class="st1" d="M1.3,7.3l6-6c0.4-0.4,1.1-0.4,1.5,0c0.4,0.4,0.4,1.1,0,1.5L3.5,8l5.3,5.3c0.4,0.4,0.4,1.1,0,1.5
			c-0.4,0.4-1.1,0.4-1.5,0l-6-6C0.9,8.4,0.9,7.7,1.3,7.3L1.3,7.3z"/>
	</g>
</g>
</svg>
